<svg class="calendar" viewbox="0 0 993 572" xmlns="http://www.w3.org/2000/svg" xmlns:xlink="http://www.w3.org/1999/xlink">
<defs>
<lineargradient gradienttransform="matrix(1, 0, 0, -1, 0, 574)" gradientunits="userSpaceOnUse" id="linear-gradient" x1="100" x2="20" y1="194" y2="194">
<stop offset="0" stop-color="#15c8ff"></stop>
<stop offset="1" stop-color="#15c8ff" stop-opacity="0"></stop>
</lineargradient>
<lineargradient gradienttransform="matrix(1, 0, 0, -1, 0, 574)" gradientunits="userSpaceOnUse" id="linear-gradient-2" x1="119.34" x2="133.46" y1="503.52" y2="503.52">
<stop offset="0" stop-color="#ffffff"></stop>
<stop offset="1" stop-color="#6878b1"></stop>
</lineargradient>
<lineargradient gradienttransform="matrix(1, 0, 0, -1, 0, 574)" gradientunits="userSpaceOnUse" id="linear-gradient-3" x1="278.31" x2="290.56" y1="471.61" y2="471.61">
<stop offset="0" stop-color="#315676"></stop>
<stop offset="1" stop-color="#e1b9e0"></stop>
</lineargradient>
<lineargradient gradienttransform="matrix(1, 0, 0, -1, 0, 574)" gradientunits="userSpaceOnUse" id="linear-gradient-4" x1="279.79" x2="288.48" y1="470.07" y2="478.47">
<stop offset="0" stop-color="#315676"></stop>
<stop offset="0.21" stop-color="#516889"></stop>
<stop offset="0.67" stop-color="#a296ba"></stop>
<stop offset="1" stop-color="#e1b9e0"></stop>
</lineargradient>
<lineargradient id="linear-gradient-5" x1="119.32" x2="131.52" xlink:href="#linear-gradient-3" y1="354.35" y2="354.35"></lineargradient>
<lineargradient gradienttransform="matrix(1, 0, 0, -1, 0, 574)" gradientunits="userSpaceOnUse" id="linear-gradient-6" x1="118.39" x2="130.89" y1="352.83" y2="360.47">
<stop offset="0" stop-color="#315676"></stop>
<stop offset="0.08" stop-color="#375979"></stop>
<stop offset="0.18" stop-color="#496383"></stop>
<stop offset="0.2" stop-color="#4d6585"></stop>
<stop offset="0.29" stop-color="#546989"></stop>
<stop offset="0.43" stop-color="#677495"></stop>
<stop offset="0.6" stop-color="#8786a9"></stop>
<stop offset="0.78" stop-color="#b39fc4"></stop>
<stop offset="0.95" stop-color="#e1b9e0"></stop>
</lineargradient>
<lineargradient id="linear-gradient-7" x1="893" x2="973" xlink:href="#linear-gradient" y1="353" y2="353"></lineargradient>
<lineargradient id="linear-gradient-8" x1="117.56" x2="133.12" xlink:href="#linear-gradient-2" y1="34.63" y2="34.63"></lineargradient>
<lineargradient gradienttransform="matrix(1, 0, 0, -1, 0, 574)" gradientunits="userSpaceOnUse" id="linear-gradient-9" x1="122.68" x2="127.5" y1="36.59" y2="45.43">
<stop offset="0" stop-color="#ffffff"></stop>
<stop offset="0.1" stop-color="#ffffff"></stop>
<stop offset="1" stop-color="#6878b1"></stop>
</lineargradient>
</defs>
<g class="calendar-grid" fill="none" stroke="#e0e0e0" stroke-opacity="0.4" stroke-width="1.32">
<path class="calendar-stroke-h" d="M99.9,158.24H894.42"></path>
<path class="calendar-stroke-h" d="M99.9,317.14H894.42"></path>
<path class="calendar-stroke-h" d="M99.9,477.37H894.42"></path>
<path class="calendar-stroke-v" d="M259.47,0V636.94"></path>
<path class="calendar-stroke-v" d="M418.37,0V636.94"></path>
<path class="calendar-stroke-v" d="M577.28,0V636.94"></path>
<path class="calendar-stroke-v" d="M736.18,0V636.94"></path>
</g>
<circle class="calendar-today" cx="599" cy="182.74" fill="#b8b8b8" r="15.89"></circle>
<g class="calendar-dates" fill="#a7a7a7" fill-opacity="0.4" font-family="Helvetica-Bold, Helvetica, sans-serif" font-size="15.89" font-weight="700">
<text x="113.1" y="29.4">2</text>
<text x="113.1" y="188.3">9</text>
<text x="113.1" y="347.2">16</text>
<text x="113.1" y="506.1">23</text>
<text x="272.0" y="29.4">3</text>
<text x="272.0" y="188.3">10</text>
<text x="272.0" y="347.2">17</text>
<text x="272.0" y="506.1">24</text>
<text x="430.9" y="29.4">4</text>
<text x="430.9" y="188.3">11</text>
<text x="430.9" y="347.2">18</text>
<text x="430.9" y="506.1">25</text>
<text x="589.8" y="29.4">5</text>
<text fill="#fff" fill-opacity="1" x="589.8" y="188.3">12</text>
<text x="589.8" y="347.2">19</text>
<text x="589.8" y="506.1">26</text>
<text x="748.7" y="29.4">6</text>
<text x="748.7" y="188.3">13</text>
<text x="748.7" y="347.2">20</text>
<text x="748.7" y="506.1">27</text>
</g>
<g class="calendar-blocks">
<g class="calendar-block1">
<rect fill="#0076f8" height="31.78" rx="5.3" width="295.3" x="110.5" y="46.35"></rect>
<g>
<text fill="#fff" font-family="Helvetica" font-size="13.24" style="isolation: isolate" transform="translate(152.87 66.28)">Setup <tspan letter-spacing="-0.02em" x="38.28" y="0">W</tspan><tspan x="50.55" y="0">eb Server</tspan></text>
<circle cx="126.39" cy="62.24" fill="#c1e0ec" r="10.59"></circle>
<path d="M133.46,70.19a11.51,11.51,0,0,1-14.12-.07l3-1.42a2.38,2.38,0,0,0,.41-.23l.12-.09a2.91,2.91,0,0,0,.8-.94,2.84,2.84,0,0,0,.28-.91,3.14,3.14,0,0,0,.05-.61c0-.36,0-.72,0-1.07v-.6l.13.07.32.16.15,0,1.74.29,1.94.33.06,2v1l.76.3Z" fill="#f2a196"></path>
<path d="M133.46,70.19a11.51,11.51,0,0,1-14.12-.07l3-1.42a2.38,2.38,0,0,0,.41-.23l.12-.09a5.4,5.4,0,0,0,5.2.92,2.28,2.28,0,0,0,1-.87Z" fill="url(#linear-gradient-2)"></path>
<path d="M128.37,68.1a4.08,4.08,0,0,1-2-.86c-1.28-.73-2-1.68-1.78-2.73l1.74.3,1.94.33.05,2Z" fill="#e88870"></path>
<path d="M131.36,58.09a5.45,5.45,0,0,1-.7,3.55c-.64,1.44-1.55,1.61-3,2.09A26,26,0,0,0,124,65a6.62,6.62,0,0,0-.75-.77,4.77,4.77,0,0,1-1.09-5.5c1.18-2.49,4.71-2.94,7.13-2.33a2.47,2.47,0,0,1,2,1.4A1.61,1.61,0,0,1,131.36,58.09Z" fill="#ffffff"></path>
<path d="M124.46,62.51a1.06,1.06,0,1,1-1.06-1.06A1.06,1.06,0,0,1,124.46,62.51Z" fill="#f2a196"></path>
<path d="M124.68,62.51a.95.95,0,1,1-.94-.95A.95.95,0,0,1,124.68,62.51Z" fill="#e88870"></path>
<path d="M123.75,61.51l.27,3.55,4.14,2.42a1.23,1.23,0,0,0,1.54-.61c.6-1.22,1.55-3.15,1.43-3.87a2.34,2.34,0,0,0-.69-1.43l.21-1.24a3.45,3.45,0,0,0,.06-1.43c-.13-.54-.54-.77-.88-1.17a10.19,10.19,0,0,1-3.6,2.43c-.65.34-2.48,1.35-2.48,1.35Z" fill="#f2a196"></path>
<path d="M128.36,61.21h0l.06,0h0v0a.24.24,0,0,1,0,.07l.09.26c.08.21.18.49.29.77s.21.56.28.77l.1.25,0,.1h0l0,0-1.16.06v-.07l1.07,0,0-.06c0-.06-.06-.14-.09-.25s-.19-.49-.29-.77-.21-.56-.29-.77-.07-.19-.09-.26l0-.07v0h0Z" fill="#ffffff" fill-rule="evenodd"></path>
<path d="M127.5,60.76a4.91,4.91,0,0,0-1.75.05v-.06a5,5,0,0,1,1.76,0Z" fill="#ffffff" fill-rule="evenodd"></path>
<path d="M130.51,60.74a3.58,3.58,0,0,0-1.08.07v-.06a3.39,3.39,0,0,1,1.1-.07Z" fill="#ffffff" fill-rule="evenodd"></path>
<path d="M127,64.14a.12.12,0,0,1,.17,0,1.87,1.87,0,0,0,.7.35c.46.09.86-.09,1,0s0,.15-.13.26a1.28,1.28,0,0,1-.93.23,1.11,1.11,0,0,1-.77-.78A.07.07,0,0,1,127,64.14Z" fill="#fff"></path>
<path d="M126.76,61.39a.3.3,0,0,1,0,.59h0a.3.3,0,0,1,0-.59Z" fill="#ffffff"></path>
<path d="M129.89,61.31a.27.27,0,0,1,0,.54h0a.27.27,0,0,1,0-.54Z" fill="#ffffff"></path>
<path d="M129.88,56.58a17,17,0,0,0-3.88.53,16.63,16.63,0,0,0-3.68,1.37,4.77,4.77,0,0,1,7.56-1.9Z" fill="#845161"></path>
</g>
</g>
<g class="calendar-block2">
<rect fill="#8352f1" height="31.78" rx="5.3" width="454.2" x="269.4" y="88.72"></rect>
<g>
<text fill="#fff" font-family="Helvetica" font-size="13.24" style="isolation: isolate" transform="translate(311.77 108.65)"><tspan letter-spacing="-0.02em">W</tspan><tspan x="12.27" y="0">ebsite Design</tspan></text>
<circle cx="285.29" cy="104.61" fill="#e6ecc1" r="10.59"></circle>
<path d="M288.36,107a27.21,27.21,0,0,1-10.05-.56,27.46,27.46,0,0,1,2.15-6.16,5.14,5.14,0,0,1,4.4-2.71,3.92,3.92,0,0,1,3.75,1.83,12.1,12.1,0,0,1,1.24,3.52c.26,1.22.5,2.45.71,3.69C290.56,106.58,288.57,107,288.36,107Z" fill="url(#linear-gradient-3)"></path>
<path d="M292.34,112.15a11.48,11.48,0,0,1-14.11-.06l3-1.42.27-.14.07,0,.08,0a2.88,2.88,0,0,0,.91-1,3.32,3.32,0,0,0,.34-1.52c0-.36,0-.72,0-1.07v-.6l.12.07.33.16,1.88.33,1.94.33.06,2,0,1,.71.29.56.23Z" fill="#e18477"></path>
<path d="M287.23,109.1a3.75,3.75,0,0,1-1.88-.15,3.25,3.25,0,0,1-2.33-2.66l.32.16,1.89.33,1.94.33Z" fill="#a76962"></path>
<path d="M282.15,104.23a1.06,1.06,0,1,1-1.06-1.06A1.06,1.06,0,0,1,282.15,104.23Z" fill="#e18477"></path>
<path d="M282.52,104.11a1.06,1.06,0,1,1-1.06-1.06A1.06,1.06,0,0,1,282.52,104.11Z" fill="#a76962"></path>
<path d="M288.75,102.56c.77,2.69-.74,5.81-1.89,5.94a4.83,4.83,0,0,1-5.53-3.8c-.78-2.69.25-5.34,2.3-5.94s4.34,1.11,5.12,3.8Z" fill="#e18477"></path>
<path d="M286.05,106.53a1.85,1.85,0,0,1-1.2-.56l0,0a1.84,1.84,0,0,0,1.16.55Z" fill="#ffffff" fill-rule="evenodd"></path>
<path d="M286.46,99.08a2.3,2.3,0,0,1-.1.35,6.05,6.05,0,0,1-2.25,2.84c-1.25.81-2.47.78-3.87,1a11.3,11.3,0,0,0,.07-1.44,2.76,2.76,0,0,1,1-1.85c.39-.46.92-1.15,1.54-1.3l3.62-.86A3.31,3.31,0,0,1,286.46,99.08Z" fill="url(#linear-gradient-4)"></path>
<path d="M288.36,102.13a1.89,1.89,0,0,0-1.4.13l0-.06a2,2,0,0,1,1.45-.13Z" fill="#ffffff" fill-rule="evenodd"></path>
<path d="M285.45,102.43a2.23,2.23,0,0,0-1.92.06l0-.06a2.34,2.34,0,0,1,2-.06Z" fill="#ffffff" fill-rule="evenodd"></path>
<path d="M292.34,112.16a11.5,11.5,0,0,1-14.11-.07l3-1.42a3.5,3.5,0,0,0,.42-.24l.11-.08a2.89,2.89,0,0,0,.8-.94,2.93,2.93,0,0,0,.29-.91.86.86,0,0,0,.14.13,6.5,6.5,0,0,0,1.23.7c.22.09.43.16.65.23a6.24,6.24,0,0,0,2.06.22l.29,0v.34l.75.3Z" fill="#845161"></path>
<path d="M285,105.28a1.53,1.53,0,0,0-.81.38,1.6,1.6,0,0,0-.28.35l-.05,0a1.64,1.64,0,0,1,.29-.36,1.52,1.52,0,0,1,.84-.39Z" fill="#ffffff" fill-rule="evenodd"></path>
<path d="M287,101.07h-1.47V101H287Z" fill="#ffffff" fill-rule="evenodd"></path>
<path d="M287,101.56h-1.83v-.07H287Z" fill="#ffffff" fill-rule="evenodd"></path>
<path d="M285.14,103.6a.69.69,0,0,1-.23.48.67.67,0,0,1-.49.17v-.06a.61.61,0,0,0,.45-.16.6.6,0,0,0,.2-.43Z" fill="#ffffff" fill-rule="evenodd"></path>
<path d="M287.34,103.91a.56.56,0,0,1-.22-.45h.06a.56.56,0,0,0,.2.4,1.52,1.52,0,0,0,.41.24l0,.06A1.79,1.79,0,0,1,287.34,103.91Z" fill="#ffffff" fill-rule="evenodd"></path>
<path d="M287,104.83a1.09,1.09,0,0,1,.08.15.39.39,0,0,1,.06.15.12.12,0,0,1,0,.1.11.11,0,0,1-.11,0s-.06,0,0,.06a.2.2,0,0,0,.15,0,.17.17,0,0,0,.08-.12.43.43,0,0,0,0-.19l-.1-.18s-.08,0-.06,0Z" fill="#ffffff"></path>
<path d="M285.94,104.91a.38.38,0,0,0-.08.29c0,.09.11.17.2.13s0-.07,0-.06a.12.12,0,0,1-.14-.1.33.33,0,0,1,.09-.23,0,0,0,0,0-.06,0Z" fill="#ffffff"></path>
<path d="M284.58,103.19c.27,0,.48.13.48.24s-.24.19-.51.17-.49-.13-.48-.24S284.3,103.17,284.58,103.19Z" fill="#ffffff"></path>
<path d="M288.27,103.29c0,.11-.18.24-.45.28s-.51,0-.52-.13.18-.23.45-.27S288.26,103.18,288.27,103.29Z" fill="#ffffff"></path>
</g>
</g>
<g class="calendar-block3">
<rect fill="#f6d14b" height="31.78" rx="5.3" width="613.1" x="110.5" y="205.25"></rect>
<g>
<text fill="#fff" font-family="Helvetica" font-size="13.24" style="isolation: isolate" transform="translate(152.87 225.18)">Copywriting</text>
<circle cx="126.39" cy="221.14" fill="#b6c294" r="10.59"></circle>
<path d="M119.32,225.21s1.19-6.56,1.7-7.81a5.52,5.52,0,0,1,4.79-3.31,3.94,3.94,0,0,1,3.76,1.83c1,1.67,2,9.3,2,9.3Z" fill="url(#linear-gradient-5)"></path>
<path d="M133.5,228.83a11.51,11.51,0,0,1-14.12-.06l3-1.42.27-.15.07,0,.07,0a2.9,2.9,0,0,0,.91-1,3.19,3.19,0,0,0,.34-1.52c0-.35,0-.71,0-1.07,0-.2,0-.39,0-.59l.12.06.33.17,1.89.32,1.93.33.05,1.48v.51l0,1,.72.29.56.23Z" fill="#e18477"></path>
<path d="M128.37,225.26a.76.76,0,0,1-.46.14,6.68,6.68,0,0,1-3.85-2.16c0-.07,0-.13,0-.2v-.14l.13.06.32.17,1.88.32,1.94.33Z" fill="#a76962"></path>
<path d="M133.5,228.83a11.51,11.51,0,0,1-14.12-.06l3-1.42.27-.15c1.47,1.09,3.53,1.79,5.3,1a2.15,2.15,0,0,0,1.14-1.14l.56.22Z" fill="#f2d4cf"></path>
<path d="M123.45,220.82a1.06,1.06,0,1,1-1.06-1.06A1.06,1.06,0,0,1,123.45,220.82Z" fill="#e18477"></path>
<path d="M123.82,220.7a1.06,1.06,0,1,1-1.06-1.06A1.05,1.05,0,0,1,123.82,220.7Z" fill="#a76962"></path>
<path d="M129.59,219.22c.73,2.54-.82,5.6-1.78,5.6-1.31,0-4.49-1-5.22-3.58s.24-5,2.17-5.6S128.86,216.68,129.59,219.22Z" fill="#e18477"></path>
<path d="M127.42,216.13a2,2,0,0,1-.11.35,6.06,6.06,0,0,1-2.24,2.85c-1.25.82-2.47.78-3.86,1a14.78,14.78,0,0,0,.27-1.53,2.31,2.31,0,0,1,.74-1.77,3.73,3.73,0,0,1,1.54-1.3l3.61-1.43A7.2,7.2,0,0,1,127.42,216.13Z" fill="url(#linear-gradient-6)"></path>
<path d="M129.31,218.7a1.89,1.89,0,0,0-1.4.14l0-.06a2,2,0,0,1,1.45-.14Z" fill="#ffffff" fill-rule="evenodd"></path>
<path d="M126.56,219a2.26,2.26,0,0,0-1.92.07l0-.06a2.31,2.31,0,0,1,2-.06Z" fill="#ffffff" fill-rule="evenodd"></path>
<path d="M127.69,220.49h.06v0a.71.71,0,0,0,0,.14,1.27,1.27,0,0,0,.08.31l.06.1h0a.33.33,0,0,1,.06.1.36.36,0,0,1,.05.19.19.19,0,0,1-.07.12.34.34,0,0,1-.14.05l-.16,0v-.07h.15l.11,0a.14.14,0,0,0,0-.08.37.37,0,0,0,0-.15h0l-.06-.1h0a.36.36,0,0,1-.07-.1h0a1.14,1.14,0,0,1-.08-.33c0-.06,0-.11,0-.14v-.06Z" fill="#ffffff" fill-rule="evenodd"></path>
<path d="M126.72,221.37a.25.25,0,0,1,.12-.3l0,.06a.18.18,0,0,0,.11.34v.06A.24.24,0,0,1,126.72,221.37Z" fill="#ffffff" fill-rule="evenodd"></path>
<path d="M127,222.93a1.89,1.89,0,0,1-1.17-.61l0,0a1.82,1.82,0,0,0,1.13.6Z" fill="#ffffff" fill-rule="evenodd"></path>
<path d="M125.67,219.69c.27,0,.48.13.48.24s-.24.19-.51.17-.49-.13-.48-.24S125.39,219.67,125.67,219.69Z" fill="#ffffff"></path>
<path d="M129.35,219.72c0,.11-.19.23-.46.27s-.5,0-.52-.12.19-.24.46-.28S129.33,219.61,129.35,219.72Z" fill="#ffffff"></path>
</g>
</g>
<g class="calendar-block4">
<rect class="calendar-block-split1" fill="url(#linear-gradient-7)" height="32" rx="5.3" width="247" x="746" y="205"></rect>
<rect class="calendar-block-split2" fill="url(#linear-gradient)" height="32" rx="5.3" width="386" x="20" y="364"></rect>
<g>
<text fill="#fff" font-family="Helvetica" font-size="13.24" style="isolation: isolate" transform="translate(788.48 225.18)">Strategy and… </text>
<circle cx="762" cy="221.14" fill="#a88e84" r="10.59"></circle>
<path d="M769.05,229a11.48,11.48,0,0,1-14.11-.06l3-1.42a4.49,4.49,0,0,0,.42-.24l.11-.08a3.13,3.13,0,0,0,.8-.94,2.93,2.93,0,0,0,.29-.91c0-.2,0-.41,0-.61,0-.36,0-.72,0-1.07v-.6l.12.07.32.16.15,0,1.74.3,1.94.33.06,2,0,.65V227l.75.3Z" fill="#f2a196"></path>
<path d="M764,226.83a1.07,1.07,0,0,1-.63-.1l-3.71-3c0-.14,0,0,0-.13s0-.4,0-.6l.12.07.33.16.15,0,1.74.3,1.94.33,0,2,0,.65v.34Z" fill="#e88870"></path>
<path d="M769.05,229a11.48,11.48,0,0,1-14.11-.06l3-1.42a4.49,4.49,0,0,0,.42-.24l.11-.08a5.42,5.42,0,0,0,5.21.92,2.22,2.22,0,0,0,1-.88Z" fill="#ff2609"></path>
<path d="M767.94,216.56l0,.11a1.87,1.87,0,0,1-.2.53h0l-.11.19a3.94,3.94,0,0,1-.36.45l-.07.09-.16.17h.16a.62.62,0,0,1,.43.44v0a1.25,1.25,0,0,1-.2.81,8,8,0,0,1-.89,1.12c-.23.28-.36.62-.61.89l0,0v0a6.13,6.13,0,0,1-2.56,1.14,24.75,24.75,0,0,0-3.69,1.27,7,7,0,0,0-.74-.77,4.77,4.77,0,0,1-1.1-5.5,8.86,8.86,0,0,1,5.2-4.16,2.6,2.6,0,0,1,2-.06c.61.3.92,1.23.41,1.68a1.66,1.66,0,0,1,1.12-.32,1.51,1.51,0,0,1,1,.44,2,2,0,0,1,.35.51,2.25,2.25,0,0,1,.08.24,1.54,1.54,0,0,1,0,.64Z" fill="#f2d4cf"></path>
<path d="M767.94,216.56l0,.11a1.87,1.87,0,0,1-.2.53h0l-.11.19a3.94,3.94,0,0,1-.36.45l-.07.09-.16.17h.16a.62.62,0,0,1,.43.44v0a1.25,1.25,0,0,1-.2.81,7.42,7.42,0,0,1-.89,1.12c-.23.28-.36.62-.61.89l0,0v0a2.41,2.41,0,0,1-.46-1.15c-.11-.86,0-1.8-.08-2.68a3,3,0,0,1,.07-1,1.28,1.28,0,0,1,.11-.2,5.17,5.17,0,0,1,.39-.53,1.42,1.42,0,0,1,.61-.37,2.32,2.32,0,0,1,.38-.07,1.89,1.89,0,0,1,.41,0,1.38,1.38,0,0,1,.52.17,2.34,2.34,0,0,1,.09.24,1.73,1.73,0,0,1,0,.64Z" fill="#daaea8"></path>
<path d="M760.05,221.37a1.06,1.06,0,1,1-1.06-1.06A1.06,1.06,0,0,1,760.05,221.37Z" fill="#f2a196"></path>
<path d="M760.28,221.37a1,1,0,1,1-.95-1A1,1,0,0,1,760.28,221.37Z" fill="#e88870"></path>
<path d="M759.34,220.37l.28,3.55,4.14,2.42a1.22,1.22,0,0,0,1.53-.61c.6-1.22,1.55-3.15,1.43-3.86a2.35,2.35,0,0,0-.69-1.44l.21-1.24a3.45,3.45,0,0,0,.06-1.43c-.13-.53-.54-.77-.87-1.17a10.28,10.28,0,0,1-3.6,2.43c-.66.34-2.49,1.35-2.49,1.35Z" fill="#f2a196"></path>
<path d="M764,220.07H764v0a.24.24,0,0,1,0,.07l.09.26c.08.21.19.49.29.77s.21.56.29.77.07.19.09.25l0,.1h0v0l-1.16.05v-.06l1.08-.05,0-.06c0-.06,0-.15-.09-.25s-.18-.49-.29-.77-.21-.56-.28-.77l-.1-.26a.31.31,0,0,1,0-.08v0h0Z" fill="#ffffff" fill-rule="evenodd"></path>
<path d="M763.09,219.62a5.08,5.08,0,0,0-1.74,0l0-.06a5.26,5.26,0,0,1,1.77,0Z" fill="#ffffff" fill-rule="evenodd"></path>
<path d="M766.1,219.6a3.21,3.21,0,0,0-1.07.07l0-.06a3.69,3.69,0,0,1,1.1-.08Z" fill="#ffffff" fill-rule="evenodd"></path>
<path d="M762.55,223l.08-.05a.13.13,0,0,1,.09,0,1.72,1.72,0,0,0,.71.35c.45.1.85-.09,1,0s0,.15-.14.25a1.23,1.23,0,0,1-.93.23,1.08,1.08,0,0,1-.77-.78A.43.43,0,0,0,762.55,223Z" fill="#fff"></path>
<path d="M762.39,220.35a.3.3,0,0,1,0,.59h0a.3.3,0,0,1,0-.59Z" fill="#ffffff"></path>
<path d="M765.52,220.31a.27.27,0,1,1,0,.54h0a.27.27,0,0,1,0-.54Z" fill="#ffffff"></path>
</g>
</g>
<g class="calendar-block6">
<rect fill="#ff8474" height="31.78" rx="5.3" width="454.2" x="428.3" y="364.15"></rect>
<g>
<text fill="#fff" font-family="Helvetica" font-size="13.24" style="isolation: isolate" transform="translate(470.68 384.08)">Implementation</text>
<circle cx="444.19" cy="380.04" fill="#97cdd9" r="10.59"></circle>
<path d="M448.78,378.83a6,6,0,0,1-.44,1.46c-.58.87-1.71,1-2.63,1.33a.85.85,0,0,0-.17.06l-.33.1-.93.3a3,3,0,0,0-1.34.58,8,8,0,0,0-.5.65s-.06.09-.12.09-.06,0-.09-.06a3.62,3.62,0,0,1-1.3-1.22,7.83,7.83,0,0,1-1.18-5.37s0-.06,0-.09a3.15,3.15,0,0,1,.8-1.62,5.13,5.13,0,0,1,1.46-1.12,7.64,7.64,0,0,1,1-.46,6.75,6.75,0,0,1,2.35-.48,5.82,5.82,0,0,1,2.22.44,2.58,2.58,0,0,1,1.8,2.22,8.54,8.54,0,0,1-.62,3.19Z" fill="#ffffff"></path>
<path d="M442.23,380.51a1.06,1.06,0,1,1-1.06-1.06A1.05,1.05,0,0,1,442.23,380.51Z" fill="#f2a196"></path>
<path d="M442.54,380.45a1,1,0,1,1-1-1A1,1,0,0,1,442.54,380.45Z" fill="#e88870"></path>
<path d="M451.24,388.19a11.5,11.5,0,0,1-14.11-.07l3-1.42a1.76,1.76,0,0,0,.42-.24l.07,0,.05,0a2.76,2.76,0,0,0,.79-.94,3.32,3.32,0,0,0,.34-1.52c0-.18,0-.36,0-.54s0-.35,0-.53v-.59l.11.06h0l.33.17.15,0,1.73.3.69.12,1.25.21.06,2,0,.83v.16l.75.31,0,0Z" fill="#f2a196"></path>
<path d="M441.82,383l2.05,1.92a3.2,3.2,0,0,0,2.29.8l0-.83-.06-2-1.25-.21-.51.22a2.11,2.11,0,0,1-1.58-.09,2.26,2.26,0,0,1-.93-.75Z" fill="#e88870"></path>
<path d="M451.24,388.19a11.5,11.5,0,0,1-14.11-.07l3-1.42a1.76,1.76,0,0,0,.42-.24l.07,0a5.57,5.57,0,0,0,5.29.87,2.33,2.33,0,0,0,1-.84Z" fill="#845161"></path>
<path d="M448.63,381a6.91,6.91,0,0,1-.22,1.35,12.27,12.27,0,0,1-.93,2.48c-.17.29-.4.35-.77.44a3.18,3.18,0,0,1-2.63-.56l-2.27-1.67c0-.31-.09-.64-.15-1a11.31,11.31,0,0,1-.3-2.9,1.09,1.09,0,0,1,.36-.67,4.88,4.88,0,0,1,2.1-.87c.91-.24,1.85-.38,2.74-.65a3.17,3.17,0,0,0,1.77-1.12s.07.68.09.83c0,.32,0,.59.06.91a2.93,2.93,0,0,1-.06,1c-.05.23-.11.46-.15.7s0,.23.13.39a2.2,2.2,0,0,1,.23,1.29Z" fill="#f2a196"></path>
<path d="M444.46,379.28a.29.29,0,0,1,0,.58h0a.29.29,0,1,1,0-.58Z" fill="#ffffff"></path>
<path d="M447.59,379.19a.27.27,0,0,1,0,.54h0a.27.27,0,0,1,0-.54Z" fill="#ffffff"></path>
<path d="M446.42,379.53s0,0,0,0h.06v0l0,0v0l.12.24a5,5,0,0,1,.29.76h0a3.28,3.28,0,0,1,.1.93v0h-.87v-.06H447a3.71,3.71,0,0,0-.1-.88,5.7,5.7,0,0,0-.28-.75l-.12-.24,0,0s0,0,0,0v0h0Z" fill="#ffffff" fill-rule="evenodd"></path>
<path d="M448.42,382.39a12.16,12.16,0,0,1-.94,2.48c-.16.29-.4.35-.76.44a3.2,3.2,0,0,1-2.64-.56l-2.27-1.67a9.94,9.94,0,0,0-.25-1.08,1.21,1.21,0,0,1,0-.5.44.44,0,0,0,.1.23,2.65,2.65,0,0,0,1.13,1,2.09,2.09,0,0,0,1.59-.05c.43-.21.85-.48,1.3-.65a2.15,2.15,0,0,1,.94-.17,1.59,1.59,0,0,1,1,.51.63.63,0,0,0,.37.19.79.79,0,0,0,.45-.19Z" fill="#ffffff"></path>
<path d="M446.82,382.68a1.87,1.87,0,0,1-1.32.07l0-.06a1.82,1.82,0,0,0,1.28-.07Z" fill="#f2a196" fill-rule="evenodd"></path>
<path d="M445.27,378.76a4.84,4.84,0,0,0-1.74.05v-.06a5,5,0,0,1,1.76-.05Z" fill="#ffffff" fill-rule="evenodd"></path>
<path d="M448.29,378.74a3.27,3.27,0,0,0-1.08.08l0-.06a3.39,3.39,0,0,1,1.1-.08Z" fill="#ffffff" fill-rule="evenodd"></path>
<path d="M445.32,381.49a.23.23,0,0,1,.12-.29l0,.06a.17.17,0,0,0-.09.21.18.18,0,0,0,.2.13v.06A.24.24,0,0,1,445.32,381.49Z" fill="#ffffff" fill-rule="evenodd"></path>
<path d="M441.6,382.11h.06l0,0,.14.86h0l-.05-.06Z" fill="#ffffff"></path>
</g>
</g>
<g class="calendar-block7">
<rect class="calendar-block-shrink" fill="#45e9cd" height="31.78" rx="5.3" width="613.1" x="110.5" y="523.06"></rect>
<g>
<text fill="#fff" font-family="Helvetica" font-size="13.24" style="isolation: isolate" transform="translate(152.87 542.99)">Quality<tspan letter-spacing="-0.05em" x="41.21" y="0"> </tspan><tspan x="44.17" y="0">Assurance</tspan></text>
<circle cx="126.39" cy="538.95" fill="#ecc1c1" r="10.59" transform="translate(-20.59 5.25) rotate(-2.2)"></circle>
<path d="M127.55,532.27a5.5,5.5,0,0,0-2.34-.36,7.11,7.11,0,0,0-3.46,1.37,3.65,3.65,0,0,0-1.53,2c-.12.72.76,1.26.6,1.92s-1.28.43-1.49,1,1,1.49.79,2.1-1.78-.08-1.84.71c-.08,1.08,1.77,1.32,1.64,1.93s-2.2.41-2.35,1,1.48,1.78,3.69,2.41c5.95,1.69,12-1.55,11.86-2.37-.09-.45-2-.65-2-1.23s1.17-.85,1.09-1.26-1.47-.3-1.59-.76,1.51-1.14,1.39-1.78-1.2-.45-1.34-1,.86-1.2.69-1.75-1.53-.35-1.83-1.09c-.18-.43.32-.79.29-1.27s-.5-1-2.26-1.59Z" fill="url(#linear-gradient-8)"></path>
<path d="M133,546.6a11.5,11.5,0,0,1-14.12-.06l3-1.42a1.51,1.51,0,0,0,.28-.15l.07,0,.07,0a2.79,2.79,0,0,0,.91-1,3.37,3.37,0,0,0,.34-1.52c0-.36,0-.72,0-1.07,0-.2,0-.4,0-.6l.12.06.33.17,1.89.32,1.93.33.06,2,0,1,.72.29.56.22Z" fill="#e18477"></path>
<path d="M127.86,543.55a3.71,3.71,0,0,1-1.87-.15,3.26,3.26,0,0,1-2.34-2.66l.33.17,1.88.32,1.94.33Z" fill="#a76962"></path>
<path d="M122.78,538.68a1.06,1.06,0,1,1-1.06-1.06A1.06,1.06,0,0,1,122.78,538.68Z" fill="#e18477"></path>
<path d="M123.15,538.55a1.06,1.06,0,1,1-1.05-1.06A1.05,1.05,0,0,1,123.15,538.55Z" fill="#a76962"></path>
<path d="M129.38,537c.78,2.69-.73,5.81-1.89,5.94a4.84,4.84,0,0,1-5.53-3.8c-.78-2.69.26-5.35,2.31-5.94S128.6,534.32,129.38,537Z" fill="#e18477"></path>
<path d="M129,536.58a1.89,1.89,0,0,0-1.4.13l0-.06a1.94,1.94,0,0,1,1.44-.13Z" fill="#ffffff" fill-rule="evenodd"></path>
<path d="M126.08,536.88a2.23,2.23,0,0,0-1.92.06l0-.06a2.34,2.34,0,0,1,2-.06Z" fill="#ffffff" fill-rule="evenodd"></path>
<path d="M133,546.6a11.5,11.5,0,0,1-14.12-.06l3-1.42a2.86,2.86,0,0,0,.42-.24l.12-.08a3,3,0,0,0,.79-.94,2.69,2.69,0,0,0,.29-.91.75.75,0,0,0,.14.12,5.86,5.86,0,0,0,1.24.71l.65.23a5.9,5.9,0,0,0,2,.21l.29,0v.34l.76.3Z" fill="#f2d4cf"></path>
<path d="M125.71,537.94a.64.64,0,0,1-.22.48.69.69,0,0,1-.5.18v-.07a.62.62,0,0,0,.45-.15.62.62,0,0,0,.2-.44Z" fill="#ffffff" fill-rule="evenodd"></path>
<path d="M127.92,538.25a.56.56,0,0,1-.22-.44h.06a.56.56,0,0,0,.2.4,1.63,1.63,0,0,0,.4.24l0,.06A1.61,1.61,0,0,1,127.92,538.25Z" fill="#ffffff" fill-rule="evenodd"></path>
<path d="M125.67,539.73a1.49,1.49,0,0,0-.81.38,1.81,1.81,0,0,0-.28.34l0,0a2,2,0,0,1,.29-.36h0a1.59,1.59,0,0,1,.84-.39Z" fill="#ffffff" fill-rule="evenodd"></path>
<path d="M127.64,535.52h-1.48v-.07h1.48Z" fill="#ffffff" fill-rule="evenodd"></path>
<path d="M127.64,536H125.8v-.06h1.84Z" fill="#ffffff" fill-rule="evenodd"></path>
<path d="M125.25,540.36s0,0,.08-.05a.1.1,0,0,1,.09,0,1.72,1.72,0,0,0,.7.35c.46.09.85-.09.95,0s0,.15-.14.25a1.21,1.21,0,0,1-.92.23,1.07,1.07,0,0,1-.78-.78Z" fill="#fff"></path>
<path d="M127.14,533.08a2,2,0,0,0-1-.35,4.55,4.55,0,0,0-3.72,1.26,4.16,4.16,0,0,0-1.18,1.58c-.26.67-.4,2.08.63,2a3.28,3.28,0,0,0,1.28-.42,10.2,10.2,0,0,0,3-2.2,7,7,0,0,0,.58-.74c.23-.32.82-.73.4-1.14Z" fill="url(#linear-gradient-9)"></path>
<path d="M127.25,538.18a3.64,3.64,0,0,1-.13-.72h.07a2.85,2.85,0,0,0,.12.71,1.61,1.61,0,0,0,.26.48l0,0a1.28,1.28,0,0,1,.11.2h0a.59.59,0,0,1,0,.55.53.53,0,0,1-.48.27h-.26v-.06h.26a.48.48,0,0,0,.43-.24.55.55,0,0,0,0-.5,1.62,1.62,0,0,0-.1-.18h0v0a1.47,1.47,0,0,1-.27-.49Z" fill="#ffffff" fill-rule="evenodd"></path>
<path d="M125.9,539.44a.23.23,0,0,1,.12-.29l0,.05a.18.18,0,0,0,.11.34v.06A.24.24,0,0,1,125.9,539.44Z" fill="#ffffff" fill-rule="evenodd"></path>
<path d="M125.07,537.47a.3.3,0,0,1,0,.59h0a.3.3,0,0,1,0-.59Z" fill="#ffffff"></path>
<path d="M128.21,537.37a.28.28,0,0,1,0,.55h0a.28.28,0,0,1,0-.55h0Z" fill="#ffffff"></path>
</g>
</g>
</g>
</svg>
