<svg class="schedulerpro" viewbox="0 0 765 315" xmlns="http://www.w3.org/2000/svg" xmlns:xlink="http://www.w3.org/1999/xlink">
<defs>
<style>
      [data-id="scheduler-text"] {
        font-family: Helvetica, sans-serif;
        font-weight: 600;
        font-size: 12px;
      }
    </style>
<lineargradient gradienttransform="matrix(1, 0, 0, -1, 414, 2335.63)" gradientunits="userSpaceOnUse" id="linear-gradient" x1="-395.83" x2="-379.85" y1="2289.39" y2="2289.39">
<stop offset="0" stop-color="#ffffff"></stop>
<stop offset="1" stop-color="#6878b1"></stop>
</lineargradient>
<lineargradient gradienttransform="matrix(1, 0, 0, -1, 414, 2335.63)" gradientunits="userSpaceOnUse" id="linear-gradient-2" x1="-395.76" x2="-381.88" y1="2223.24" y2="2223.24">
<stop offset="0" stop-color="#315676"></stop>
<stop offset="1" stop-color="#e1b9e0"></stop>
</lineargradient>
<lineargradient gradienttransform="matrix(1, 0, 0, -1, 414, 2335.63)" gradientunits="userSpaceOnUse" id="linear-gradient-3" x1="-394.09" x2="-384.24" y1="2221.49" y2="2231.01">
<stop offset="0" stop-color="#315676"></stop>
<stop offset="0.21" stop-color="#516889"></stop>
<stop offset="0.67" stop-color="#a296ba"></stop>
<stop offset="1" stop-color="#e1b9e0"></stop>
</lineargradient>
<lineargradient id="linear-gradient-4" x1="-396.13" x2="-382.63" xlink:href="#linear-gradient" y1="2055.65" y2="2067.69"></lineargradient>
<lineargradient id="linear-gradient-5" x1="-393.06" x2="-387.92" xlink:href="#linear-gradient" y1="2065.94" y2="2071.39"></lineargradient>
<lineargradient id="linear-gradient-6" x1="-395.86" x2="-379.87" xlink:href="#linear-gradient-2" y1="2056.78" y2="2056.78"></lineargradient>
<clippath id="robert-meeting1-clip">
<rect height="42" rx="6" width="82" x="229.14" y="15.91"></rect>
</clippath>
<clippath id="robert-meeting2-clip">
<rect height="42" rx="6" width="82" x="382.14" y="15.91"></rect>
</clippath>
<clippath id="lindsey-introduction-clip">
<rect height="42" rx="6" width="276" x="229.14" y="93.91"></rect>
</clippath>
<clippath id="christopher-clip">
<rect height="42" rx="6" width="300" x="325.14" y="171.91"></rect>
</clippath>
<clippath id="anika-clip">
<rect height="42" width="221" x="229.14" y="249.91"></rect>
</clippath>
<clippath id="anika-clip2">
<rect height="42" rx="6" width="139" x="537.14" y="249.91"></rect>
</clippath>
<clippath id="brandon-clip">
<rect height="42" rx="6" width="455" x="377.14" y="327.91"></rect>
</clippath>
</defs>
<g>
<path class="schedulerpro-lindsey-stroke" d="M535.64,271.33h-6c-12.25,0-12.15-13.58-12-21.9V131.24c.18-9.71-5.94-15.87-13.46-16.38h-13" fill="none" stroke="#9e9e9e"></path>
<path class="schedulerpro-lindsey-arrow" d="M536.4,271.69a.51.51,0,0,0,0-.71l-3.18-3.18a.5.5,0,0,0-.71,0,.51.51,0,0,0,0,.71l2.83,2.82-2.83,2.83a.5.5,0,0,0,.71.71Z" fill="#9e9e9e"></path>
</g>
<g class="schedulerpro-robert">
<line class="schedulerpro-robert-stroke" fill="none" stroke="#9e9e9e" x1="306.96" x2="380.49" y1="36.96" y2="36.96"></line>
<path class="schedulerpro-robert-arrow" d="M381.55,37.31a.5.5,0,0,0,0-.7l-3.18-3.19a.5.5,0,1,0-.71.71L380.49,37l-2.83,2.83a.5.5,0,1,0,.71.71Z" fill="#9e9e9e"></path>
<g class="schedulerpro-robert-meeting1" clip-path="url(#robert-meeting1-clip)">
<rect class="schedulerpro-robert-meeting1-block" fill="#15c8ff" height="42" width="82" x="229.14" y="15.91"></rect>
<path class="schedulerpro-robert-progress" d="M229.14,21.91a6,6,0,0,1,6-6h42v42h-42a6,6,0,0,1-6-6Z" fill="#fff" fill-opacity="0.25"></path>
<text class="schedulerpro-robert-meeting1-text" data-id="scheduler-text" fill="#fff" x="246.4" y="40.8">Meeting</text>
</g>
<g class="schedulerpro-robert-meeting2" clip-path="url(#robert-meeting2-clip)">
<rect class="schedulerpro-robert-meeting2-block" fill="#15c8ff" height="42" width="82" x="382.14" y="15.91"></rect>
<text class="schedulerpro-robert-meeting2-text" data-id="scheduler-text" fill="#fff" x="399.4" y="40.8">Meeting</text>
</g>
<g class="schedulerpro-robert-name">
<g>
<circle cx="26.14" cy="36.91" fill="#c1e0ec" r="12"></circle>
<path d="M34.15,45.91a13,13,0,0,1-16-.07l3.43-1.61a2.48,2.48,0,0,0,.47-.27l.13-.09a3.2,3.2,0,0,0,.9-1.07,3.13,3.13,0,0,0,.33-1,4.2,4.2,0,0,0,.05-.7c0-.41,0-.81,0-1.22,0-.22,0-.44,0-.67l.14.07.37.19.17,0,2,.34,2.19.37.07,2.26,0,.74v.38l.86.35Z" fill="#f2a196"></path>
<path d="M34.15,45.91a13,13,0,0,1-16-.07l3.43-1.61a2.48,2.48,0,0,0,.47-.27l.13-.09c1.67,1.18,3.93,1.92,5.9,1a2.58,2.58,0,0,0,1.15-1Z" fill="url(#linear-gradient)"></path>
<path d="M28.39,43.55a4.73,4.73,0,0,1-2.25-1c-1.44-.83-2.29-1.9-2-3.09l2,.33,2.19.37.07,2.26Z" fill="#e88870"></path>
<path d="M31.78,32.21a6.16,6.16,0,0,1-.8,4c-.72,1.63-1.76,1.83-3.34,2.37-.35.12-4.18,1.21-4.18,1.44a6.93,6.93,0,0,0-.84-.87,5.39,5.39,0,0,1-1.25-6.23c1.34-2.83,5.34-3.34,8.08-2.65a2.82,2.82,0,0,1,2.23,1.59C31.71,32,31.75,32.1,31.78,32.21Z" fill="#ffffff"></path>
<path d="M24,37.22a1.2,1.2,0,1,1-1.2-1.2A1.2,1.2,0,0,1,24,37.22Z" fill="#f2a196"></path>
<path d="M24.21,37.22a1.08,1.08,0,1,1-1.07-1.08A1.07,1.07,0,0,1,24.21,37.22Z" fill="#e88870"></path>
<path d="M23.15,36.09l.31,4,4.69,2.74a1.39,1.39,0,0,0,1.74-.7c.68-1.38,1.76-3.56,1.62-4.37a2.63,2.63,0,0,0-.78-1.63l.24-1.4A4,4,0,0,0,31,33.13c-.15-.61-.61-.87-1-1.33A11.58,11.58,0,0,1,26,34.55C25.23,34.94,23.15,36.09,23.15,36.09Z" fill="#f2a196"></path>
<path d="M28.38,35.75h.07v0a.23.23,0,0,0,0,.09c0,.07.06.17.1.29l.33.87.32.88.11.28,0,.11h0l0,0-1.32.06v-.07l1.22-.06,0-.06-.1-.29L28.85,37c-.12-.32-.24-.64-.32-.88s-.08-.22-.11-.29l0-.08v0Z" fill="#ffffff" fill-rule="evenodd"></path>
<path d="M27.4,35.23a5.73,5.73,0,0,0-2,.06v-.07a5.6,5.6,0,0,1,2-.06Z" fill="#ffffff" fill-rule="evenodd"></path>
<path d="M30.81,35.21a3.85,3.85,0,0,0-1.22.09v-.07a3.68,3.68,0,0,1,1.24-.09Z" fill="#ffffff" fill-rule="evenodd"></path>
<path d="M26.79,39.06a.15.15,0,0,1,.09-.06.12.12,0,0,1,.1,0,2,2,0,0,0,.8.39c.52.11,1-.1,1.08,0s0,.17-.16.29a1.41,1.41,0,0,1-1.05.26,1.22,1.22,0,0,1-.87-.88A.13.13,0,0,1,26.79,39.06Z" fill="#fff"></path>
<path d="M26.57,36a.34.34,0,0,1,0,.67h0a.34.34,0,0,1,0-.67Z" fill="#ffffff"></path>
<path d="M30.11,35.85a.31.31,0,0,1,0,.62h0a.31.31,0,0,1,0-.62Z" fill="#ffffff"></path>
<path d="M30.1,30.5a19.27,19.27,0,0,0-4.4.6,18.78,18.78,0,0,0-4.16,1.55,4.81,4.81,0,0,1,3.72-3.29A4.85,4.85,0,0,1,30.1,30.5Z" fill="#845161"></path>
</g>
<text data-id="scheduler-text" fill="#fff" x="62.1" y="40.8">Robert Levin</text>
</g>
</g>
<g class="schedulerpro-lindsey">
<line class="schedulerpro-lindsey-stroke-fake" stroke="#9e9e9e" x1="505" x2="585" y1="114.91" y2="114.91"></line>
<g clip-path="url(#lindsey-introduction-clip)">
<rect class="schedulerpro-lindsey-block" fill="#0076f8" height="42" rx="6" width="276" x="229.14" y="93.91"></rect>
<path class="schedulerpro-lindsey-progress" d="M229.14,99.91a6,6,0,0,1,6-6h128v42h-128a6,6,0,0,1-6-6Z" fill="#fff" fill-opacity="0.25"></path>
<text class="schedulerpro-lindsey-text" data-id="scheduler-text" fill="#fff" x="244.9" y="118.9">Introduction</text>
</g>
<g class="schedulerpro-lindsey-name">
<text data-id="scheduler-text" fill="#fff" x="62.1" y="118.9">Lindsey Bergson</text>
<g>
<circle cx="26.14" cy="114.91" fill="#e6ecc1" r="12"></circle>
<path d="M29.62,117.61A30.93,30.93,0,0,1,18.24,117a30.9,30.9,0,0,1,2.43-7,5.82,5.82,0,0,1,5-3.07A4.45,4.45,0,0,1,29.91,109a13.45,13.45,0,0,1,1.39,4c.3,1.38.57,2.78.82,4.18C32.11,117.14,29.86,117.57,29.62,117.61Z" fill="url(#linear-gradient-2)"></path>
<path d="M34.13,123.45a13,13,0,0,1-16-.07l3.44-1.61.31-.16.07,0,.09-.06a3.19,3.19,0,0,0,1-1.16,3.52,3.52,0,0,0,.38-1.72c0-.41,0-.81,0-1.21,0-.23,0-.45,0-.67l.14.07.37.19,2.13.36,2.2.38.07,2.25,0,1.13.81.32.63.26Z" fill="#e18477"></path>
<path d="M28.34,120a4.28,4.28,0,0,1-2.13-.16,3.7,3.7,0,0,1-2.64-3l.36.19,2.14.36,2.2.38Z" fill="#a76962"></path>
<path d="M22.58,114.48a1.2,1.2,0,1,1-1.2-1.2A1.2,1.2,0,0,1,22.58,114.48Z" fill="#e18477"></path>
<path d="M23,114.34a1.2,1.2,0,1,1-1.2-1.2A1.2,1.2,0,0,1,23,114.34Z" fill="#a76962"></path>
<path d="M30.06,112.59c.88,3-.83,6.58-2.14,6.72-3.15.36-5.39-1.25-6.27-4.3s.29-6.06,2.61-6.73S29.18,109.54,30.06,112.59Z" fill="#e18477"></path>
<path d="M27,117.09a2.13,2.13,0,0,1-1.36-.65l.05,0A2.13,2.13,0,0,0,27,117Z" fill="#ffffff" fill-rule="evenodd"></path>
<path d="M27.47,108.64a2.64,2.64,0,0,1-.12.4,6.76,6.76,0,0,1-2.55,3.21c-1.41.93-2.8.88-4.38,1.11a12.53,12.53,0,0,0,.08-1.63,3.09,3.09,0,0,1,1.08-2.1c.45-.52,1.05-1.3,1.75-1.47l4.1-1A4,4,0,0,1,27.47,108.64Z" fill="url(#linear-gradient-3)"></path>
<path d="M29.62,112.1a2.14,2.14,0,0,0-1.59.14l0-.06a2.22,2.22,0,0,1,1.64-.15Z" fill="#ffffff" fill-rule="evenodd"></path>
<path d="M26.32,112.44a2.53,2.53,0,0,0-2.18.07l0-.07a2.66,2.66,0,0,1,2.24-.07Z" fill="#ffffff" fill-rule="evenodd"></path>
<path d="M34.13,123.45a13,13,0,0,1-16-.07l3.44-1.61a2.48,2.48,0,0,0,.47-.27l.13-.09a3.2,3.2,0,0,0,.9-1.07,3.05,3.05,0,0,0,.33-1l.16.14a6.64,6.64,0,0,0,1.4.79,5.88,5.88,0,0,0,.74.26,6.73,6.73,0,0,0,2.32.25l.33,0v.38l.85.35Z" fill="#845161"></path>
<path d="M25.85,115.67a1.58,1.58,0,0,0-.91.43,1.76,1.76,0,0,0-.32.39l-.06,0a1.6,1.6,0,0,1,.33-.4h0a1.75,1.75,0,0,1,.95-.45Z" fill="#ffffff" fill-rule="evenodd"></path>
<path d="M28.08,110.89H26.41v-.07h1.67Z" fill="#ffffff" fill-rule="evenodd"></path>
<path d="M28.08,111.45H26v-.07h2.08Z" fill="#ffffff" fill-rule="evenodd"></path>
<path d="M26,113.76a.81.81,0,0,1-.25.55.75.75,0,0,1-.57.19v-.07a.7.7,0,0,0,.51-.18.64.64,0,0,0,.22-.49Z" fill="#ffffff" fill-rule="evenodd"></path>
<path d="M28.46,114.11a.65.65,0,0,1-.24-.5h.07a.58.58,0,0,0,.22.45,1.92,1.92,0,0,0,.46.27l0,.07a2,2,0,0,1-.48-.29Z" fill="#ffffff" fill-rule="evenodd"></path>
<path d="M28.06,115.16l.09.16a.58.58,0,0,1,.06.17.13.13,0,0,1,0,.12.15.15,0,0,1-.13,0s-.06.06,0,.07a.19.19,0,0,0,.16,0,.19.19,0,0,0,.09-.14.31.31,0,0,0-.05-.21,2.12,2.12,0,0,0-.11-.21s-.08,0-.06,0Z" fill="#ffffff"></path>
<path d="M26.88,115.24a.47.47,0,0,0-.1.34.21.21,0,0,0,.24.15s0-.09,0-.07-.14,0-.15-.12a.36.36,0,0,1,.09-.26s0-.07-.06,0Z" fill="#ffffff"></path>
<path d="M25.33,113.3c.31,0,.56.14.55.27s-.27.21-.58.19-.55-.14-.54-.27S25,113.28,25.33,113.3Z" fill="#ffffff"></path>
<path d="M29.52,113.41c0,.13-.21.27-.52.32s-.57,0-.59-.15.22-.26.52-.31S29.5,113.29,29.52,113.41Z" fill="#ffffff"></path>
</g>
</g>
</g>
<g class="schedulerpro-christopher">
<g clip-path="url(#christopher-clip)">
<rect class="schedulerpro-christopher-block" fill="#45e9cd" height="42" width="300" x="325.14" y="171.91"></rect>
<path class="schedulerpro-christopher-progress" d="M325.14,177.91a6,6,0,0,1,6-6h145v42h-145a6,6,0,0,1-6-6Z" fill="#fff" fill-opacity="0.25"></path>
<text class="schedulerpro-christopher-text" data-id="scheduler-text" fill="#fff" x="341.1" y="196.8">Conference</text>
</g>
<g class="schedulerpro-christopher-name">
<text data-id="scheduler-text" fill="#fff" x="62.4" y="196.9">Christopher Korsgaard</text>
<g>
<circle cx="26.14" cy="192.91" fill="#a88e84" r="12"></circle>
<path d="M34.13,201.86a13,13,0,0,1-16-.07l3.44-1.61a4.39,4.39,0,0,0,.47-.27l.13-.1a3.28,3.28,0,0,0,.9-1.06,3.13,3.13,0,0,0,.33-1,5.62,5.62,0,0,0,.05-.7c0-.41,0-.81,0-1.22,0-.22,0-.44,0-.67l.14.07.37.19.17,0,2,.34,2.2.37.07,2.26,0,.74v.38l.85.35Z" fill="#f2a196"></path>
<path d="M28.36,199.35a1.17,1.17,0,0,1-.71-.11l-4.21-3.44c0-.16,0,0,0-.15s0-.45,0-.67l.14.06.37.2.17,0,2,.34,2.2.37.06,2.26,0,.74v.38Z" fill="#e88870"></path>
<path d="M34.13,201.86a13,13,0,0,1-16-.07l3.44-1.61a4.39,4.39,0,0,0,.47-.27l.13-.1c1.66,1.19,3.93,1.93,5.89,1.05a2.47,2.47,0,0,0,1.15-1Z" fill="#ff2609"></path>
<path d="M32.86,187.72a.59.59,0,0,1,0,.13,2.57,2.57,0,0,1-.23.6h0a2.39,2.39,0,0,1-.13.21,6.54,6.54,0,0,1-.4.52l-.09.09-.18.2H32a.65.65,0,0,1,.48.49V190a1.46,1.46,0,0,1-.23.92,8.85,8.85,0,0,1-1,1.26c-.26.33-.41.71-.69,1l0,0,0,0a6.76,6.76,0,0,1-2.89,1.28c-.35.13-4.18,1.21-4.18,1.45a7.47,7.47,0,0,0-.85-.87,5.41,5.41,0,0,1-1.24-6.23,10,10,0,0,1,5.89-4.72,3.05,3.05,0,0,1,2.26-.07c.69.34,1,1.4.46,1.91a1.9,1.9,0,0,1,1.27-.37,1.8,1.8,0,0,1,1.11.5,2.27,2.27,0,0,1,.39.58,2.31,2.31,0,0,1,.1.28A1.74,1.74,0,0,1,32.86,187.72Z" fill="#f2d4cf"></path>
<path d="M32.87,187.72l0,.13a2.57,2.57,0,0,1-.23.6h0a2.39,2.39,0,0,1-.13.21,6.54,6.54,0,0,1-.4.52l-.09.09c-.06.07-.12.13-.17.2H32a.65.65,0,0,1,.48.49s0,0,0,.05a1.4,1.4,0,0,1-.23.92,8.2,8.2,0,0,1-1,1.26c-.26.33-.4.71-.69,1l0,0,0,0A2.79,2.79,0,0,1,30,192c-.12-1,0-2.05-.08-3a3.31,3.31,0,0,1,.08-1.09,1,1,0,0,1,.12-.23,5,5,0,0,1,.44-.59,1.56,1.56,0,0,1,.68-.42,2.26,2.26,0,0,1,.44-.08,1.77,1.77,0,0,1,.46,0,1.83,1.83,0,0,1,.6.19,2.29,2.29,0,0,1,.09.28A1.76,1.76,0,0,1,32.87,187.72Z" fill="#daaea8"></path>
<path d="M23.93,193.17a1.2,1.2,0,1,1-1.2-1.2A1.2,1.2,0,0,1,23.93,193.17Z" fill="#f2a196"></path>
<path d="M24.19,193.17a1.08,1.08,0,1,1-1.08-1.08A1.07,1.07,0,0,1,24.19,193.17Z" fill="#e88870"></path>
<path d="M23.13,192l.31,4,4.69,2.74a1.4,1.4,0,0,0,1.74-.69c.68-1.38,1.76-3.57,1.62-4.38a2.64,2.64,0,0,0-.78-1.62l.23-1.41a4,4,0,0,0,.08-1.62c-.16-.61-.62-.87-1-1.32A11.81,11.81,0,0,1,26,190.51C25.21,190.89,23.13,192,23.13,192Z" fill="#f2a196"></path>
<path d="M28.36,191.7v0l.07,0h0v0l0,.08c0,.08.07.18.11.3s.21.56.32.87l.33.87c0,.12.08.22.11.29l0,.11h0l0,0-1.32.07v-.07l1.22-.06,0-.07-.11-.28c-.08-.24-.2-.56-.32-.87l-.33-.88c0-.12-.08-.22-.1-.29l0-.09v0Z" fill="#ffffff" fill-rule="evenodd"></path>
<path d="M27.37,191.18a5.44,5.44,0,0,0-2,.06v-.07a5.55,5.55,0,0,1,2-.06Z" fill="#ffffff" fill-rule="evenodd"></path>
<path d="M30.79,191.16a3.85,3.85,0,0,0-1.22.08l0-.06a3.72,3.72,0,0,1,1.24-.09Z" fill="#ffffff" fill-rule="evenodd"></path>
<path d="M26.77,195a.15.15,0,0,1,.09-.06.12.12,0,0,1,.1,0,2,2,0,0,0,.8.4c.52.1,1-.1,1.07,0s0,.17-.15.28a1.36,1.36,0,0,1-1.05.26,1.24,1.24,0,0,1-.88-.87Z" fill="#fff"></path>
<path d="M26.58,192a.34.34,0,0,1,0,.67h0a.34.34,0,0,1,0-.67Z" fill="#ffffff"></path>
<path d="M30.13,192a.31.31,0,0,1,0,.61h0a.31.31,0,0,1,0-.61Z" fill="#ffffff"></path>
</g>
</g>
</g>
<g class="schedulerpro-anika">
<g class="schedulerpro-anika-contract" clip-path="url(#anika-clip2)">
<rect class="schedulerpro-anika-block2" fill="#ff8474" height="42" rx="6" width="139" x="537.14" y="249.91"></rect>
<text class="schedulerpro-anika-text2" data-id="scheduler-text" fill="#fff" x="553.2" y="274.8">Contract</text>
</g>
<g clip-path="url(#anika-clip)">
<rect class="schedulerpro-anika-block" fill="#ff8474" height="42" rx="6" width="221" x="229.14" y="249.91"></rect>
<path class="schedulerpro-anika-progress" d="M229.14,255.91a6,6,0,0,1,6-6h163v42h-163a6,6,0,0,1-6-6Z" fill="#fff" fill-opacity="0.25"></path>
<text class="schedulerpro-anika-text" data-id="scheduler-text" fill="#fff" x="245.0" y="274.8">House Keeping</text>
</g>
<g class="schedulerpro-anika-name">
<text data-id="scheduler-text" fill="#fff" x="62.4" y="274.8">Anika Mango</text>
<g>
<circle cx="26.14" cy="270.91" fill="#d08dba" r="12"></circle>
<path d="M26.51,280c-1.17.07-2.3,0-3.46,0-1.31,0-2.88.34-3.87-.8a3.06,3.06,0,0,1-.25-3,4.2,4.2,0,0,0,.48-2.13,13.63,13.63,0,0,0-.65-1.54,2.08,2.08,0,0,1,.16-1.62c.26-.43.67-.66.76-1.2a3.13,3.13,0,0,0-.09-.91c-.4-2.46,1.6-4.19,3.56-5.22a4.68,4.68,0,0,1,4-.39.8.8,0,0,0,.3.09l.29,0c1.62-.24,3.71,2.64,3.26,4.11a2.55,2.55,0,0,0-.23,1.34c.18.66,1,1,1.12,1.69s-.71,1.38-.55,2.1c.1.42.5.7.76,1a1.69,1.69,0,0,1,.31.92,1.53,1.53,0,0,1-.08.6c-.19.58-.69,1.1-.57,1.69s1.06,1,1,1.76a1.18,1.18,0,0,1-.8.93,5.22,5.22,0,0,1-.88.25c-.22.05-.41,0-.64,0-.61.06-1.22.15-1.84.19S27.2,279.93,26.51,280Z" fill="url(#linear-gradient-4)"></path>
<path d="M34.13,279.57a13,13,0,0,1-16-.07l3.44-1.61.3-.17.08-.05.09-.05a3.32,3.32,0,0,0,1-1.17,3.64,3.64,0,0,0,.38-1.72c0-.4,0-.81,0-1.21,0-.22,0-.45,0-.67l.14.07.37.19,2.13.36,2.2.38.07,2.25,0,1.13.81.33.64.25Z" fill="#e18477"></path>
<path d="M28.33,275.52a.83.83,0,0,1-.53.16,7.58,7.58,0,0,1-4.36-2.45,1.7,1.7,0,0,0,0-.22v-.67l.14.07.37.19,2.13.37,2.2.37Z" fill="#a76962"></path>
<path d="M22.86,270.57a1.2,1.2,0,1,1-1.2-1.2A1.2,1.2,0,0,1,22.86,270.57Z" fill="#e18477"></path>
<path d="M23.29,270.43a1.2,1.2,0,1,1-1.2-1.2A1.2,1.2,0,0,1,23.29,270.43Z" fill="#a76962"></path>
<path d="M29.82,268.78c.83,2.87-.93,6.34-2,6.34-1.48,0-5.08-1.18-5.91-4.06s.28-5.71,2.47-6.34S29,265.9,29.82,268.78Z" fill="#e18477"></path>
<path d="M25.2,269.27a.34.34,0,0,1,0,.67h0a.34.34,0,0,1,0-.67Z" fill="#ffffff"></path>
<path d="M28.74,269.18a.31.31,0,0,1,0,.61h0a.31.31,0,0,1,0-.61Z" fill="#ffffff"></path>
<path d="M27.19,265.29l0,.06a4.61,4.61,0,0,1-.81,1.2A8.61,8.61,0,0,1,24,268.29a13.26,13.26,0,0,1-1.51.75c-.75.3-1.39.45-1.41.47a4.08,4.08,0,0,1,1.75-4.33,7.91,7.91,0,0,1,4.5-1.28A3.39,3.39,0,0,1,27.19,265.29Z" fill="url(#linear-gradient-5)"></path>
<path d="M27.18,268.91h.07v0a.64.64,0,0,1,0,.09c0,.07,0,.17.07.29s.12.56.2.88.15.64.2.88.05.22.07.29l0,.11h0v0h-.93v-.07h.84l0-.06-.07-.29c-.05-.24-.13-.56-.2-.88s-.15-.64-.2-.88-.05-.23-.07-.3l0-.08v0Z" fill="#ffffff" fill-rule="evenodd"></path>
<path d="M29.62,268.07a2.12,2.12,0,0,0-1.58.15l0-.06a2.23,2.23,0,0,1,1.64-.16Z" fill="#ffffff" fill-rule="evenodd"></path>
<path d="M26.32,268.41a2.54,2.54,0,0,0-2.17.07l0-.06a2.62,2.62,0,0,1,2.24-.07Z" fill="#ffffff" fill-rule="evenodd"></path>
<path d="M34.13,279.57a13,13,0,0,1-16-.07l3.44-1.61a4.39,4.39,0,0,0,.47-.27l.13-.1a3.32,3.32,0,0,0,.9-1.07,3.05,3.05,0,0,0,.33-1,1.07,1.07,0,0,0,.16.14,6.38,6.38,0,0,0,1.39.79,7.25,7.25,0,0,0,.74.26,6.58,6.58,0,0,0,2.33.25l.33,0v.38l.85.35Z" fill="url(#linear-gradient-6)"></path>
<path d="M22.11,265.74a.34.34,0,0,1,.44-.19l1.21.46a.34.34,0,1,1-.24.64l-1.21-.46A.35.35,0,0,1,22.11,265.74Z" fill="#ff2609"></path>
<path d="M21.64,266.79a.35.35,0,0,1,.44-.2l1.21.47a.33.33,0,0,1,.2.44.35.35,0,0,1-.44.2l-1.21-.46A.35.35,0,0,1,21.64,266.79Z" fill="#f2d4cf"></path>
<path d="M25.38,272a.16.16,0,0,1,.08-.06.14.14,0,0,1,.11,0,1.79,1.79,0,0,0,.79.4c.52.1,1-.1,1.08,0s0,.17-.16.29a1.43,1.43,0,0,1-1,.26,1.27,1.27,0,0,1-.88-.88A.14.14,0,0,1,25.38,272Z" fill="#fff"></path>
</g>
</g>
</g>
</svg>
