<svg class="task-board" viewbox="0 0 874.05 511.86" xmlns="http://www.w3.org/2000/svg" xmlns:xlink="http://www.w3.org/1999/xlink">
<defs>
<style>
      [data-id="board-text"] {
        font-family: Helvetica, sans-serif;
        font-weight: 600;
        font-size: 13px;
        fill: #a7a7a7;
      }
      [data-id="board-text-small"] {
        font-family: Helvetica, sans-serif;
        font-weight: 600;
        font-size: 10px;
        fill: #fff;
      }
    </style>
<filter color-interpolation-filters="sRGB" id="shadow">
<fedropshadow dx="2" dy="2" flood-opacity="0.1" stddeviation="3"></fedropshadow>
</filter>
<lineargradient gradienttransform="matrix(1, 0, 0, -1, 414, 1379.24)" gradientunits="userSpaceOnUse" id="linear-gradient" x1="-377.45" x2="-361.47" y1="1244.04" y2="1244.04">
<stop offset="0" stop-color="#ffffff"></stop>
<stop offset="1" stop-color="#6878b1"></stop>
</lineargradient>
<lineargradient id="linear-gradient-2" x1="199.55" x2="215.53" xlink:href="#linear-gradient" y1="1022.04" y2="1022.04"></lineargradient>
<lineargradient gradienttransform="matrix(1, 0, 0, -1, 414, 1379.24)" gradientunits="userSpaceOnUse" id="linear-gradient-3" x1="-377.48" x2="-363.66" y1="1153.06" y2="1153.06">
<stop offset="0" stop-color="#315676"></stop>
<stop offset="1" stop-color="#e1b9e0"></stop>
</lineargradient>
<lineargradient gradienttransform="matrix(1, 0, 0, -1, 414, 1379.24)" gradientunits="userSpaceOnUse" id="linear-gradient-4" x1="-378.53" x2="-364.38" y1="1151.34" y2="1159.99">
<stop offset="0" stop-color="#315676"></stop>
<stop offset="0.08" stop-color="#375979"></stop>
<stop offset="0.18" stop-color="#496383"></stop>
<stop offset="0.2" stop-color="#4d6585"></stop>
<stop offset="0.29" stop-color="#546989"></stop>
<stop offset="0.43" stop-color="#677495"></stop>
<stop offset="0.6" stop-color="#8786a9"></stop>
<stop offset="0.78" stop-color="#b39fc4"></stop>
<stop offset="0.95" stop-color="#e1b9e0"></stop>
</lineargradient>
<lineargradient id="linear-gradient-5" x1="-379.48" x2="-361.85" xlink:href="#linear-gradient" y1="1030.89" y2="1030.89"></lineargradient>
<lineargradient gradienttransform="matrix(1, 0, 0, -1, 414, 1379.24)" gradientunits="userSpaceOnUse" id="linear-gradient-6" x1="-373.68" x2="-368.21" y1="1033.11" y2="1043.12">
<stop offset="0" stop-color="#ffffff"></stop>
<stop offset="0.1" stop-color="#ffffff"></stop>
<stop offset="1" stop-color="#6878b1"></stop>
</lineargradient>
<lineargradient id="linear-gradient-7" x1="-88.38" x2="-74.5" xlink:href="#linear-gradient-3" y1="1255.89" y2="1255.89"></lineargradient>
<lineargradient gradienttransform="matrix(1, 0, 0, -1, 414, 1379.24)" gradientunits="userSpaceOnUse" id="linear-gradient-8" x1="-86.71" x2="-76.86" y1="1254.14" y2="1263.66">
<stop offset="0" stop-color="#315676"></stop>
<stop offset="0.21" stop-color="#516889"></stop>
<stop offset="0.67" stop-color="#a296ba"></stop>
<stop offset="1" stop-color="#e1b9e0"></stop>
</lineargradient>
<lineargradient id="linear-gradient-9" x1="199.25" x2="212.76" xlink:href="#linear-gradient" y1="1142.3" y2="1154.33"></lineargradient>
<lineargradient id="linear-gradient-10" x1="202.32" x2="207.46" xlink:href="#linear-gradient" y1="1152.59" y2="1158.03"></lineargradient>
<lineargradient id="linear-gradient-11" x1="199.52" x2="215.51" xlink:href="#linear-gradient-3" y1="1143.43" y2="1143.43"></lineargradient>
</defs>
<text class="board-text" data-id="board-text" fill="#fff" x="18.3" y="24.8">Requested</text>
<text class="board-text" data-id="board-text" fill="#fff" x="304.5" y="24.8">In Progress</text>
<text class="board-text" data-id="board-text" fill="#fff" x="593.1" y="24.8">Completed</text>
<g class="board-block board-block--1" filter="url(#shadow)">
<rect fill="#fff" height="108" rx="6" width="264" x="16.52" y="45.87"></rect>
<text data-id="board-text" x="32.0" y="92.8">Confirm Ports Availability</text>
<path d="M35.52,61.87h49a3,3,0,0,1,3,3h0a3,3,0,0,1-3,3h-49a3,3,0,0,1-3-3h0A3,3,0,0,1,35.52,61.87Z" fill="#0076f8"></path>
<path d="M76.52,113.87h69a12,12,0,0,1,12,12h0a12,12,0,0,1-12,12h-69a12,12,0,0,1-12-12h0A12,12,0,0,1,76.52,113.87Z" fill="#ff8474"></path>
<text data-id="board-text-small" x="78.5" y="129.0">Infrastructure</text>
<g>
<circle cx="44.52" cy="125.87" fill="#c1e0ec" r="12"></circle>
<path d="M52.53,134.88a13,13,0,0,1-16-.07L40,133.2a3.59,3.59,0,0,0,.47-.27l.13-.1a3.23,3.23,0,0,0,.91-1.07,3.28,3.28,0,0,0,.32-1,4.14,4.14,0,0,0,.06-.7c0-.41,0-.81,0-1.21,0-.23,0-.45,0-.68l.14.08.37.19.17,0,2,.34,2.2.37.06,2.26,0,.74,0,.36v0l.85.35Z" fill="#f2a196"></path>
<path d="M52.53,134.88a13,13,0,0,1-16-.07L40,133.2a3.59,3.59,0,0,0,.47-.27l.13-.1c1.67,1.18,3.94,1.93,5.9,1a2.52,2.52,0,0,0,1.15-1Z" fill="url(#linear-gradient)"></path>
<path d="M46.77,132.51a4.67,4.67,0,0,1-2.25-1c-1.44-.83-2.29-1.9-2-3.09l2,.33,2.2.38.06,2.26Z" fill="#e88870"></path>
<path d="M50.16,121.17a6.16,6.16,0,0,1-.8,4c-.72,1.64-1.76,1.83-3.34,2.37-.35.12-4.18,1.21-4.18,1.45a6,6,0,0,0-.84-.88,5.41,5.41,0,0,1-1.25-6.23c1.35-2.83,5.34-3.33,8.09-2.65a2.83,2.83,0,0,1,2.22,1.6A3,3,0,0,1,50.16,121.17Z" fill="#ffffff"></path>
<path d="M42.34,126.18a1.2,1.2,0,1,1-1.2-1.2A1.2,1.2,0,0,1,42.34,126.18Z" fill="#f2a196"></path>
<path d="M42.59,126.18a1.07,1.07,0,1,1-1.07-1.07A1.08,1.08,0,0,1,42.59,126.18Z" fill="#e88870"></path>
<path d="M41.54,125.05l.3,4,4.69,2.74a1.41,1.41,0,0,0,1.75-.69c.67-1.39,1.75-3.57,1.61-4.38a2.6,2.6,0,0,0-.77-1.62l.23-1.41a4,4,0,0,0,.07-1.62c-.15-.61-.61-.87-1-1.33a11.65,11.65,0,0,1-4.08,2.76C43.61,123.91,41.54,125.05,41.54,125.05Z" fill="#f2a196"></path>
<path d="M46.76,124.71h.07v0l0,.08a3.05,3.05,0,0,0,.11.29c.08.24.2.56.32.88s.24.63.32.87l.11.28,0,.11,0,0,0,0,0,.05-1.31.06v-.07l1.22-.06,0-.06c0-.07-.07-.17-.11-.29l-.33-.87c-.11-.32-.23-.63-.32-.87s-.08-.22-.11-.3l0-.08v0h0Z" fill="#ffffff" fill-rule="evenodd"></path>
<path d="M45.78,124.2a5.67,5.67,0,0,0-2,0l0-.07a5.85,5.85,0,0,1,2-.05Z" fill="#ffffff" fill-rule="evenodd"></path>
<path d="M49.19,124.17a4.19,4.19,0,0,0-1.22.09v-.07a4.3,4.3,0,0,1,1.24-.09Z" fill="#ffffff" fill-rule="evenodd"></path>
<path d="M45.18,128a.16.16,0,0,1,.08-.06.15.15,0,0,1,.1,0,2.17,2.17,0,0,0,.8.4c.52.1,1-.11,1.08,0s0,.16-.16.28a1.35,1.35,0,0,1-1,.26,1.24,1.24,0,0,1-.87-.88A.14.14,0,0,1,45.18,128Z" fill="#fff"></path>
<path d="M45,124.92a.33.33,0,0,1,0,.66h0a.33.33,0,0,1,0-.66Z" fill="#ffffff"></path>
<path d="M48.49,124.82a.31.31,0,0,1,0,.61h0a.31.31,0,0,1,0-.61Z" fill="#ffffff"></path>
<path d="M48.48,119.46a19.27,19.27,0,0,0-4.4.6,19.83,19.83,0,0,0-4.16,1.55,4.84,4.84,0,0,1,3.72-3.29A4.85,4.85,0,0,1,48.48,119.46Z" fill="#845161"></path>
</g>
</g>
<g class="board-block board-block--2" filter="url(#shadow)">
<rect fill="#fff" height="90" rx="6" width="264" x="16.52" y="165.87"></rect>
<path d="M76.52,215.87h41a12,12,0,0,1,12,12h0a12,12,0,0,1-12,12h-41a12,12,0,0,1-12-12h0A12,12,0,0,1,76.52,215.87Z" fill="#45e9cd"></path>
<text data-id="board-text-small" x="77.2" y="230.8">Security</text>
<text data-id="board-text" x="32.3" y="194.8">Remove deprecated API</text>
<g>
<circle cx="44.52" cy="227.87" fill="#b6c294" r="12"></circle>
<path d="M36.52,232.48s1.34-7.43,1.93-8.85a6.24,6.24,0,0,1,5.43-3.74A4.43,4.43,0,0,1,48.13,222c1.13,1.89,2.21,10.53,2.21,10.53Z" fill="url(#linear-gradient-3)"></path>
<path d="M52.58,236.58a13,13,0,0,1-16-.07L40,234.9a3.07,3.07,0,0,0,.31-.17l.08,0,.08-.05a3.31,3.31,0,0,0,1-1.16,3.71,3.71,0,0,0,.38-1.73c0-.4,0-.8,0-1.21v-.67l.14.07.36.19,2.14.36,2.2.38.05,1.68v.57l0,1.12.81.33.63.26Z" fill="#e18477"></path>
<path d="M46.77,232.54a.82.82,0,0,1-.53.15,7.61,7.61,0,0,1-4.36-2.44v-.39l.14.07.37.19,2.13.36,2.2.38Z" fill="#a76962"></path>
<path d="M52.58,236.58a13,13,0,0,1-16-.07L40,234.9l.3-.17c1.67,1.23,4,2,6,1.13a2.37,2.37,0,0,0,1.29-1.29l.63.26Z" fill="#f2d4cf"></path>
<path d="M41.19,227.51a1.2,1.2,0,1,1-1.2-1.2A1.2,1.2,0,0,1,41.19,227.51Z" fill="#e18477"></path>
<path d="M41.62,227.37a1.2,1.2,0,1,1-1.2-1.2A1.2,1.2,0,0,1,41.62,227.37Z" fill="#a76962"></path>
<path d="M48.15,225.69c.83,2.88-.93,6.35-2,6.35-1.49,0-5.09-1.19-5.92-4.06s.28-5.71,2.47-6.34S47.32,222.82,48.15,225.69Z" fill="#e18477"></path>
<path d="M45.69,222.2a2.91,2.91,0,0,1-.12.39A6.86,6.86,0,0,1,43,225.82c-1.41.93-2.8.88-4.38,1.11A12.53,12.53,0,0,0,39,225.2a2.66,2.66,0,0,1,.84-2,4.24,4.24,0,0,1,1.75-1.48l4.09-1.62A7.82,7.82,0,0,1,45.69,222.2Z" fill="url(#linear-gradient-4)"></path>
<path d="M47.84,225.11a2.19,2.19,0,0,0-1.59.15l0-.06a2.2,2.2,0,0,1,1.63-.16Z" fill="#ffffff" fill-rule="evenodd"></path>
<path d="M44.72,225.39a2.57,2.57,0,0,0-2.17.07l0-.06a2.66,2.66,0,0,1,2.24-.07Z" fill="#ffffff" fill-rule="evenodd"></path>
<path d="M46,227.13h.07v.06a1,1,0,0,0,0,.16,1.62,1.62,0,0,0,.09.35l.07.11h0l.07.12a.36.36,0,0,1,0,.21.14.14,0,0,1-.08.13.41.41,0,0,1-.15.07H46v-.07h.17l.13-.05s0-.05,0-.09a.24.24,0,0,0,0-.17h0l-.07-.11h0a.75.75,0,0,1-.07-.12h0a1.44,1.44,0,0,1-.1-.37c0-.06,0-.12,0-.16v0h0Z" fill="#ffffff" fill-rule="evenodd"></path>
<path d="M44.9,228.13a.28.28,0,0,1,.14-.33l0,.06a.21.21,0,0,0-.1.25.2.2,0,0,0,.23.13v.07A.26.26,0,0,1,44.9,228.13Z" fill="#ffffff" fill-rule="evenodd"></path>
<path d="M45.23,229.9a2.17,2.17,0,0,1-1.33-.7l.06,0a2,2,0,0,0,1.28.68Z" fill="#ffffff" fill-rule="evenodd"></path>
<path d="M43.71,226.23c.31,0,.55.14.54.27s-.27.21-.58.19-.55-.15-.54-.27S43.4,226.2,43.71,226.23Z" fill="#ffffff"></path>
<path d="M47.88,226.26c0,.12-.21.26-.52.31s-.57,0-.59-.14.22-.27.52-.32S47.86,226.13,47.88,226.26Z" fill="#ffffff"></path>
</g>
</g>
<g class="board-block board-block--4" filter="url(#shadow)">
<rect fill="#fff" height="108" rx="6" width="264" x="16.52" y="387.87"></rect>
<text data-id="board-text" x="32.3" y="434.9">Bug with rendering</text>
<path d="M35.52,403.87h49a3,3,0,0,1,3,3h0a3,3,0,0,1-3,3h-49a3,3,0,0,1-3-3h0A3,3,0,0,1,35.52,403.87Z" fill="#ff8474"></path>
<g>
<circle cx="44.52" cy="467.9" fill="#d99797" r="12"></circle>
<path d="M49.72,466.52a7.22,7.22,0,0,1-.49,1.66c-.66,1-1.94,1.15-3,1.51a.76.76,0,0,0-.2.06l-.36.12-1.06.34a3.23,3.23,0,0,0-1.51.66,6.43,6.43,0,0,0-.57.72c0,.05-.07.11-.13.11s-.07-.05-.11-.07a4.05,4.05,0,0,1-1.47-1.38,8.89,8.89,0,0,1-1.34-6.09s0-.06,0-.09a3.67,3.67,0,0,1,.9-1.84A6.22,6.22,0,0,1,42.06,461a9.74,9.74,0,0,1,1.14-.52,7.6,7.6,0,0,1,2.66-.54,6.64,6.64,0,0,1,2.53.5,2.9,2.9,0,0,1,2,2.51A9.78,9.78,0,0,1,49.72,466.52Z" fill="#ffffff"></path>
<path d="M42.31,468.43a1.2,1.2,0,1,1-1.2-1.2A1.2,1.2,0,0,1,42.31,468.43Z" fill="#f2a196"></path>
<path d="M42.65,468.36a1.13,1.13,0,1,1-1.13-1.13A1.14,1.14,0,0,1,42.65,468.36Z" fill="#e88870"></path>
<path d="M52.51,477.12a13,13,0,0,1-16-.07L40,475.44a4.39,4.39,0,0,0,.47-.27l.08-.05.05-.05a3.07,3.07,0,0,0,.9-1.06,3.52,3.52,0,0,0,.38-1.72c0-.2,0-.41,0-.61s0-.4,0-.6,0-.45,0-.68l.13.07h0l.37.19.17,0,2,.33.78.13,1.41.24.07,2.26,0,.94v.18l.86.35,0,0Z" fill="#f2a196"></path>
<path d="M41.83,471.24l2.32,2.18a3.69,3.69,0,0,0,2.6.9l0-.94-.07-2.26-1.41-.24c-.2.09-.39.18-.58.25a2.44,2.44,0,0,1-1.8-.09,2.71,2.71,0,0,1-1-.85Z" fill="#e88870"></path>
<path d="M52.51,477.12a13,13,0,0,1-16-.07L40,475.44a4.39,4.39,0,0,0,.47-.27l.08-.05c1.72,1.17,4,1.88,6,1a2.72,2.72,0,0,0,1.15-1Z" fill="#845161"></path>
<path d="M49.55,469a7.2,7.2,0,0,1-.25,1.52,13.31,13.31,0,0,1-1.06,2.82c-.18.33-.45.39-.86.49a3.63,3.63,0,0,1-3-.63l-2.57-1.9c0-.35-.09-.72-.16-1.1a12.09,12.09,0,0,1-.34-3.28,1.21,1.21,0,0,1,.4-.76,5.76,5.76,0,0,1,2.38-1c1-.26,2.09-.42,3.11-.73a3.57,3.57,0,0,0,2-1.26s.08.76.1.93c0,.36,0,.68.07,1a3.48,3.48,0,0,1-.07,1.16c-.05.26-.12.53-.17.79s0,.26.15.44A2.55,2.55,0,0,1,49.55,469Z" fill="#f2a196"></path>
<path d="M44.83,467a.33.33,0,0,1,0,.66h0a.33.33,0,0,1,0-.66Z" fill="#ffffff"></path>
<path d="M48.37,466.93a.31.31,0,0,1,0,.62h0a.31.31,0,0,1,0-.62Z" fill="#ffffff"></path>
<path d="M47,467.32v0l.07,0h0v0l0,.05v0l.14.28a6.78,6.78,0,0,1,.33.86h0a4.17,4.17,0,0,1,.11,1v0h-1v-.07h.92a4.2,4.2,0,0,0-.11-1,5.81,5.81,0,0,0-.33-.85l-.13-.27,0,0,0-.05v0h0Z" fill="#ffffff" fill-rule="evenodd"></path>
<path d="M49.31,470.55a13.89,13.89,0,0,1-1.06,2.82c-.19.33-.45.39-.87.49a3.6,3.6,0,0,1-3-.63l-2.58-1.9a10.73,10.73,0,0,0-.28-1.22,1.18,1.18,0,0,1,0-.56.45.45,0,0,0,.12.26A2.94,2.94,0,0,0,42.91,471a2.39,2.39,0,0,0,1.8,0c.49-.24,1-.55,1.47-.74a2.45,2.45,0,0,1,1.07-.19,1.8,1.8,0,0,1,1.12.58.7.7,0,0,0,.42.21A.92.92,0,0,0,49.31,470.55Z" fill="#ffffff"></path>
<path d="M47.5,470.88A2.15,2.15,0,0,1,46,471l0-.07a2.07,2.07,0,0,0,1.45-.08Z" fill="#f2a196" fill-rule="evenodd"></path>
<path d="M45.74,466.44a5.44,5.44,0,0,0-2,.06v-.07a5.55,5.55,0,0,1,2-.06Z" fill="#ffffff" fill-rule="evenodd"></path>
<path d="M49.16,466.42a3.85,3.85,0,0,0-1.22.09l0-.07a4,4,0,0,1,1.25-.09Z" fill="#ffffff" fill-rule="evenodd"></path>
<path d="M45.8,469.54a.28.28,0,0,1,.14-.33l0,.06a.21.21,0,0,0-.1.25.22.22,0,0,0,.23.14v.07A.28.28,0,0,1,45.8,469.54Z" fill="#ffffff" fill-rule="evenodd"></path>
<path d="M41.59,470.24h.07l.05.06.15,1h0l0-.07Z" fill="#ffffff"></path>
</g>
<path d="M76.52,455.9h36a12,12,0,0,1,12,12h0a12,12,0,0,1-12,12h-36a12,12,0,0,1-12-12h0A12,12,0,0,1,76.52,455.9Z" fill="#6878b1"></path>
<text data-id="board-text-small" x="76.4" y="470.9">Biz Dev</text>
</g>
<g class="board-block board-block--5" filter="url(#shadow)">
<rect fill="#fff" height="108" rx="6" width="264" x="305.52" y="45.87"></rect>
<path d="M365.52,113.87h35a12,12,0,0,1,12,12h0a12,12,0,0,1-12,12h-35a12,12,0,0,1-12-12h0A12,12,0,0,1,365.52,113.87Z" fill="#15c8ff"></path>
<text data-id="board-text-small" x="366.3" y="128.6">Design</text>
<text data-id="board-text" x="321.4" y="92.8">Add 'Call to Action' to header</text>
<path d="M324.52,61.87h49a3,3,0,0,1,3,3h0a3,3,0,0,1-3,3h-49a3,3,0,0,1-3-3h0A3,3,0,0,1,324.52,61.87Z" fill="#8352f1"></path>
<g>
<circle cx="333.52" cy="125.87" fill="#e6ecc1" r="12"></circle>
<path d="M337,128.57a30.71,30.71,0,0,1-11.38-.64,30.9,30.9,0,0,1,2.43-7,5.81,5.81,0,0,1,5-3.06,4.43,4.43,0,0,1,4.25,2.07,13.55,13.55,0,0,1,1.39,4c.3,1.39.57,2.78.82,4.18C339.49,128.1,337.24,128.54,337,128.57Z" fill="url(#linear-gradient-7)"></path>
<path d="M341.51,134.42a13,13,0,0,1-16-.07l3.44-1.62.31-.16.08,0,.08-.06a3.23,3.23,0,0,0,1-1.16,3.76,3.76,0,0,0,.38-1.72c0-.4,0-.81,0-1.21,0-.23,0-.45,0-.67l.14.07.37.19,2.13.36,2.2.38.07,2.26,0,1.12.81.33.64.25Z" fill="#e18477"></path>
<path d="M335.72,131a4.29,4.29,0,0,1-2.13-.16,3.7,3.7,0,0,1-2.64-3l.37.19,2.13.36,2.2.38Z" fill="#a76962"></path>
<path d="M330,125.44a1.2,1.2,0,1,1-1.2-1.2A1.2,1.2,0,0,1,330,125.44Z" fill="#e18477"></path>
<path d="M330.39,125.3a1.2,1.2,0,1,1-2.4,0,1.2,1.2,0,1,1,2.4,0Z" fill="#a76962"></path>
<path d="M337.44,123.55c.88,3-.83,6.58-2.14,6.72A5.46,5.46,0,0,1,329,126c-.88-3,.28-6,2.61-6.72S336.56,120.5,337.44,123.55Z" fill="#e18477"></path>
<path d="M334.38,128.05a2.12,2.12,0,0,1-1.36-.64l.05,0a2.07,2.07,0,0,0,1.32.62Z" fill="#ffffff" fill-rule="evenodd"></path>
<path d="M334.85,119.61a1.46,1.46,0,0,1-.12.39,6.79,6.79,0,0,1-2.55,3.22c-1.41.92-2.8.88-4.37,1.1a10.94,10.94,0,0,0,.07-1.63,3.17,3.17,0,0,1,1.08-2.1c.45-.52,1.06-1.3,1.75-1.47l4.1-1A3.85,3.85,0,0,1,334.85,119.61Z" fill="url(#linear-gradient-8)"></path>
<path d="M337,123.06a2.12,2.12,0,0,0-1.58.15l0-.07A2.28,2.28,0,0,1,337,123Z" fill="#ffffff" fill-rule="evenodd"></path>
<path d="M333.7,123.4a2.54,2.54,0,0,0-2.17.07l0-.07a2.66,2.66,0,0,1,2.24-.07Z" fill="#ffffff" fill-rule="evenodd"></path>
<path d="M341.51,134.42a13,13,0,0,1-16-.07l3.44-1.62a2.48,2.48,0,0,0,.47-.27l.13-.09a3.35,3.35,0,0,0,.91-1.07,3.28,3.28,0,0,0,.32-1l.16.14a6.64,6.64,0,0,0,1.4.79,6.8,6.8,0,0,0,3.07.51l.32,0v.38l.86.35Z" fill="#845161"></path>
<path d="M333.24,126.63a1.75,1.75,0,0,0-.92.43,1.66,1.66,0,0,0-.31.39l-.06,0a1.76,1.76,0,0,1,.32-.4h0a1.75,1.75,0,0,1,1-.45Z" fill="#ffffff" fill-rule="evenodd"></path>
<path d="M335.46,121.86h-1.67v-.07h1.67Z" fill="#ffffff" fill-rule="evenodd"></path>
<path d="M335.46,122.41h-2.08v-.07h2.08Z" fill="#ffffff" fill-rule="evenodd"></path>
<path d="M333.35,124.73a.77.77,0,0,1-.82.74v-.08a.68.68,0,0,0,.51-.17.73.73,0,0,0,.23-.5Z" fill="#ffffff" fill-rule="evenodd"></path>
<path d="M335.84,125.07a.64.64,0,0,1-.24-.5h.07a.58.58,0,0,0,.22.45,1.92,1.92,0,0,0,.46.27l0,.07a2,2,0,0,1-.48-.29Z" fill="#ffffff" fill-rule="evenodd"></path>
<path d="M335.44,126.12l.09.16a.67.67,0,0,1,.07.18.16.16,0,0,1-.05.11.19.19,0,0,1-.12,0,0,0,0,1,0,0,.07.22.22,0,0,0,.25-.18.33.33,0,0,0-.05-.21,1.28,1.28,0,0,0-.11-.2s-.08,0-.06,0Z" fill="#ffffff"></path>
<path d="M334.26,126.21a.44.44,0,0,0-.1.33.2.2,0,0,0,.24.15s0-.09,0-.07-.14-.05-.15-.12,0-.19.09-.26,0-.07-.06,0Z" fill="#ffffff"></path>
<path d="M332.71,124.26c.31,0,.56.14.55.27s-.27.21-.58.19-.55-.14-.54-.27S332.4,124.24,332.71,124.26Z" fill="#ffffff"></path>
<path d="M336.9,124.37c0,.13-.21.27-.52.32s-.57,0-.59-.14.22-.27.52-.32S336.88,124.25,336.9,124.37Z" fill="#ffffff"></path>
</g>
</g>
<g class="board-block board-block--6" filter="url(#shadow)">
<rect fill="#fff" height="108" rx="6" width="264" x="305.52" y="165.87"></rect>
<text data-id="board-text" x="321.3" y="212.8">Help center configuration</text>
<path d="M324.52,181.87h49a3,3,0,0,1,3,3h0a3,3,0,0,1-3,3h-49a3,3,0,0,1-3-3h0A3,3,0,0,1,324.52,181.87Z" fill="#ff8474"></path>
<path d="M365.52,233.87h43a12,12,0,0,1,12,12h0a12,12,0,0,1-12,12h-43a12,12,0,0,1-12-12h0A12,12,0,0,1,365.52,233.87Z" fill="#452d77"></path>
<text data-id="board-text-small" x="367.0" y="248.8">Strategy</text>
<g>
<circle cx="333.52" cy="245.87" fill="#a88e84" r="12"></circle>
<path d="M341.51,254.82a13,13,0,0,1-16-.07l3.44-1.61a2.48,2.48,0,0,0,.47-.27l.13-.09a3.32,3.32,0,0,0,.9-1.07,3.05,3.05,0,0,0,.33-1,4.12,4.12,0,0,0,0-.7c0-.41,0-.81,0-1.21,0-.23,0-.45,0-.67l.14.07.37.19.17,0,2,.34,2.19.37.07,2.26,0,.74v.38l.86.35Z" fill="#f2a196"></path>
<path d="M335.74,252.31a1,1,0,0,1-.71-.11l-4.21-3.44c0-.16,0,0,0-.15s0-.45,0-.67l.14.07.37.19.17,0,2,.33,2.2.38.06,2.25,0,.74v.38Z" fill="#e88870"></path>
<path d="M341.51,254.82a13,13,0,0,1-16-.07l3.44-1.61a2.48,2.48,0,0,0,.47-.27l.13-.09c1.66,1.18,3.93,1.92,5.89,1a2.55,2.55,0,0,0,1.16-1Z" fill="#ff2609"></path>
<path d="M340.25,240.69l0,.12a2.19,2.19,0,0,1-.23.6h0a2.39,2.39,0,0,1-.13.21,4.81,4.81,0,0,1-.4.52l-.09.1-.17.19h.18a.68.68,0,0,1,.48.49.43.43,0,0,0,0,0,1.39,1.39,0,0,1-.23.92,8.8,8.8,0,0,1-1,1.27c-.26.32-.4.7-.69,1l0,0v0a7,7,0,0,1-2.9,1.29c-.35.12-4.18,1.21-4.18,1.44a6.61,6.61,0,0,0-.85-.87,5.41,5.41,0,0,1-1.24-6.23,10.06,10.06,0,0,1,5.89-4.72,3.05,3.05,0,0,1,2.26-.07c.69.34,1,1.4.46,1.91a1.85,1.85,0,0,1,1.27-.36,1.68,1.68,0,0,1,1.11.5,1.86,1.86,0,0,1,.39.57,2.31,2.31,0,0,1,.1.28A2,2,0,0,1,340.25,240.69Z" fill="#f2d4cf"></path>
<path d="M340.25,240.69l0,.12a2.19,2.19,0,0,1-.23.6h0a2.39,2.39,0,0,1-.13.21,4.81,4.81,0,0,1-.4.52l-.09.1-.17.19h.18a.68.68,0,0,1,.48.49.43.43,0,0,0,0,0,1.39,1.39,0,0,1-.23.92,8.8,8.8,0,0,1-1,1.27c-.26.32-.4.7-.69,1l0,0v0a2.71,2.71,0,0,1-.53-1.3c-.12-1-.05-2-.08-3a3.31,3.31,0,0,1,.08-1.09.94.94,0,0,1,.12-.22,5.13,5.13,0,0,1,.44-.6,1.63,1.63,0,0,1,.69-.42,2,2,0,0,1,.43-.08,2.48,2.48,0,0,1,.47,0,1.87,1.87,0,0,1,.59.2,1.43,1.43,0,0,1,.09.27A1.8,1.8,0,0,1,340.25,240.69Z" fill="#daaea8"></path>
<path d="M331.32,246.13a1.2,1.2,0,1,1-1.2-1.2A1.2,1.2,0,0,1,331.32,246.13Z" fill="#f2a196"></path>
<path d="M331.57,246.13a1.08,1.08,0,1,1-1.07-1.08A1.07,1.07,0,0,1,331.57,246.13Z" fill="#e88870"></path>
<path d="M330.51,245l.31,4,4.69,2.74a1.4,1.4,0,0,0,1.74-.69c.68-1.38,1.76-3.56,1.62-4.38a2.57,2.57,0,0,0-.78-1.62l.24-1.41a4.17,4.17,0,0,0,.07-1.61c-.15-.61-.61-.88-1-1.33a11.86,11.86,0,0,1-4.08,2.75C332.59,243.85,330.51,245,330.51,245Z" fill="#f2a196"></path>
<path d="M335.74,244.66v0l.07,0h0v0a.23.23,0,0,0,0,.09c0,.07.06.17.1.29l.33.87c.11.32.23.64.32.88s.08.21.11.28l0,.11h0l0,.05-1.32.06v-.07l1.22-.06,0-.06c0-.07-.06-.17-.1-.29l-.33-.87c-.12-.32-.24-.64-.32-.88l-.11-.29,0-.08v0Z" fill="#ffffff" fill-rule="evenodd"></path>
<path d="M334.76,244.14a5.73,5.73,0,0,0-2,.06v-.07a5.6,5.6,0,0,1,2-.06Z" fill="#ffffff" fill-rule="evenodd"></path>
<path d="M338.17,244.12a3.85,3.85,0,0,0-1.22.09l0-.07a3.76,3.76,0,0,1,1.25-.09Z" fill="#ffffff" fill-rule="evenodd"></path>
<path d="M334.15,248a.15.15,0,0,1,.09-.06.13.13,0,0,1,.1,0,2,2,0,0,0,.8.39c.52.11,1-.1,1.08,0s0,.17-.16.28a1.41,1.41,0,0,1-1.05.27,1.25,1.25,0,0,1-.87-.88A.13.13,0,0,1,334.15,248Z" fill="#fff"></path>
<path d="M334,245a.34.34,0,0,1,0,.67h0a.34.34,0,0,1,0-.67Z" fill="#ffffff"></path>
<path d="M337.51,244.93a.31.31,0,0,1,0,.62h0a.31.31,0,0,1,0-.62Z" fill="#ffffff"></path>
</g>
</g>
<g class="board-block board-block--7" filter="url(#shadow)">
<rect fill="#fff" height="90" rx="6" width="264" x="593.52" y="45.87"></rect>
<text data-id="board-text" x="609.2" y="74.8">Kick off documents</text>
<path d="M653.52,95.87h36a12,12,0,0,1,12,12h0a12,12,0,0,1-12,12h-36a12,12,0,0,1-12-12h0A12,12,0,0,1,653.52,95.87Z" fill="#6878b1"></path>
<text data-id="board-text-small" x="653.4" y="110.8">Biz Dev</text>
<g>
<circle cx="621.52" cy="107.87" fill="#d99797" r="12"></circle>
<path d="M626.72,106.5a7.14,7.14,0,0,1-.49,1.65c-.66,1-2,1.15-3,1.51a.76.76,0,0,0-.2.06l-.36.12-1.06.34a3.33,3.33,0,0,0-1.51.66,5.73,5.73,0,0,0-.57.73.22.22,0,0,1-.14.11s-.07-.05-.1-.07a4,4,0,0,1-1.47-1.39,8.87,8.87,0,0,1-1.34-6.08s0-.07,0-.1a3.71,3.71,0,0,1,.9-1.84,6.43,6.43,0,0,1,1.66-1.27,9.74,9.74,0,0,1,1.14-.52,7.84,7.84,0,0,1,2.66-.54,6.64,6.64,0,0,1,2.53.5,2.91,2.91,0,0,1,2,2.51A9.87,9.87,0,0,1,626.72,106.5Z" fill="#ffffff"></path>
<path d="M619.3,108.4a1.2,1.2,0,1,1-1.2-1.2A1.2,1.2,0,0,1,619.3,108.4Z" fill="#f2a196"></path>
<path d="M619.65,108.33a1.13,1.13,0,1,1-1.13-1.13A1.14,1.14,0,0,1,619.65,108.33Z" fill="#e88870"></path>
<path d="M629.51,117.09a13,13,0,0,1-16-.07l3.44-1.61a2.48,2.48,0,0,0,.47-.27l.08,0,0,0a3.32,3.32,0,0,0,.9-1.07,3.52,3.52,0,0,0,.38-1.72c0-.2,0-.41,0-.61s0-.4,0-.6,0-.45,0-.67l.13.06h0l.37.19.17,0,2,.33.78.13,1.42.25.07,2.26,0,.93v.19l.85.34.06,0Z" fill="#f2a196"></path>
<path d="M618.83,111.21l2.32,2.18a3.65,3.65,0,0,0,2.6.9l0-.94-.07-2.26-1.41-.24c-.2.09-.39.18-.58.25a2.44,2.44,0,0,1-1.8-.09,2.64,2.64,0,0,1-1.05-.85Z" fill="#e88870"></path>
<path d="M629.51,117.09a13,13,0,0,1-16-.07l3.44-1.61a2.48,2.48,0,0,0,.47-.27l.08,0c1.72,1.17,4,1.88,6,1a2.74,2.74,0,0,0,1.15-1Z" fill="#845161"></path>
<path d="M626.55,109a7.2,7.2,0,0,1-.25,1.52,13.31,13.31,0,0,1-1.06,2.82c-.19.33-.45.39-.86.49a3.63,3.63,0,0,1-3-.63l-2.57-1.89c0-.36-.09-.73-.16-1.11a12,12,0,0,1-.34-3.28,1.21,1.21,0,0,1,.4-.76,5.61,5.61,0,0,1,2.38-1c1-.27,2.09-.43,3.11-.74a3.6,3.6,0,0,0,2-1.26l.1.94c0,.35,0,.67.07,1a3.48,3.48,0,0,1-.07,1.16c-.06.27-.12.53-.17.79s0,.26.15.44A2.63,2.63,0,0,1,626.55,109Z" fill="#f2a196"></path>
<path d="M621.83,107a.34.34,0,0,1,0,.67h0a.34.34,0,0,1,0-.67Z" fill="#ffffff"></path>
<path d="M625.37,106.9a.31.31,0,0,1,0,.62h0a.31.31,0,0,1,0-.62Z" fill="#ffffff"></path>
<path d="M624,107.29v0l.07,0h0v0l0,0v0l.14.27a6.86,6.86,0,0,1,.32.86h0a3.68,3.68,0,0,1,.12,1v0h-1v-.07h.92a4.2,4.2,0,0,0-.11-1,5.81,5.81,0,0,0-.33-.85l-.13-.27,0,0a.17.17,0,0,1,0,0v0h0Z" fill="#ffffff" fill-rule="evenodd"></path>
<path d="M626.31,110.52a13.89,13.89,0,0,1-1.06,2.82c-.19.33-.45.39-.87.49a3.6,3.6,0,0,1-3-.63l-2.58-1.89a10.42,10.42,0,0,0-.28-1.23,1.18,1.18,0,0,1,0-.56.42.42,0,0,0,.12.26,2.88,2.88,0,0,0,1.27,1.15,2.34,2.34,0,0,0,1.8-.05c.49-.24,1-.55,1.47-.74a2.45,2.45,0,0,1,1.07-.19,1.8,1.8,0,0,1,1.12.58.7.7,0,0,0,.42.21A.92.92,0,0,0,626.31,110.52Z" fill="#ffffff"></path>
<path d="M624.5,110.85a2.15,2.15,0,0,1-1.5.09l0-.07a2.07,2.07,0,0,0,1.45-.08Z" fill="#f2a196" fill-rule="evenodd"></path>
<path d="M622.74,106.41a5.68,5.68,0,0,0-2,.06v-.07a5.55,5.55,0,0,1,2-.06Z" fill="#ffffff" fill-rule="evenodd"></path>
<path d="M626.16,106.39a4.17,4.17,0,0,0-1.22.09l0-.07a4.37,4.37,0,0,1,1.25-.09Z" fill="#ffffff" fill-rule="evenodd"></path>
<path d="M622.8,109.51a.27.27,0,0,1,.14-.33l0,.06a.21.21,0,0,0,.12.39l0,.07A.28.28,0,0,1,622.8,109.51Z" fill="#ffffff" fill-rule="evenodd"></path>
<path d="M618.59,110.21h.07l.05.06.15,1,0,0-.05-.07Z" fill="#ffffff"></path>
</g>
</g>
<g class="board-block board-block--8" filter="url(#shadow)">
<rect fill="#fff" height="108" rx="6" width="264" x="593.52" y="147.87"></rect>
<text data-id="board-text" x="609.2" y="194.8">Upgrade babel</text>
<path d="M612.52,163.87h49a3,3,0,0,1,3,3h0a3,3,0,0,1-3,3h-49a3,3,0,0,1-3-3h0A3,3,0,0,1,612.52,163.87Z" fill="#15c8ff"></path>
<path d="M653.52,215.87h69a12,12,0,0,1,12,12h0a12,12,0,0,1-12,12h-69a12,12,0,0,1-12-12h0A12,12,0,0,1,653.52,215.87Z" fill="#ff8474"></path>
<text data-id="board-text-small" x="655.5" y="230.8">Infrastructure</text>
<g>
<circle cx="621.52" cy="227.87" fill="#d08dba" r="12"></circle>
<path d="M621.9,236.93c-1.17.08-2.31,0-3.46,0-1.32,0-2.89.35-3.88-.8a3,3,0,0,1-.24-3,4.27,4.27,0,0,0,.47-2.13,12.76,12.76,0,0,0-.65-1.53,2.06,2.06,0,0,1,.17-1.63c.25-.43.66-.65.75-1.2a2.85,2.85,0,0,0-.09-.91c-.39-2.46,1.6-4.19,3.57-5.22a4.69,4.69,0,0,1,4-.39.8.8,0,0,0,.3.09,1.35,1.35,0,0,0,.29,0c1.62-.24,3.71,2.65,3.27,4.11a2.47,2.47,0,0,0-.23,1.35c.17.66,1,1,1.11,1.68s-.7,1.38-.54,2.1c.09.42.49.7.75,1.05a1.79,1.79,0,0,1,.32.92,1.54,1.54,0,0,1-.09.6c-.19.58-.69,1.1-.57,1.7s1.06.95,1,1.76a1.2,1.2,0,0,1-.8.92,5.5,5.5,0,0,1-.88.25c-.23.05-.42,0-.64,0-.62.06-1.23.16-1.85.19S622.58,236.89,621.9,236.93Z" fill="url(#linear-gradient-9)"></path>
<path d="M629.51,236.53a13,13,0,0,1-16-.07l3.44-1.61.31-.17.07-.05.09,0a3.28,3.28,0,0,0,1-1.16,3.59,3.59,0,0,0,.38-1.73c0-.4,0-.8,0-1.21,0-.22,0-.45,0-.67l.14.07.37.19,2.14.36,2.19.38.07,2.26,0,1.12.81.33.64.25Z" fill="#e18477"></path>
<path d="M623.72,232.48a.87.87,0,0,1-.54.16,7.61,7.61,0,0,1-4.36-2.44V230c0-.22,0-.44,0-.67l.14.07.37.19,2.14.37,2.19.37Z" fill="#a76962"></path>
<path d="M618.24,227.53a1.2,1.2,0,0,1-2.4,0,1.2,1.2,0,0,1,2.4,0Z" fill="#e18477"></path>
<path d="M618.67,227.39a1.2,1.2,0,1,1-1.2-1.2A1.2,1.2,0,0,1,618.67,227.39Z" fill="#a76962"></path>
<path d="M625.2,225.74c.83,2.87-.93,6.34-2,6.34-1.49,0-5.09-1.18-5.91-4.05s.27-5.72,2.46-6.35S624.37,222.87,625.2,225.74Z" fill="#e18477"></path>
<path d="M620.58,226.24a.33.33,0,0,1,0,.66h0a.33.33,0,0,1,0-.66Z" fill="#ffffff"></path>
<path d="M624.12,226.14a.31.31,0,0,1,0,.62h0a.31.31,0,0,1,0-.62Z" fill="#ffffff"></path>
<path d="M622.57,222.26l0,.05a4.83,4.83,0,0,1-.8,1.2,9,9,0,0,1-2.32,1.75,14.21,14.21,0,0,1-1.52.74c-.75.3-1.39.45-1.41.47a4.05,4.05,0,0,1,1.76-4.32,7.87,7.87,0,0,1,4.49-1.28A3.25,3.25,0,0,1,622.57,222.26Z" fill="url(#linear-gradient-10)"></path>
<path d="M622.56,225.87h0l.07,0h0v0a.45.45,0,0,1,0,.08c0,.07,0,.17.07.29s.13.57.2.89.15.64.2.87,0,.22.07.29l0,.11h0v0h-.93v-.08h.84l0-.06c0-.07,0-.17-.07-.29s-.13-.56-.2-.88-.15-.64-.2-.88,0-.22-.07-.29a.64.64,0,0,0,0-.09v0h0Z" fill="#ffffff" fill-rule="evenodd"></path>
<path d="M625,225a2.17,2.17,0,0,0-1.58.15l0-.06A2.28,2.28,0,0,1,625,225Z" fill="#ffffff" fill-rule="evenodd"></path>
<path d="M621.7,225.37a2.57,2.57,0,0,0-2.17.07l0-.06a2.6,2.6,0,0,1,2.23-.07Z" fill="#ffffff" fill-rule="evenodd"></path>
<path d="M629.51,236.53a13,13,0,0,1-16-.07l3.44-1.61a4.39,4.39,0,0,0,.47-.27l.13-.1a3.28,3.28,0,0,0,.9-1.06,3.11,3.11,0,0,0,.33-1,1.07,1.07,0,0,0,.16.14,6.68,6.68,0,0,0,1.4.8c.24.1.48.18.73.26a6.57,6.57,0,0,0,2.33.24l.33,0v.38l.86.34Z" fill="url(#linear-gradient-11)"></path>
<path d="M617.49,222.71a.34.34,0,0,1,.44-.2l1.21.46a.34.34,0,0,1,.2.44.34.34,0,0,1-.44.2l-1.21-.46A.34.34,0,0,1,617.49,222.71Z" fill="#ff2609"></path>
<path d="M617,223.75a.34.34,0,0,1,.44-.19l1.21.46a.34.34,0,0,1-.24.64l-1.21-.46A.35.35,0,0,1,617,223.75Z" fill="#f2d4cf"></path>
<path d="M620.76,229a.16.16,0,0,1,.08-.06.14.14,0,0,1,.11,0,1.91,1.91,0,0,0,.79.39c.52.11,1-.1,1.08,0s0,.17-.15.29a1.41,1.41,0,0,1-1,.26,1.23,1.23,0,0,1-.88-.88A.14.14,0,0,1,620.76,229Z" fill="#fff"></path>
</g>
</g>
<g class="board-block board-block--9" filter="url(#shadow)">
<rect fill="#fff" height="108" rx="6" width="264" x="593.52" y="267.87"></rect>
<text data-id="board-text" x="609.2" y="314.8">Fix CSS classes</text>
<path d="M612.52,283.87h49a3,3,0,0,1,3,3h0a3,3,0,0,1-3,3h-49a3,3,0,0,1-3-3h0A3,3,0,0,1,612.52,283.87Z" fill="#8352f1"></path>
<path d="M653.52,335.87h36a12,12,0,0,1,12,12h0a12,12,0,0,1-12,12h-36a12,12,0,0,1-12-12h0A12,12,0,0,1,653.52,335.87Z" fill="#f6d14b"></path>
<text data-id="board-text-small" x="655.1" y="351.0">QA/QC</text>
<g>
<circle cx="621.52" cy="347.87" fill="#f3de84" r="12"></circle>
<path d="M629.53,356.88a13,13,0,0,1-16-.07L617,355.2a3.59,3.59,0,0,0,.47-.27l.13-.1a3.23,3.23,0,0,0,.91-1.07,3.28,3.28,0,0,0,.32-1,4.14,4.14,0,0,0,.06-.7c0-.41,0-.81,0-1.21,0-.23,0-.45,0-.68l.14.08.37.19.17,0,2,.34,2.2.37.06,2.26,0,.74,0,.36v0l.85.35Z" fill="#f2a196"></path>
<path d="M629.53,356.88a13,13,0,0,1-16-.07L617,355.2a3.59,3.59,0,0,0,.47-.27l.13-.1c1.67,1.18,3.94,1.93,5.9,1a2.52,2.52,0,0,0,1.15-1Z" fill="url(#linear-gradient-2)"></path>
<path d="M623.77,354.51a4.67,4.67,0,0,1-2.25-1c-1.44-.83-2.29-1.9-2-3.09l2,.33,2.19.38.07,2.26Z" fill="#e88870"></path>
<path d="M627.16,343.17a6.16,6.16,0,0,1-.8,4c-.72,1.64-1.76,1.83-3.34,2.37-.35.12-4.18,1.21-4.18,1.45a6,6,0,0,0-.84-.88,5.41,5.41,0,0,1-1.25-6.23c1.35-2.83,5.34-3.33,8.09-2.65a2.83,2.83,0,0,1,2.22,1.6A3,3,0,0,1,627.16,343.17Z" fill="#ffffff"></path>
<path d="M619.34,348.18a1.2,1.2,0,1,1-1.2-1.2A1.2,1.2,0,0,1,619.34,348.18Z" fill="#f2a196"></path>
<path d="M619.59,348.18a1.07,1.07,0,1,1-1.07-1.07A1.08,1.08,0,0,1,619.59,348.18Z" fill="#e88870"></path>
<path d="M618.54,347.05l.3,4,4.69,2.74a1.41,1.41,0,0,0,1.75-.69c.67-1.39,1.75-3.57,1.61-4.38a2.57,2.57,0,0,0-.78-1.62l.24-1.41a4,4,0,0,0,.07-1.62c-.15-.61-.61-.87-1-1.33a11.65,11.65,0,0,1-4.08,2.76C620.61,345.91,618.54,347.05,618.54,347.05Z" fill="#f2a196"></path>
<path d="M623.76,346.71h.07v0a.34.34,0,0,1,0,.08c0,.07.06.17.1.29l.33.88c.12.31.24.63.32.87l.11.28,0,.11,0,0,0,0,0,.05-1.31.06v-.07l1.22-.06,0-.06c0-.07-.07-.17-.11-.29l-.33-.87-.32-.87c0-.12-.08-.22-.11-.3l0-.08v0h0Z" fill="#ffffff" fill-rule="evenodd"></path>
<path d="M622.78,346.2a5.66,5.66,0,0,0-2,.05l0-.07a5.84,5.84,0,0,1,2-.05Z" fill="#ffffff" fill-rule="evenodd"></path>
<path d="M626.19,346.17a4.19,4.19,0,0,0-1.22.09v-.07a4.3,4.3,0,0,1,1.24-.09Z" fill="#ffffff" fill-rule="evenodd"></path>
<path d="M622.18,350s.05,0,.08-.06a.15.15,0,0,1,.1,0,2.17,2.17,0,0,0,.8.4c.52.1,1-.11,1.08,0s0,.16-.16.28A1.36,1.36,0,0,1,623,351a1.22,1.22,0,0,1-.87-.88A.07.07,0,0,1,622.18,350Z" fill="#fff"></path>
<path d="M622,346.92a.33.33,0,0,1,0,.66h0a.33.33,0,0,1,0-.66Z" fill="#ffffff"></path>
<path d="M625.49,346.82a.31.31,0,0,1,0,.61h0a.31.31,0,0,1,0-.61Z" fill="#ffffff"></path>
<path d="M625.48,341.46a19.27,19.27,0,0,0-4.4.6,19.83,19.83,0,0,0-4.16,1.55,5.4,5.4,0,0,1,8.56-2.15Z" fill="#845161"></path>
</g>
</g>
<g class="board-block board-block--3" filter="url(#shadow)">
<rect fill="#fff" height="108" rx="6" width="264" x="16.52" y="267.87"></rect>
<text data-id="board-text" x="32.5" y="314.8">Write tests</text>
<path d="M35.52,283.87h49a3,3,0,0,1,3,3h0a3,3,0,0,1-3,3h-49a3,3,0,0,1-3-3h0A3,3,0,0,1,35.52,283.87Z" fill="#15c8ff"></path>
<path d="M76.52,335.87h36a12,12,0,0,1,12,12h0a12,12,0,0,1-12,12h-36a12,12,0,0,1-12-12h0A12,12,0,0,1,76.52,335.87Z" fill="#f6d14b"></path>
<text data-id="board-text-small" x="78.1" y="350.8">QA/QC</text>
<g>
<circle cx="44.52" cy="347.87" fill="#ecc1c1" r="12"></circle>
<path d="M45.84,340.31a6.31,6.31,0,0,0-2.65-.42,8.15,8.15,0,0,0-3.92,1.56,4.16,4.16,0,0,0-1.74,2.28c-.13.82.87,1.43.68,2.17s-1.44.49-1.68,1.18,1.16,1.69.89,2.38-2-.09-2.08.8c-.1,1.22,2,1.5,1.86,2.18s-2.5.47-2.67,1.12,1.68,2,4.19,2.73c6.74,1.91,13.62-1.75,13.43-2.69-.11-.5-2.21-.73-2.28-1.39s1.33-1,1.24-1.43-1.67-.34-1.8-.86,1.7-1.29,1.57-2-1.36-.51-1.52-1.15,1-1.36.79-2-1.74-.39-2.08-1.23c-.2-.49.36-.89.34-1.44S47.83,341,45.84,340.31Z" fill="url(#linear-gradient-5)"></path>
<path d="M52,356.54a13,13,0,0,1-16-.07l3.43-1.61.31-.16.08-.05.08-.06a3.31,3.31,0,0,0,1-1.16,3.76,3.76,0,0,0,.38-1.72c0-.41,0-.81,0-1.21,0-.23,0-.45,0-.68l.15.07.36.19,2.14.37,2.2.37.06,2.26,0,1.12.81.33.63.26Z" fill="#e18477"></path>
<path d="M46.19,353.08a4.13,4.13,0,0,1-2.12-.17,3.7,3.7,0,0,1-2.65-3l.37.19,2.14.36,2.2.38Z" fill="#a76962"></path>
<path d="M40.44,347.57a1.2,1.2,0,1,1-2.4,0,1.2,1.2,0,1,1,2.4,0Z" fill="#e18477"></path>
<path d="M40.86,347.42a1.2,1.2,0,1,1-1.2-1.2A1.2,1.2,0,0,1,40.86,347.42Z" fill="#a76962"></path>
<path d="M47.91,345.67c.88,3.05-.83,6.59-2.13,6.73-3.15.36-5.39-1.25-6.27-4.3s.29-6.06,2.61-6.73S47,342.63,47.91,345.67Z" fill="#e18477"></path>
<path d="M47.48,345.18a2.19,2.19,0,0,0-1.59.15l0-.06a2.22,2.22,0,0,1,1.64-.15Z" fill="#ffffff" fill-rule="evenodd"></path>
<path d="M44.17,345.53a2.54,2.54,0,0,0-2.17.06l0-.06a2.64,2.64,0,0,1,2.23-.07Z" fill="#ffffff" fill-rule="evenodd"></path>
<path d="M52,356.54a13,13,0,0,1-16-.07l3.43-1.61a2.2,2.2,0,0,0,.47-.27l.14-.09a3.32,3.32,0,0,0,.9-1.07,3.38,3.38,0,0,0,.33-1l.15.13a6.94,6.94,0,0,0,1.4.8,6.49,6.49,0,0,0,.74.26,6.79,6.79,0,0,0,2.33.25l.33,0v.38l.85.35Z" fill="#f2d4cf"></path>
<path d="M43.76,346.73a.78.78,0,0,1-.25.54.78.78,0,0,1-.56.2v-.07a.68.68,0,0,0,.51-.18.71.71,0,0,0,.23-.49Z" fill="#ffffff" fill-rule="evenodd"></path>
<path d="M46.26,347.08a.63.63,0,0,1-.25-.5h.07a.58.58,0,0,0,.22.45,2.13,2.13,0,0,0,.46.27l0,.07a1.92,1.92,0,0,1-.48-.29Z" fill="#ffffff" fill-rule="evenodd"></path>
<path d="M43.71,348.75a1.66,1.66,0,0,0-.91.44,1.52,1.52,0,0,0-.32.39l-.06,0a1.86,1.86,0,0,1,.33-.41h0a1.79,1.79,0,0,1,1-.45Z" fill="#ffffff" fill-rule="evenodd"></path>
<path d="M45.94,344H44.27v-.07h1.67Z" fill="#ffffff" fill-rule="evenodd"></path>
<path d="M45.94,344.54H43.86v-.07h2.08Z" fill="#ffffff" fill-rule="evenodd"></path>
<path d="M43.23,349.47a.15.15,0,0,1,.09-.06.12.12,0,0,1,.1,0,2,2,0,0,0,.8.39c.52.11,1-.1,1.08,0s0,.17-.16.29a1.41,1.41,0,0,1-1,.26,1.22,1.22,0,0,1-.87-.88A.13.13,0,0,1,43.23,349.47Z" fill="#fff"></path>
<path d="M45.37,341.22a2.16,2.16,0,0,0-1.13-.39A5.15,5.15,0,0,0,40,342.25,4.7,4.7,0,0,0,38.69,344c-.3.76-.45,2.36.72,2.3a3.72,3.72,0,0,0,1.44-.48,11.66,11.66,0,0,0,3.41-2.49,10.72,10.72,0,0,0,.67-.84c.26-.37.92-.83.45-1.3Z" fill="url(#linear-gradient-6)"></path>
<path d="M45.5,347a3.8,3.8,0,0,1-.14-.82h.07a3.63,3.63,0,0,0,.14.8,1.57,1.57,0,0,0,.29.54l0,0a1.59,1.59,0,0,1,.13.22h0a.7.7,0,0,1,0,.63.62.62,0,0,1-.55.3h-.29v-.07h.29a.54.54,0,0,0,.49-.27.64.64,0,0,0,0-.56,2.39,2.39,0,0,0-.13-.21h0l0,0a1.77,1.77,0,0,1-.3-.56Z" fill="#ffffff" fill-rule="evenodd"></path>
<path d="M44,348.43a.29.29,0,0,1,.13-.34l0,.07a.2.2,0,0,0,.12.38l0,.07A.27.27,0,0,1,44,348.43Z" fill="#ffffff" fill-rule="evenodd"></path>
<path d="M43,346.2a.34.34,0,0,1,0,.67h0a.34.34,0,0,1,0-.67Z" fill="#ffffff"></path>
<path d="M46.58,346.09a.31.31,0,0,1,0,.62h0a.31.31,0,0,1,0-.62Z" fill="#ffffff"></path>
</g>
</g>
</svg>
