<svg width="32" height="32" viewBox="0 0 32 32" fill="none" xmlns="http://www.w3.org/2000/svg"><path d="M11.7631 2.75003C14.3937 4.26881 14.9593 8.21416 13.0263 11.5622C11.0933 14.9103 7.39373 16.3932 4.76312 14.8744C2.13251 13.3556 1.56698 9.41025 3.49998 6.0622C5.43297 2.71416 9.13251 1.23124 11.7631 2.75003ZM11.2631 3.61605C10.0674 2.9257 7.75491 4.69245 6.09805 7.5622C4.4412 10.432 4.06739 13.318 5.26312 14.0084C6.45885 14.6987 8.77133 12.932 10.4282 10.0622C12.085 7.19245 12.4588 4.30641 11.2631 3.61605Z" fill="currentColor"/><path d="M27.1631 17.05C29.7938 18.5688 30.3593 22.5142 28.4263 25.8622C26.4933 29.2103 22.7938 30.6932 20.1631 29.1744C17.5325 27.6556 16.967 23.7103 18.9 20.3622C20.833 17.0142 24.5325 15.5312 27.1631 17.05ZM26.6631 17.9161C25.4674 17.2257 23.1549 18.9924 21.4981 21.8622C19.8412 24.732 19.4674 27.618 20.6631 28.3084C21.8589 28.9987 24.1714 27.232 25.8282 24.3622C27.4851 21.4924 27.8589 18.6064 26.6631 17.9161Z" fill="currentColor"/><path d="M22.7042 2.38759L24.4363 3.38759L9.29419 29.6145L7.56214 28.6145L22.7042 2.38759Z" fill="currentColor"/></svg>
