<svg xmlns="http://www.w3.org/2000/svg" viewBox="0 0 24 24" width="24" height="24">
    <!-- Icon from Material Symbols by Google - https://github.com/google/material-design-icons/blob/master/LICENSE -->
    <defs>
        <linearGradient id="bryntum-scheduler-pro-dark-grad" x1="12" y1="2" x2="12" y2="22" gradientUnits="userSpaceOnUse">
            <stop stop-color="white" stop-opacity="0.9"/>
            <stop offset="1" stop-color="white" stop-opacity="0.5"/>
        </linearGradient>
    </defs>
    <path fill="url(#bryntum-scheduler-pro-dark-grad)" d="M13 11.6V8q0-.425-.288-.712T12 7t-.712.288T11 8v3.975q0 .2.075.388t.225.337l3.3 3.3q.275.275.7.275T16 16t.275-.7t-.275-.7zM12 22q-2.075 0-3.9-.788t-3.175-2.137T2.788 15.9T2 12t.788-3.9t2.137-3.175T8.1 2.788T12 2t3.9.788t3.175 2.137T21.213 8.1T22 12t-.788 3.9t-2.137 3.175t-3.175 2.138T12 22"/>
    <rect x="7" y="13.5" width="17" height="9" rx="4.5" fill="#FFFFFF"/>
    <text x="15.5" y="20.3" text-anchor="middle" fill="#044B93" font-size="6.5" font-weight="800" font-family="-apple-system, BlinkMacSystemFont, 'Segoe UI', Inter, Roboto, Arial, sans-serif" letter-spacing="0.1">PRO</text>
</svg>
