<svg width="24" height="24" viewBox="0 0 24 24" fill="none" xmlns="http://www.w3.org/2000/svg">
<path d="M4 13h6a1 1 0 0 0 1-1V4a1 1 0 0 0-1-1H4a1 1 0 0 0-1 1v8a1 1 0 0 0 1 1z" fill="url(#studio_dark_g1)"/>
<path d="M3 20a1 1 0 0 0 1 1h6a1 1 0 0 0 1-1v-4a1 1 0 0 0-1-1H4a1 1 0 0 0-1 1z" fill="url(#studio_dark_g2)"/>
<path d="M14 10h6a1 1 0 0 0 1-1V4a1 1 0 0 0-1-1h-6a1 1 0 0 0-1 1v5a1 1 0 0 0 1 1z" fill="url(#studio_dark_g3)"/>
<path d="M13 20a1 1 0 0 0 1 1h6a1 1 0 0 0 1-1v-7a1 1 0 0 0-1-1h-6a1 1 0 0 0-1 1z" fill="url(#studio_dark_g4)"/>
<defs>
<linearGradient id="studio_dark_g1" x1="3" y1="3" x2="11" y2="13" gradientUnits="userSpaceOnUse">
<stop stop-color="white"/>
<stop offset="1" stop-color="white"/>
</linearGradient>
<linearGradient id="studio_dark_g2" x1="7" y1="15" x2="7" y2="21" gradientUnits="userSpaceOnUse">
<stop stop-color="white"/>
<stop offset="1" stop-color="white"/>
</linearGradient>
<linearGradient id="studio_dark_g3" x1="13" y1="3" x2="21" y2="10" gradientUnits="userSpaceOnUse">
<stop stop-color="white"/>
<stop offset="1" stop-color="white"/>
</linearGradient>
<linearGradient id="studio_dark_g4" x1="17" y1="12" x2="17" y2="21" gradientUnits="userSpaceOnUse">
<stop stop-color="white" stop-opacity="0.05"/>
<stop offset="1" stop-color="white"/>
</linearGradient>
</defs>
</svg>
