<svg width="32" height="32" viewBox="0 0 32 32" fill="none" xmlns="http://www.w3.org/2000/svg">
<path d="M28 9.58594V28.667C27.9998 29.9554 26.9554 30.9998 25.667 31H6.33301C5.0446 30.9998 4.00018 29.9554 4 28.667V3.33301C4.00018 2.0446 5.0446 1.00018 6.33301 1H19.4141L28 9.58594ZM6.33301 3C6.14917 3.00018 6.00018 3.14917 6 3.33301V28.667C6.00018 28.8508 6.14917 28.9998 6.33301 29H25.667C25.8508 28.9998 25.9998 28.8508 26 28.667V13H16V3H6.33301ZM18 11H26V10.4141L18.5859 3H18V11Z" fill="currentColor"/>
</svg>
