<svg width="32" height="32" viewBox="0 0 32 32" fill="none" xmlns="http://www.w3.org/2000/svg">
    <path
        d="M23.1817 5C24.1944 5.00019 25.1659 5.40293 25.8819 6.11914C26.5977 6.83536 27.0002 7.8067 27.0001 8.81934C26.9999 9.76881 26.6462 10.6824 26.0118 11.3828L25.8809 11.5195L23.7911 13.6084C23.765 13.6422 23.7381 13.676 23.7071 13.707C23.6763 13.7378 23.643 13.7651 23.6094 13.791L12.5333 24.8691C12.1856 25.2156 11.7578 25.4724 11.2881 25.6152L6.93463 26.9355L6.9317 26.9365C6.67264 27.0143 6.39715 27.02 6.13483 26.9541C5.87245 26.8881 5.63204 26.7526 5.44049 26.5615C5.24894 26.3703 5.11243 26.1296 5.04596 25.8672C4.97968 25.605 4.98525 25.3294 5.06256 25.0703L5.06451 25.0664L6.38483 20.7139L6.3858 20.7109L6.44537 20.5371C6.57444 20.193 6.76604 19.8756 7.00983 19.6006L7.1358 19.4658L18.209 8.38965C18.2349 8.35627 18.2624 8.3236 18.293 8.29297C18.3237 8.26234 18.3563 8.23481 18.3897 8.20898L20.4805 6.11816L20.6182 5.9873C21.3188 5.35318 22.2323 4.99989 23.1817 5ZM8.54791 20.8828C8.43204 20.9985 8.34591 21.1413 8.29791 21.2979L7.24908 24.749L10.7061 23.7012L10.8204 23.6592C10.932 23.6097 11.0342 23.5398 11.1212 23.4531L21.5792 12.9932L19.0069 10.4209L8.54791 20.8828ZM23.1817 7C22.6995 6.99995 22.2357 7.19048 21.8946 7.53125L21.8956 7.53223L20.421 9.00684L22.9932 11.5791L24.4669 10.1055L24.588 9.97168C24.853 9.64822 24.9999 9.24117 25.0001 8.81934C25.0001 8.33702 24.8078 7.87434 24.4669 7.5332C24.1259 7.19221 23.6639 7.00019 23.1817 7Z"
        fill="currentColor"
    />
</svg>
