<svg width="32" height="32" viewBox="0 0 32 32" fill="none" xmlns="http://www.w3.org/2000/svg"><path d="M17.251 5.70508H15.0693C13.706 5.70525 12.5141 6.62468 12.168 7.94336L11.0684 12.1328H15.1445V14.1328H10.5439L7.48926 25.7715C6.95377 27.812 5.10961 29.2353 3 29.2354V27.2354C4.20043 27.2353 5.24982 26.4257 5.55469 25.2646L8.47559 14.1328H4.61035V12.1328H9.00098L10.2334 7.43555C10.8103 5.23765 12.797 3.70525 15.0693 3.70508H17.251V5.70508Z" fill="currentColor"/><path d="M21.6895 16.3291L26.2432 12.0791H29.1748L22.7588 18.0674L26.8525 24.7197H24.5039L21.2666 19.459L15.6309 24.7197H12.7002L20.1973 17.7217L16.7256 12.0791H19.0742L21.6895 16.3291Z" fill="currentColor"/></svg>