<?xml version="1.0" encoding="UTF-8" standalone="no"?>
<svg
   width="114"
   height="36"
   fill="none"
   version="1.1"
   id="svg5"
   sodipodi:docname="logo.svg"
   inkscape:version="1.4 (e7c3feb1, 2024-10-09)"
   xmlns:inkscape="http://www.inkscape.org/namespaces/inkscape"
   xmlns:sodipodi="http://sodipodi.sourceforge.net/DTD/sodipodi-0.dtd"
   xmlns="http://www.w3.org/2000/svg"
   xmlns:svg="http://www.w3.org/2000/svg">
  <sodipodi:namedview
     id="namedview5"
     pagecolor="#ffffff"
     bordercolor="#000000"
     borderopacity="0.25"
     inkscape:showpageshadow="2"
     inkscape:pageopacity="0.0"
     inkscape:pagecheckerboard="0"
     inkscape:deskcolor="#d1d1d1"
     inkscape:zoom="8.7377619"
     inkscape:cx="66.836337"
     inkscape:cy="23.919169"
     inkscape:window-width="1728"
     inkscape:window-height="1051"
     inkscape:window-x="0"
     inkscape:window-y="38"
     inkscape:window-maximized="0"
     inkscape:current-layer="svg5" />
  <g
     clip-path="url(#a)"
     id="g3">
    <path
       fill="#58C4DC"
       d="M18.115 12.847a3.447 3.447 0 0 0-3.446 3.447 3.454 3.454 0 0 0 3.446 3.446 3.454 3.454 0 0 0 3.446-3.446 3.454 3.454 0 0 0-3.446-3.447Z"
       id="path1" />
    <path
       fill="#58C4DC"
       d="M36.23 16.294c0-2.727-2.52-5.115-6.544-6.686.055-.349.098-.708.142-1.047.392-3.915-.546-6.74-2.65-7.95-2.356-1.363-5.693-.37-9.052 2.323C14.745.24 11.418-.752 9.052.611c-2.105 1.221-3.054 4.046-2.65 7.95.033.35.076.698.142 1.047-.339.131-.666.262-.982.404C1.974 11.626 0 13.862 0 16.294s2.52 5.115 6.544 6.685c-.055.35-.099.709-.142 1.047-.393 3.915.545 6.74 2.65 7.95.72.415 1.549.622 2.377.611 1.996 0 4.33-1.047 6.675-2.933 2.345 1.875 4.678 2.933 6.685 2.933a4.656 4.656 0 0 0 2.378-.61c2.105-1.222 3.053-4.047 2.65-7.95-.033-.35-.087-.699-.142-1.048 4.013-1.57 6.544-3.959 6.544-6.685m-11.44-14.57c.534-.011 1.068.12 1.537.37 1.462.84 2.116 3.141 1.8 6.282-.022.218-.044.436-.077.654a30.23 30.23 0 0 0-5.115-1.068 30.268 30.268 0 0 0-3.49-3.894c1.996-1.548 3.872-2.345 5.344-2.345ZM24.09 19.74a37.791 37.791 0 0 1-2.105 3.261 38.21 38.21 0 0 1-7.743 0 37.791 37.791 0 0 1-3.86-6.707 36.54 36.54 0 0 1 1.755-3.447 39.235 39.235 0 0 1 2.094-3.25 38.367 38.367 0 0 1 3.872-.207c1.287 0 2.585.066 3.872.197a39.358 39.358 0 0 1 2.104 3.25 37.911 37.911 0 0 1 1.756 3.446 36.551 36.551 0 0 1-1.756 3.446m2.64-1.276c.403 1.102.741 2.236.992 3.392a28.464 28.464 0 0 1-3.424.829c.436-.665.861-1.353 1.276-2.072.403-.71.785-1.418 1.145-2.138m-8.616 8.932a26.897 26.897 0 0 1-2.432-2.552c.796.044 1.603.076 2.432.076s1.636-.032 2.432-.076a26.897 26.897 0 0 1-2.432 2.552Zm-6.184-4.733a26.497 26.497 0 0 1-3.424-.818c.262-1.145.589-2.28.992-3.38.36.719.731 1.428 1.145 2.137.415.709.84 1.407 1.276 2.072m-2.432-8.561a27.763 27.763 0 0 1-.992-3.37 28.295 28.295 0 0 1 3.413-.83 41.487 41.487 0 0 0-1.276 2.062 40.81 40.81 0 0 0-1.145 2.138Zm8.616-8.932a26.89 26.89 0 0 1 2.432 2.552 44.229 44.229 0 0 0-2.432-.077c-.818 0-1.636.022-2.432.077a25.584 25.584 0 0 1 2.432-2.552Zm7.47 6.794c-.414-.72-.84-1.407-1.286-2.072 1.156.196 2.3.48 3.424.829a27.925 27.925 0 0 1-.992 3.38c-.36-.72-.742-1.428-1.145-2.137ZM8.093 8.387c-.327-3.152.338-5.442 1.8-6.282a2.92 2.92 0 0 1 1.537-.37c1.473 0 3.349.806 5.344 2.344a30.268 30.268 0 0 0-3.49 3.894A30.232 30.232 0 0 0 8.17 9.04a13.365 13.365 0 0 1-.077-.654Zm-6.369 7.907c0-1.69 1.658-3.403 4.548-4.7.196-.088.393-.175.6-.252a31.431 31.431 0 0 0 1.625 4.963 30.509 30.509 0 0 0-1.636 4.973c-3.261-1.33-5.148-3.185-5.148-4.973m8.19 14.188c-1.46-.84-2.126-3.14-1.799-6.281.022-.219.044-.426.076-.655 1.67.502 3.381.862 5.115 1.069a29.56 29.56 0 0 0 3.49 3.893c-2.78 2.149-5.333 2.858-6.87 1.963m18.19-6.281c.317 3.151-.337 5.442-1.799 6.281-1.549.895-4.09.186-6.87-1.963a30.27 30.27 0 0 0 3.49-3.893 30.236 30.236 0 0 0 5.114-1.069c.033.218.055.436.077.655m1.254-2.945a30.393 30.393 0 0 0-1.636-4.962 30.513 30.513 0 0 0 1.636-4.973c3.25 1.33 5.147 3.184 5.147 4.973 0 1.788-1.886 3.631-5.147 4.973"
       id="path2" />
    <path
       fill="#f5f4f3"
       fill-rule="evenodd"
       d="M 97.86,6.75 97.854,6.747 98.994,3.588 C 98.626,3.408 98.454,3.244 98.304,3.1 97.898,2.709 97.644,2.465 94.054,2.465 c -4.92,0 -8.05,2.868 -8.05,7.874 0,5.006 3.153,7.754 7.93,7.754 1.744,0 3.73,-0.425 4.896,-1.069 l -0.785,-3.37 c -0.189,0.125 -0.35,0.242 -0.498,0.35 -0.735,0.54 -1.19,0.872 -3.44,0.872 -2.704,0 -4.274,-1.822 -4.274,-4.635 0,-2.814 1.68,-4.559 4.253,-4.559 1.34,0 2.646,0.402 3.768,1.065 L 97.849,6.762 Z M 45.401,17.734 H 41.605 V 2.813 h 5.988 c 3.959,0 6.042,1.844 6.042,4.723 0,2.88 -1.047,3.534 -3.054,4.297 l 3.817,5.9 h -4.275 l -2.988,-5.017 -1.745,0.142 v 4.864 z m 1.843,-7.732 c 1.625,-0.12 2.508,-0.785 2.508,-2.225 0,-1.44 -0.905,-1.952 -2.814,-1.952 h -1.603 v 4.22 z m 10.142,7.732 V 2.813 h 10.906 v 3.055 h -7.187 v 2.868 h 5.78 v 3.032 h -5.78 v 2.912 h 7.187 v 3.053 z m 24.146,0 h 3.773 L 80.103,2.814 h -4.755 l -5.3,14.92 h 3.773 l 1.069,-3.173 h 5.54 z m -5.824,-6.14 1.985,-5.845 1.908,5.845 z m 33.536,6.14 V 5.988 h 4.744 V 2.814 h -13.294 v 3.174 h 4.755 v 11.745 z m -60.626,6.478 c -0.894,-0.578 -1.712,-0.861 -2.77,-0.861 -2.203,0 -3.675,1.527 -3.675,4.035 0,2.508 1.494,4.111 3.708,4.111 1.795,0 2.099,-0.286 2.527,-0.691 0.1,-0.095 0.207,-0.196 0.34,-0.301 l 0.23,1.374 c -0.829,0.524 -1.996,0.84 -3.13,0.84 -2.967,0 -5.071,-2.061 -5.071,-5.279 0,-3.217 2.126,-5.333 5.07,-5.333 2.248,0 2.45,0.19 2.788,0.509 0.105,0.099 0.223,0.21 0.42,0.331 l -0.437,1.243 z m 1.374,3.24 c 0,3.206 2.115,5.278 5.082,5.278 2.977,0 5.082,-2.138 5.082,-5.344 0,-3.206 -2.105,-5.268 -5.082,-5.268 -2.978,0 -5.082,2.127 -5.082,5.333 z m 1.385,-0.066 c 0,-2.432 1.505,-4.035 3.664,-4.035 2.214,0 3.74,1.68 3.74,4.1 0,2.422 -1.45,4.047 -3.674,4.047 -2.225,0 -3.73,-1.68 -3.73,-4.112 z m 16.654,-5.017 h 1.341 v 10.22 H 67.878 L 62.447,24.321 V 32.49 H 61.105 V 22.37 h 1.527 l 5.399,8.168 z m 10.502,0 H 72.284 V 32.5 h 1.374 v -4.263 h 4.035 V 26.96 H 73.66 v -3.294 h 4.875 z"
       clip-rule="evenodd"
       id="path3"
       sodipodi:nodetypes="ccccssscccsssccccccssccccccccsscccccccccccccccccccccccccccccccccccccccssscccsssccccssssssssssscccccccccccccccccccccc" />
    <text
       xml:space="preserve"
       x="77.835"
       y="55.489"
       style="text-align:start;writing-mode:lr-tb;direction:ltr;text-anchor:start;fill:#f5f4f3;fill-opacity:1"
       id="text3"><tspan
         x="77.835"
         y="55.489"
         id="tspan3">2</tspan></text>
  </g>
  <defs
     id="defs4">
    <clipPath
       id="a">
      <path
         fill="#fff"
         d="M0 0h114v35.477H0z"
         id="path4" />
    </clipPath>
  </defs>
  <path
     d="m 86.984651,31.739 v -1.351997 h -4.350659 c 2.253329,-1.62933 3.969326,-2.669328 3.969326,-4.558658 0,-1.52533 -1.230664,-2.530662 -2.998661,-2.530662 -1.282664,0 -2.305329,0.467999 -3.119994,1.109332 l 0.502666,1.213331 c 0.814665,-0.606666 1.594664,-0.987999 2.461328,-0.987999 1.039998,0 1.646664,0.571999 1.646664,1.369331 0,1.351998 -2.201329,2.703995 -4.627991,4.506658 V 31.739 Z m 9.793326,-4.090658 c 0,-2.582662 -1.73333,-4.350659 -4.194658,-4.350659 -2.461329,0 -4.177325,1.767997 -4.177325,4.350659 0,2.582661 1.715996,4.350658 4.177325,4.350658 2.461328,0 4.194658,-1.767997 4.194658,-4.350658 z m -1.42133,0 c 0,1.73333 -1.126665,2.99866 -2.773328,2.99866 -1.646664,0 -2.755995,-1.26533 -2.755995,-2.99866 0,-1.73333 1.109331,-2.998661 2.755995,-2.998661 1.646663,0 2.773328,1.265331 2.773328,2.998661 z M 104.82064,31.739 v -1.351997 h -4.35066 c 2.25333,-1.62933 3.96933,-2.669328 3.96933,-4.558658 0,-1.52533 -1.23067,-2.530662 -2.99867,-2.530662 -1.28266,0 -2.305325,0.467999 -3.11999,1.109332 l 0.502666,1.213331 c 0.814665,-0.606666 1.594664,-0.987999 2.461324,-0.987999 1.04,0 1.64667,0.571999 1.64667,1.369331 0,1.351998 -2.20133,2.703995 -4.627993,4.506658 V 31.739 Z"
     id="text4"
     style="font-weight:500;font-size:17.3333px;font-family:'FreightSans Pro';-inkscape-font-specification:'FreightSans Pro, Medium';fill:#f5f4f3"
     aria-label="202"
     sodipodi:nodetypes="cccssccsscccsssssssssscccssccssccc" />
  <path
     d="M 106.08246,27.295787 106.3532,25.2517 h 3.3301 l -0.0406,-1.394311 h -4.58905 l -0.56855,4.575506 0.29781,0.297814 c 0.46026,-0.148907 0.94759,-0.243666 1.67859,-0.243666 1.23187,0 1.8275,0.663313 1.8275,1.448459 0,0.94759 -0.69039,1.529681 -1.69213,1.529681 -0.75807,0 -1.66505,-0.311351 -2.22007,-0.595628 l -0.20305,1.421385 c 0.63624,0.324888 1.59737,0.54148 2.4502,0.54148 1.89518,0 3.23534,-1.231867 3.23534,-3.005214 0,-1.502607 -1.0965,-2.585567 -2.97814,-2.585567 -0.37904,0 -0.58209,0.04061 -0.79868,0.05415 z"
     id="text5"
     style="font-weight:600;font-size:13.537px;font-family:'FreightSans Pro';-inkscape-font-specification:'FreightSans Pro, Semi-Bold';fill:#f5f4f3;stroke-width:0.780986"
     transform="scale(1.02435 .97623)"
     aria-label="5" />
</svg>
