<svg width="16" height="16" viewBox="0 0 16 16" fill="none" xmlns="http://www.w3.org/2000/svg">
<path d="M3.46982 12.2805C3.32917 12.1398 3.25015 11.9491 3.25015 11.7501C3.25015 11.3361 3.58615 11.0001 4.00015 11.0001L12.0002 11.0001C12.1991 11.0001 12.3898 11.0792 12.5305 11.2198C12.6711 11.3605 12.7502 11.5512 12.7502 11.7501C12.7502 11.9491 12.6711 12.1398 12.5305 12.2805C12.3898 12.4211 12.1991 12.5001 12.0002 12.5001L4.00015 12.5001C3.80124 12.5001 3.61048 12.4211 3.46982 12.2805Z" fill="currentColor"/>
<path d="M12.7313 5.25562C12.7348 5.44992 12.6626 5.63797 12.5302 5.78014L8.53015 9.78014C8.38953 9.92059 8.1989 9.99948 8.00015 9.99948C7.8014 9.99948 7.61078 9.92059 7.47015 9.78014L3.47015 5.78014C3.39647 5.71148 3.33736 5.62868 3.29637 5.53668C3.25538 5.44468 3.23334 5.34537 3.23156 5.24467C3.22978 5.14396 3.24831 5.04393 3.28603 4.95055C3.32375 4.85716 3.3799 4.77232 3.45111 4.70111C3.52233 4.62989 3.60717 4.57374 3.70056 4.53602C3.79394 4.4983 3.89397 4.47978 3.99467 4.48155C4.09538 4.48333 4.19469 4.50537 4.28669 4.54636C4.37869 4.58735 4.46149 4.64646 4.53015 4.72014L7.25015 7.44014L7.25015 1.99999C7.25015 1.58578 7.58594 1.24999 8.00015 1.24999C8.41437 1.24999 8.75015 1.58578 8.75015 1.99999L8.75015 7.44014L11.4702 4.72014C11.6123 4.58766 11.8004 4.51554 11.9947 4.51897C12.189 4.5224 12.3744 4.60111 12.5118 4.73852C12.6492 4.87594 12.7279 5.06132 12.7313 5.25562Z" fill="currentColor"/>
</svg>
