<svg width="32" height="32" viewBox="0 0 32 32" fill="none" xmlns="http://www.w3.org/2000/svg"><path d="M25.4141 8L8 25.4141L6.58594 24L24 6.58594L25.4141 8Z" fill="currentColor"/><path d="M10 6C12.2091 6 14 7.79086 14 10C14 12.2091 12.2091 14 10 14C7.79086 14 6 12.2091 6 10C6 7.79086 7.79086 6 10 6ZM10 8C8.89543 8 8 8.89543 8 10C8 11.1046 8.89543 12 10 12C11.1046 12 12 11.1046 12 10C12 8.89543 11.1046 8 10 8Z" fill="currentColor"/><path d="M22 18C24.2091 18 26 19.7909 26 22C26 24.2091 24.2091 26 22 26C19.7909 26 18 24.2091 18 22C18 19.7909 19.7909 18 22 18ZM22 20C20.8954 20 20 20.8954 20 22C20 23.1046 20.8954 24 22 24C23.1046 24 24 23.1046 24 22C24 20.8954 23.1046 20 22 20Z" fill="currentColor"/></svg>
