<svg xmlns="http://www.w3.org/2000/svg" width="100" height="103" fill="none"><path fill="#000" fill-rule="evenodd" d="M59.614 77.872a3.875 3.875 0 0 1 5.773 0l.904 1.01a1.3 1.3 0 0 0 1.035.43l1.356-.076a3.875 3.875 0 0 1 4.082 4.082l-.075 1.356a1.3 1.3 0 0 0 .429 1.034l1.011.904a3.874 3.874 0 0 1 0 5.775l-1.011.904a1.29 1.29 0 0 0-.429 1.035l.075 1.356a3.873 3.873 0 0 1-4.082 4.082l-1.356-.075a1.3 1.3 0 0 0-1.033.428l-.904 1.012a3.87 3.87 0 0 1-2.888 1.291 3.87 3.87 0 0 1-2.887-1.291l-.905-1.012a1.3 1.3 0 0 0-1.034-.428l-1.356.075a3.877 3.877 0 0 1-4.082-4.082l.075-1.356a1.3 1.3 0 0 0-.429-1.034l-1.01-.904a3.877 3.877 0 0 1 0-5.775l1.01-.904a1.3 1.3 0 0 0 .429-1.035l-.075-1.356a3.874 3.874 0 0 1 4.081-4.082l1.357.075a1.3 1.3 0 0 0 1.033-.429zm7.675 6.84a1.29 1.29 0 0 1 0 1.826l-7.75 7.75a1.291 1.291 0 0 1-1.827-1.826l7.75-7.75a1.29 1.29 0 0 1 1.827 0m-8.018-.379a1.937 1.937 0 0 0-1.937 1.938v.013a1.94 1.94 0 0 0 1.937 1.937h.013a1.937 1.937 0 0 0 1.938-1.937v-.013a1.937 1.937 0 0 0-1.938-1.938zm6.459 6.459a1.94 1.94 0 0 0-1.938 1.937v.013a1.94 1.94 0 0 0 1.938 1.938h.013a1.94 1.94 0 0 0 1.937-1.938v-.013a1.94 1.94 0 0 0-1.937-1.937zM83.614 41.872a3.875 3.875 0 0 1 5.773 0l.904 1.01a1.3 1.3 0 0 0 1.035.43l1.356-.076a3.875 3.875 0 0 1 4.082 4.082l-.075 1.356a1.3 1.3 0 0 0 .429 1.034l1.011.904a3.874 3.874 0 0 1 0 5.775l-1.011.904a1.29 1.29 0 0 0-.429 1.035l.075 1.356a3.873 3.873 0 0 1-4.082 4.082l-1.356-.075a1.3 1.3 0 0 0-1.033.429l-.904 1.01a3.875 3.875 0 0 1-5.775 0l-.905-1.01a1.29 1.29 0 0 0-1.034-.43l-1.356.076a3.877 3.877 0 0 1-4.082-4.082l.075-1.356a1.3 1.3 0 0 0-.429-1.034l-1.01-.904a3.877 3.877 0 0 1 0-5.775l1.01-.904a1.3 1.3 0 0 0 .429-1.035l-.075-1.356a3.874 3.874 0 0 1 4.082-4.082l1.356.075a1.3 1.3 0 0 0 1.033-.428zm7.675 6.84a1.29 1.29 0 0 1 0 1.826l-7.75 7.75a1.291 1.291 0 0 1-1.827-1.826l7.75-7.75a1.29 1.29 0 0 1 1.827 0m-8.018-.379a1.937 1.937 0 0 0-1.937 1.938v.013a1.94 1.94 0 0 0 1.937 1.937h.013a1.937 1.937 0 0 0 1.938-1.937v-.013a1.937 1.937 0 0 0-1.938-1.938zm6.459 6.459a1.94 1.94 0 0 0-1.938 1.937v.013a1.94 1.94 0 0 0 1.938 1.938h.013a1.94 1.94 0 0 0 1.937-1.938v-.013a1.94 1.94 0 0 0-1.937-1.937z" clip-rule="evenodd" opacity=".1"/><path fill="#000" fill-rule="evenodd" d="M43.614 41.872a3.875 3.875 0 0 1 5.773 0l.904 1.01a1.3 1.3 0 0 0 1.035.43l1.356-.076a3.875 3.875 0 0 1 4.082 4.082l-.075 1.356a1.3 1.3 0 0 0 .429 1.034l1.011.904a3.874 3.874 0 0 1 0 5.775l-1.011.904a1.29 1.29 0 0 0-.429 1.035l.075 1.356a3.873 3.873 0 0 1-4.082 4.082l-1.356-.075a1.3 1.3 0 0 0-1.033.429l-.904 1.01a3.875 3.875 0 0 1-5.775 0l-.905-1.01a1.29 1.29 0 0 0-1.034-.43l-1.356.076a3.877 3.877 0 0 1-4.082-4.082l.075-1.356a1.3 1.3 0 0 0-.429-1.034l-1.01-.904a3.877 3.877 0 0 1 0-5.775l1.01-.904a1.3 1.3 0 0 0 .429-1.035l-.075-1.356a3.874 3.874 0 0 1 4.081-4.082l1.357.075a1.3 1.3 0 0 0 1.033-.428zm7.675 6.84a1.29 1.29 0 0 1 0 1.826l-7.75 7.75a1.291 1.291 0 0 1-1.827-1.826l7.75-7.75a1.29 1.29 0 0 1 1.827 0m-8.018-.379a1.937 1.937 0 0 0-1.937 1.938v.013a1.94 1.94 0 0 0 1.937 1.937h.013a1.937 1.937 0 0 0 1.938-1.937v-.013a1.937 1.937 0 0 0-1.938-1.938zm6.459 6.459a1.94 1.94 0 0 0-1.938 1.937v.013a1.94 1.94 0 0 0 1.938 1.938h.013a1.94 1.94 0 0 0 1.937-1.938v-.013a1.94 1.94 0 0 0-1.937-1.937z" clip-rule="evenodd"/><path fill="#000" fill-rule="evenodd" d="M50.614 1.872a3.875 3.875 0 0 1 5.773 0l.904 1.01a1.3 1.3 0 0 0 1.035.43l1.356-.076a3.875 3.875 0 0 1 4.082 4.082l-.075 1.356a1.3 1.3 0 0 0 .429 1.034l1.011.904a3.874 3.874 0 0 1 0 5.775l-1.011.904a1.29 1.29 0 0 0-.429 1.035l.075 1.356a3.873 3.873 0 0 1-4.082 4.082l-1.356-.075a1.3 1.3 0 0 0-1.033.428l-.904 1.012a3.875 3.875 0 0 1-5.775 0l-.905-1.012a1.29 1.29 0 0 0-1.034-.428l-1.356.075a3.877 3.877 0 0 1-4.082-4.082l.075-1.356a1.3 1.3 0 0 0-.429-1.034l-1.01-.904a3.877 3.877 0 0 1 0-5.775l1.01-.904a1.3 1.3 0 0 0 .429-1.035l-.075-1.356a3.874 3.874 0 0 1 4.081-4.082l1.357.075a1.3 1.3 0 0 0 1.033-.429zm7.675 6.84a1.29 1.29 0 0 1 0 1.826l-7.75 7.75a1.291 1.291 0 0 1-1.827-1.826l7.75-7.75a1.29 1.29 0 0 1 1.827 0m-8.018-.379a1.937 1.937 0 0 0-1.937 1.938v.013a1.94 1.94 0 0 0 1.937 1.937h.013a1.937 1.937 0 0 0 1.938-1.937v-.013a1.937 1.937 0 0 0-1.938-1.938zm6.459 6.459a1.94 1.94 0 0 0-1.938 1.937v.013a1.94 1.94 0 0 0 1.938 1.938h.013a1.94 1.94 0 0 0 1.937-1.938v-.013a1.94 1.94 0 0 0-1.937-1.937zM10.614 1.872a3.875 3.875 0 0 1 5.773 0l.904 1.01a1.3 1.3 0 0 0 1.035.43l1.356-.076a3.875 3.875 0 0 1 4.082 4.082l-.075 1.356a1.3 1.3 0 0 0 .429 1.034l1.011.904a3.874 3.874 0 0 1 0 5.775l-1.011.904a1.29 1.29 0 0 0-.429 1.035l.075 1.356a3.873 3.873 0 0 1-4.082 4.082l-1.356-.075a1.3 1.3 0 0 0-1.033.428l-.904 1.012a3.875 3.875 0 0 1-5.775 0l-.905-1.012a1.29 1.29 0 0 0-1.034-.428l-1.356.075a3.877 3.877 0 0 1-4.082-4.082l.075-1.356a1.3 1.3 0 0 0-.429-1.034l-1.01-.904a3.875 3.875 0 0 1 0-5.775l1.01-.904a1.3 1.3 0 0 0 .429-1.035l-.075-1.356a3.875 3.875 0 0 1 4.082-4.082l1.356.075a1.3 1.3 0 0 0 1.033-.429zm7.675 6.84a1.29 1.29 0 0 1 0 1.826l-7.75 7.75a1.291 1.291 0 0 1-1.827-1.826l7.75-7.75a1.29 1.29 0 0 1 1.827 0m-8.018-.379a1.937 1.937 0 0 0-1.937 1.938v.013a1.94 1.94 0 0 0 1.937 1.937h.013a1.937 1.937 0 0 0 1.938-1.937v-.013a1.937 1.937 0 0 0-1.938-1.938zm6.459 6.459a1.94 1.94 0 0 0-1.938 1.937v.013a1.94 1.94 0 0 0 1.938 1.938h.012a1.94 1.94 0 0 0 1.938-1.938v-.013a1.94 1.94 0 0 0-1.937-1.937zM10.614 57.872a3.875 3.875 0 0 1 5.773 0l.904 1.01a1.3 1.3 0 0 0 1.035.43l1.356-.076a3.875 3.875 0 0 1 4.082 4.082l-.075 1.356a1.3 1.3 0 0 0 .429 1.034l1.011.904a3.874 3.874 0 0 1 0 5.775l-1.011.904a1.29 1.29 0 0 0-.429 1.035l.075 1.356a3.873 3.873 0 0 1-4.082 4.082l-1.356-.075a1.3 1.3 0 0 0-1.033.429l-.904 1.01a3.875 3.875 0 0 1-5.775 0l-.905-1.01a1.29 1.29 0 0 0-1.034-.43l-1.356.076a3.877 3.877 0 0 1-4.082-4.082l.075-1.356a1.3 1.3 0 0 0-.429-1.034l-1.01-.904a3.875 3.875 0 0 1 0-5.775l1.01-.904a1.3 1.3 0 0 0 .429-1.035l-.075-1.356a3.875 3.875 0 0 1 4.082-4.082l1.356.075a1.3 1.3 0 0 0 1.033-.428zm7.675 6.84a1.29 1.29 0 0 1 0 1.826l-7.75 7.75a1.291 1.291 0 0 1-1.827-1.826l7.75-7.75a1.29 1.29 0 0 1 1.827 0m-8.018-.379a1.937 1.937 0 0 0-1.937 1.938v.013a1.94 1.94 0 0 0 1.937 1.937h.013a1.937 1.937 0 0 0 1.938-1.937v-.013a1.937 1.937 0 0 0-1.938-1.938zm6.459 6.459a1.94 1.94 0 0 0-1.938 1.937v.013a1.94 1.94 0 0 0 1.938 1.938h.012a1.94 1.94 0 0 0 1.938-1.938v-.013a1.94 1.94 0 0 0-1.937-1.937z" clip-rule="evenodd" opacity=".1"/></svg>