<svg width="32" height="32" viewBox="0 0 32 32" fill="none" xmlns="http://www.w3.org/2000/svg">
<path d="M8.66732 26.6667C6.6451 26.6667 4.91754 25.9667 3.48465 24.5667C2.05176 23.1667 1.33487 21.4555 1.33398 19.4333C1.33398 17.7 1.85621 16.1555 2.90065 14.8C3.9451 13.4444 5.31176 12.5778 7.00065 12.2C7.51176 10.4 8.46198 8.88888 9.85132 7.66665C11.2407 6.44443 12.846 5.69999 14.6673 5.43332V16.2L13.4673 15.0333C13.2229 14.7889 12.9175 14.6667 12.5513 14.6667C12.1851 14.6667 11.8682 14.8 11.6007 15.0667C11.3562 15.3111 11.234 15.6222 11.234 16C11.234 16.3778 11.3562 16.6889 11.6007 16.9333L15.0673 20.4C15.334 20.6667 15.6451 20.8 16.0007 20.8C16.3562 20.8 16.6673 20.6667 16.934 20.4L20.4007 16.9333C20.6451 16.6889 20.7727 16.3835 20.7833 16.0173C20.794 15.6511 20.6664 15.3342 20.4007 15.0667C20.1562 14.8222 19.8509 14.6942 19.4847 14.6827C19.1184 14.6711 18.8015 14.788 18.534 15.0333L17.334 16.2V5.43332C19.6229 5.74443 21.5287 6.77243 23.0513 8.51732C24.574 10.2622 25.3349 12.312 25.334 14.6667C26.8673 14.8444 28.1398 15.5058 29.1513 16.6507C30.1629 17.7955 30.6682 19.1342 30.6673 20.6667C30.6673 22.3333 30.0842 23.7502 28.918 24.9173C27.7518 26.0844 26.3349 26.6675 24.6673 26.6667H8.66732Z" fill="black"/>
</svg>
