<svg width="32" height="32" viewBox="0 0 32 32" fill="none" xmlns="http://www.w3.org/2000/svg">
<path d="M25.6746 27L22.823 26.9986C22.0916 26.9973 21.499 26.3813 21.499 25.6196V6.37767C21.499 5.61596 22.0916 4.99863 22.823 5L25.6801 5.00138C26.4088 5.00138 26.9986 5.61734 26.9986 6.37629V25.6223C26.9986 26.3827 26.406 27 25.6746 27ZM9.18386 26.9986H6.31579C5.58846 26.9986 5 26.3854 5 25.6278V15.9952C5 15.2376 5.58846 14.6244 6.31579 14.6244H9.18386C9.91119 14.6244 10.4997 15.2376 10.4997 15.9952V25.6278C10.4997 26.3854 9.91119 26.9986 9.18386 26.9986ZM17.432 26.9986H14.5667C14.2175 26.9979 13.8829 26.8589 13.6361 26.612C13.3892 26.3652 13.2502 26.0306 13.2495 25.6815V11.8168C13.2495 11.0895 13.8407 10.4997 14.5667 10.4997H17.432C18.1593 10.4997 18.7491 11.0909 18.7491 11.8168V25.6815C18.7491 26.4088 18.1579 26.9986 17.432 26.9986Z" fill="black"/>
</svg>
