<svg width="32" height="32" viewBox="0 0 32 32" fill="none" xmlns="http://www.w3.org/2000/svg">
<path d="M16.8 2.93332C16.5692 2.76023 16.2885 2.66666 16 2.66666C15.7115 2.66666 15.4308 2.76023 15.2 2.93332C14.6445 3.35889 14.1323 3.83809 13.6707 4.36399C12.9733 5.14932 12 6.47332 12 7.99999C12 9.06086 12.4214 10.0783 13.1716 10.8284C13.9217 11.5786 14.9391 12 16 12H8C6.93913 12 5.92172 12.4214 5.17157 13.1716C4.42143 13.9217 4 14.9391 4 16V18.6667C4 20.3147 5.88133 21.256 7.2 20.2667L8.08933 19.6C8.32013 19.4269 8.60084 19.3333 8.88933 19.3333C9.17783 19.3333 9.45854 19.4269 9.68933 19.6L10.044 19.8667C10.7364 20.3859 11.5785 20.6667 12.444 20.6667C13.3095 20.6667 14.1516 20.3859 14.844 19.8667L15.2 19.6C15.4308 19.4269 15.7115 19.3333 16 19.3333C16.2885 19.3333 16.5692 19.4269 16.8 19.6L17.156 19.8667C17.8484 20.3859 18.6905 20.6667 19.556 20.6667C20.4215 20.6667 21.2636 20.3859 21.956 19.8667L22.3107 19.6C22.5415 19.4269 22.8222 19.3333 23.1107 19.3333C23.3992 19.3333 23.6799 19.4269 23.9107 19.6L24.8 20.2667C26.1187 21.256 28 20.3147 28 18.6667V16C28 14.9391 27.5786 13.9217 26.8284 13.1716C26.0783 12.4214 25.0609 12 24 12H16C17.0609 12 18.0783 11.5786 18.8284 10.8284C19.5786 10.0783 20 9.06086 20 7.99999C20 6.47332 19.0267 5.14932 18.3293 4.36399C17.868 3.84399 17.356 3.35066 16.8 2.93332ZM5.33333 23.22V26.6667C5.33333 27.3739 5.61428 28.0522 6.11438 28.5523C6.61448 29.0524 7.29276 29.3333 8 29.3333H24C24.7072 29.3333 25.3855 29.0524 25.8856 28.5523C26.3857 28.0522 26.6667 27.3739 26.6667 26.6667V23.22C26.3564 23.3321 26.0229 23.3645 25.6968 23.3145C25.3707 23.2644 25.0624 23.1333 24.8 22.9333L23.9107 22.2667C23.6799 22.0936 23.3992 22 23.1107 22C22.8222 22 22.5415 22.0936 22.3107 22.2667L21.956 22.5333C21.2636 23.0526 20.4215 23.3333 19.556 23.3333C18.6905 23.3333 17.8484 23.0526 17.156 22.5333L16.8 22.2667C16.5692 22.0936 16.2885 22 16 22C15.7115 22 15.4308 22.0936 15.2 22.2667L14.844 22.5333C14.1516 23.0526 13.3095 23.3333 12.444 23.3333C11.5785 23.3333 10.7364 23.0526 10.044 22.5333L9.68933 22.2667C9.45854 22.0936 9.17783 22 8.88933 22C8.60084 22 8.32013 22.0936 8.08933 22.2667L7.2 22.9333C6.93762 23.1333 6.62929 23.2644 6.30319 23.3145C5.97709 23.3645 5.64364 23.3321 5.33333 23.22Z" fill="black"/>
</svg>
