<svg width="32" height="32" viewBox="0 0 32 32" fill="none" xmlns="http://www.w3.org/2000/svg">
<path d="M8.52476 6.17465C8.64993 5.48769 8.94154 4.84186 9.37407 4.29368C9.8066 3.7455 10.3669 3.31166 11.0059 3.03011C11.6449 2.74857 12.3431 2.6279 13.0395 2.67867C13.736 2.72943 14.4093 2.95008 15.0008 3.32131V28.34C14.3407 28.8342 13.5685 29.157 12.7531 29.2796C11.9377 29.4021 11.1046 29.3206 10.3285 29.0422C9.55233 28.7639 8.85732 28.2974 8.30567 27.6846C7.75401 27.0717 7.36293 26.3317 7.16743 25.5306L7.14876 25.5266C6.0551 25.3256 5.04861 24.7962 4.2632 24.009C3.47779 23.2219 2.95071 22.2142 2.7521 21.1201C2.55349 20.026 2.69276 18.8973 3.15138 17.8843C3.61 16.8713 4.36622 16.022 5.31943 15.4493C4.90053 15.0457 4.56746 14.5617 4.34018 14.0263C4.11289 13.4908 3.99609 12.915 3.99676 12.3333V11.54C3.99683 10.3155 4.43515 9.13155 5.23242 8.20222C6.02968 7.2729 7.13323 6.65961 8.34343 6.47331L8.47409 6.45331L8.52476 6.17465ZM17.0008 28.34C17.6608 28.8342 18.4331 29.157 19.2485 29.2796C20.0638 29.4021 20.8969 29.3206 21.673 29.0422C22.4492 28.7639 23.1442 28.2974 23.6959 27.6846C24.2475 27.0717 24.6386 26.3317 24.8341 25.5306L24.8528 25.5266C25.9466 25.3255 26.9532 24.7959 27.7386 24.0084C28.5241 23.221 29.051 22.213 29.2493 21.1186C29.4477 20.0243 29.308 18.8954 28.8489 17.8824C28.3898 16.8694 27.6331 16.0203 26.6794 15.448C27.4941 14.6613 28.0008 13.556 28.0008 12.3333V11.54C28.0007 10.3155 27.5624 9.13155 26.7651 8.20222C25.9678 7.2729 24.8643 6.65961 23.6541 6.47331L23.5234 6.45331L23.4728 6.17465C23.3475 5.48818 23.056 4.84283 22.6238 4.29499C22.1916 3.74714 21.6319 3.31347 20.9934 3.03186C20.355 2.75025 19.6573 2.62927 18.9613 2.6795C18.2653 2.72972 17.5922 2.94962 17.0008 3.31998V28.34Z" fill="black"/>
</svg>
