<svg width="32" height="32" viewBox="0 0 32 32" fill="none" xmlns="http://www.w3.org/2000/svg">
<path d="M14.666 4.24001V27.76C14.666 28.6133 13.8793 29.2533 13.0527 29.0667C7.09268 27.7333 2.66602 22.3867 2.66602 16C2.66602 9.61334 7.09268 4.26668 13.0527 2.93334C13.2474 2.89101 13.4492 2.89295 13.6431 2.93903C13.8369 2.98512 14.018 3.07416 14.1729 3.19958C14.3277 3.32501 14.4524 3.48362 14.5378 3.6637C14.6232 3.84378 14.667 4.04073 14.666 4.24001ZM17.3727 4.24001V13.32C17.3727 14.0533 17.9727 14.6533 18.706 14.6533H27.7593C28.6127 14.6533 29.2527 13.8667 29.066 13.0267C27.9327 8.01334 23.9993 4.06668 18.9993 2.93334C18.1593 2.74668 17.3727 3.38668 17.3727 4.24001ZM17.3727 18.68V27.76C17.3727 28.6133 18.1593 29.2533 18.9993 29.0667C24.0127 27.9333 27.946 23.9733 29.0793 18.96C29.266 18.1333 28.6127 17.3333 27.7727 17.3333H18.7193C17.9727 17.3467 17.3727 17.9467 17.3727 18.68Z" fill="black"/>
</svg>
