<svg width="32" height="32" viewBox="0 0 32 32" fill="none" xmlns="http://www.w3.org/2000/svg">
<path d="M11.3338 8.66667C11.3338 8.05383 11.4545 7.447 11.689 6.88081C11.9236 6.31462 12.2673 5.80017 12.7007 5.36683C13.134 4.93349 13.6484 4.58975 14.2146 4.35523C14.7808 4.12071 15.3876 4 16.0005 4C16.6133 4 17.2202 4.12071 17.7863 4.35523C18.3525 4.58975 18.867 4.93349 19.3003 5.36683C19.7337 5.80017 20.0774 6.31462 20.3119 6.88081C20.5464 7.447 20.6672 8.05383 20.6672 8.66667C20.6672 9.90434 20.1755 11.0913 19.3003 11.9665C18.4251 12.8417 17.2382 13.3333 16.0005 13.3333C14.7628 13.3333 13.5758 12.8417 12.7007 11.9665C11.8255 11.0913 11.3338 9.90434 11.3338 8.66667ZM6.00048 14.6667C6.88454 14.6667 7.73239 14.3155 8.35751 13.6904C8.98263 13.0652 9.33382 12.2174 9.33382 11.3333C9.33382 10.4493 8.98263 9.60143 8.35751 8.97631C7.73239 8.35119 6.88454 8 6.00048 8C5.11643 8 4.26858 8.35119 3.64346 8.97631C3.01834 9.60143 2.66715 10.4493 2.66715 11.3333C2.66715 12.2174 3.01834 13.0652 3.64346 13.6904C4.26858 14.3155 5.11643 14.6667 6.00048 14.6667ZM29.3338 11.3333C29.3338 12.2174 28.9826 13.0652 28.3575 13.6904C27.7324 14.3155 26.8845 14.6667 26.0005 14.6667C25.1164 14.6667 24.2686 14.3155 23.6435 13.6904C23.0183 13.0652 22.6672 12.2174 22.6672 11.3333C22.6672 10.4493 23.0183 9.60143 23.6435 8.97631C24.2686 8.35119 25.1164 8 26.0005 8C26.8845 8 27.7324 8.35119 28.3575 8.97631C28.9826 9.60143 29.3338 10.4493 29.3338 11.3333ZM14.0005 16C12.1605 16 10.6672 17.4933 10.6672 19.3333V22.6667C10.6672 24.0812 11.2291 25.4377 12.2292 26.4379C13.2294 27.4381 14.586 28 16.0005 28C17.415 28 18.7715 27.4381 19.7717 26.4379C20.7719 25.4377 21.3338 24.0812 21.3338 22.6667V19.3333C21.3338 17.4933 19.8405 16 18.0005 16H14.0005ZM8.00049 19.3333C8.00049 18.5627 8.14449 17.8267 8.41115 17.152L5.12848 18.032C4.27505 18.2608 3.54736 18.819 3.10533 19.5841C2.6633 20.3491 2.5431 21.2584 2.77115 22.112L3.28848 24.0453C3.46981 24.7219 3.78265 25.3562 4.20913 25.9119C4.63562 26.4676 5.16739 26.9338 5.77409 27.284C6.38079 27.6341 7.05052 27.8613 7.74503 27.9526C8.43955 28.0439 9.14525 27.9975 9.82182 27.816L9.86715 27.8027C8.66137 26.3628 8.00057 24.5447 8.00049 22.6667V19.3333ZM24.0005 22.6667C24.0005 24.6213 23.2992 26.4133 22.1338 27.8053L22.1765 27.816C23.5425 28.1817 24.9979 27.9899 26.2225 27.2829C27.4472 26.5758 28.3409 25.4112 28.7072 24.0453L29.2245 22.112C29.4525 21.2584 29.3323 20.3491 28.8903 19.5841C28.4483 18.819 27.7206 18.2608 26.8672 18.032L23.5925 17.152C23.8565 17.8293 24.0005 18.5653 24.0005 19.3333V22.6667Z" fill="black"/>
</svg>
