<svg width="32" height="32" viewBox="0 0 32 32" fill="none" xmlns="http://www.w3.org/2000/svg">
<path d="M15.0552 3.47999C15.5832 3.90399 15.9219 4.51999 15.9925 5.19466L15.9992 5.33332V10.6667C15.9993 10.9618 15.9014 11.2487 15.7209 11.4823C15.5404 11.7159 15.2875 11.8829 15.0019 11.9573C14.2971 12.1405 13.6532 12.5066 13.1353 13.0185C12.6175 13.5305 12.2441 14.1702 12.053 14.8729C11.8618 15.5756 11.8597 16.3163 12.0469 17.02C12.234 17.7238 12.6038 18.3656 13.1187 18.8805C13.6336 19.3954 14.2754 19.7652 14.9792 19.9523C15.6829 20.1395 16.4236 20.1374 17.1263 19.9462C17.8289 19.7551 18.4687 19.3817 18.9806 18.8639C19.4926 18.346 19.8587 17.7021 20.0419 16.9973C20.1162 16.7117 20.2833 16.4588 20.5169 16.2783C20.7505 16.0978 21.0373 15.9999 21.3325 16H26.3992C27.1064 16 27.7847 16.2809 28.2848 16.781C28.7849 17.2811 29.0659 17.9594 29.0659 18.6667C29.0658 18.7681 29.0542 18.8692 29.0312 18.968C28.494 21.2855 27.3465 23.417 25.7077 25.1415C24.069 26.866 21.9987 28.1207 19.7117 28.7754C17.4246 29.43 15.004 29.4609 12.701 28.8647C10.398 28.2686 8.29639 27.0671 6.61423 25.385C4.93207 23.7028 3.7306 21.6012 3.13444 19.2982C2.53828 16.9952 2.56914 14.5746 3.22383 12.2875C3.87852 10.0004 5.13318 7.93017 6.85768 6.29145C8.58219 4.65273 10.7137 3.50523 13.0312 2.96799L13.1072 2.95466L13.1765 2.94132C13.5097 2.90224 13.8474 2.92973 14.1699 3.0222C14.4924 3.11467 14.7933 3.27028 15.0552 3.47999ZM19.9925 3.33332L20.0525 3.33599L20.1419 3.34132L20.2499 3.35999L20.2925 3.36532L20.3885 3.39466L20.4419 3.40799C22.2567 4.04694 23.9117 5.07111 25.2934 6.41014C26.675 7.74918 27.7504 9.37137 28.4459 11.1653L28.5899 11.5573C28.6606 11.7584 28.6822 11.9734 28.6527 12.1845C28.6232 12.3955 28.5435 12.5965 28.4204 12.7704C28.2972 12.9443 28.1342 13.0862 27.9449 13.1842C27.7556 13.2821 27.5456 13.3333 27.3325 13.3333H21.3325C21.1399 13.3333 20.9496 13.2916 20.7747 13.2111C20.5998 13.1305 20.4444 13.013 20.3192 12.8667C19.9554 12.4405 19.5586 12.0438 19.1325 11.68C18.9862 11.5548 18.8687 11.3994 18.7881 11.2245C18.7076 11.0495 18.6658 10.8592 18.6659 10.6667V4.66666C18.6667 4.56088 18.6783 4.45866 18.7005 4.35999L18.7405 4.22399C18.7917 4.07919 18.8675 3.94432 18.9645 3.82532L19.0045 3.78132L19.0565 3.72399C19.0939 3.6861 19.1335 3.65048 19.1752 3.61732L19.2432 3.57199L19.2832 3.54132L19.3432 3.50799L19.4125 3.46799C19.5932 3.37995 19.7915 3.33392 19.9925 3.33332Z" fill="black"/>
</svg>
