<svg width="32" height="32" viewBox="0 0 32 32" fill="none" xmlns="http://www.w3.org/2000/svg">
<path fill-rule="evenodd" clip-rule="evenodd" d="M17.7334 3.30739L19.6894 4.97076C20.1156 5.33319 20.645 5.55248 21.2027 5.59764L23.7619 5.80445C25.0656 5.90983 26.1006 6.94483 26.206 8.24858L26.4129 10.8078C26.458 11.3654 26.6773 11.8948 27.0397 12.3211L28.703 14.277C29.5504 15.2733 29.5504 16.7371 28.703 17.7335L27.0397 19.6894C26.6772 20.1156 26.458 20.645 26.4128 21.2027L26.2059 23.7619C26.1006 25.0656 25.0655 26.1006 23.7619 26.206L21.2027 26.4129C20.645 26.458 20.1156 26.6773 19.6894 27.0397L17.7334 28.7031C16.737 29.5504 15.2733 29.5504 14.2769 28.7031L12.321 27.0397C11.8948 26.6773 11.3654 26.458 10.8077 26.4128L8.24855 26.206C6.9448 26.1006 5.9098 25.0656 5.80442 23.7619L5.59755 21.2027C5.55239 20.645 5.3331 20.1156 4.97067 19.6894L3.30736 17.7335C2.46005 16.7371 2.46005 15.2733 3.30736 14.277L4.97073 12.3211C5.33316 11.8948 5.55245 11.3654 5.59761 10.8078L5.80442 8.24858C5.9098 6.94483 6.9448 5.90983 8.24855 5.80445L10.8077 5.59758C11.3654 5.55242 11.8948 5.33313 12.321 4.9707L14.2769 3.30739C15.2733 2.46008 16.737 2.46008 17.7334 3.30739ZM21.0209 11.2363L14.6667 17.6251L11.6094 14.5679L9.72398 16.4533L14.6667 21.396L22.9064 13.1218L21.0209 11.2363Z" fill="black"/>
</svg>
