<svg width="32" height="32" viewBox="0 0 32 32" fill="none" xmlns="http://www.w3.org/2000/svg">
<mask id="mask0_2105_110" style="mask-type:luminance" maskUnits="userSpaceOnUse" x="2" y="2" width="27" height="27">
<path d="M2 2H29V29H2V2Z" fill="white"/>
<path d="M17.3062 21.952C17.3062 22.5028 17.0874 23.0311 16.6979 23.4206C16.3084 23.8101 15.7801 24.0289 15.2293 24.0289C14.6784 24.0289 14.1502 23.8101 13.7607 23.4206C13.3712 23.0311 13.1523 22.5028 13.1523 21.952C13.1523 21.4011 13.3712 20.8729 13.7607 20.4834C14.1502 20.0939 14.6784 19.8751 15.2293 19.8751C15.7801 19.8751 16.3084 20.0939 16.6979 20.4834C17.0874 20.8729 17.3062 21.4011 17.3062 21.952Z" fill="black"/>
<path fill-rule="evenodd" clip-rule="evenodd" d="M15.198 10.0637C14.5023 10.0637 13.9052 10.2714 13.4846 10.5684C13.0796 10.855 12.8792 11.1883 12.821 11.476C12.7351 11.8605 12.5019 12.196 12.1714 12.4105C11.8409 12.6251 11.4396 12.7015 11.0534 12.6235C10.6672 12.5455 10.3269 12.3193 10.1057 11.9933C9.88437 11.6673 9.79965 11.2676 9.86969 10.8799C10.1054 9.71059 10.8303 8.75624 11.7483 8.1072C12.7037 7.4322 13.9145 7.05212 15.198 7.05212C17.8534 7.05212 20.6063 8.82789 20.6063 11.6795C20.6063 13.3307 19.625 14.6661 18.3539 15.445C18.0132 15.6535 17.6037 15.7181 17.2153 15.6246C16.827 15.5311 16.4917 15.2872 16.2832 14.9465C16.0747 14.6058 16.0101 14.1963 16.1036 13.8079C16.1971 13.4196 16.441 13.0843 16.7817 12.8758C17.3736 12.5134 17.5948 12.0513 17.5948 11.6795C17.5948 11.0834 16.8523 10.0637 15.198 10.0637Z" fill="black"/>
<path fill-rule="evenodd" clip-rule="evenodd" d="M15.1972 14.0773C16.0279 14.0773 16.7029 14.7502 16.7029 15.5831V17.1428C16.7029 17.5422 16.5443 17.9252 16.2619 18.2076C15.9795 18.49 15.5965 18.6486 15.1972 18.6486C14.7978 18.6486 14.4148 18.49 14.1324 18.2076C13.85 17.9252 13.6914 17.5422 13.6914 17.1428V15.5831C13.6914 14.7523 14.3654 14.0773 15.1972 14.0773Z" fill="black"/>
<path fill-rule="evenodd" clip-rule="evenodd" d="M18.8619 13.3878C18.9636 13.5575 19.0309 13.7456 19.0599 13.9414C19.0888 14.1372 19.0789 14.3367 19.0307 14.5287C18.9825 14.7206 18.8969 14.9011 18.7788 15.06C18.6608 15.2188 18.5126 15.3528 18.3427 15.4543L15.9709 16.8739C15.8012 16.9755 15.6132 17.0427 15.4176 17.0716C15.222 17.1005 15.0226 17.0907 14.8308 17.0426C14.639 16.9944 14.4585 16.909 14.2998 16.7912C14.141 16.6733 14.0069 16.5253 13.9054 16.3557C13.8038 16.186 13.7366 15.998 13.7076 15.8024C13.6787 15.6068 13.6885 15.4074 13.7367 15.2156C13.7848 15.0238 13.8702 14.8434 13.9881 14.6846C14.1059 14.5258 14.2539 14.3918 14.4235 14.2902L16.7964 12.8696C16.9661 12.768 17.1542 12.7009 17.3498 12.672C17.5455 12.6431 17.7449 12.6531 17.9367 12.7013C18.1285 12.7495 18.309 12.8351 18.4677 12.953C18.6265 13.071 18.7604 13.2191 18.8619 13.3888" fill="black"/>
</mask>
<g mask="url(#mask0_2105_110)">
<path d="M15.5 29C22.9558 29 29 22.9558 29 15.5C29 8.04416 22.9558 2 15.5 2C8.04416 2 2 8.04416 2 15.5C2 22.9558 8.04416 29 15.5 29Z" fill="black"/>
</g>
</svg>
