<svg width="32" height="32" viewBox="0 0 32 32" fill="none" xmlns="http://www.w3.org/2000/svg">
<path d="M12.253 8.46665C9.53303 11.52 7.66636 15.9067 7.49303 16.32L4.4797 15.0267C3.61303 14.6533 3.3997 13.52 4.06636 12.8533L8.0797 8.83999C8.70636 8.21332 9.61303 7.93332 10.493 8.10665L12.253 8.46665ZM14.2397 22.0133C14.6397 22.4133 15.2264 22.52 15.733 22.28C17.2797 21.56 20.5997 19.8667 22.7464 17.72C28.8664 11.6 28.9197 6.61332 28.5597 4.47999C28.5123 4.21802 28.3861 3.97676 28.1978 3.78852C28.0096 3.60027 27.7683 3.47402 27.5064 3.42665C25.373 3.06665 20.3864 3.11999 14.2664 9.23999C12.1197 11.3867 10.4397 14.7067 9.70636 16.2533C9.46636 16.76 9.58636 17.36 9.97303 17.7467L14.2397 22.0133ZM23.533 19.7467C20.4797 22.4667 16.093 24.3333 15.6797 24.5067L16.973 27.52C17.3464 28.3867 18.4797 28.6 19.1464 27.9333L23.1597 23.92C23.7864 23.2933 24.0664 22.3867 23.893 21.5067L23.533 19.7467ZM11.9197 23.2133C12.049 23.8591 12.0168 24.5267 11.8261 25.1571C11.6354 25.7874 11.292 26.3609 10.8264 26.8267C9.7997 27.8533 6.61303 28.6133 4.54636 29.0133C3.62636 29.1867 2.81303 28.3733 2.98636 27.4533C3.38636 25.3867 4.13303 22.2 5.17303 21.1733C5.63877 20.7077 6.21226 20.3643 6.8426 20.1736C7.47294 19.9828 8.14062 19.9507 8.78636 20.08C10.3464 20.3733 11.6264 21.6533 11.9197 23.2133ZM17.333 12C17.333 10.5333 18.533 9.33332 19.9997 9.33332C21.4664 9.33332 22.6664 10.5333 22.6664 12C22.6664 13.4667 21.4664 14.6667 19.9997 14.6667C18.533 14.6667 17.333 13.4667 17.333 12Z" fill="black"/>
</svg>
