<svg width="338" height="238" viewBox="0 0 338 238" fill="none" xmlns="http://www.w3.org/2000/svg">
<path d="M5.15119 60.9557V0H26.5286C41.6388 0 49.1938 5.4946 49.1938 16.9131C49.1938 23.8672 44.987 28.5032 37.8612 29.4476C46.7041 30.392 51.7694 35.6291 51.7694 43.6992C51.7694 54.8602 44.0427 60.9557 29.9627 60.9557H5.15119ZM14.4233 52.628H30.0486C37.6895 52.628 42.2397 49.3656 42.2397 43.3558C42.2397 37.2603 37.6895 33.912 30.0486 33.912H14.4233V52.628ZM14.4233 26.0135H26.872C35.0281 26.0135 39.6642 22.9228 39.6642 17.2565C39.6642 11.3326 35.2856 8.32775 26.872 8.32775H14.4233V26.0135Z" fill="#F43800"/>
<path d="M54.4758 38.2046C54.4758 23.7813 62.9753 14.4233 76.1967 14.4233C87.1 14.4233 96.2863 21.7208 96.7156 37.8612L96.8014 40.7802H64.0914C64.6923 49.2797 69.0709 54.2592 76.1967 54.2592C80.661 54.2592 84.782 51.5977 86.5849 47.2192L96.1146 47.9061C93.4532 56.5772 85.4688 61.986 76.1967 61.986C62.9753 61.986 54.4758 52.628 54.4758 38.2046ZM64.2631 33.9978H87.1859C86.1556 25.3267 81.3479 22.1501 76.1967 22.1501C69.586 22.1501 65.2933 26.5286 64.2631 33.9978Z" fill="#F43800"/>
<path d="M94.199 15.4536H103.385L116.263 51.3402L128.798 15.4536H137.984L119.697 66.2786C117.894 71.4298 114.374 73.8337 108.708 73.8337H102.097V66.4503H107.506C109.91 66.4503 111.198 65.5918 112.056 63.3596L113.516 59.5821H110.769L94.199 15.4536Z" fill="#F43800"/>
<path d="M156.989 61.986C143.854 61.986 135.268 52.7138 135.268 38.2046C135.268 23.6955 143.854 14.4233 156.989 14.4233C170.039 14.4233 178.624 23.6955 178.624 38.2046C178.624 52.7138 170.039 61.986 156.989 61.986ZM144.712 38.2046C144.712 48.1636 149.262 54.0875 156.989 54.0875C164.716 54.0875 169.18 48.1636 169.18 38.2046C169.18 28.2457 164.716 22.3218 156.989 22.3218C149.262 22.3218 144.712 28.2457 144.712 38.2046Z" fill="#F43800"/>
<path d="M182.308 15.4536H190.636L190.894 23.0945C193.212 16.9989 198.535 14.4233 204.716 14.4233C214.933 14.4233 220.17 21.7208 220.17 31.6798V60.9557H211.069V34.513C211.069 26.4428 208.58 22.0643 202.226 22.0643C195.616 22.0643 191.409 26.4428 191.409 34.513V60.9557H182.308V15.4536Z" fill="#F43800"/>
<path d="M265.427 0V60.9557H256.928L256.67 54.4309C254.094 59.067 248.772 61.986 242.504 61.986C230.657 61.986 223.273 52.7997 223.273 38.2046C223.273 23.6096 230.657 14.4233 242.504 14.4233C248.428 14.4233 253.751 17.1706 256.327 21.5491V0H265.427ZM232.717 38.2046C232.717 47.9919 237.525 54.1733 244.822 54.1733C252.292 54.1733 257.013 47.9919 257.013 38.2046C257.013 28.2457 252.292 21.9784 244.822 21.9784C237.439 21.9784 232.717 28.2457 232.717 38.2046Z" fill="#F43800"/>
<path d="M46.7041 82V90.4995H27.9881V142.956H18.716V90.4995H0V82H46.7041Z" fill="#F43800"/>
<path d="M49.3401 82H58.4405V103.635C61.1019 98.5697 66.2531 96.4233 71.8336 96.4233C81.2774 96.4233 87.2013 103.206 87.2013 113.68V142.956H78.1009V116.942C78.1009 108.7 75.3536 104.494 69.258 104.494C62.6473 104.494 58.4405 108.872 58.4405 116.942V142.956H49.3401V82Z" fill="#F43800"/>
<path d="M90.2189 120.205C90.2189 105.781 98.7184 96.4233 111.94 96.4233C122.843 96.4233 132.029 103.721 132.459 119.861L132.544 122.78H99.8344C100.435 131.28 104.814 136.259 111.94 136.259C116.404 136.259 120.525 133.598 122.328 129.219L131.858 129.906C129.196 138.577 121.212 143.986 111.94 143.986C98.7184 143.986 90.2189 134.628 90.2189 120.205ZM100.006 115.998H122.929C121.899 107.327 117.091 104.15 111.94 104.15C105.329 104.15 101.036 108.529 100.006 115.998Z" fill="#F43800"/>
<path d="M27.9023 164C41.8105 164 50.0524 171.126 50.0524 182.974C50.0524 194.907 41.8105 202.119 27.9023 202.119H14.4233V224.956H5.15119V164H27.9023ZM14.4233 193.705H27.6447C36.0583 193.705 40.4368 190.013 40.4368 182.974C40.4368 176.019 36.0583 172.499 27.6447 172.499H14.4233V193.705Z" fill="#F43800"/>
<path d="M53.8675 179.454H62.1952L62.4528 188.039C64.084 182.201 67.5181 179.454 73.3561 179.454H77.7346V186.923H73.2703C66.1445 186.923 62.9679 190.872 62.9679 198.427V224.956H53.8675V179.454Z" fill="#F43800"/>
<path d="M98.2737 225.986C85.1381 225.986 76.5528 216.714 76.5528 202.205C76.5528 187.695 85.1381 178.423 98.2737 178.423C111.323 178.423 119.909 187.695 119.909 202.205C119.909 216.714 111.323 225.986 98.2737 225.986ZM85.9967 202.205C85.9967 212.164 90.5469 218.087 98.2737 218.087C106 218.087 110.465 212.164 110.465 202.205C110.465 192.246 106 186.322 98.2737 186.322C90.5469 186.322 85.9967 192.246 85.9967 202.205Z" fill="#F43800"/>
<path d="M123.593 179.454H131.921L132.092 186.923C134.325 181.514 138.961 178.423 145.056 178.423C151.581 178.423 156.303 181.857 158.278 187.867C160.338 181.772 165.06 178.423 171.928 178.423C181.115 178.423 186.609 184.605 186.609 195.68V224.956H177.509V198.513C177.509 190.443 174.676 186.064 169.524 186.064C163 186.064 159.394 190.614 159.394 198.513V224.956H150.808V198.513C150.808 190.614 147.889 186.064 142.824 186.064C136.385 186.064 132.693 190.614 132.693 198.513V224.956H123.593V179.454Z" fill="#F43800"/>
<path d="M191.95 237.834V179.454H200.45L200.707 186.236C203.197 181.171 208.005 178.423 214.53 178.423C227.837 178.423 234.104 189.413 234.104 202.205C234.104 214.997 227.837 225.986 214.53 225.986C208.348 225.986 203.626 223.41 201.051 218.603V237.834H191.95ZM200.278 202.205C200.278 210.361 203.97 218.173 212.383 218.173C220.969 218.173 224.574 210.532 224.574 202.205C224.574 193.963 220.883 186.236 212.383 186.236C203.97 186.236 200.278 194.049 200.278 202.205Z" fill="#F43800"/>
<path d="M240.717 169.151H249.818V179.454H261.837V186.837H249.818V211.906C249.818 215.598 251.621 217.487 255.141 217.487H261.751V224.956H254.196C245.439 224.956 240.717 220.406 240.717 211.906V186.837H233.763V179.454H240.717V169.151Z" fill="#F43800"/>
<path d="M312.448 230.412C305.883 222.721 298.942 217.093 291.813 213.529V210.809C298.942 207.245 305.883 201.523 312.448 193.926H317.888C314.793 200.492 311.792 205.556 308.79 208.839H331.301V173.479H337.96V215.499H308.79C311.792 218.781 314.793 223.846 317.888 230.412H312.448Z" fill="#F43800"/>
</svg>
