<svg fill="none" height="572" viewBox="0 0 993 572" width="993" xmlns="http://www.w3.org/2000/svg" xmlns:xlink="http://www.w3.org/1999/xlink"><linearGradient id="a"><stop offset="0" stop-color="#fff" stop-opacity=".58"/><stop offset="1" stop-color="#fff"/></linearGradient><linearGradient id="b" gradientUnits="userSpaceOnUse" x1="893" x2="993" xlink:href="#a" y1="237" y2="237"/><linearGradient id="c" gradientUnits="userSpaceOnUse" x1="100" x2="-.000001" xlink:href="#a" y1="396" y2="396"/><linearGradient id="d"><stop offset="0" stop-color="#16243f"/><stop offset="1" stop-color="#6878b1"/></linearGradient><linearGradient id="e" gradientUnits="userSpaceOnUse" x1="119.345" x2="133.458" xlink:href="#d" y1="72.5747" y2="72.5747"/><linearGradient id="f"><stop offset="0" stop-color="#315676"/><stop offset="1" stop-color="#e1b9e0"/></linearGradient><linearGradient id="g" gradientUnits="userSpaceOnUse" x1="278.313" x2="290.565" xlink:href="#f" y1="107.225" y2="107.225"/><linearGradient id="h" gradientUnits="userSpaceOnUse" x1="283.447" x2="292.14" y1="107.715" y2="99.3119"><stop offset="0" stop-color="#315676"/><stop offset=".21" stop-color="#516889"/><stop offset=".67" stop-color="#a296ba"/><stop offset="1" stop-color="#e1b9e0"/></linearGradient><linearGradient id="i" gradientUnits="userSpaceOnUse" x1="119.324" x2="131.518" xlink:href="#f" y1="225.223" y2="225.223"/><linearGradient id="j" gradientUnits="userSpaceOnUse" x1="122.031" x2="134.526" y1="227.115" y2="219.475"><stop offset="0" stop-color="#315676"/><stop offset=".08" stop-color="#375979"/><stop offset=".18" stop-color="#496383"/><stop offset=".2" stop-color="#4d6585"/><stop offset=".29" stop-color="#546989"/><stop offset=".43" stop-color="#677495"/><stop offset=".6" stop-color="#8786a9"/><stop offset=".78" stop-color="#b39fc4"/><stop offset=".95" stop-color="#e1b9e0"/></linearGradient><linearGradient id="k" gradientUnits="userSpaceOnUse" x1="117.56" x2="133.121" xlink:href="#d" y1="546.861" y2="546.861"/><linearGradient id="l" gradientUnits="userSpaceOnUse" x1="126.923" x2="131.749" y1="539.729" y2="530.89"><stop offset="0" stop-color="#16243f"/><stop offset=".1" stop-color="#263454"/><stop offset="1" stop-color="#6878b1"/></linearGradient><clipPath id="m"><path d="m0 0h993v572h-993z"/></clipPath><g clip-path="url(#m)"><circle cx="597.801" cy="182.739" fill="#474747" r="15.8903"/><g font-family="sans-serif" letter-spacing="0em"><text fill="#585858" fill-opacity=".4" font-size="15.8903" font-weight="600"><tspan x="113.146" y="29.4793">2</tspan></text><text fill="#585858" fill-opacity=".4" font-size="15.8903" font-weight="600"><tspan x="113.146" y="188.383">9</tspan></text><text fill="#585858" fill-opacity=".4" font-size="15.8903" font-weight="600"><tspan x="113.146" y="347.286">16</tspan></text><text fill="#585858" fill-opacity=".4" font-size="15.8903" font-weight="600"><tspan x="113.146" y="506.19">23</tspan></text><text fill="#585858" fill-opacity=".4" font-size="15.8903" font-weight="600"><tspan x="272.049" y="29.4793">3</tspan></text><text fill="#585858" fill-opacity=".4" font-size="15.8903" font-weight="600"><tspan x="272.049" y="188.383">10</tspan></text><text fill="#585858" fill-opacity=".4" font-size="15.8903" font-weight="600"><tspan x="272.049" y="347.286">17</tspan></text><text fill="#585858" fill-opacity=".4" font-size="15.8903" font-weight="600"><tspan x="272.049" y="506.19">24</tspan></text><text fill="#585858" fill-opacity=".4" font-size="15.8903" font-weight="600"><tspan x="430.952" y="29.4793">4</tspan></text><text fill="#585858" fill-opacity=".4" font-size="15.8903" font-weight="600"><tspan x="430.952" y="188.383">11</tspan></text><text fill="#585858" fill-opacity=".4" font-size="15.8903" font-weight="600"><tspan x="430.952" y="347.286">18</tspan></text><text fill="#585858" fill-opacity=".4" font-size="15.8903" font-weight="600"><tspan x="430.952" y="506.19">25</tspan></text><text fill="#585858" fill-opacity=".4" font-size="15.8903" font-weight="600"><tspan x="589.856" y="29.4793">5</tspan></text><text fill="#fff" font-size="15.8903" font-weight="600"><tspan x="589.856" y="188.383">12</tspan></text><text fill="#585858" fill-opacity=".4" font-size="15.8903" font-weight="600"><tspan x="589.856" y="347.286">19</tspan></text><text fill="#585858" fill-opacity=".4" font-size="15.8903" font-weight="600"><tspan x="589.856" y="506.19">26</tspan></text><text fill="#585858" fill-opacity=".4" font-size="15.8903" font-weight="600"><tspan x="748.759" y="29.4793">6</tspan></text><text fill="#585858" fill-opacity=".4" font-size="15.8903" font-weight="600"><tspan x="748.759" y="188.383">13</tspan></text><text fill="#585858" fill-opacity=".4" font-size="15.8903" font-weight="600"><tspan x="748.759" y="347.286">20</tspan></text><text fill="#585858" fill-opacity=".4" font-size="15.8903" font-weight="600"><tspan x="748.759" y="506.19">27</tspan></text><text fill="#fff" font-size="13.242" font-weight="500"><tspan x="110.497" y="384.085">...Business Rules</tspan></text></g><path d="m99.9033 158.241h794.5177" stroke="#e0e0e0" stroke-opacity=".4" stroke-width="1.3242"/><path d="m99.9033 317.145h794.5177" stroke="#e0e0e0" stroke-opacity=".4" stroke-width="1.3242"/><path d="m99.9033 477.373h794.5177" stroke="#e0e0e0" stroke-opacity=".4" stroke-width="1.3242"/><path d="m259.469 0v636.938" stroke="#e0e0e0" stroke-opacity=".4" stroke-width="1.3242"/><path d="m418.372 0v636.938" stroke="#e0e0e0" stroke-opacity=".4" stroke-width="1.3242"/><path d="m577.276 0v636.938" stroke="#e0e0e0" stroke-opacity=".4" stroke-width="1.3242"/><path d="m736.179 0v636.938" stroke="#e0e0e0" stroke-opacity=".4" stroke-width="1.3242"/><path d="m746.111 210.547c0-2.925 2.371-5.297 5.297-5.297h300.592v31.781h-300.592c-2.926 0-5.297-2.372-5.297-5.297z" fill="#15c8ff"/><path d="m893 205h100v32h-100z" fill="url(#b)"/><path d="m-59 364.154h459.496c2.925 0 5.297 2.371 5.297 5.297v21.187c0 2.925-2.372 5.296-5.297 5.296h-459.496z" fill="#15c8ff"/><path d="m0 364h100v32h-100z" fill="url(#c)"/><rect fill="#0076f8" height="31.7807" rx="5.29678" width="295.296" x="110.497" y="46.3469"/><text fill="#fff" font-family="sans-serif" font-size="13.242" font-weight="500" letter-spacing="0em"><tspan x="152.871" y="66.2782">Setup Web Server</tspan></text><circle cx="126.387" cy="62.2371" fill="#c1e0ec" r="10.5936"/><path d="m133.458 70.1873c-4.165 3.2074-9.976 3.1818-14.113-.0623l3.032-1.4214c.145-.0679.283-.1475.415-.2381.04-.0274.08-.056.118-.086.33-.2525.601-.5732.796-.9403.148-.283.245-.5893.289-.9054.031-.2045.046-.4109.046-.6176 0-.3564-.019-.7129-.023-1.0699-.002-.1978-.004-.3953-.006-.5926l.125.0623.324.1676.15.0256 1.737.2953 1.939.3303.059 1.9941.019.6518.01.3166v.0205l.754.3066z" fill="#f2a196"/><path d="m133.458 70.1869c-4.165 3.2074-9.976 3.1818-14.113-.0623l3.032-1.4214c.145-.0679.283-.1475.415-.2381.04-.0274.08-.056.118-.0859 1.467 1.0443 3.47 1.703 5.202.9235.413-.187.792-.4886 1.016-.8762z" fill="url(#e)"/><path d="m128.373 68.0987c-.651.0392-1.309-.4661-1.988-.8568-1.272-.7347-2.02-1.6788-1.776-2.7294l1.738.2953 1.939.3303.058 1.9941z" fill="#e88870"/><path d="m131.361 58.0874c.32 1.2463-.201 2.4116-.704 3.5519-.637 1.4414-1.55 1.6127-2.945 2.0888-.311.1072-3.69 1.0669-3.69 1.2762 0-.0455-.331-.3739-.748-.7733-1.495-1.4202-1.987-3.6143-1.097-5.4962 1.184-2.4994 4.712-2.9462 7.134-2.3387.835.2094 1.65.5397 1.963 1.4052.033.096.062.1913.087.2861z" fill="#00214e"/><path d="m124.458 62.511c0 .5851-.474 1.0594-1.059 1.0594s-1.06-.4743-1.06-1.0594.475-1.0593 1.06-1.0593 1.059.4742 1.059 1.0593z" fill="#f2a196"/><path d="m124.683 62.5109c0 .5238-.424.9485-.948.9485s-.948-.4247-.948-.9485.424-.9484.948-.9484.948.4246.948.9484z" fill="#e88870"/><path d="m123.749 61.5115.273 3.552 4.14 2.4191c.594.222 1.26-.044 1.538-.6145.596-1.2201 1.552-3.1463 1.426-3.8635-.187-1.0594-.686-1.4333-.686-1.4333l.208-1.2425c.078-.468.178-.9565.062-1.427-.133-.5391-.54-.7696-.876-1.1728-.882 1.1366-2.333 1.7791-3.599 2.4303-.654.344-2.486 1.3522-2.486 1.3522z" fill="#f2a196"/><path clip-rule="evenodd" d="m128.363 61.2142c0-.0002-.001-.006 0-.0125l.061.0142c.001-.004.001-.0072.001-.008 0-.0013 0-.0023-.001-.0027 0-.0006 0-.001 0-.001v.0001c0 .0005.001.0017.001.0039.002.0044.004.0108.007.0195.005.0172.014.042.025.0734.023.0629.055.1516.094.2576.078.2119.182.4926.286.7726.105.28.209.5593.288.7687.039.1046.071.1918.094.2528l.036.0958s0 .0001-.029.011l.029-.011.015.04-1.16.057-.003-.0623 1.075-.0527-.021-.0559c-.023-.061-.056-.1482-.095-.2529-.078-.2093-.183-.4887-.287-.7688-.105-.28-.209-.5608-.287-.7728-.039-.1061-.071-.195-.093-.2582-.012-.0315-.02-.0568-.026-.0745-.003-.0089-.006-.0161-.007-.0215-.001-.0026-.002-.0052-.002-.0075-.001-.0011-.001-.0026-.001-.0043z" fill="#00214e" fill-rule="evenodd"/><path clip-rule="evenodd" d="m127.495 60.7586c-.579-.0861-1.169-.0695-1.742.0489l-.013-.061c.58-.1199 1.178-.1367 1.764-.0496z" fill="#00214e" fill-rule="evenodd"/><path clip-rule="evenodd" d="m130.51 60.7396c-.361-.0321-.724-.0068-1.077.0747l-.014-.0607c.359-.083.729-.1087 1.097-.0761z" fill="#00214e" fill-rule="evenodd"/><path d="m126.962 64.1377c.018-.0272.045-.0461.077-.052s.064.0016.09.0208c.13.091.367.2842.703.3509.459.0916.856-.0922.952.0261.053.0667-.012.1484-.137.2524-.265.1985-.599.2814-.926.23-.441-.0829-.773-.5939-.773-.7752 0-.0186.005-.0369.014-.053z" fill="#fff"/><path d="m126.765 61.394c.38 0 .38.5846 0 .5877h-.017c-.38 0-.38-.5845 0-.5877z" fill="#00214e"/><path d="m129.892 61.3074c.353.0031.353.5431 0 .5462h-.015c-.354 0-.354-.5431 0-.5462z" fill="#00214e"/><path d="m129.881 56.582c-1.31.0249-2.613.2027-3.882.5297-1.275.3107-2.509.7691-3.677 1.3659.278-1.2855 1.551-2.472 3.287-2.9076 1.735-.4356 3.417.0106 4.272 1.012z" fill="#845161"/><rect fill="#8352f1" height="31.7807" rx="5.29678" width="454.199" x="269.4" y="88.7209"/><text fill="#fff" font-family="sans-serif" font-size="13.242" font-weight="500" letter-spacing="0em"><tspan x="311.775" y="108.653">Website Design</tspan></text><circle cx="285.291" cy="104.611" fill="#e6ecc1" r="10.5936"/><path d="m288.36 106.994c-3.355.439-6.762.249-10.047-.561.466-2.132 1.185-4.202 2.143-6.163.826-1.6918 2.547-2.5592 4.404-2.7063 1.528-.1209 2.969.5222 3.754 1.8302.607 1.0101.985 2.3631 1.232 3.5111.264 1.227.504 2.458.719 3.693-.003-.019-1.991.367-2.205.396z" fill="url(#g)"/><path d="m292.341 112.155c-4.166 3.208-9.976 3.182-14.113-.062l3.034-1.422c.093-.044.183-.093.271-.146l.07-.044c.025-.015.049-.031.073-.048.383-.264.696-.616.914-1.026.25-.471.332-.991.336-1.52 0-.357-.02-.713-.023-1.07-.003-.198-.005-.395-.007-.593l.125.062.324.168 1.885.323 1.939.331.058 1.994.03.989.714.291.561.227z" fill="#e18477"/><path d="m287.227 109.098c-.627.112-1.272.061-1.874-.146-1.344-.452-2.25-1.542-2.335-2.665l.324.168 1.887.322 1.94.33z" fill="#a76962"/><path d="m282.147 104.23c0 .585-.475 1.059-1.06 1.059s-1.059-.474-1.059-1.059.474-1.06 1.059-1.06 1.06.475 1.06 1.06z" fill="#e18477"/><path d="m282.521 104.105c0 .586-.474 1.06-1.06 1.06-.585 0-1.059-.474-1.059-1.06 0-.585.474-1.059 1.059-1.059.586 0 1.06.474 1.06 1.059z" fill="#a76962"/><path d="m288.747 102.561c.776 2.688-.735 5.811-1.886 5.939-2.781.311-4.757-1.109-5.533-3.797-.777-2.688.255-5.348 2.305-5.9393 2.051-.5914 4.338 1.1086 5.114 3.7973z" fill="#e18477"/><path clip-rule="evenodd" d="m286.046 106.533c-.455-.037-.881-.238-1.199-.566l.045-.043c.308.316.719.511 1.159.547z" fill="#00214e" fill-rule="evenodd"/><path d="m286.464 99.0805c-.025.1184-.06.2344-.105.3464-.471 1.1551-1.197 2.1521-2.253 2.8421-1.246.816-2.469.777-3.863.974.08-.51.052-.904.069-1.438.028-.836.425-1.246.954-1.8565.394-.4536.927-1.1466 1.544-1.2968l3.619-.8624c.037.6225.157.7004.035 1.2912z" fill="url(#h)"/><path clip-rule="evenodd" d="m288.362 102.128c-.467-.136-.968-.089-1.401.132l-.029-.056c.448-.228.965-.276 1.447-.136z" fill="#00214e" fill-rule="evenodd"/><path clip-rule="evenodd" d="m285.447 102.429c-.617-.266-1.321-.244-1.92.061l-.028-.055c.615-.313 1.338-.337 1.972-.063z" fill="#00214e" fill-rule="evenodd"/><path d="m292.341 112.156c-4.166 3.207-9.976 3.181-14.113-.063l3.034-1.422c.144-.068.283-.147.414-.238.04-.027.08-.056.118-.086.33-.252.602-.573.796-.94.148-.282.245-.587.29-.902.044.042.09.083.138.121.382.282.797.518 1.235.701.213.089.43.166.652.23.667.195 1.363.268 2.056.218.096-.008.193-.017.289-.024l.009.317v.02l.752.304z" fill="#845161"/><path clip-rule="evenodd" d="m285.036 105.28c-.301.042-.583.175-.807.381-.109.101-.202.217-.278.345l-.054-.032c.079-.133.177-.254.29-.359.234-.214.527-.353.841-.397z" fill="#00214e" fill-rule="evenodd"/><path clip-rule="evenodd" d="m287.001 101.068h-1.475v-.062h1.475z" fill="#00214e" fill-rule="evenodd"/><path clip-rule="evenodd" d="m287.002 101.556h-1.835v-.063h1.835z" fill="#00214e" fill-rule="evenodd"/><path clip-rule="evenodd" d="m285.135 103.6c-.006.183-.086.356-.221.479-.136.123-.315.186-.498.175l.004-.063c.166.011.329-.046.452-.158s.195-.269.2-.435z" fill="#00214e" fill-rule="evenodd"/><path clip-rule="evenodd" d="m287.338 103.909c-.134-.11-.214-.273-.217-.446l.062-.001c.003.155.074.3.194.399.124.099.261.181.408.241l-.024.058c-.152-.063-.295-.147-.423-.251z" fill="#00214e" fill-rule="evenodd"/><path d="m286.983 104.834c.029.046.057.094.081.144.028.046.047.098.056.151.002.039-.014.077-.044.102-.029.026-.068.037-.106.031-.039-.009-.056.051-.017.062.051.01.103-.001.146-.029.042-.029.072-.073.082-.124.004-.065-.011-.131-.044-.187-.03-.063-.063-.124-.1-.183-.021-.034-.076 0-.054.032z" fill="#00214e"/><path d="m285.942 104.908c-.053.085-.116.191-.086.295.025.085.115.164.207.131.037-.014.021-.075-.017-.063-.062.024-.125-.042-.134-.102-.013-.082.042-.166.084-.232.021-.034-.033-.062-.054-.031z" fill="#00214e"/><path d="m284.576 103.191c.273.019.488.126.48.238-.008.113-.236.189-.509.17-.273-.02-.488-.126-.48-.239.007-.112.235-.188.509-.169z" fill="#00214e"/><path d="m288.273 103.29c.017.111-.188.235-.458.277s-.503-.014-.52-.125c-.018-.111.187-.235.457-.277.27-.043.503.013.521.125z" fill="#00214e"/><rect fill="#f6d14b" height="31.7807" rx="5.29678" width="613.102" x="110.497" y="205.25"/><text fill="#fff" font-family="sans-serif" font-size="13.242" font-weight="500" letter-spacing="0em"><tspan x="152.871" y="225.182">Copywriting</tspan></text><circle cx="126.387" cy="221.141" fill="#b6c294" r="10.5936"/><path d="m119.324 225.212s1.184-6.559 1.697-7.817c.799-1.964 2.704-3.136 4.794-3.302 1.527-.121 2.968.522 3.754 1.83 1.003 1.671 1.949 9.299 1.949 9.299z" fill="url(#i)"/><path d="m133.496 228.829c-4.166 3.207-9.976 3.182-14.113-.062l3.032-1.422c.093-.044.183-.092.271-.146l.07-.043c.025-.016.049-.032.073-.049.383-.264.697-.616.915-1.026.249-.471.331-.99.335-1.52 0-.356-.019-.713-.023-1.07-.003-.197-.005-.395-.006-.593l.124.063.324.167 1.887.319 1.939.331.043 1.483.015.509.03.989.714.291.561.227z" fill="#e18477"/><path d="m128.367 225.263c-.166.102-.323.149-.461.134-.922-.099-2.719-.821-3.851-2.158 0-.065-.001-.13-.004-.196 0-.049 0-.097 0-.145l.125.062.324.168 1.884.319 1.94.331z" fill="#a76962"/><path d="m133.497 228.829c-4.165 3.208-9.976 3.182-14.113-.062l3.032-1.422c.093-.043.184-.092.271-.145 1.476 1.085 3.53 1.791 5.301.997.502-.226.955-.627 1.14-1.141l.56.226z" fill="#f2d4cf"/><path d="m123.448 220.824c0 .585-.475 1.059-1.06 1.059s-1.059-.474-1.059-1.059.474-1.059 1.059-1.059 1.06.474 1.06 1.059z" fill="#e18477"/><path d="m123.821 220.699c0 .586-.474 1.06-1.059 1.06-.586 0-1.06-.474-1.06-1.06 0-.585.474-1.059 1.06-1.059.585 0 1.059.474 1.059 1.059z" fill="#a76962"/><path d="m129.587 219.22c.732 2.535-.819 5.598-1.778 5.598-1.308 0-4.486-1.045-5.218-3.58-.731-2.535.241-5.043 2.173-5.601 1.932-.557 4.092 1.047 4.823 3.583z" fill="#e18477"/><path d="m127.415 216.133c-.024.119-.059.235-.104.347-.468 1.157-1.191 2.155-2.243 2.848-1.246.82-2.468.783-3.863.984.079-.51.258-.997.273-1.531.025-.836.214-1.155.741-1.766.393-.454.924-1.148 1.541-1.301.011 0 3.614-1.433 3.614-1.433.04.623.162 1.26.041 1.852z" fill="url(#j)"/><path clip-rule="evenodd" d="m129.31 218.703c-.467-.136-.968-.089-1.401.132l-.028-.055c.447-.228.965-.277 1.447-.137z" fill="#00214e" fill-rule="evenodd"/><path clip-rule="evenodd" d="m126.56 218.954c-.617-.266-1.321-.243-1.92.062l-.028-.056c.615-.313 1.338-.336 1.972-.063z" fill="#00214e" fill-rule="evenodd"/><path clip-rule="evenodd" d="m127.69 220.489s0 0 .031-.001l.031-.002v.001.003c0 .002.001.006.001.011.001.01.002.024.003.042.003.035.008.084.015.137.015.109.04.234.078.312.017.032.037.062.059.094.001.001.002.002.002.003.022.032.046.066.064.104.036.07.05.131.045.182-.006.054-.033.093-.072.122-.038.028-.087.044-.138.054-.051.011-.108.014-.163.014v-.062c.053 0 .105-.004.151-.013.047-.009.086-.023.113-.043s.043-.045.047-.078c.004-.035-.006-.083-.039-.148v-.001c-.016-.032-.036-.063-.059-.096-.001-.001-.002-.003-.003-.004-.021-.031-.044-.064-.062-.1l-.001-.001c-.043-.087-.069-.221-.084-.33-.007-.055-.012-.105-.015-.141-.001-.018-.002-.033-.003-.043 0-.005-.001-.009-.001-.012v-.003z" fill="#00214e" fill-rule="evenodd"/><path clip-rule="evenodd" d="m126.719 221.369c-.038-.114.013-.239.12-.294l.029.056c-.08.041-.118.133-.09.218s.114.136.202.122l.01.061c-.118.02-.233-.049-.271-.163z" fill="#00214e" fill-rule="evenodd"/><path clip-rule="evenodd" d="m127.014 222.93c-.453-.056-.87-.274-1.175-.614l.047-.042c.294.329.698.54 1.136.594z" fill="#00214e" fill-rule="evenodd"/><path d="m125.667 219.69c.273.02.487.127.479.239-.009.113-.236.187-.509.167-.272-.02-.486-.127-.478-.24.008-.112.236-.187.508-.166z" fill="#00214e"/><path d="m129.351 219.716c.017.111-.187.236-.457.278s-.503-.014-.521-.125c-.017-.112.188-.236.458-.278s.503.014.52.125z" fill="#00214e"/><text fill="#fff" font-family="sans-serif" font-size="13.242" font-weight="500" letter-spacing="0em" xml:space="preserve"><tspan x="788.485" y="225.182">Strategy and... </tspan></text><circle cx="762.001" cy="221.141" fill="#a88e84" r="10.5936"/><path d="m769.052 229.044c-4.166 3.208-9.976 3.182-14.114-.062l3.033-1.421c.144-.068.283-.148.414-.238.04-.028.08-.057.118-.086.33-.253.602-.574.796-.941.148-.282.245-.587.289-.902.031-.205.046-.411.047-.618 0-.356-.02-.713-.024-1.07-.002-.197-.004-.394-.006-.592l.125.062.324.168.15.025 1.737.296 1.94.33.058 1.994.02.652.009.316v.02l.754.306z" fill="#f2a196"/><path d="m763.96 226.829c-.214.036-.434.002-.627-.098l-3.717-3.039c-.004-.141-.008.007-.01-.134-.002-.198-.004-.395-.006-.593l.124.062.325.168.15.026 1.737.295 1.939.33.059 1.994.019.652.01.317v.02z" fill="#e88870"/><path d="m769.052 229.044c-4.166 3.208-9.976 3.182-14.114-.062l3.033-1.421c.144-.068.283-.148.414-.238.04-.028.08-.057.118-.086 1.467 1.044 3.47 1.703 5.203.923.412-.187.791-.488 1.015-.876z" fill="#ff2609"/><path d="m767.936 216.564c-.006.036-.013.073-.021.109-.043.185-.112.363-.206.529l-.005.008c-.035.063-.073.125-.115.187-.109.16-.228.313-.356.458l-.077.086c-.051.058-.104.114-.156.171.039-.009.08-.011.12-.007.015.001.03.003.044.007.199.041.369.226.422.436.003.014.007.028.009.042.049.279-.062.561-.2.81-.241.441-.589.735-.895 1.118-.229.286-.356.623-.606.896l-.019.021-.015.015c-.66.68-1.693.842-2.555 1.136-.311.107-3.69 1.067-3.69 1.276 0-.046-.331-.374-.748-.773-1.495-1.421-1.987-3.615-1.097-5.497.956-2.025 3.129-3.47 5.198-4.164.646-.217 1.38-.363 1.994-.062.613.3.918 1.232.41 1.686.319-.241.717-.357 1.117-.324.369.023.717.18.98.44.146.147.264.32.347.51.035.079.063.16.086.243.056.21.067.428.034.643z" fill="#f2d4cf"/><path d="m767.936 216.563c-.006.037-.013.073-.021.11-.043.185-.113.363-.206.529l-.005.008c-.036.063-.074.125-.115.187-.109.16-.228.313-.356.458l-.077.086c-.052.058-.104.114-.156.17.039-.008.08-.01.12-.006.015.001.03.003.044.007.199.041.369.226.422.436.003.014.006.028.009.042.049.279-.063.561-.2.81-.241.441-.589.735-.895 1.118-.229.285-.357.623-.606.896l-.019.021-.015.015c-.251-.338-.41-.733-.464-1.15-.106-.863-.041-1.802-.071-2.675-.01-.305-.028-.668.07-.957.027-.072.063-.14.107-.202.114-.185.245-.36.39-.522.165-.175.373-.304.604-.374.124-.035.251-.059.38-.07.138-.013.277-.01.414.008.183.027.36.085.522.173.035.079.063.16.086.243.057.208.07.426.038.639z" fill="#daaea8"/><path d="m760.051 221.368c0 .585-.474 1.06-1.06 1.06-.585 0-1.059-.475-1.059-1.06s.474-1.059 1.059-1.059c.586 0 1.06.474 1.06 1.059z" fill="#f2a196"/><path d="m760.277 221.368c0 .524-.425.949-.949.949s-.948-.425-.948-.949c0-.523.424-.948.948-.948s.949.425.949.948z" fill="#e88870"/><path d="m759.342 220.371.274 3.552 4.14 2.419c.594.222 1.258-.043 1.537-.612.596-1.22 1.552-3.146 1.426-3.863-.187-1.059-.686-1.433-.686-1.433l.208-1.243c.078-.468.178-.956.062-1.427-.133-.539-.54-.77-.876-1.173-.882 1.137-2.333 1.779-3.599 2.431-.654.339-2.486 1.349-2.486 1.349z" fill="#f2a196"/><path clip-rule="evenodd" d="m763.956 220.071s-.001-.006 0-.012l.061.014c.001-.004.001-.007.001-.008s0-.002 0-.003c-.001-.001-.001-.001-.001-.001 0 .001.001.002.001.004.002.004.004.011.007.02.005.017.014.042.025.073.023.063.055.152.094.258.078.212.182.492.286.772.105.28.209.56.288.769.039.105.071.192.094.253l.036.096s0 0-.029.011l.029-.011.015.04-1.16.057-.003-.063 1.075-.052-.021-.056c-.023-.061-.056-.149-.095-.253-.078-.21-.183-.489-.287-.769-.105-.28-.209-.561-.287-.773-.039-.106-.071-.195-.093-.258-.012-.032-.02-.057-.026-.075-.003-.008-.006-.016-.007-.021-.001-.003-.002-.005-.002-.008-.001-.001-.001-.002-.001-.004z" fill="#00214e" fill-rule="evenodd"/><path clip-rule="evenodd" d="m763.088 219.616c-.579-.086-1.169-.07-1.742.049l-.013-.061c.581-.12 1.178-.137 1.764-.05z" fill="#00214e" fill-rule="evenodd"/><path clip-rule="evenodd" d="m766.104 219.597c-.361-.033-.725-.007-1.078.074l-.014-.06c.359-.083.73-.109 1.097-.077z" fill="#00214e" fill-rule="evenodd"/><path d="m762.555 222.995c.018-.028.045-.046.077-.052s.064.001.09.02c.13.091.367.285.703.351.459.092.856-.092.952.026.053.067-.012.149-.137.25-.265.198-.599.281-.926.23-.441-.083-.773-.594-.773-.776.001-.017.005-.034.014-.049z" fill="#fff"/><path d="m762.391 220.349c.38.003.38.584 0 .587h-.018c-.38-.003-.38-.584 0-.587z" fill="#00214e"/><path d="m765.523 220.309c.354 0 .354.543 0 .545h-.015c-.354 0-.354-.543 0-.545z" fill="#00214e"/><rect fill="#ff8474" height="31.7807" rx="5.29678" width="454.199" x="428.304" y="364.154"/><text fill="#fff" font-family="sans-serif" font-size="13.242" font-weight="500" letter-spacing="0em"><tspan x="470.678" y="384.085">Implementation</tspan></text><circle cx="444.194" cy="380.044" fill="#97cdd9" r="10.5936"/><path d="m448.784 378.831c-.151.449-.175 1.06-.44 1.457-.582.873-1.713 1.022-2.633 1.336-.06.012-.119.031-.175.057l-.326.103c-.312.098-.624.198-.934.299-.432.14-1.024.226-1.335.58-.178.205-.345.42-.498.644-.03.044-.067.093-.12.097-.033 0-.062-.044-.09-.062-.553-.298-.96-.707-1.301-1.225-1.029-1.589-1.45-3.496-1.184-5.37.004-.027.007-.054.012-.082.104-.606.381-1.17.796-1.624.42-.456.915-.836 1.464-1.124.327-.173.664-.326 1.009-.458.748-.296 1.543-.457 2.348-.477.764.001 1.521.15 2.227.441.974.389 1.728 1.116 1.791 2.217.063 1.085-.266 2.166-.611 3.191z" fill="#00214e"/><path d="m442.235 380.513c0 .585-.475 1.06-1.06 1.06s-1.059-.475-1.059-1.06.474-1.059 1.059-1.059 1.06.474 1.06 1.059z" fill="#f2a196"/><path d="m442.537 380.451c0 .551-.447.997-.997.997-.551 0-.997-.446-.997-.997s.446-.997.997-.997c.55 0 .997.446.997.997z" fill="#e88870"/><path d="m451.244 388.187c-4.165 3.207-9.975 3.182-14.113-.062l3.033-1.422c.144-.068.283-.147.414-.238l.069-.048.049-.038c.33-.252.601-.573.796-.94.249-.471.332-.99.335-1.52 0-.179-.003-.358-.009-.537-.006-.178-.012-.355-.014-.533-.002-.198-.004-.395-.006-.593l.115.06.009.004.324.168.15.025 1.737.295.689.118 1.25.213.059 1.994.024.829.005.14v.02l.754.307.046.019z" fill="#f2a196"/><path d="m441.818 382.994 2.048 1.921c.631.554 1.453.84 2.291.797l-.024-.829-.059-1.994-1.25-.213c-.171.077-.342.154-.513.222-.511.201-1.088.124-1.584-.085-.369-.164-.688-.422-.926-.748z" fill="#e88870"/><path d="m451.244 388.187c-4.165 3.207-9.975 3.182-14.113-.062l3.033-1.422c.144-.068.283-.147.414-.238l.069-.048c1.518 1.035 3.541 1.661 5.297.872.412-.178.765-.47 1.016-.842z" fill="#845161"/><path d="m448.63 381.04c-.026.455-.099.906-.219 1.346-.268 1.054-.713 2.097-.934 2.487-.166.291-.397.347-.763.436-.918.21-1.881.006-2.635-.557l-2.27-1.675c-.032-.312-.085-.639-.145-.972-.173-.969-.398-1.994-.3-2.9.031-.258.156-.495.351-.667.522-.494 1.496-.719 2.103-.872.911-.234 1.847-.374 2.745-.65.661-.206 1.374-.518 1.771-1.114 0 0 .068.673.084.827.033.318.032.593.066.906.034.343.013.689-.062 1.025-.052.232-.113.464-.156.698-.042.225.017.229.132.387.237.324.247.91.232 1.295z" fill="#f2a196"/><path d="m444.461 379.276c.38 0 .38.584 0 .587h-.016c-.381 0-.381-.584 0-.587z" fill="#00214e"/><path d="m447.586 379.189c.353.003.353.543 0 .546h-.016c-.354 0-.354-.543 0-.546z" fill="#00214e"/><path clip-rule="evenodd" d="m446.415 379.533c0-.001-.002-.008 0-.015l.061.015c.001-.005.001-.009.001-.01-.001-.002-.001-.003-.001-.004v-.001-.001.001c0 .001 0 .002.001.003.002.004.005.01.009.018.005.011.013.026.022.044.004.008.008.016.013.025.03.06.073.144.12.246.095.202.211.475.29.759v.001c.074.303.108.615.102.927v.031h-.873v-.063h.811c.003-.296-.03-.592-.1-.88-.078-.279-.192-.548-.286-.749-.047-.101-.089-.184-.119-.243-.005-.009-.009-.018-.013-.025-.009-.019-.017-.034-.023-.045-.004-.009-.008-.016-.01-.021-.001-.003-.002-.005-.003-.008-.001-.001-.001-.003-.002-.005z" fill="#00214e" fill-rule="evenodd"/><path d="m448.415 382.386c-.268 1.055-.713 2.097-.934 2.487-.166.291-.397.347-.763.436-.918.21-1.881.007-2.635-.557l-2.273-1.675c-.037-.367-.171-.718-.249-1.08-.034-.163-.063-.334-.023-.498.011.086.048.167.107.232.294.4.638.852 1.128 1.017.511.171 1.093.198 1.586-.044.429-.211.85-.485 1.298-.659.298-.123.619-.178.941-.162.458.031.653.237.988.509.11.09.232.184.374.184.162.003.318-.087.455-.19z" fill="#00214e"/><path clip-rule="evenodd" d="m446.823 382.676c-.417.185-.887.212-1.323.077l.018-.06c.422.131.876.105 1.28-.074z" fill="#f2a196" fill-rule="evenodd"/><path clip-rule="evenodd" d="m445.271 378.758c-.579-.086-1.169-.069-1.742.05l-.013-.061c.581-.121 1.178-.138 1.764-.051z" fill="#00214e" fill-rule="evenodd"/><path clip-rule="evenodd" d="m448.287 378.741c-.361-.032-.725-.007-1.078.075l-.014-.061c.359-.083.73-.109 1.097-.076z" fill="#00214e" fill-rule="evenodd"/><path clip-rule="evenodd" d="m445.32 381.494c-.038-.114.013-.239.12-.293l.029.055c-.08.041-.118.133-.09.218s.114.137.202.122l.01.062c-.118.019-.233-.05-.271-.164z" fill="#00214e" fill-rule="evenodd"/><path d="m441.602 382.107.062-.003.041.048.134.861-.029.012-.045-.062z" fill="#00214e"/><rect fill="#45e9cd" height="31.7807" rx="5.29678" width="613.102" x="110.497" y="523.057"/><text fill="#fff" font-family="sans-serif" font-size="13.242" font-weight="500" letter-spacing="0em"><tspan x="152.871" y="542.989">Quality Assurance</tspan></text><circle cx="126.387" cy="538.948" fill="#ecc1c1" r="10.5936"/><path d="m127.554 532.271c-.748-.249-1.549-.454-2.34-.364-1.254.144-2.448.616-3.461 1.37-.619.462-1.405 1.207-1.535 2.014-.116.723.764 1.261.598 1.917-.142.556-1.277.431-1.487 1.043-.231.681 1.029 1.491.791 2.099-.219.557-1.778-.083-1.84.71-.084 1.076 1.772 1.321 1.641 1.926-.144.66-2.206.413-2.353.983-.14.548 1.478 1.782 3.695 2.411 5.947 1.689 12.027-1.549 11.855-2.373-.091-.443-1.948-.643-2.011-1.225-.05-.463 1.177-.851 1.094-1.267-.087-.431-1.475-.298-1.591-.759-.131-.519 1.506-1.14 1.392-1.774-.092-.507-1.203-.448-1.343-1.013-.166-.672.859-1.201.692-1.745-.18-.582-1.53-.352-1.835-1.093-.178-.433.323-.787.299-1.267-.024-.448-.508-1.001-2.261-1.593z" fill="url(#k)"/><path d="m132.975 546.603c-4.166 3.208-9.976 3.182-14.113-.062l3.032-1.421c.093-.044.183-.093.271-.146l.07-.044c.025-.015.049-.032.073-.048.383-.265.697-.617.915-1.027.249-.471.331-.991.335-1.52 0-.357-.019-.713-.023-1.07-.003-.198-.005-.395-.006-.593l.124.062.324.168 1.888.321 1.939.33.059 1.994.029.989.715.291.56.227z" fill="#e18477"/><path d="m127.861 543.547c-.627.111-1.272.061-1.874-.147-1.342-.451-2.25-1.539-2.335-2.661l.324.168 1.887.321 1.94.33z" fill="#a76962"/><path d="m122.781 538.678c0 .586-.475 1.06-1.06 1.06s-1.059-.474-1.059-1.06c0-.585.474-1.059 1.059-1.059s1.06.474 1.06 1.059z" fill="#e18477"/><path d="m123.155 538.553c0 .586-.474 1.06-1.06 1.06-.585 0-1.059-.474-1.059-1.06 0-.585.474-1.059 1.059-1.059.586 0 1.06.474 1.06 1.059z" fill="#a76962"/><path d="m129.38 537.009c.776 2.689-.735 5.811-1.886 5.939-2.782.312-4.757-1.108-5.533-3.797-.777-2.689.255-5.347 2.305-5.939 2.05-.591 4.338 1.109 5.114 3.797z" fill="#e18477"/><path clip-rule="evenodd" d="m128.998 536.576c-.468-.136-.97-.089-1.403.132l-.029-.055c.448-.229.966-.278 1.449-.137z" fill="#00214e" fill-rule="evenodd"/><path clip-rule="evenodd" d="m126.079 536.877c-.617-.266-1.32-.244-1.919.062l-.028-.056c.615-.314 1.338-.337 1.972-.063z" fill="#00214e" fill-rule="evenodd"/><path d="m132.975 546.603c-4.166 3.208-9.976 3.182-14.113-.062l3.032-1.421c.144-.068.283-.148.414-.238.04-.028.08-.056.118-.086.33-.253.602-.574.797-.941.147-.282.245-.588.289-.903.044.043.09.083.138.121.382.283.797.518 1.235.702.213.089.431.165.652.23.667.194 1.363.268 2.056.217.096-.007.193-.016.289-.023l.009.316v.021l.754.306z" fill="#f2d4cf"/><path clip-rule="evenodd" d="m125.713 537.942c-.005.183-.085.355-.221.479-.135.123-.315.186-.497.174l.004-.062c.165.01.329-.047.452-.158.123-.112.195-.269.2-.435z" fill="#00214e" fill-rule="evenodd"/><path clip-rule="evenodd" d="m127.917 538.251c-.134-.11-.213-.272-.217-.445l.062-.002c.004.155.075.301.194.399.124.099.261.181.408.241l-.023.058c-.153-.063-.296-.147-.424-.251z" fill="#00214e" fill-rule="evenodd"/><path clip-rule="evenodd" d="m125.67 539.728c-.301.042-.582.175-.806.381-.11.101-.204.217-.279.345l-.054-.031c.079-.134.177-.255.29-.36h.001c.233-.214.526-.353.839-.397z" fill="#00214e" fill-rule="evenodd"/><path clip-rule="evenodd" d="m127.635 535.516h-1.475v-.062h1.475z" fill="#00214e" fill-rule="evenodd"/><path clip-rule="evenodd" d="m127.635 536.004h-1.835v-.063h1.835z" fill="#00214e" fill-rule="evenodd"/><path d="m125.248 540.361c.017-.028.045-.046.077-.052.031-.006.064.001.09.02.13.091.366.285.703.351.459.092.856-.092.951.026.054.067-.011.149-.137.253-.265.198-.599.281-.926.23-.441-.083-.772-.594-.772-.775 0-.019.005-.037.014-.053z" fill="#fff"/><path d="m127.137 533.08c-.246-.233-.681-.304-.997-.35-1.396-.203-2.689.333-3.721 1.255-.499.443-.941.964-1.184 1.585-.259.671-.393 2.08.637 2.023.451-.024.878-.221 1.275-.421 1.113-.561 2.172-1.272 3.011-2.201.21-.235.405-.482.585-.74.229-.322.816-.732.397-1.143-.001-.002-.002-.005-.003-.008z" fill="url(#l)"/><path clip-rule="evenodd" d="m127.248 538.18c-.066-.236-.108-.478-.126-.722l.063-.004c.017.24.058.477.123.709.058.19.143.312.259.477.006.008.012.017.018.025.045.06.083.125.115.192v.001c.086.193.073.399-.019.557-.091.158-.261.267-.48.267h-.257v-.062h.257c.197 0 .346-.097.426-.236.081-.14.095-.324.016-.5-.03-.064-.066-.125-.108-.182h-.001c-.006-.01-.013-.019-.019-.028-.115-.164-.206-.293-.267-.494z" fill="#00214e" fill-rule="evenodd"/><path clip-rule="evenodd" d="m125.898 539.439c-.038-.114.013-.239.12-.294l.029.056c-.08.041-.118.133-.09.218s.114.137.202.122l.011.061c-.119.021-.234-.049-.272-.163z" fill="#00214e" fill-rule="evenodd"/><path d="m125.074 537.473c.38-.004.391.577.011.587h-.017c-.381.004-.392-.577-.012-.587z" fill="#00214e"/><path d="m128.205 537.374c.354-.004.364.536.01.546h-.018c-.353.004-.364-.536-.01-.546h.015z" fill="#00214e"/></g></svg>