<svg fill="none" height="572" viewBox="0 0 993 572" width="993" xmlns="http://www.w3.org/2000/svg" xmlns:xlink="http://www.w3.org/1999/xlink"><filter id="a" color-interpolation-filters="sRGB" filterUnits="userSpaceOnUse" height="112.152" width="258.673" x="273.144" y="220.849"><feFlood flood-opacity="0" result="BackgroundImageFix"/><feColorMatrix in="SourceAlpha" result="hardAlpha" type="matrix" values="0 0 0 0 0 0 0 0 0 0 0 0 0 0 0 0 0 0 127 0"/><feOffset dy="7.23559"/><feGaussianBlur stdDeviation="9.04449"/><feComposite in2="hardAlpha" operator="out"/><feColorMatrix type="matrix" values="0 0 0 0 0 0 0 0 0 0 0 0 0 0 0 0 0 0 0.1 0"/><feBlend in2="BackgroundImageFix" mode="normal" result="effect1_dropShadow_1407_1350"/><feBlend in="SourceGraphic" in2="effect1_dropShadow_1407_1350" mode="normal" result="shape"/></filter><filter id="b" color-interpolation-filters="sRGB" filterUnits="userSpaceOnUse" height="112.152" width="331.028" x="273.144" y="333.001"><feFlood flood-opacity="0" result="BackgroundImageFix"/><feColorMatrix in="SourceAlpha" result="hardAlpha" type="matrix" values="0 0 0 0 0 0 0 0 0 0 0 0 0 0 0 0 0 0 127 0"/><feOffset dy="7.23559"/><feGaussianBlur stdDeviation="9.04449"/><feComposite in2="hardAlpha" operator="out"/><feColorMatrix type="matrix" values="0 0 0 0 0 0 0 0 0 0 0 0 0 0 0 0 0 0 0.1 0"/><feBlend in2="BackgroundImageFix" mode="normal" result="effect1_dropShadow_1407_1350"/><feBlend in="SourceGraphic" in2="effect1_dropShadow_1407_1350" mode="normal" result="shape"/></filter><rect fill="#15c8ff" height="75.9737" rx="10.8534" width="233.348" y="120"/><text fill="#fff" font-family="sans-serif" font-size="21.7068" font-weight="600" letter-spacing="0em"><tspan x="28.9424" y="165.097">Install Apache</tspan></text><path d="m290.063 270.329c.354-.353.354-.926 0-1.279l-5.756-5.756c-.353-.353-.925-.353-1.279 0-.353.353-.353.926 0 1.279l5.117 5.116-5.117 5.117c-.353.353-.353.926 0 1.279.354.353.926.353 1.279 0zm-56.75-111.888c3.74.143 9.41 1.695 14.131 5.896 4.69 4.173 8.515 11.022 8.515 21.911h1.809c0-11.361-4.014-18.718-9.122-23.263-5.077-4.517-11.165-6.195-15.264-6.351zm22.646 27.807v.163.163.162.162.161.161.161.16.16.16.159.159.159.158.158.158.157.157.157.156.156.155.156.154.155.154.154.154.153.153.153.152.152.151.152.151.15.15.15.15.149.149.149.148.148.148.147.147.147.146.146.146.145.146.144.145.144.144.143.143.143.143.142.142.142.141.141.141.14.14.14.139.139.139.139.138.138.138.137.137.137.136.136.136.135.135.135.135.134.134.134.133.133.133.133.132.132.131.132.131.13.131.13.13.129.129.129.129.129.128.127.128.127.127.127.126.126.126.126.125.125.125.124.124.124.124.123.123.123.122.122.122.122.121.121.121.121.12.12.12.119.12.118.119.118.119.117.118.117.117.117.117.116.116.116.115.115.115.115.114.115.114.113.114.113.113.112.113.112.112.111.112.111.111.11.111.11.109.11.109.11.108.109.108.108.108.108.107.107.107.107.106.107.106.105.106.105.105.105.104.104.104.104.104.103.103.103.103.102.102.102.102.101.101.101.101.101.1.1.1.1.099.099.099.099.099.098.098.098.097.098.097.097.097.096.097.096.096.095.096.095.095.095.095.094.094.094.094.093.094.093.093.093.092.092.093.091.092.092.091.091.091.091.09.09.09.09.09.089.09.089.089.088.089.088.088.088.088.087.088.087.087.087.086.086.087.086.085.086.085.086.085.085.084.085.084.084.084.084.084.083.083.083.083.083.083.082.082.082.082.081.082.081.081.081.081.081.08.08.08.08.08.08.079.079.079.079.079.079.078.078.078.078.078.078.077.078.077.077.076.077.077.076.076.076.076.076.075.076.075.075.075.075.074.075.074.074.075.073.074.074.073.074.073.073.073.072.073.072.073.072.072.072.072.071.072.071.071.071.071.071.071.07.07.071.07.07.07.069.07.069.07.069.069.069.069.068.069.068.069.068.068.068.068.067.068.067.068.067.067.067.067.067.066.067.066.066.067.066.066.065.066.066.065.066.065.065.065.065.065.064.065.065.064.064.064.065.064.063.064.064.063.064.063.063.064.063.063.063.062.063.063.062.062.063.062.062.062.062.062.062.061.062.061.062.061.061.061.061.061.061.061.061.06.061.06.061.06.06.06.06.06.06.06.06.059.06.059.06.059.06.059.059.059.059.059.059.059.058.059.058.059.058.059.058.058.058.059.058.058.058.057h1.809c0-.019 0-.038 0-.057 0-.02 0-.039 0-.058 0-.02 0-.039 0-.058 0-.02 0-.039 0-.058 0-.02 0-.039 0-.059 0-.019 0-.038 0-.058 0-.019 0-.039 0-.058s0-.039 0-.058c0-.02 0-.039 0-.059 0-.019 0-.039 0-.058 0-.02 0-.039 0-.059 0-.019 0-.039 0-.058 0-.02 0-.039 0-.059 0-.019 0-.039 0-.058 0-.02 0-.04 0-.059 0-.02 0-.039 0-.059s0-.039 0-.059 0-.039 0-.059 0-.039 0-.059 0-.04 0-.059c0-.02 0-.04 0-.059 0-.02 0-.04 0-.06 0-.019 0-.039 0-.059s0-.04 0-.06c0-.019 0-.039 0-.059s0-.04 0-.06c0-.019 0-.039 0-.059s0-.04 0-.06 0-.04 0-.06 0-.04 0-.06 0-.04 0-.06 0-.04 0-.06 0-.04 0-.06 0-.04 0-.06 0-.04 0-.06 0-.041 0-.061 0-.04 0-.06 0-.04 0-.061c0-.02 0-.04 0-.06 0-.021 0-.041 0-.061s0-.041 0-.061 0-.04 0-.061c0-.02 0-.04 0-.061 0-.02 0-.04 0-.061 0-.02 0-.04 0-.061 0-.02 0-.041 0-.061s0-.041 0-.061c0-.021 0-.041 0-.062 0-.02 0-.041 0-.061 0-.021 0-.041 0-.062 0-.02 0-.041 0-.061 0-.021 0-.042 0-.062 0-.021 0-.041 0-.062s0-.041 0-.062 0-.041 0-.062 0-.041 0-.062 0-.041 0-.062 0-.042 0-.063c0-.02 0-.041 0-.062s0-.042 0-.062c0-.021 0-.042 0-.063s0-.042 0-.063 0-.041 0-.062 0-.042 0-.063 0-.042 0-.063 0-.042 0-.063 0-.042 0-.064c0-.021 0-.042 0-.063s0-.042 0-.063 0-.042 0-.064c0-.021 0-.042 0-.063s0-.043 0-.064 0-.042 0-.064c0-.021 0-.042 0-.063 0-.022 0-.043 0-.064 0-.022 0-.043 0-.065 0-.021 0-.042 0-.064 0-.021 0-.043 0-.064s0-.043 0-.064c0-.022 0-.043 0-.065 0-.021 0-.043 0-.065 0-.021 0-.043 0-.064 0-.022 0-.043 0-.065s0-.043 0-.065 0-.043 0-.065 0-.043 0-.065 0-.044 0-.065c0-.022 0-.044 0-.066s0-.043 0-.065 0-.044 0-.066 0-.044 0-.066c0-.021 0-.043 0-.065s0-.044 0-.066 0-.044 0-.066 0-.044 0-.067c0-.022 0-.044 0-.066s0-.044 0-.066 0-.044 0-.067c0-.022 0-.044 0-.066 0-.023 0-.045 0-.067s0-.045 0-.067 0-.045 0-.067 0-.045 0-.067 0-.045 0-.067c0-.023 0-.045 0-.068 0-.022 0-.044 0-.067 0-.022 0-.045 0-.068 0-.022 0-.045 0-.067 0-.023 0-.045 0-.068s0-.045 0-.068 0-.045 0-.068 0-.045 0-.068 0-.046 0-.069c0-.022 0-.045 0-.068s0-.046 0-.069c0-.022 0-.045 0-.068s0-.046 0-.069 0-.046 0-.069 0-.046 0-.069 0-.046 0-.069 0-.046 0-.07c0-.023 0-.046 0-.069s0-.046 0-.07c0-.023 0-.046 0-.069 0-.024 0-.047 0-.07 0-.024 0-.047 0-.07 0-.024 0-.047 0-.07 0-.024 0-.047 0-.071 0-.023 0-.046 0-.07 0-.023 0-.047 0-.07 0-.024 0-.048 0-.071 0-.024 0-.047 0-.071s0-.047 0-.071c0-.023 0-.047 0-.071s0-.047 0-.071 0-.048 0-.071c0-.024 0-.048 0-.072s0-.048 0-.071c0-.024 0-.048 0-.072s0-.048 0-.072 0-.048 0-.072 0-.048 0-.072 0-.048 0-.073c0-.024 0-.048 0-.072s0-.048 0-.073c0-.024 0-.048 0-.072 0-.025 0-.049 0-.073 0-.025 0-.049 0-.073 0-.025 0-.049 0-.073 0-.025 0-.049 0-.074 0-.024 0-.049 0-.073 0-.025 0-.049 0-.074 0-.024 0-.049 0-.074 0-.024 0-.049 0-.073 0-.025 0-.05 0-.075 0-.024 0-.049 0-.074 0-.024 0-.049 0-.074s0-.05 0-.075c0-.024 0-.049 0-.074s0-.05 0-.075 0-.05 0-.075 0-.05 0-.075 0-.05 0-.075 0-.051 0-.076 0-.05 0-.075 0-.051 0-.076 0-.051 0-.076 0-.051 0-.076 0-.051 0-.076 0-.051 0-.076c0-.026 0-.051 0-.077 0-.025 0-.051 0-.077 0-.025 0-.051 0-.076 0-.026 0-.052 0-.077 0-.026 0-.052 0-.077 0-.026 0-.052 0-.078s0-.051 0-.077 0-.052 0-.078 0-.052 0-.078 0-.051 0-.078c0-.026 0-.052 0-.078s0-.052 0-.078 0-.052 0-.078 0-.053 0-.079 0-.052 0-.079c0-.026 0-.052 0-.079 0-.026 0-.052 0-.079 0-.026 0-.052 0-.079 0-.026 0-.053 0-.079 0-.027 0-.053 0-.08 0-.026 0-.053 0-.08 0-.026 0-.053 0-.08 0-.026 0-.053 0-.08 0-.026 0-.053 0-.08s0-.053 0-.08 0-.054 0-.081 0-.054 0-.081 0-.054 0-.081 0-.054 0-.081 0-.054 0-.081 0-.054 0-.082c0-.027 0-.054 0-.081s0-.055 0-.082 0-.055 0-.082 0-.055 0-.082c0-.028 0-.055 0-.082 0-.028 0-.055 0-.083s0-.055 0-.083c0-.027 0-.055 0-.083 0-.027 0-.055 0-.083 0-.027 0-.055 0-.083s0-.055 0-.083 0-.056 0-.084 0-.056 0-.084 0-.056 0-.084 0-.056 0-.084 0-.056 0-.084 0-.056 0-.085c0-.028 0-.056 0-.084 0-.029 0-.057 0-.085 0-.029 0-.057 0-.085 0-.029 0-.057 0-.086 0-.028 0-.056 0-.085 0-.028 0-.057 0-.086 0-.028 0-.057 0-.085 0-.029 0-.058 0-.086 0-.029 0-.058 0-.087 0-.028 0-.057 0-.086s0-.058 0-.086c0-.029 0-.058 0-.087s0-.058 0-.087 0-.058 0-.087 0-.059 0-.088 0-.058 0-.087 0-.059 0-.088 0-.058 0-.088c0-.029 0-.059 0-.088s0-.059 0-.088c0-.03 0-.059 0-.089 0-.029 0-.059 0-.088 0-.03 0-.06 0-.089 0-.03 0-.06 0-.089 0-.03 0-.06 0-.09 0-.029 0-.059 0-.089s0-.06 0-.09 0-.06 0-.09 0-.06 0-.09 0-.06 0-.09 0-.06 0-.09c0-.031 0-.061 0-.091s0-.061 0-.091 0-.061 0-.091c0-.031 0-.061 0-.091 0-.031 0-.061 0-.092 0-.03 0-.061 0-.092 0-.03 0-.061 0-.091 0-.031 0-.062 0-.093 0-.03 0-.061 0-.092s0-.062 0-.092c0-.031 0-.062 0-.093s0-.062 0-.093 0-.062 0-.093 0-.062 0-.094c0-.031 0-.062 0-.093s0-.063 0-.094 0-.062 0-.094c0-.031 0-.063 0-.094s0-.063 0-.094c0-.032 0-.063 0-.095s0-.063 0-.095c0-.031 0-.063 0-.095s0-.063 0-.095 0-.064 0-.096c0-.031 0-.063 0-.095s0-.064 0-.096 0-.064 0-.096 0-.064 0-.097c0-.032 0-.064 0-.096s0-.065 0-.097 0-.065 0-.097 0-.065 0-.097c0-.033 0-.065 0-.098 0-.032 0-.065 0-.097 0-.033 0-.065 0-.098s0-.065 0-.098 0-.066 0-.098c0-.033 0-.066 0-.099s0-.066 0-.099 0-.066 0-.099 0-.066 0-.099 0-.066 0-.099 0-.067 0-.1 0-.066 0-.1c0-.033 0-.066 0-.1 0-.033 0-.067 0-.1 0-.034 0-.067 0-.101 0-.033 0-.067 0-.101 0-.033 0-.067 0-.101 0-.033 0-.067 0-.101s0-.067 0-.101 0-.068 0-.102 0-.068 0-.102 0-.068 0-.102 0-.068 0-.102c0-.035 0-.069 0-.103s0-.069 0-.103 0-.069 0-.103 0-.069 0-.103c0-.035 0-.069 0-.104 0-.034 0-.069 0-.104 0-.034 0-.069 0-.104 0-.034 0-.069 0-.104s0-.07 0-.104c0-.035 0-.07 0-.105s0-.07 0-.105 0-.07 0-.105 0-.071 0-.106 0-.07 0-.105c0-.036 0-.071 0-.106 0-.036 0-.071 0-.107 0-.035 0-.07 0-.106 0-.035 0-.071 0-.107 0-.035 0-.071 0-.107 0-.035 0-.071 0-.107 0-.035 0-.071 0-.107s0-.072 0-.108 0-.072 0-.108 0-.072 0-.108 0-.072 0-.108 0-.072 0-.109c0-.036 0-.072 0-.108 0-.037 0-.073 0-.11 0-.036 0-.072 0-.109 0-.036 0-.073 0-.11 0-.036 0-.073 0-.109 0-.037 0-.074 0-.11 0-.037 0-.074 0-.111s0-.074 0-.11c0-.037 0-.074 0-.111s0-.074 0-.111 0-.075 0-.112 0-.074 0-.111c0-.038 0-.075 0-.112 0-.038 0-.075 0-.112 0-.038 0-.075 0-.113 0-.037 0-.075 0-.112 0-.038 0-.076 0-.113 0-.038 0-.076 0-.113 0-.038 0-.076 0-.114s0-.075 0-.113 0-.076 0-.114 0-.076 0-.115c0-.038 0-.076 0-.114s0-.076 0-.115c0-.038 0-.076 0-.115 0-.038 0-.076 0-.115 0-.038 0-.077 0-.115 0-.039 0-.077 0-.116s0-.077 0-.116 0-.077 0-.116 0-.078 0-.117 0-.078 0-.117 0-.078 0-.117 0-.078 0-.117 0-.078 0-.118c0-.039 0-.078 0-.117 0-.04 0-.079 0-.119 0-.039 0-.078 0-.118 0-.039 0-.079 0-.119 0-.039 0-.079 0-.118 0-.04 0-.08 0-.12 0-.039 0-.079 0-.119s0-.08 0-.12 0-.08 0-.12 0-.08 0-.12 0-.08 0-.121c0-.04 0-.08 0-.121 0-.04 0-.08 0-.121 0-.04 0-.08 0-.121 0-.04 0-.081 0-.122 0-.04 0-.081 0-.122 0-.04 0-.081 0-.122s0-.081 0-.122 0-.082 0-.123 0-.082 0-.123 0-.082 0-.123 0-.083 0-.124 0-.082 0-.124c0-.041 0-.082 0-.124 0-.041 0-.083 0-.124 0-.042 0-.083 0-.125s0-.083 0-.125 0-.083 0-.125 0-.084 0-.126 0-.084 0-.126 0-.084 0-.126 0-.084 0-.126 0-.084 0-.127c0-.042 0-.084 0-.127 0-.042 0-.085 0-.127s0-.085 0-.128c0-.042 0-.085 0-.127 0-.043 0-.086 0-.128 0-.043 0-.086 0-.129s0-.086 0-.129c0-.042 0-.085 0-.129 0-.043 0-.086 0-.129s0-.086 0-.129c0-.044 0-.087 0-.13s0-.087 0-.13c0-.044 0-.087 0-.131 0-.043 0-.087 0-.13 0-.044 0-.088 0-.131 0-.044 0-.088 0-.132s0-.087 0-.131 0-.088 0-.132 0-.088 0-.132c0-.045 0-.089 0-.133s0-.088 0-.133c0-.044 0-.088 0-.133 0-.044 0-.089 0-.133 0-.045 0-.089 0-.134 0-.044 0-.089 0-.134s0-.089 0-.134 0-.09 0-.135 0-.09 0-.135 0-.09 0-.135 0-.09 0-.135 0-.091 0-.136 0-.091 0-.136 0-.091 0-.136c0-.046 0-.092 0-.137 0-.046 0-.091 0-.137s0-.092 0-.137c0-.046 0-.092 0-.138s0-.092 0-.138 0-.092 0-.138 0-.092 0-.139c0-.046 0-.092 0-.139 0-.046 0-.092 0-.139 0-.046 0-.093 0-.139 0-.047 0-.093 0-.14 0-.046 0-.093 0-.14s0-.093 0-.14 0-.094 0-.141 0-.094 0-.141 0-.094 0-.141 0-.095 0-.142 0-.094 0-.142c0-.047 0-.095 0-.142 0-.048 0-.095 0-.143 0-.047 0-.095 0-.143 0-.047 0-.095 0-.143 0-.047 0-.095 0-.143s0-.096 0-.144 0-.096 0-.144 0-.096 0-.145c0-.048 0-.096 0-.144 0-.049 0-.097 0-.146 0-.048 0-.096 0-.145 0-.048 0-.097 0-.146 0-.048 0-.097 0-.146 0-.048 0-.097 0-.146s0-.098 0-.147 0-.098 0-.147 0-.098 0-.147 0-.099 0-.148 0-.098 0-.148c0-.049 0-.099 0-.148 0-.05 0-.099 0-.149 0-.049 0-.099 0-.149 0-.049 0-.099 0-.149s0-.1 0-.15 0-.1 0-.15 0-.1 0-.15 0-.1 0-.15c0-.051 0-.101 0-.151 0-.051 0-.101 0-.152 0-.05 0-.101 0-.151 0-.051 0-.101 0-.152s0-.102 0-.152c0-.051 0-.102 0-.153s0-.102 0-.153 0-.102 0-.153 0-.103 0-.154 0-.102 0-.154c0-.051 0-.102 0-.154 0-.051 0-.103 0-.155 0-.051 0-.103 0-.154 0-.052 0-.104 0-.156s0-.103 0-.155 0-.104 0-.156 0-.104 0-.156c0-.053 0-.105 0-.157s0-.105 0-.157 0-.105 0-.157c0-.053 0-.105 0-.158s0-.105 0-.158 0-.105 0-.158 0-.106 0-.159 0-.106 0-.159 0-.106 0-.159 0-.107 0-.16 0-.107 0-.16 0-.107 0-.16c0-.054 0-.107 0-.161s0-.107 0-.161 0-.108 0-.161c0-.054 0-.108 0-.162s0-.108 0-.162 0-.109 0-.163 0-.108 0-.163zm0 50.244c0 4.938.22 13.4 3.235 20.647 1.514 3.638 3.748 7.012 7.049 9.476 3.311 2.471 7.633 3.979 13.232 3.979v-1.809c-5.255 0-9.186-1.408-12.15-3.62-2.973-2.218-5.035-5.293-6.461-8.721-2.864-6.883-3.096-15.02-3.096-19.952zm23.516 34.102h9.949v-1.809h-9.949z" fill="#9e9e9e"/><path d="m290.063 382.481c.354-.353.354-.926 0-1.279l-5.755-5.756c-.354-.353-.926-.353-1.279 0-.354.353-.354.926 0 1.279l5.116 5.116-5.116 5.117c-.354.353-.354.925 0 1.279.353.353.925.353 1.279 0zm-34.104-167.522v.326.326.326.325.325.325.325.324.325.324.324.324.324.323.324.323.323.323.322.323.322.322.322.321.322.321.321.321.321.32.32.32.32.32.319.319.32.318.319.318.319.318.317.318.317.317.317.317.317.316.316.316.315.316.315.315.315.314.314.314.314.314.313.313.313.313.312.312.312.312.312.311.311.311.31.31.31.31.31.309.309.309.309.308.308.308.307.308.307.306.307.306.306.306.306.305.305.304.305.304.304.304.303.303.303.303.302.302.302.301.302.3.301.301.3.299.3.299.299.299.298.299.297.298.297.297.297.296.296.296.296.295.295.295.294.294.294.293.293.293.293.292.292.292.291.291.291.29.29.29.289.29.288.289.288.288.288.287.287.286.287.286.285.286.285.284.285.284.283.284.283.283.282.282.282.281.281.281.28.28.28.279.279.279.278.278.278.277.277.276.277.276.275.275.275.275.274.273.274.273.273.272.272.271.272.271.27.27.27.269.269.269.268.268.268.267.267.266.267.265.266.264.265.264.264.263.263.263.262.262.262.261.261.26.26.259.26.258.259.258.257.257.257.257.256.255.255.255.254.254.254.253.253.252.252.252.251.251.25.25.249.249.249.248.248.247.247.247.246.246.245.245.244.244.244.243.243.242.242.241.241.241.24.239.24.238.239.238.237.237.237.236.236.235.235.234.234.234.233.232.232.232.231.231.23.23.23.228.229.228.228.227.226.226.226.225.225.224.224.224.223.222.222.221.221.221.22.22.219.218.218.218.217.217.216.216.215.215.214.214.213.213.212.212.211.211.211.21.209.209.208.208.207.207.206.206.206.204.205.204.203.203.202.202.201.201.2.2.199.199.198.198.197.196.197.195.195.195.194.193.193.193.192.191.191.19.19.189.189.188.188.187.187.186.185.185.184.184.184.183.182.181.182.18.18.18.179.178.178.177.177.176.176.175.175.174.173.173.172.172.171.171.17.169.169.168.168.167.167.166.165.165.165.163.163.163.162.161.161.161.159.159.159.158.157.157.156.156.155.154.154.153.153.152.151.151.15.15.149.149.147.148.146.146.146.145.144.144.143.142.142.141.141.139.14.139.138.137.137.136.136.135.134.134.133.133.132.131.131.13.129.129.128.128.126.127.125.125.125.123.123.123.122.121.12.12.119.119.118.117.117.116h1.809c0-.039 0-.078 0-.116 0-.039 0-.078 0-.117s0-.078 0-.117 0-.079 0-.118c0-.04 0-.079 0-.119 0-.039 0-.079 0-.119s0-.08 0-.12 0-.08 0-.12c0-.041 0-.081 0-.121 0-.041 0-.082 0-.122 0-.041 0-.082 0-.123s0-.082 0-.123 0-.082 0-.123c0-.042 0-.083 0-.125 0-.041 0-.083 0-.125 0-.041 0-.083 0-.125s0-.084 0-.127c0-.042 0-.084 0-.126 0-.043 0-.085 0-.128s0-.085 0-.128 0-.086 0-.129 0-.086 0-.129c0-.044 0-.087 0-.13 0-.044 0-.087 0-.131s0-.087 0-.131 0-.088 0-.132 0-.088 0-.133c0-.044 0-.088 0-.133 0-.044 0-.089 0-.134 0-.044 0-.089 0-.134s0-.09 0-.135 0-.09 0-.136c0-.045 0-.09 0-.136 0-.045 0-.091 0-.137s0-.091 0-.137 0-.092 0-.138c0-.047 0-.093 0-.139 0-.047 0-.093 0-.14 0-.046 0-.093 0-.139 0-.047 0-.094 0-.141s0-.094 0-.141 0-.095 0-.142 0-.095 0-.142c0-.048 0-.096 0-.143 0-.048 0-.096 0-.144s0-.096 0-.144 0-.097 0-.145c0-.049 0-.097 0-.146 0-.048 0-.097 0-.146 0-.048 0-.097 0-.146s0-.098 0-.148c0-.049 0-.098 0-.147 0-.05 0-.099 0-.149 0-.049 0-.099 0-.149s0-.1 0-.15 0-.1 0-.15 0-.1 0-.151c0-.05 0-.101 0-.151 0-.051 0-.101 0-.152s0-.102 0-.153 0-.102 0-.153 0-.102 0-.154c0-.051 0-.103 0-.154 0-.052 0-.103 0-.155s0-.104 0-.156 0-.104 0-.156 0-.104 0-.157c0-.052 0-.105 0-.157 0-.053 0-.105 0-.158s0-.106 0-.159 0-.106 0-.159 0-.106 0-.159c0-.054 0-.107 0-.161 0-.053 0-.107 0-.161 0-.053 0-.107 0-.161s0-.108 0-.162 0-.108 0-.163c0-.054 0-.108 0-.163 0-.054 0-.109 0-.163 0-.055 0-.11 0-.165s0-.11 0-.165 0-.11 0-.165 0-.111 0-.166c0-.056 0-.111 0-.167 0-.055 0-.111 0-.167s0-.112 0-.168 0-.112 0-.168 0-.113 0-.169 0-.113 0-.169c0-.057 0-.114 0-.17 0-.057 0-.114 0-.171s0-.114 0-.171 0-.115 0-.172 0-.115 0-.172c0-.058 0-.115 0-.173s0-.116 0-.173c0-.058 0-.116 0-.174 0-.059 0-.117 0-.175s0-.117 0-.175c0-.059 0-.117 0-.176 0-.058 0-.117 0-.176s0-.118 0-.177 0-.118 0-.177 0-.118 0-.178c0-.059 0-.119 0-.178 0-.06 0-.119 0-.179s0-.12 0-.18 0-.12 0-.18 0-.12 0-.18c0-.061 0-.121 0-.182 0-.06 0-.121 0-.181 0-.061 0-.122 0-.182 0-.061 0-.122 0-.183s0-.122 0-.184c0-.061 0-.122 0-.184 0-.061 0-.122 0-.184 0-.061 0-.123 0-.185s0-.123 0-.185 0-.124 0-.186c0-.063 0-.125 0-.187s0-.125 0-.187c0-.063 0-.125 0-.188 0-.062 0-.125 0-.188s0-.126 0-.189 0-.126 0-.189 0-.126 0-.19c0-.063 0-.127 0-.19 0-.064 0-.127 0-.191s0-.127 0-.191 0-.128 0-.192 0-.128 0-.193c0-.064 0-.128 0-.193 0-.064 0-.129 0-.193 0-.065 0-.129 0-.194s0-.13 0-.195 0-.13 0-.195 0-.13 0-.195c0-.066 0-.131 0-.197 0-.065 0-.131 0-.196 0-.066 0-.132 0-.197 0-.066 0-.132 0-.198s0-.132 0-.198 0-.133 0-.199 0-.133 0-.199c0-.067 0-.133 0-.2s0-.133 0-.2 0-.134 0-.201 0-.134 0-.201 0-.135 0-.202 0-.135 0-.202c0-.068 0-.135 0-.203s0-.135 0-.203 0-.136 0-.204 0-.136 0-.205c0-.068 0-.136 0-.204 0-.069 0-.137 0-.206 0-.068 0-.137 0-.206 0-.068 0-.137 0-.206s0-.138 0-.207 0-.138 0-.207 0-.139 0-.208 0-.139 0-.208c0-.07 0-.139 0-.209s0-.14 0-.209c0-.07 0-.14 0-.21s0-.14 0-.211c0-.07 0-.14 0-.211 0-.07 0-.14 0-.211 0-.07 0-.141 0-.212 0-.07 0-.141 0-.212s0-.142 0-.213 0-.142 0-.213 0-.143 0-.214 0-.143 0-.214c0-.072 0-.143 0-.215s0-.143 0-.215 0-.144 0-.216 0-.144 0-.216 0-.144 0-.217c0-.072 0-.144 0-.217 0-.072 0-.145 0-.218 0-.072 0-.145 0-.218s0-.145 0-.218 0-.146 0-.219c0-.074 0-.147 0-.22s0-.147 0-.22c0-.074 0-.147 0-.221 0-.073 0-.147 0-.221 0-.073 0-.147 0-.221s0-.148 0-.222 0-.148 0-.222c0-.075 0-.149 0-.223 0-.075 0-.149 0-.224 0-.074 0-.149 0-.224 0-.074 0-.149 0-.224s0-.15 0-.225 0-.15 0-.225 0-.15 0-.226c0-.075 0-.15 0-.226 0-.075 0-.151 0-.226 0-.076 0-.152 0-.227 0-.076 0-.152 0-.228s0-.152 0-.228 0-.152 0-.229c0-.076 0-.152 0-.228 0-.077 0-.153 0-.23 0-.076 0-.153 0-.23 0-.076 0-.153 0-.23s0-.154 0-.231 0-.154 0-.231 0-.154 0-.232c0-.077 0-.154 0-.232 0-.077 0-.155 0-.232 0-.078 0-.156 0-.233 0-.078 0-.156 0-.234s0-.156 0-.234 0-.156 0-.234 0-.157 0-.235 0-.157 0-.235c0-.079 0-.157 0-.236s0-.157 0-.236 0-.158 0-.237 0-.158 0-.237 0-.158 0-.237 0-.159 0-.238c0-.08 0-.159 0-.239 0-.079 0-.159 0-.238 0-.08 0-.16 0-.24 0-.079 0-.159 0-.239s0-.16 0-.24 0-.161 0-.241 0-.161 0-.241 0-.161 0-.241c0-.081 0-.161 0-.242s0-.162 0-.242c0-.081 0-.162 0-.243s0-.162 0-.243 0-.163 0-.244 0-.162 0-.244c0-.081 0-.163 0-.244 0-.082 0-.163 0-.245s0-.164 0-.245c0-.082 0-.164 0-.246s0-.164 0-.246 0-.164 0-.247c0-.082 0-.164 0-.247 0-.082 0-.165 0-.247 0-.083 0-.165 0-.248s0-.165 0-.248 0-.166 0-.249 0-.166 0-.249 0-.166 0-.249 0-.167 0-.25 0-.167 0-.25c0-.084 0-.167 0-.251s0-.167 0-.251 0-.168 0-.252 0-.168 0-.252 0-.168 0-.252 0-.169 0-.253 0-.169 0-.253 0-.169 0-.254c0-.084 0-.169 0-.254 0-.084 0-.169 0-.254s0-.17 0-.255 0-.17 0-.255 0-.17 0-.255c0-.086 0-.171 0-.256 0-.086 0-.171 0-.257 0-.085 0-.171 0-.257 0-.085 0-.171 0-.257s0-.171 0-.257 0-.172 0-.258 0-.173 0-.259 0-.172 0-.258c0-.087 0-.173 0-.26 0-.086 0-.173 0-.259 0-.087 0-.173 0-.26s0-.174 0-.26c0-.087 0-.174 0-.261s0-.174 0-.261 0-.175 0-.262 0-.174 0-.262c0-.087 0-.174 0-.262 0-.087 0-.175 0-.263 0-.087 0-.175 0-.263 0-.087 0-.175 0-.263s0-.176 0-.264 0-.176 0-.264 0-.176 0-.265c0-.088 0-.176 0-.264 0-.089 0-.177 0-.266 0-.088 0-.177 0-.265 0-.089 0-.178 0-.267 0-.088 0-.177 0-.266s0-.178 0-.267 0-.178 0-.267 0-.178 0-.268c0-.089 0-.178 0-.268 0-.089 0-.178 0-.268 0-.089 0-.179 0-.269 0-.089 0-.179 0-.269 0-.089 0-.179 0-.269s0-.18 0-.27 0-.18 0-.27 0-.18 0-.27c0-.091 0-.181 0-.271 0-.091 0-.181 0-.272 0-.09 0-.181 0-.271 0-.091 0-.181 0-.272s0-.182 0-.272c0-.091 0-.182 0-.273s0-.182 0-.273 0-.182 0-.274c0-.091 0-.182 0-.273 0-.092 0-.183 0-.274 0-.092 0-.183 0-.275 0-.091 0-.183 0-.275 0-.091 0-.183 0-.275s0-.184 0-.275c0-.092 0-.184 0-.276s0-.184 0-.277c0-.092 0-.184 0-.276s0-.185 0-.277 0-.185 0-.277c0-.093 0-.185 0-.278 0-.092 0-.185 0-.278s0-.185 0-.278 0-.186 0-.279 0-.186 0-.279 0-.186 0-.279 0-.187 0-.28 0-.186 0-.28c0-.093 0-.187 0-.28 0-.094 0-.187 0-.281s0-.187 0-.281 0-.187 0-.281 0-.188 0-.282 0-.188 0-.282 0-.188 0-.282c0-.095 0-.189 0-.283s0-.189 0-.283c0-.095 0-.189 0-.284 0-.094 0-.189 0-.283 0-.095 0-.19 0-.284 0-.095 0-.19 0-.285 0-.094 0-.189 0-.284s0-.19 0-.285 0-.19 0-.286c0-.095 0-.19 0-.285 0-.096 0-.191 0-.286 0-.096 0-.191 0-.287 0-.095 0-.191 0-.286 0-.096 0-.191 0-.287s0-.192 0-.287c0-.096 0-.192 0-.288s0-.192 0-.288 0-.192 0-.288 0-.192 0-.289c0-.096 0-.192 0-.288 0-.097 0-.193 0-.29 0-.096 0-.192 0-.289s0-.193 0-.29c0-.096 0-.193 0-.29s0-.193 0-.29 0-.194 0-.291 0-.194 0-.291 0-.194 0-.291c0-.098 0-.195 0-.292s0-.195 0-.292 0-.195 0-.292c0-.098 0-.195 0-.293 0-.097 0-.195 0-.293 0-.097 0-.195 0-.293 0-.097 0-.195 0-.293s0-.196 0-.294 0-.196 0-.294 0-.196 0-.294c0-.099 0-.197 0-.295s0-.197 0-.295 0-.197 0-.295c0-.099 0-.197 0-.296 0-.098 0-.197 0-.296 0-.098 0-.197 0-.296 0-.098 0-.197 0-.296s0-.198 0-.297 0-.198 0-.297 0-.198 0-.297 0-.198 0-.298c0-.099 0-.198 0-.297 0-.1 0-.199 0-.299 0-.099 0-.198 0-.298s0-.199 0-.299c0-.099 0-.199 0-.299 0-.099 0-.199 0-.299s0-.2 0-.3c0-.099 0-.199 0-.299s0-.2 0-.3c0-.101 0-.201 0-.301s0-.2 0-.301c0-.1 0-.2 0-.3 0-.101 0-.201 0-.302 0-.1 0-.201 0-.301 0-.101 0-.201 0-.302s0-.201 0-.302 0-.202 0-.302c0-.101 0-.202 0-.303s0-.202 0-.303 0-.202 0-.303 0-.202 0-.303 0-.203 0-.304 0-.203 0-.304 0-.203 0-.304c0-.102 0-.203 0-.305 0-.101 0-.203 0-.304 0-.102 0-.204 0-.305 0-.102 0-.204 0-.305 0-.102 0-.204 0-.306s0-.204 0-.306 0-.204 0-.306 0-.204 0-.306 0-.204 0-.307c0-.102 0-.204 0-.306 0-.103 0-.205 0-.307 0-.103 0-.205 0-.308 0-.102 0-.205 0-.307 0-.103 0-.205 0-.308s0-.205 0-.308 0-.206 0-.308c0-.103 0-.206 0-.309s0-.206 0-.309 0-.206 0-.309 0-.206 0-.309 0-.207 0-.31 0-.206 0-.31c0-.103 0-.206 0-.31 0-.103 0-.206 0-.31 0-.103 0-.207 0-.31 0-.104 0-.208 0-.311 0-.104 0-.207 0-.311s0-.208 0-.311c0-.104 0-.208 0-.312s0-.208 0-.312 0-.208 0-.312 0-.208 0-.312 0-.208 0-.312 0-.209 0-.313 0-.208 0-.313c0-.104 0-.208 0-.313 0-.104 0-.209 0-.313 0-.105 0-.209 0-.314 0-.104 0-.209 0-.314 0-.104 0-.209 0-.314 0-.104 0-.209 0-.314s0-.21 0-.314c0-.105 0-.21 0-.315s0-.21 0-.315 0-.21 0-.315 0-.211 0-.316 0-.21 0-.315c0-.106 0-.211 0-.316s0-.211 0-.316c0-.106 0-.211 0-.316 0-.106 0-.211 0-.317 0-.105 0-.211 0-.317 0-.105 0-.211 0-.317 0-.105 0-.211 0-.317 0-.105 0-.211 0-.317s0-.212 0-.318 0-.211 0-.317 0-.212 0-.318 0-.213 0-.319 0-.212 0-.318 0-.212 0-.319c0-.106 0-.212 0-.318 0-.107 0-.213 0-.32 0-.106 0-.212 0-.319 0-.106 0-.213 0-.319 0-.107 0-.213 0-.32 0-.106 0-.213 0-.32 0-.106 0-.213 0-.32 0-.106 0-.213 0-.32s0-.214 0-.32c0-.107 0-.214 0-.321s0-.214 0-.321 0-.214 0-.321 0-.214 0-.321 0-.215 0-.322 0-.214 0-.321c0-.108 0-.215 0-.322s0-.215 0-.322c0-.108 0-.215 0-.322 0-.108 0-.215 0-.323 0-.107 0-.215 0-.322 0-.108 0-.216 0-.323 0-.108 0-.215 0-.323s0-.216 0-.323c0-.108 0-.216 0-.324 0-.107 0-.215 0-.323s0-.216 0-.324 0-.216 0-.324 0-.216 0-.324 0-.216 0-.324 0-.216 0-.325c0-.108 0-.216 0-.324s0-.217 0-.325 0-.217 0-.325 0-.217 0-.325c0-.109 0-.217 0-.325 0-.109 0-.217 0-.326s0-.217 0-.326c0-.108 0-.217 0-.326zm0 123.469c0 9.897.903 20.889 4.245 29.438 1.675 4.282 3.981 8.005 7.143 10.66 3.179 2.67 7.174 4.22 12.128 4.22v-1.809c-4.543 0-8.122-1.409-10.964-3.796-2.858-2.4-5.017-5.83-6.622-9.934-3.215-8.224-4.121-18.938-4.121-28.779zm23.516 44.318h9.949v-1.809h-9.949z" fill="#9e9e9e"/><path d="m0 61.6658c0-.999.809872-1.8089 1.8089-1.8089h582.4651c.999 0 1.809.8099 1.809 1.8089v28.9424l-14.471-12.6623h-557.1408l-14.4712 12.6623z" fill="#c4c4c4" fill-opacity=".6"/><text fill="#9b9b9b" font-family="sans-serif" font-size="21.7068" font-weight="600" letter-spacing="0em"><tspan x="710.897" y="501.5">Confirm Ports Availability</tspan></text><rect fill="#f6d14b" height="36.178" rx="5.4267" transform="matrix(.70710678 -.70710678 .70710678 .70710678 -162.773838 594.909191)" width="36.178" x="636.732" y="493.94"/><path d="m638.276 494.632c.353-.353.353-.926 0-1.279l-5.756-5.756c-.353-.353-.926-.353-1.279 0s-.353.926 0 1.279l5.117 5.117-5.117 5.116c-.353.353-.353.926 0 1.279s.926.353 1.279 0zm-101.033-224.038c7.037 0 12.627 2.19 16.484 6.904 3.884 4.747 6.127 12.193 6.127 22.943h1.809c0-10.958-2.28-18.887-6.536-24.089-4.283-5.235-10.45-7.567-17.884-7.567zm22.611 29.847v.326.327.327.328.328.329.329.33.331.33.332.332.332.333.334.333.335.335.335.336.336.337.337.338.338.338.339.34.34.34.341.341.341.342.343.343.343.343.344.345.345.345.346.346.346.347.347.347.348.348.349.349.349.35.349.351.35.351.352.351.352.352.353.353.353.353.354.354.354.355.355.355.355.356.356.356.357.357.357.357.357.358.358.358.359.358.359.359.36.359.36.36.36.36.361.36.361.361.362.361.362.361.362.362.363.362.363.362.363.363.363.363.364.363.364.363.364.364.364.364.364.365.364.365.364.365.365.364.365.365.365.365.365.365.365.365.366.365.365.366.365.365.366.365.365.366.365.365.366.365.366.365.365.365.366.365.365.365.365.365.365.365.365.365.364.365.365.364.364.365.364.364.364.364.364.364.363.364.363.363.363.363.363.363.363.362.362.362.362.362.362.361.362.361.361.36.361.36.36.36.36.36.359.359.359.359.358.359.358.357.358.357.357.357.357.356.356.356.355.355.355.355.354.355.353.354.353.353.353.352.352.351.352.351.35.351.35.349.35.349.348.349.348.347.347.347.347.346.345.346.345.344.344.344.343.343.343.342.341.342.34.341.34.339.339.339.338.338.337.337.336.336.336.335.334.334.334.333.332.332.332.331.33.33.33.329.328.328.328.326.327.326.325.325.324.323.323.323.322.321.321.32.319.319.319.318.317.317.316.315.315.314.313.313.313.311.311.311.31.309.308.308.307.307.306.305.304.304.303.303.302.301.3.3.299.298.298.297.296.295.295.294.293.293.291.291.291.289.289.288.287.287.286.285.284.283.283.282.281.28.28.278.278.277.277.275.275.273.273.272.272.27.27.269.267.268.266.265.265.263.263.262.261.26.259.258.258.256.256.255.254.252.252.252.25.249.248.248.246.245.245.243.243.242.24.24.239.238.237.235.235.234.233.232.231.23.228.228.227.226.225.224.222.222.221.219.219.218.216.216.214.213.213.211.21.209.208.207.206.204.204.202.202.2.199.198.197.196.195.193.193.191.19.189.188.187.186.184.183.182.181.18.179.177.176.175.174.173.171.17.169.168.167.165.164.163.162.16.16.158.156.156.154.153.152.15.15.148.146.146.144.143.141.14.139.138.136.135.134.132.131.13.129.127.126.124.123.122.12.119.118.116h1.809c0-.038 0-.077 0-.116s0-.078 0-.118c0-.039 0-.079 0-.119s0-.08 0-.12c0-.041 0-.081 0-.122s0-.082 0-.123 0-.083 0-.124c0-.042 0-.084 0-.126s0-.085 0-.127c0-.043 0-.086 0-.129s0-.086 0-.13c0-.043 0-.087 0-.131s0-.088 0-.132 0-.089 0-.134 0-.09 0-.135 0-.09 0-.136 0-.092 0-.138 0-.092 0-.139c0-.046 0-.093 0-.14s0-.094 0-.141c0-.048 0-.095 0-.143s0-.096 0-.144c0-.049 0-.097 0-.146 0-.048 0-.097 0-.146 0-.05 0-.099 0-.148 0-.05 0-.1 0-.15s0-.1 0-.15 0-.101 0-.152 0-.102 0-.153 0-.102 0-.154 0-.103 0-.156c0-.052 0-.104 0-.156 0-.053 0-.105 0-.158s0-.106 0-.16c0-.053 0-.106 0-.16s0-.108 0-.162 0-.108 0-.163c0-.054 0-.109 0-.164s0-.11 0-.165 0-.111 0-.167c0-.055 0-.111 0-.168 0-.056 0-.112 0-.169 0-.056 0-.113 0-.17s0-.114 0-.171c0-.058 0-.115 0-.173s0-.116 0-.174 0-.116 0-.175c0-.058 0-.117 0-.176s0-.118 0-.177c0-.06 0-.119 0-.179s0-.12 0-.18 0-.12 0-.181c0-.06 0-.121 0-.182s0-.122 0-.183 0-.123 0-.184c0-.062 0-.124 0-.186s0-.124 0-.187c0-.062 0-.125 0-.188 0-.062 0-.125 0-.189 0-.063 0-.126 0-.19 0-.063 0-.127 0-.191s0-.128 0-.193c0-.064 0-.128 0-.193s0-.13 0-.195 0-.13 0-.196c0-.065 0-.131 0-.197 0-.065 0-.132 0-.198s0-.132 0-.199c0-.066 0-.133 0-.2s0-.134 0-.202c0-.067 0-.134 0-.202s0-.136 0-.204 0-.136 0-.204c0-.069 0-.137 0-.206s0-.138 0-.207 0-.139 0-.208c0-.07 0-.139 0-.209s0-.14 0-.21 0-.141 0-.211c0-.071 0-.142 0-.213s0-.142 0-.213 0-.143 0-.214c0-.072 0-.144 0-.216s0-.144 0-.216c0-.073 0-.145 0-.218s0-.146 0-.219 0-.146 0-.219c0-.074 0-.147 0-.221s0-.148 0-.222 0-.148 0-.222c0-.075 0-.149 0-.224s0-.15 0-.225 0-.15 0-.226c0-.075 0-.151 0-.227 0-.075 0-.151 0-.228 0-.076 0-.152 0-.228 0-.077 0-.153 0-.23s0-.154 0-.231 0-.155 0-.232 0-.155 0-.233 0-.156 0-.234 0-.156 0-.235c0-.078 0-.157 0-.235 0-.079 0-.158 0-.237s0-.159 0-.238 0-.159 0-.239 0-.159 0-.24c0-.08 0-.16 0-.24 0-.081 0-.161 0-.242s0-.161 0-.243c0-.081 0-.162 0-.243s0-.163 0-.245c0-.081 0-.163 0-.245s0-.164 0-.246c0-.083 0-.165 0-.248 0-.082 0-.165 0-.248s0-.166 0-.249c0-.084 0-.167 0-.25 0-.084 0-.168 0-.252 0-.083 0-.167 0-.252 0-.084 0-.168 0-.252 0-.085 0-.169 0-.254s0-.17 0-.255 0-.17 0-.256c0-.085 0-.17 0-.256s0-.172 0-.258 0-.172 0-.258 0-.173 0-.259c0-.087 0-.173 0-.26s0-.174 0-.261 0-.175 0-.262 0-.175 0-.263 0-.175 0-.263 0-.177 0-.265 0-.177 0-.265c0-.089 0-.178 0-.266 0-.089 0-.178 0-.268 0-.089 0-.178 0-.267 0-.09 0-.179 0-.269s0-.18 0-.27 0-.18 0-.27c0-.091 0-.181 0-.272 0-.09 0-.181 0-.272s0-.182 0-.273 0-.182 0-.273c0-.092 0-.183 0-.275s0-.184 0-.275c0-.092 0-.185 0-.277s0-.184 0-.277c0-.092 0-.185 0-.278 0-.092 0-.185 0-.278s0-.187 0-.28 0-.187 0-.28c0-.094 0-.187 0-.281s0-.188 0-.282 0-.188 0-.283c0-.094 0-.188 0-.283s0-.189 0-.284 0-.19 0-.285 0-.191 0-.286 0-.191 0-.287c0-.095 0-.191 0-.287s0-.192 0-.288 0-.192 0-.289c0-.096 0-.193 0-.289 0-.097 0-.194 0-.291 0-.096 0-.193 0-.291 0-.097 0-.194 0-.291 0-.098 0-.195 0-.293s0-.195 0-.293 0-.196 0-.294 0-.196 0-.295c0-.098 0-.197 0-.295 0-.099 0-.198 0-.296 0-.099 0-.198 0-.297s0-.199 0-.298 0-.199 0-.298c0-.1 0-.199 0-.299s0-.2 0-.3 0-.2 0-.3c0-.101 0-.201 0-.301 0-.101 0-.202 0-.302 0-.101 0-.202 0-.303s0-.202 0-.303 0-.202 0-.304c0-.101 0-.203 0-.304 0-.102 0-.204 0-.305 0-.102 0-.204 0-.306s0-.204 0-.307c0-.102 0-.204 0-.307 0-.102 0-.205 0-.308 0-.102 0-.205 0-.308s0-.206 0-.309 0-.207 0-.31 0-.207 0-.311c0-.103 0-.207 0-.311 0-.103 0-.207 0-.311s0-.208 0-.313c0-.104 0-.208 0-.313 0-.104 0-.208 0-.313s0-.209 0-.314 0-.21 0-.315 0-.21 0-.315c0-.106 0-.211 0-.316 0-.106 0-.211 0-.317s0-.211 0-.317 0-.212 0-.318 0-.212 0-.319c0-.106 0-.212 0-.319 0-.106 0-.213 0-.319 0-.107 0-.214 0-.32 0-.107 0-.214 0-.321s0-.214 0-.321c0-.108 0-.215 0-.322 0-.108 0-.215 0-.323 0-.107 0-.215 0-.323s0-.215 0-.323 0-.216 0-.324c0-.109 0-.217 0-.325 0-.109 0-.217 0-.325 0-.109 0-.218 0-.326 0-.109 0-.218 0-.327 0-.108 0-.217 0-.326s0-.219 0-.328 0-.218 0-.328c0-.109 0-.219 0-.328 0-.11 0-.219 0-.329s0-.22 0-.33 0-.22 0-.33 0-.22 0-.33 0-.221 0-.331c0-.111 0-.221 0-.332 0-.11 0-.221 0-.332 0-.11 0-.221 0-.332s0-.222 0-.333 0-.223 0-.334 0-.222 0-.334c0-.111 0-.223 0-.334 0-.112 0-.223 0-.335s0-.224 0-.336 0-.223 0-.336c0-.112 0-.224 0-.336s0-.224 0-.337c0-.112 0-.224 0-.337s0-.225 0-.338c0-.112 0-.225 0-.338s0-.226 0-.339 0-.226 0-.339 0-.226 0-.339 0-.227 0-.34c0-.114 0-.227 0-.341 0-.113 0-.227 0-.34 0-.114 0-.228 0-.342 0-.113 0-.227 0-.341s0-.228 0-.342 0-.229 0-.343 0-.228 0-.343c0-.114 0-.229 0-.343 0-.115 0-.229 0-.344 0-.114 0-.229 0-.344s0-.23 0-.344c0-.115 0-.23 0-.345s0-.23 0-.346c0-.115 0-.23 0-.345 0-.116 0-.231 0-.346 0-.116 0-.231 0-.347 0-.115 0-.231 0-.347 0-.115 0-.231 0-.347s0-.231 0-.347 0-.232 0-.348 0-.232 0-.349c0-.116 0-.232 0-.348s0-.233 0-.349c0-.117 0-.233 0-.35 0-.116 0-.233 0-.349 0-.117 0-.233 0-.35s0-.234 0-.351c0-.116 0-.233 0-.35s0-.234 0-.351 0-.234 0-.352c0-.117 0-.234 0-.351s0-.235 0-.352c0-.118 0-.235 0-.352 0-.118 0-.235 0-.353s0-.235 0-.353 0-.235 0-.353 0-.236 0-.354 0-.236 0-.353c0-.118 0-.237 0-.355s0-.236 0-.354 0-.236 0-.355c0-.118 0-.236 0-.355 0-.118 0-.236 0-.355 0-.118 0-.237 0-.355 0-.119 0-.237 0-.356s0-.237 0-.356 0-.238 0-.356c0-.119 0-.238 0-.357s0-.238 0-.357 0-.238 0-.357 0-.238 0-.357 0-.238 0-.358c0-.119 0-.238 0-.357 0-.12 0-.239 0-.358 0-.12 0-.239 0-.359 0-.119 0-.239 0-.358 0-.12 0-.239 0-.359 0-.119 0-.239 0-.359 0-.119 0-.239 0-.359s0-.239 0-.359 0-.24 0-.36 0-.24 0-.36 0-.24 0-.36 0-.24 0-.36 0-.24 0-.36 0-.24 0-.361c0-.12 0-.24 0-.36 0-.121 0-.241 0-.361 0-.121 0-.241 0-.361 0-.121 0-.241 0-.362 0-.12 0-.241 0-.361 0-.121 0-.241 0-.362 0-.12 0-.241 0-.362 0-.12 0-.241 0-.362 0-.12 0-.241 0-.362 0-.12 0-.241 0-.362s0-.242 0-.362c0-.121 0-.242 0-.363s0-.242 0-.363 0-.242 0-.363 0-.242 0-.363 0-.242 0-.363 0-.242 0-.363 0-.242 0-.363 0-.243 0-.364 0-.242 0-.363c0-.122 0-.243 0-.364s0-.243 0-.364 0-.242 0-.364c0-.121 0-.242 0-.364 0-.121 0-.243 0-.364s0-.243 0-.364c0-.122 0-.243 0-.365 0-.121 0-.242 0-.364 0-.121 0-.243 0-.364 0-.122 0-.243 0-.365 0-.121 0-.243 0-.365 0-.121 0-.243 0-.364 0-.122 0-.243 0-.365s0-.243 0-.365 0-.243 0-.365 0-.243 0-.365c0-.121 0-.243 0-.365s0-.243 0-.365 0-.243 0-.365 0-.243 0-.365 0-.244 0-.365c0-.122 0-.244 0-.366 0-.121 0-.243 0-.365s0-.243 0-.365 0-.244 0-.365c0-.122 0-.244 0-.366s0-.243 0-.365 0-.244 0-.366c0-.121 0-.243 0-.365s0-.243 0-.365 0-.244 0-.366c0-.121 0-.243 0-.365s0-.244 0-.365c0-.122 0-.244 0-.366s0-.243 0-.365 0-.244 0-.365c0-.122 0-.244 0-.366s0-.243 0-.365 0-.244 0-.365c0-.122 0-.244 0-.366 0-.121 0-.243 0-.365 0-.121 0-.243 0-.365s0-.243 0-.365 0-.243 0-.365 0-.243 0-.365 0-.243 0-.365 0-.243 0-.365c0-.121 0-.243 0-.365 0-.121 0-.243 0-.364 0-.122 0-.244 0-.365 0-.122 0-.243 0-.365 0-.121 0-.243 0-.364 0-.122 0-.243 0-.365 0-.121 0-.243 0-.364 0-.122 0-.243 0-.365 0-.121 0-.242 0-.364 0-.121 0-.242 0-.364 0-.121 0-.243 0-.364s0-.242 0-.364c0-.121 0-.242 0-.364 0-.121 0-.242 0-.363s0-.243 0-.364 0-.242 0-.363 0-.243 0-.364 0-.242 0-.363 0-.242 0-.363 0-.242 0-.363 0-.242 0-.363 0-.241 0-.362 0-.242 0-.363 0-.242 0-.362c0-.121 0-.242 0-.363 0-.12 0-.241 0-.362 0-.12 0-.241 0-.362 0-.12 0-.241 0-.361 0-.121 0-.241 0-.362 0-.12 0-.241 0-.361 0-.121 0-.241 0-.362 0-.12 0-.24 0-.361 0-.12 0-.24 0-.361 0-.12 0-.24 0-.36s0-.241 0-.361 0-.24 0-.36 0-.24 0-.36 0-.24 0-.36 0-.24 0-.36 0-.24 0-.359c0-.12 0-.24 0-.36 0-.119 0-.239 0-.359 0-.119 0-.239 0-.359 0-.119 0-.239 0-.358 0-.12 0-.239 0-.359 0-.119 0-.239 0-.358s0-.239 0-.358 0-.238 0-.358c0-.119 0-.238 0-.357s0-.238 0-.357 0-.238 0-.357 0-.238 0-.357 0-.238 0-.357c0-.118 0-.237 0-.356s0-.237 0-.356c0-.118 0-.237 0-.356 0-.118 0-.237 0-.355s0-.237 0-.355c0-.119 0-.237 0-.355s0-.237 0-.355 0-.236 0-.354 0-.236 0-.354 0-.236 0-.354 0-.235 0-.353 0-.236 0-.353c0-.118 0-.236 0-.353 0-.118 0-.235 0-.353 0-.117 0-.235 0-.352s0-.235 0-.352 0-.234 0-.351c0-.118 0-.235 0-.352s0-.234 0-.351 0-.233 0-.35 0-.234 0-.351c0-.116 0-.233 0-.349 0-.117 0-.234 0-.35 0-.117 0-.233 0-.349 0-.117 0-.233 0-.349s0-.233 0-.349 0-.232 0-.348 0-.232 0-.348 0-.232 0-.347c0-.116 0-.232 0-.347 0-.116 0-.232 0-.347 0-.116 0-.231 0-.346 0-.116 0-.231 0-.346 0-.116 0-.231 0-.346s0-.23 0-.345 0-.23 0-.345 0-.23 0-.345c0-.114 0-.229 0-.344 0-.114 0-.229 0-.343 0-.115 0-.229 0-.343 0-.115 0-.229 0-.343 0-.115 0-.229 0-.343s0-.228 0-.342 0-.228 0-.341c0-.114 0-.228 0-.341 0-.114 0-.228 0-.341 0-.114 0-.227 0-.34 0-.114 0-.227 0-.34 0-.114 0-.227 0-.34s0-.226 0-.339 0-.226 0-.338c0-.113 0-.226 0-.338 0-.113 0-.226 0-.338 0-.113 0-.225 0-.337 0-.113 0-.225 0-.337s0-.224 0-.336 0-.224 0-.336 0-.224 0-.335c0-.112 0-.224 0-.335 0-.112 0-.223 0-.335 0-.111 0-.222 0-.333 0-.112 0-.223 0-.334s0-.222 0-.333 0-.221 0-.332 0-.222 0-.332c0-.111 0-.221 0-.332 0-.11 0-.22 0-.33 0-.111 0-.221 0-.331s0-.22 0-.33 0-.219 0-.329 0-.22 0-.329c0-.11 0-.219 0-.328 0-.11 0-.219 0-.328s0-.218 0-.327 0-.218 0-.327 0-.218 0-.326zm0 154.66c0 9.927 1.361 19.808 4.951 27.241 3.615 7.483 9.54 12.555 18.565 12.555v-1.809c-8.16 0-13.541-4.504-16.936-11.532-3.419-7.078-4.771-16.643-4.771-26.455zm23.516 39.796h54.267v-1.809h-54.267zm-46.127-226.112h-23.516v1.809h23.516z" fill="#9e9e9e"/><g filter="url(#a)"><rect fill="#0076f8" height="75.9737" rx="10.8534" width="222.495" x="291.233" y="231.702"/></g><text fill="#fff" font-family="sans-serif" font-size="21.7068" font-weight="600" letter-spacing="0em"><tspan x="320.175" y="277.097">Configure Ports</tspan></text><path d="m513.727 242.853c0-5.994-4.859-10.853-10.853-10.853h-144.712v75.974h144.712c5.994 0 10.853-4.859 10.853-10.854z" fill="#fff" fill-opacity=".25"/><g filter="url(#b)"><rect fill="#8352f1" height="75.9737" rx="10.8534" width="294.85" x="291.233" y="343.854"/></g><g fill="#fff"><text font-family="sans-serif" font-size="21.7068" font-weight="600" letter-spacing="0em"><tspan x="320.175" y="389.658">Configure Firewall</tspan></text><path d="m586.083 354.708c0-5.995-4.859-10.854-10.853-10.854h-162.801v75.974h162.801c5.994 0 10.853-4.859 10.853-10.853z" fill-opacity=".25"/></g></svg>