<svg fill="none" height="572" viewBox="0 0 993 572" width="993" xmlns="http://www.w3.org/2000/svg" xmlns:xlink="http://www.w3.org/1999/xlink"><linearGradient id="a"><stop offset="0" stop-color="#16243f"/><stop offset="1" stop-color="#6878b1"/></linearGradient><linearGradient id="b" gradientUnits="userSpaceOnUse" x1="5.93164" x2="29.502" xlink:href="#a" y1="90.9574" y2="90.9574"/><linearGradient id="c" gradientUnits="userSpaceOnUse" x1="16.6634" x2="36.5741" xlink:href="#a" y1="418.059" y2="400.31"/><linearGradient id="d" gradientUnits="userSpaceOnUse" x1="13.4257" x2="20.998" xlink:href="#a" y1="393.562" y2="385.536"/><linearGradient id="e"><stop offset="0" stop-color="#315676"/><stop offset="1" stop-color="#e1b9e0"/></linearGradient><linearGradient id="f" gradientUnits="userSpaceOnUse" x1="5.89697" x2="29.4673" xlink:href="#e" y1="408.911" y2="408.911"/><linearGradient id="g" gradientUnits="userSpaceOnUse" x1="6.03955" x2="26.5002" xlink:href="#e" y1="184.21" y2="184.21"/><linearGradient id="h" gradientUnits="userSpaceOnUse" x1="14.6136" x2="29.1319" y1="185.029" y2="170.995"><stop offset="0" stop-color="#315676"/><stop offset=".21" stop-color="#516889"/><stop offset=".67" stop-color="#a296ba"/><stop offset="1" stop-color="#e1b9e0"/></linearGradient><text fill="#585858" font-family="sans-serif" font-size="17.6923" font-weight="600" letter-spacing="0em"><tspan x="70.7695" y="80.1159">Robert Levin</tspan></text><circle cx="17.6923" cy="73.6923" fill="#c1e0ec" r="17.6923"/><path d="m29.502 86.9698c-6.9571 5.3568-16.6609 5.3139-23.57036-.104l5.06416-2.3739c.2412-.1134.4726-.2464.6921-.3976.0666-.0458.1332-.0937.1967-.1436.5511-.4217 1.0048-.9574 1.33-1.5705.2465-.4726.4098-.9841.4829-1.5121.0508-.3415.0766-.6862.077-1.0314 0-.5953-.0322-1.1906-.0385-1.7869-.0041-.3303-.0076-.6602-.0104-.9897l.2082.104.5411.28.2509.0427 2.9015.4933 3.2387.5515.0979 3.3304.0322 1.0886.0156.5286v.0344l1.2593.512z" fill="#f2a196"/><path d="m29.502 86.9696c-6.9571 5.3567-16.6609 5.3138-23.57036-.1041l5.06416-2.3739c.2412-.1134.4726-.2463.6921-.3975.0666-.0458.1332-.0937.1967-.1437 2.4509 1.7443 5.7958 2.8443 8.689 1.5424.6889-.3122 1.3217-.8159 1.6964-1.4633z" fill="url(#b)"/><path d="m21.0106 83.4828c-1.0877.0656-2.1858-.7785-3.3203-1.4312-2.1244-1.2271-3.3745-2.804-2.9665-4.5589l2.9019.4933 3.2392.5517.0978 3.3308z" fill="#e88870"/><path d="m25.9991 66.7624c.535 2.0814-.3361 4.0276-1.176 5.9321-1.0626 2.4072-2.5883 2.6934-4.9174 3.4885-.5204.179-6.1632 1.7817-6.1632 2.1314 0-.076-.5526-.6245-1.2488-1.2916-2.49778-2.3718-3.31891-6.0362-1.8328-9.1791 1.9774-4.1744 7.87-4.9206 11.9142-3.9059 1.3946.3497 2.7559.9013 3.2794 2.3469.0541.1602.103.3195.1446.4777z" fill="#00214e"/><path d="m14.471 74.1501c0 .9772-.7922 1.7694-1.7694 1.7694-.9773 0-1.7695-.7922-1.7695-1.7694 0-.9773.7922-1.7695 1.7695-1.7695.9772 0 1.7694.7922 1.7694 1.7695z" fill="#f2a196"/><path d="m14.8476 74.1501c0 .8749-.7093 1.5842-1.5842 1.5842s-1.5842-.7093-1.5842-1.5842.7093-1.5842 1.5842-1.5842 1.5842.7093 1.5842 1.5842z" fill="#e88870"/><path d="m13.2866 72.4808.4559 5.9321 6.9145 4.0401c.9927.3708 2.1046-.0735 2.5685-1.0262.995-2.0377 2.5914-5.2546 2.3812-6.4525-.3122-1.7692-1.1448-2.3936-1.1448-2.3936l.3466-2.0752c.1301-.7816.2976-1.5975.104-2.3833-.2216-.9002-.9023-1.2853-1.4622-1.9586-1.4736 1.8983-3.8964 2.9712-6.0122 4.0588-1.0918.5745-4.1515 2.2584-4.1515 2.2584z" fill="#f2a196"/><path clip-rule="evenodd" d="m20.9923 71.9841c-.0001-.0003-.0018-.01.0008-.021l.1013.0239c.0016-.0067.0013-.0121.0013-.0135-.0001-.0022-.0003-.0038-.0004-.0044-.0002-.0011-.0003-.0018-.0003-.0018v.0002c.0002.0009.0008.0029.0019.0066.0021.0072.0056.018.0104.0325.0096.0287.0241.0702.0428.1227.0374.105.0913.2532.1562.4302.13.354.304.8227.4784 1.2904.1743.4677.3489.9343.4799 1.284.0655.1749.1201.3205.1584.4224l.06.16s0 0-.0487.0183l.0487-.0183.0251.0668-1.9385.0951-.0051-.104 1.796-.0881-.035-.0933c-.0382-.1019-.0929-.2475-.1584-.4224-.131-.3497-.3056-.8163-.48-1.2841-.1743-.4678-.3484-.9367-.4785-1.291-.065-.177-.119-.3256-.1565-.4311-.0188-.0527-.0335-.0949-.0435-.1246-.0049-.0147-.0088-.0269-.0115-.0358-.0013-.0044-.0025-.0087-.0034-.0125-.0004-.0018-.001-.0044-.0014-.0072z" fill="#00214e" fill-rule="evenodd"/><path clip-rule="evenodd" d="m19.5436 71.2233c-.9672-.1436-1.9521-.116-2.9098.0818l-.021-.102c.9696-.2002 1.9668-.2282 2.9461-.0827z" fill="#00214e" fill-rule="evenodd"/><path clip-rule="evenodd" d="m24.5788 71.1913c-.6028-.0536-1.2103-.0114-1.8.1248l-.0234-.1014c.6003-.1387 1.2188-.1816 1.8326-.1271z" fill="#00214e" fill-rule="evenodd"/><path d="m18.6533 76.8665c.0288-.0455.0752-.077.1282-.0868.0529-.0099.1075.0027.1508.0348.2165.1519.612.4746 1.1741.586.766.153 1.4301-.1541 1.5894.0437.0895.1113-.0198.2477-.229.4215-.4427.3315-1.0005.47-1.5467.3841-.737-.1384-1.2907-.9919-1.2907-1.2948 0-.0311.0082-.0617.0239-.0885z" fill="#fff"/><path d="m18.3227 72.2842c.6359 0 .6359.9763 0 .9815h-.0282c-.6349 0-.6349-.9763 0-.9815z" fill="#00214e"/><path d="m23.5463 72.1396c.5891.0053.5891.9056 0 .9108h-.026c-.5902 0-.5902-.9055 0-.9108z" fill="#00214e"/><path d="m23.5278 64.2475c-2.1883.0417-4.3642.3386-6.4837.8847-2.1285.519-4.1892 1.2846-6.1403 2.2812.4642-2.147 2.5904-4.1285 5.4888-4.856s5.7073.0177 7.1352 1.6901z" fill="#845161"/><text fill="#585858" font-family="sans-serif" font-size="17.6923" font-weight="600" letter-spacing="0em"><tspan x="70.7695" y="398.577">Anika Mango</tspan></text><circle cx="17.6923" cy="392.154" fill="#d08dba" r="17.6923"/><path d="m18.2399 405.512c-1.7224.111-3.3927.049-5.0995.02-1.941 0-4.25448.506-5.70837-1.185-1.00534-1.17-.88462-2.944-.36634-4.397.3653-1.023.90751-2.069.70561-3.137-.15298-.809-.71289-1.48-.96162-2.263-.24249-.764-.17381-1.699.2404-2.394.37778-.637.98557-.967 1.11149-1.775.06869-.443-.05411-.889-.12592-1.333-.58801-3.633 2.35305-6.176 5.25145-7.701 1.7776-.937 3.9121-1.366 5.8281-.577.1411.07.2932.116.4496.135.143-.006.2852-.026.4246-.059 2.3832-.351 5.47 3.899 4.8123 6.054-.1998.653-.5141 1.329-.3372 1.989.2612.972 1.4872 1.488 1.6391 2.483.1645 1.073-1.0355 2.034-.7992 3.094.1394.625.7337 1.033 1.1104 1.554.2828.396.4444.866.4652 1.353.0146.3-.026.601-.1197.887-.281.848-1.0261 1.619-.8398 2.497.2206 1.041 1.5611 1.41 1.4913 2.594-.0385.633-.5932 1.123-1.1791 1.363-.4218.16-.8563.283-1.2988.369-.3268.073-.6151.007-.9419.04-.9096.093-1.8067.235-2.7225.287-1.0033.05-2.0201.038-3.0296.102z" fill="url(#c)"/><path d="m29.4673 404.919c-6.957 5.357-16.6609 5.314-23.57033-.104l5.06413-2.374c.155-.073.3062-.154.4528-.243l.1165-.073c.0416-.026.0822-.053.1228-.081.6389-.441 1.1625-1.029 1.5268-1.714.4162-.786.5536-1.654.5599-2.539 0-.595-.0323-1.19-.0385-1.787-.0042-.33-.0077-.66-.0104-.989l.2081.104.5412.28 3.1523.536 3.2388.551.0978 3.331.0489 1.651 1.1937.486.9367.379z" fill="#e18477"/><path d="m20.9244 398.956c-.2831.175-.5506.257-.7848.232-1.5394-.165-4.5423-1.372-6.4325-3.604 0-.109-.0021-.219-.0063-.328-.0041-.33-.0076-.66-.0104-.99l.2082.104.5412.28 3.1528.536 3.2392.552z" fill="#a76962"/><path d="m12.8587 391.659c0 .978-.7922 1.77-1.7694 1.77-.9773 0-1.76948-.792-1.76948-1.77 0-.977.79218-1.769 1.76948-1.769.9772 0 1.7694.792 1.7694 1.769z" fill="#e18477"/><path d="m13.4837 391.451c0 .977-.7922 1.769-1.7694 1.769-.9773 0-1.76948-.792-1.76948-1.769 0-.978.79218-1.77 1.76948-1.77.9772 0 1.7694.792 1.7694 1.77z" fill="#a76962"/><path d="m23.1138 389.008c1.2218 4.235-1.3738 9.355-2.9703 9.355-2.1855 0-7.4932-1.745-8.7139-5.98-1.2208-4.235.4069-8.424 3.6331-9.355 3.2263-.931 6.8282 1.746 8.0511 5.98z" fill="#e18477"/><path d="m16.3042 389.744c.6349 0 .6349.976 0 .98h-.0292c-.6349 0-.6349-.975 0-.98z" fill="#00214e"/><path d="m21.5162 389.599c.5902 0 .5902.905 0 .911h-.026c-.5891 0-.5891-.907 0-.911z" fill="#00214e"/><path d="m19.2342 383.876c-.0125.028-.025.057-.0385.086-.3047.644-.7062 1.238-1.1906 1.76-.9627 1.062-2.1689 1.89-3.4198 2.578-.7217.412-1.4683.778-2.2355 1.097-1.1063.44-2.044.66-2.0742.691-.0968-1.237-.77323-3.833 2.5831-6.374 2.7059-2.047 6.6284-1.887 6.6284-1.887-.0125.771.051 1.341-.2529 2.049z" fill="url(#d)"/><path clip-rule="evenodd" d="m19.2153 389.209c0-.001-.0005-.008.0013-.016l.1015.023c.0011-.005.0012-.009.0012-.01 0-.002 0-.003 0-.003-.0001-.001-.0001-.001-.0001-.001.0002.001.0005.004.0012.007.0013.008.0034.019.0063.033.0059.03.0149.071.0265.124.0232.106.0568.256.0973.434.0812.357.1902.83.2995 1.301s.2188.942.301 1.294c.0412.176.0754.323.0994.426l.0378.161s0 0-.0507.012l.0507-.012.0149.064h-1.3667v-.104h1.2355l-.0228-.097c-.024-.103-.0583-.25-.0994-.426-.0822-.353-.1918-.823-.3011-1.294-.1093-.472-.2183-.945-.2996-1.302-.0406-.178-.0742-.328-.0975-.434-.0116-.053-.0207-.096-.0268-.126-.003-.015-.0053-.027-.0069-.036-.0007-.004-.0014-.008-.0018-.012-.0003-.002-.0005-.004-.0007-.006z" fill="#00214e" fill-rule="evenodd"/><path clip-rule="evenodd" d="m22.8245 387.968c-.7798-.227-1.6167-.148-2.3402.221l-.0473-.093c.7472-.381 1.6113-.462 2.4165-.228z" fill="#00214e" fill-rule="evenodd"/><path clip-rule="evenodd" d="m17.9548 388.472c-1.0306-.445-2.2063-.408-3.2063.103l-.0473-.093c1.0276-.524 2.2358-.563 3.2949-.105z" fill="#00214e" fill-rule="evenodd"/><path d="m29.4673 404.919c-6.957 5.357-16.6609 5.314-23.57033-.104l5.06413-2.374c.2412-.113.4727-.246.6921-.397.0666-.046.1332-.094.1967-.144.5512-.422 1.0048-.957 1.3301-1.57.2458-.471.4092-.981.4829-1.507.0735.071.1506.138.231.202.6381.472 1.3307.865 2.0627 1.172.3554.148.7189.276 1.0886.384 1.114.324 2.2771.447 3.4344.363.1603-.013.3216-.028.4819-.04l.0156.529v.034l1.2592.512z" fill="url(#f)"/><path d="m11.7472 384.541c.0999-.261.3925-.392.6535-.292l1.7828.682c.261.1.3914.393.2915.654-.0998.261-.3925.392-.6534.292l-1.7829-.682c-.2609-.1-.3913-.393-.2915-.654z" fill="#ff2609"/><path d="m11.0549 386.085c.0998-.261.3925-.392.6534-.293l1.7829.683c.2609.099.3913.392.2914.653-.0998.261-.3925.392-.6534.292l-1.7829-.682c-.2609-.1-.3913-.393-.2914-.653z" fill="#f2d4cf"/><path d="m16.5625 393.747c.0284-.046.0748-.078.1278-.088.0531-.01.1079.003.1512.035.2165.153.612.475 1.174.587.7661.152 1.4312-.154 1.5894.044.0895.111-.0197.247-.229.422-.443.33-1.0006.468-1.5467.383-.7369-.138-1.2906-.992-1.2906-1.294-.0002-.031.0081-.062.0239-.089z" fill="#fff"/><text fill="#585858" font-family="sans-serif" font-size="17.6923" font-weight="600" letter-spacing="0em"><tspan x="70.7695" y="292.423">Cristopher Korsgaard</tspan></text><circle cx="17.6923" cy="286" fill="#a88e84" r="17.6923"/><path d="m29.4673 299.2c-6.957 5.356-16.6609 5.314-23.57033-.104l5.06413-2.374c.2412-.114.4727-.247.6921-.398.0666-.046.1332-.093.1967-.143.5512-.422 1.0048-.958 1.3301-1.571.2458-.471.4092-.981.4829-1.507.0508-.341.0765-.686.077-1.031 0-.595-.0323-1.191-.0385-1.787-.0042-.33-.0077-.66-.0104-.99l.2081.104.5412.28.2508.043 2.9015.493 3.2388.552.0978 3.33.0323 1.089.0156.528v.033l1.2592.512z" fill="#f2a196"/><path d="m20.965 295.501c-.3577.061-.7258.004-1.0481-.163l-6.2077-5.077c-.0073-.235-.0135.011-.0167-.224-.0041-.329-.0076-.659-.0104-.99l.2082.104.5412.28.2509.043 2.9019.493 3.2392.552.0978 3.331.0323 1.089.0156.528v.035z" fill="#e88870"/><path d="m29.4673 299.2c-6.957 5.357-16.6609 5.314-23.57033-.104l5.06413-2.374c.2412-.113.4727-.246.6921-.397.0666-.046.1332-.094.1967-.144 2.4509 1.744 5.7958 2.844 8.689 1.543.689-.313 1.3217-.816 1.6964-1.464z" fill="#ff2609"/><path d="m27.6041 278.356c-.0093.061-.0208.122-.0343.182-.0722.309-.1882.607-.3445.884l-.0083.014c-.0593.104-.1228.208-.1915.312-.1823.268-.3811.523-.5953.765l-.128.143c-.0864.097-.1738.191-.2612.285.0659-.014.1337-.018.2008-.011.025.002.0497.006.0739.012.332.069.6161.378.7046.729.0052.022.0104.046.0146.069.0822.467-.1041.937-.3341 1.353-.4028.737-.9835 1.227-1.4945 1.867-.383.477-.5953 1.041-1.0126 1.497l-.0312.034-.025.025c-1.1032 1.137-2.8277 1.406-4.267 1.897-.5203.179-6.1631 1.782-6.1631 2.132 0-.076-.5527-.625-1.2489-1.292-2.49774-2.371-3.31886-6.036-1.8327-9.179 1.5975-3.382 5.2255-5.796 8.6807-6.955 1.0802-.362 2.3062-.606 3.3303-.104 1.024.502 1.534 2.057.6848 2.817.5341-.404 1.1984-.597 1.866-.542.6165.039 1.198.3 1.636.736.2447.245.4416.534.5807.851.0573.132.1049.267.1426.406.0937.35.1132.715.0572 1.073z" fill="#f2d4cf"/><path d="m27.6036 278.356c-.0093.061-.0208.122-.0343.182-.0722.31-.1882.607-.3445.884l-.0083.014c-.0593.104-.1228.208-.1915.312-.1823.268-.3811.523-.5953.765l-.128.143c-.0864.097-.1738.191-.2612.285.0659-.014.1337-.018.2008-.011.025.002.0497.006.0739.012.332.069.6161.378.7046.729.0052.023.0104.047.0146.069.0822.467-.1041.937-.3341 1.353-.4028.737-.9835 1.227-1.4945 1.867-.383.477-.5953 1.041-1.0126 1.497l-.0312.034-.025.025c-.4185-.563-.6851-1.224-.7743-1.92-.178-1.44-.0697-3.01-.1186-4.468-.0167-.509-.0469-1.115.1165-1.598.0447-.12.1045-.233.178-.337.1915-.309.4098-.601.6525-.872.2752-.292.6226-.508 1.0074-.624.2078-.059.4207-.098.6359-.117.2301-.022.462-.018.691.014.3055.044.6009.141.8722.288.0572.132.1049.268.1425.406.0951.348.1167.711.0635 1.068z" fill="#daaea8"/><path d="m14.4369 286.38c0 .977-.7922 1.769-1.7695 1.769-.9772 0-1.7695-.792-1.7695-1.769s.7923-1.77 1.7695-1.77c.9773 0 1.7695.793 1.7695 1.77z" fill="#f2a196"/><path d="m14.8129 286.381c0 .874-.7093 1.584-1.5842 1.584s-1.5842-.71-1.5842-1.584c0-.875.7093-1.585 1.5842-1.585s1.5842.71 1.5842 1.585z" fill="#e88870"/><path d="m13.2515 284.715.4579 5.932 6.9145 4.04c.991.37 2.1012-.072 2.5665-1.022.9949-2.038 2.5914-5.255 2.3811-6.452-.3122-1.77-1.1448-2.394-1.1448-2.394l.3466-2.075c.1301-.782.2977-1.598.1041-2.384-.2217-.9-.9023-1.285-1.4622-1.958-1.4737 1.898-3.8965 2.971-6.0123 4.059-1.0917.566-4.1514 2.254-4.1514 2.254z" fill="#f2a196"/><path clip-rule="evenodd" d="m20.9581 284.214s-.0018-.01.0008-.021l.1013.024c.0016-.007.0014-.012.0013-.014s-.0003-.003-.0004-.004c-.0002-.001-.0003-.002-.0003-.002.0002.001.0008.003.0019.007.0021.007.0056.018.0104.033.0097.028.0241.07.0428.122.0374.105.0913.253.1563.43.1299.354.3039.823.4783 1.291.1743.468.3489.934.4799 1.284.0655.175.1201.32.1584.422l.06.16c.0001 0 .0001 0-.0487.019l.0487-.019.0252.067-1.9386.095-.0051-.104 1.796-.088-.035-.093c-.0382-.102-.0928-.248-.1583-.423-.1311-.349-.3057-.816-.48-1.284-.1744-.467-.3485-.936-.4785-1.291-.065-.177-.1191-.325-.1566-.431-.0188-.052-.0335-.095-.0435-.124-.0049-.015-.0088-.027-.0115-.036-.0013-.005-.0025-.009-.0034-.013-.0004-.002-.001-.004-.0014-.007z" fill="#00214e" fill-rule="evenodd"/><path clip-rule="evenodd" d="m19.5085 283.453c-.9673-.144-1.9522-.116-2.9098.082l-.0211-.102c.9696-.2 1.9669-.228 2.9461-.083z" fill="#00214e" fill-rule="evenodd"/><path clip-rule="evenodd" d="m24.5451 283.421c-.6028-.053-1.2103-.011-1.8.125l-.0234-.101c.6003-.139 1.2189-.182 1.8326-.127z" fill="#00214e" fill-rule="evenodd"/><path d="m18.6182 289.096c.0288-.045.0752-.077.1281-.087.0529-.009.1076.003.1508.035.2165.152.612.475 1.1741.586.7661.153 1.4301-.154 1.5894.044.0895.111-.0198.248-.229.416-.4426.332-1.0004.47-1.5467.384-.7369-.138-1.2907-.992-1.2907-1.294.0009-.03.0091-.058.024-.084z" fill="#fff"/><path d="m18.3437 284.677c.635.006.635.976 0 .981h-.0291c-.635-.005-.635-.975 0-.981z" fill="#00214e"/><path d="m23.5741 284.61c.5892 0 .5892.906 0 .91h-.026c-.5902 0-.5902-.905 0-.91z" fill="#00214e"/><text fill="#585858" font-family="sans-serif" font-size="17.6923" font-weight="600" letter-spacing="0em"><tspan x="70.7695" y="186.269">Lindsey Bergson</tspan></text><circle cx="17.6923" cy="179.846" fill="#e6ecc1" r="17.6923"/><path d="m22.8181 183.825c-5.6025.733-11.2925.415-16.77855-.937.77741-3.562 1.97863-7.017 3.57801-10.293 1.37894-2.825 4.25444-4.274 7.35584-4.52 2.5508-.202 4.958.872 6.2693 3.057 1.0137 1.687 1.6444 3.946 2.0575 5.864.4413 2.049.8413 4.104 1.2 6.168-.0052-.031-3.3251.612-3.6821.661z" fill="url(#g)"/><path d="m29.4673 192.445c-6.957 5.357-16.6609 5.314-23.57033-.104l5.06733-2.375c.155-.073.3061-.155.4527-.244l.1165-.072c.0417-.027.0823-.054.1228-.082.6389-.44 1.1626-1.028 1.5268-1.714.4163-.785.5536-1.653.5599-2.538 0-.595-.0323-1.191-.0385-1.787-.0042-.33-.0076-.659-.0104-.99l.2081.104.5412.28 3.1471.54 3.2388.552.0978 3.33.0489 1.652 1.1937.486.9367.379z" fill="#e18477"/><path d="m20.9275 187.341c-1.0471.186-2.1244.101-3.1299-.245-2.2461-.755-3.7585-2.575-3.9011-4.451l.5412.28 3.1528.538 3.2391.552z" fill="#a76962"/><path d="m12.4427 179.209c0 .977-.7922 1.769-1.7694 1.769-.97727 0-1.76949-.792-1.76949-1.769s.79222-1.77 1.76949-1.77c.9772 0 1.7694.793 1.7694 1.77z" fill="#e18477"/><path d="m13.0672 179.001c0 .977-.7922 1.77-1.7694 1.77-.9773 0-1.76948-.793-1.76948-1.77s.79218-1.769 1.76948-1.769c.9772 0 1.7694.792 1.7694 1.769z" fill="#a76962"/><path d="m23.466 176.422c1.2957 4.489-1.227 9.704-3.1492 9.918-4.6458.52-7.9449-1.852-9.2416-6.341-1.29674-4.49.4267-8.932 3.8507-9.92 3.424-.987 7.2444 1.852 8.5401 6.343z" fill="#e18477"/><path clip-rule="evenodd" d="m18.9545 183.056c-.7599-.062-1.4714-.399-2.0024-.946l.0748-.072c.5134.529 1.2013.854 1.9362.914z" fill="#00214e" fill-rule="evenodd"/><path d="m19.6513 170.609c-.0407.197-.0992.391-.1749.578-.7868 1.93-1.9992 3.594-3.7622 4.746-2.0814 1.363-4.1244 1.298-6.45248 1.627.13425-.852.08742-1.51.11656-2.401.04579-1.397.70872-2.082 1.59232-3.101.6577-.757 1.5486-1.915 2.5789-2.165l6.0435-1.441c.0624 1.04.2633 1.17.0583 2.157z" fill="url(#h)"/><path clip-rule="evenodd" d="m22.8225 175.699c-.7797-.228-1.6166-.149-2.3402.22l-.0472-.093c.7471-.381 1.6114-.462 2.4165-.227z" fill="#00214e" fill-rule="evenodd"/><path clip-rule="evenodd" d="m17.9533 176.201c-1.0309-.444-2.206-.407-3.2064.103l-.0472-.093c1.0279-.523 2.2355-.562 3.2948-.105z" fill="#00214e" fill-rule="evenodd"/><path d="m29.4673 192.445c-6.957 5.357-16.6609 5.314-23.57033-.104l5.06733-2.375c.2411-.113.4726-.246.692-.397.0666-.046.1333-.094.1967-.144.5512-.422 1.0049-.957 1.3301-1.57.2458-.471.4092-.981.4829-1.507.0735.071.1506.138.231.202.6381.471 1.3307.865 2.0627 1.171.3554.149.7189.277 1.0886.384 1.114.325 2.2771.448 3.4344.364.1603-.013.3216-.028.4819-.04l.0156.529v.034l1.2551.508z" fill="#845161"/><path clip-rule="evenodd" d="m17.2679 180.962c-.5035.071-.9736.293-1.348.637-.1819.169-.3386.362-.4652.576l-.0895-.054c.1318-.221.2948-.423.484-.598h.0002c.39-.359.8796-.59 1.404-.664z" fill="#00214e" fill-rule="evenodd"/><path clip-rule="evenodd" d="m20.5491 173.928h-2.4627v-.104h2.4627z" fill="#00214e" fill-rule="evenodd"/><path clip-rule="evenodd" d="m20.5511 174.743h-3.0643v-.105h3.0643z" fill="#00214e" fill-rule="evenodd"/><path clip-rule="evenodd" d="m17.4327 178.158c-.0094.305-.1425.594-.3687.8-.2263.206-.5264.311-.8316.291l.0067-.104c.277.018.5494-.077.7548-.264s.3263-.449.3348-.726z" fill="#00214e" fill-rule="evenodd"/><path clip-rule="evenodd" d="m21.1116 178.672c-.2241-.183-.3566-.455-.3626-.745l.1041-.002c.0054.259.1239.503.3243.667.2064.166.4359.302.6812.403l-.0396.096c-.2547-.104-.4928-.245-.7071-.418z" fill="#00214e" fill-rule="evenodd"/><path d="m20.5175 180.218c.0497.077.0949.157.1353.239.0472.078.079.164.0936.253.0029.065-.0238.128-.0726.171-.0487.043-.1142.061-.1782.05-.0645-.014-.0926.086-.0271.104.0841.017.1713-.001.2423-.049.0711-.048.1202-.122.1366-.206.0078-.109-.0176-.218-.0729-.312-.0493-.105-.1049-.207-.1665-.305-.0354-.056-.1259 0-.0905.053z" fill="#00214e"/><path d="m18.78 180.341c-.0885.142-.1936.319-.1426.492.0406.142.1915.273.3445.218.0625-.023.0354-.124-.0281-.104-.1041.039-.2082-.071-.2227-.171-.0219-.137.0697-.276.1394-.386.0354-.057-.0551-.104-.0905-.052z" fill="#00214e"/><path d="m16.4986 177.474c.4564.032.8158.21.8026.398s-.3938.314-.8503.283c-.4564-.032-.8157-.211-.8026-.399.0132-.188.3939-.314.8503-.282z" fill="#00214e"/><path d="m22.6734 177.639c.0289.186-.3132.393-.7642.463-.451.071-.84-.023-.869-.209-.0289-.185.3132-.393.7642-.463s.84.023.869.209z" fill="#00214e"/><text fill="#585858" font-family="sans-serif" font-size="17.6923" font-weight="600" letter-spacing="0em"><tspan x="70.7695" y="504.731">Brandon Vetrovs</tspan></text><circle cx="17.6923" cy="498.308" fill="#d99797" r="17.6923"/><path d="m25.3584 496.282c-.2519.749-.2925 1.769-.7348 2.433-.9731 1.457-2.8609 1.707-4.397 2.231-.1015.02-.2001.051-.2935.095l-.5433.172c-.5224.164-1.0428.331-1.5611.499-.7201.235-1.7099.378-2.2281.969-.2987.342-.5767.701-.8326 1.075-.05.074-.1114.156-.1998.163-.0562 0-.1041-.074-.1509-.104-.9242-.498-1.6038-1.18-2.1731-2.046-1.7185-2.654-2.42071-5.838-1.9773-8.968.0062-.046.0124-.091.0197-.137.1747-1.012.6364-1.954 1.3301-2.712.7015-.761 1.5288-1.397 2.4457-1.878.5455-.289 1.1078-.544 1.6839-.765 1.2502-.494 2.5776-.763 3.9214-.796 1.2762.001 2.54.251 3.7206.735 1.6256.651 2.8859 1.865 2.991 3.703.1041 1.812-.4454 3.618-1.0209 5.331z" fill="#00214e"/><path d="m14.4207 499.091c0 .977-.7922 1.769-1.7694 1.769-.9773 0-1.7695-.792-1.7695-1.769 0-.978.7922-1.77 1.7695-1.77.9772 0 1.7694.792 1.7694 1.77z" fill="#f2a196"/><path d="m14.9255 498.986c0 .92-.7456 1.666-1.6654 1.666s-1.6654-.746-1.6654-1.666c0-.919.7456-1.665 1.6654-1.665s1.6654.746 1.6654 1.665z" fill="#e88870"/><path d="m29.4673 511.907c-6.957 5.356-16.6609 5.313-23.57033-.105l5.06413-2.373c.2412-.114.4727-.247.6921-.398l.1155-.081.0812-.063c.5512-.421 1.0048-.957 1.3301-1.57.4162-.786.5536-1.654.5599-2.538 0-.299-.0063-.598-.0156-.896-.0094-.299-.0198-.594-.0229-.891-.0042-.331-.0077-.66-.0104-.99l.1914.099.0146.007.5412.28.2508.043 2.9015.493 1.15.196 2.0888.357.0978 3.33.0406 1.384.0073.233v.035l1.2593.512.078.032z" fill="#f2a196"/><path d="m13.724 503.235 3.4202 3.208c1.0534.926 2.4268 1.404 3.8273 1.331l-.0406-1.384-.0978-3.331-2.0891-.356c-.2851.129-.5703.259-.8555.371-.8535.336-1.8184.208-2.6459-.142-.6166-.273-1.1504-.704-1.5478-1.249z" fill="#e88870"/><path d="m29.4673 511.906c-6.957 5.357-16.6609 5.314-23.57033-.104l5.06413-2.374c.2412-.113.4727-.246.6921-.397l.1155-.081c2.5352 1.728 5.9134 2.774 8.8462 1.457.6882-.298 1.2771-.785 1.6974-1.406z" fill="#845161"/><path d="m25.102 499.97c-.0439.76-.1663 1.513-.3653 2.248-.4486 1.761-1.1917 3.502-1.5611 4.154-.2769.486-.663.579-1.2739.728-1.5325.351-3.1417.011-4.4012-.93l-3.7903-2.798c-.0531-.52-.1426-1.066-.2425-1.623-.2893-1.618-.664-3.331-.5016-4.844.0527-.43.2616-.826.5869-1.112.8722-.827 2.4978-1.201 3.5114-1.457 1.5216-.392 3.0847-.625 4.5844-1.086 1.1042-.343 2.2959-.866 2.9578-1.861 0 0 .1145 1.125.1405 1.382.0551.53.0541.99.1113 1.513.0566.572.0214 1.15-.104 1.712-.0864.388-.1884.775-.2613 1.166-.0697.375.0292.381.2217.647.3955.541.4111 1.519.3872 2.161z" fill="#f2a196"/><path d="m18.1386 497.024c.6349 0 .6349.976 0 .981h-.0281c-.635 0-.635-.976 0-.981z" fill="#00214e"/><path d="m23.3573 496.878c.5892.005.5892.906 0 .911h-.026c-.5902 0-.5902-.906 0-.911z" fill="#00214e"/><path clip-rule="evenodd" d="m21.4026 497.453c-.0004-.002-.003-.013.0002-.026l.101.026c.0019-.008.0015-.014.0013-.017-.0002-.002-.0007-.005-.0009-.006-.0003-.001-.0005-.002-.0007-.002l-.0002-.001h.0002l.0004.001c.0004.001.001.003.0017.004.003.007.0078.017.0147.031.0095.019.0221.043.0375.074.0067.013.0139.027.0216.042.0507.099.1217.24.2011.41.1587.339.3515.794.4838 1.268l.0002.001.0002.001c.1228.506.1799 1.027.1701 1.548l-.001.051h-1.4572v-.104h1.3549c.0051-.495-.0512-.989-.1677-1.47-.1301-.466-.3201-.915-.4775-1.251-.0787-.168-.1491-.308-.1996-.407-.0075-.015-.0147-.028-.0213-.041-.0155-.031-.0285-.056-.0382-.076-.007-.014-.0127-.025-.0166-.034-.0019-.004-.0039-.009-.0054-.013-.0007-.002-.0018-.005-.0026-.009z" fill="#00214e" fill-rule="evenodd"/><path d="m24.7415 502.218c-.4486 1.761-1.1916 3.502-1.5611 4.154-.2768.486-.6629.579-1.2738.728-1.5326.351-3.1418.011-4.4013-.93l-3.7955-2.798c-.0624-.613-.2862-1.2-.4163-1.803-.0562-.273-.1041-.558-.0374-.833.0181.145.0803.28.1779.388.4912.668 1.0657 1.423 1.8837 1.698.8534.286 1.8255.331 2.6487-.073.717-.352 1.4195-.811 2.1678-1.1.4977-.206 1.0347-.298 1.5725-.272.7639.052 1.0907.397 1.6496.851.1831.15.3882.306.6244.307.2706.005.5308-.145.7608-.317z" fill="#00214e"/><path clip-rule="evenodd" d="m22.0839 502.703c-.6972.308-1.4827.354-2.2109.128l.0309-.099c.7042.218 1.4636.174 2.1379-.124z" fill="#f2a196" fill-rule="evenodd"/><path clip-rule="evenodd" d="m19.4909 496.159c-.9672-.144-1.9522-.115-2.9097.083l-.0211-.102c.9694-.201 1.9668-.229 2.9461-.084z" fill="#00214e" fill-rule="evenodd"/><path clip-rule="evenodd" d="m24.5281 496.131c-.6032-.054-1.2111-.011-1.8011.125l-.0234-.102c.6007-.138 1.2196-.181 1.8337-.127z" fill="#00214e" fill-rule="evenodd"/><path clip-rule="evenodd" d="m19.5733 500.728c-.0628-.19.0223-.398.2005-.489l.0474.093c-.1325.067-.1958.222-.149.363.0467.141.1895.228.3363.203l.0172.103c-.1975.033-.3895-.083-.4524-.273z" fill="#00214e" fill-rule="evenodd"/><path d="m13.3638 501.753.1041-.007.0687.082.2237 1.438-.0499.019-.075-.103z" fill="#00214e"/><g fill="#585858" font-family="sans-serif" font-size="17.6923" letter-spacing="0em"><text><tspan x="333.126" y="81.2817">July 14, 2015</tspan></text><text><tspan x="333.126" y="399.743">March 6, 2018</tspan></text><text><tspan x="333.126" y="293.589">April 28, 2016</tspan></text><text><tspan x="333.126" y="187.435">March 13, 2014</tspan></text><text><tspan x="333.126" y="505.896">May 14, 2020</tspan></text><text><tspan x="537.028" y="80.0319">$576.28</tspan></text><text><tspan x="537.028" y="398.493">$475.22</tspan></text><text><tspan x="537.028" y="292.339">$275.43</tspan></text><text><tspan x="537.028" y="186.185">$943.65</tspan></text><text><tspan x="537.028" y="504.647">$778.35</tspan></text><text><tspan x="687.83" y="81.1169">San Francisco</tspan></text><text><tspan x="687.83" y="399.578">Tel Aviv</tspan></text><text><tspan x="687.83" y="293.424">Paris</tspan></text><text><tspan x="687.83" y="187.27">Berlin</tspan></text><text><tspan x="687.83" y="505.732">Rome</tspan></text></g><rect fill="#ff8474" height="35.3846" rx="17.6923" width="98.782" x="891.792" y="56"/><text fill="#fff" font-family="sans-serif" font-size="14.7436" font-weight="500" letter-spacing="0em"><tspan x="923.639" y="78.0575">Infra</tspan></text><rect fill="#45e9cd" height="35.3846" rx="17.6923" width="98.782" x="891.792" y="374.461"/><text fill="#fff" font-family="sans-serif" font-size="14.7436" font-weight="500" letter-spacing="0em"><tspan x="911.171" y="396.519">Security</tspan></text><rect fill="#452d77" height="35.3846" rx="17.6923" width="98.782" x="891.792" y="268.308"/><text fill="#fff" font-family="sans-serif" font-size="14.7436" font-weight="500" letter-spacing="0em"><tspan x="909.888" y="290.366">Strategy</tspan></text><rect fill="#15c8ff" height="35.3846" rx="17.6923" width="98.782" x="891.792" y="162.154"/><text fill="#fff" font-family="sans-serif" font-size="14.7436" font-weight="500" letter-spacing="0em"><tspan x="915.742" y="184.212">Design</tspan></text><rect fill="#f6d14b" height="35.3846" rx="17.6923" width="98.782" x="891.792" y="480.615"/><text fill="#fff" font-family="sans-serif" font-size="14.7436" font-weight="500" letter-spacing="0em"><tspan x="914.95" y="502.673">QA/QC</tspan></text><path d="m0 125.782h990.519" stroke="#000" stroke-opacity=".1" stroke-width="1.47436"/><path d="m0 233.187h990.519" stroke="#000" stroke-opacity=".1" stroke-width="1.47436"/><path d="m0 338.423h990.519" stroke="#000" stroke-opacity=".1" stroke-width="1.47436"/><path d="m0 444.744h990.519" stroke="#000" stroke-opacity=".1" stroke-width="1.47436"/></svg>