<svg fill="none" height="572" viewBox="0 0 993 572" width="993" xmlns="http://www.w3.org/2000/svg" xmlns:xlink="http://www.w3.org/1999/xlink"><linearGradient id="a"><stop offset="0" stop-color="#16243f"/><stop offset="1" stop-color="#6878b1"/></linearGradient><linearGradient id="b" gradientUnits="userSpaceOnUse" x1="27.4395" x2="48.8939" xlink:href="#a" y1="196.704" y2="196.704"/><linearGradient id="c" gradientUnits="userSpaceOnUse" x1="701.676" x2="723.131" xlink:href="#a" y1="494.63" y2="494.63"/><linearGradient id="d"><stop offset="0" stop-color="#315676"/><stop offset="1" stop-color="#e1b9e0"/></linearGradient><linearGradient id="e" gradientUnits="userSpaceOnUse" x1="27.408" x2="45.9438" xlink:href="#d" y1="324.08" y2="324.08"/><linearGradient id="f" gradientUnits="userSpaceOnUse" x1="31.523" x2="50.5166" y1="326.956" y2="315.342"><stop offset="0" stop-color="#315676"/><stop offset=".08" stop-color="#375979"/><stop offset=".18" stop-color="#496383"/><stop offset=".2" stop-color="#4d6585"/><stop offset=".29" stop-color="#546989"/><stop offset=".43" stop-color="#677495"/><stop offset=".6" stop-color="#8786a9"/><stop offset=".78" stop-color="#b39fc4"/><stop offset=".95" stop-color="#e1b9e0"/></linearGradient><linearGradient id="g" gradientUnits="userSpaceOnUse" x1="24.7238" x2="48.3798" xlink:href="#a" y1="490.945" y2="490.945"/><linearGradient id="h" gradientUnits="userSpaceOnUse" x1="38.9568" x2="46.2933" y1="480.103" y2="466.665"><stop offset="0" stop-color="#16243f"/><stop offset=".1" stop-color="#263454"/><stop offset="1" stop-color="#6878b1"/></linearGradient><linearGradient id="i" gradientUnits="userSpaceOnUse" x1="365.021" x2="383.644" xlink:href="#d" y1="184.961" y2="184.961"/><linearGradient id="j" gradientUnits="userSpaceOnUse" x1="372.825" x2="386.04" y1="185.706" y2="172.932"><stop offset="0" stop-color="#315676"/><stop offset=".21" stop-color="#516889"/><stop offset=".67" stop-color="#a296ba"/><stop offset="1" stop-color="#e1b9e0"/></linearGradient><linearGradient id="k" gradientUnits="userSpaceOnUse" x1="711.446" x2="729.569" xlink:href="#a" y1="341.454" y2="325.298"/><linearGradient id="l" gradientUnits="userSpaceOnUse" x1="708.497" x2="715.39" xlink:href="#a" y1="319.156" y2="311.85"/><linearGradient id="m" gradientUnits="userSpaceOnUse" x1="701.645" x2="723.099" xlink:href="#d" y1="333.127" y2="333.127"/><clipPath id="n"><path d="m0 0h993v572h-993z"/></clipPath><g clip-path="url(#n)"><text fill="#585858" font-family="sans-serif" font-size="16.1041" font-weight="600" letter-spacing="0em"><tspan x="3.25171" y="45.6364">Requested</tspan></text><text fill="#585858" font-family="sans-serif" font-size="16.1041" font-weight="600" letter-spacing="0em"><tspan x="336.708" y="45.6364">In Progress</tspan></text><text fill="#585858" font-family="sans-serif" font-size="16.1041" font-weight="600" letter-spacing="0em"><tspan x="674.805" y="45.6364">Completed</tspan></text><rect fill="#fff" height="145.604" rx="8.05205" width="318.508" y="73.5012"/><rect height="144.466" rx="7.48329" stroke="#000" stroke-opacity=".2" stroke-width="1.13753" width="317.371" x=".568765" y="74.07"/><text fill="#585858" font-family="sans-serif" font-size="16.1041" font-weight="600" letter-spacing="0em"><tspan x="22.0398" y="136.893">Confirm Ports Availability</tspan></text><rect fill="#0076f8" height="8.05205" rx="4.02603" width="73.8105" x="22.0398" y="95.1003"/><rect fill="#ff8474" height="32.2082" rx="16.1041" width="124.807" x="64.9841" y="164.885"/><text fill="#fff" font-family="sans-serif" font-size="13.4201" font-weight="500" letter-spacing="0em"><tspan x="80.3652" y="184.95">Infrastructure</tspan></text><circle cx="38.1439" cy="180.989" fill="#c1e0ec" r="16.1041"/><path d="m48.8939 193.075c-6.3325 4.876-15.1652 4.837-21.4544-.095l4.6095-2.161c.2195-.103.4302-.224.63-.362.0606-.041.1212-.085.179-.13.5017-.384.9146-.872 1.2107-1.43.2243-.43.373-.896.4395-1.376.0463-.311.0697-.625.0701-.939 0-.542-.0294-1.084-.035-1.627-.0038-.3-.007-.601-.0095-.901l.1895.095.4925.255.2283.039 2.6411.449 2.948.502.0891 3.031.0293.991.0142.481v.032l1.1463.466z" fill="#f2a196"/><path d="m48.8939 193.074c-6.3325 4.876-15.1652 4.837-21.4544-.094l4.6095-2.161c.2195-.103.4302-.224.63-.362.0606-.042.1212-.085.179-.131 2.2309 1.588 5.2755 2.589 7.909 1.404.6272-.284 1.2031-.743 1.5441-1.332z" fill="url(#b)"/><path d="m41.1637 189.9c-.9899.06-1.9893-.709-3.0219-1.303-1.9334-1.116-3.0711-2.552-2.6998-4.149l2.6411.449 2.948.502.089 3.032z" fill="#e88870"/><path d="m45.705 174.681c.4869 1.894-.306 3.666-1.0705 5.399-.9672 2.191-2.3559 2.452-4.476 3.176-.4736.163-5.6099 1.621-5.6099 1.94 0-.069-.503-.569-1.1368-1.176-2.2735-2.159-3.0209-5.494-1.6682-8.355 1.7999-3.8 7.1635-4.479 10.8447-3.555 1.2694.318 2.5085.82 2.985 2.136.0492.146.0938.291.1317.435z" fill="#00214e"/><path d="m35.212 181.406c0 .889-.721 1.61-1.6104 1.61s-1.6104-.721-1.6104-1.61c0-.89.721-1.611 1.6104-1.611s1.6104.721 1.6104 1.611z" fill="#f2a196"/><path d="m35.5547 181.405c0 .796-.6455 1.442-1.4418 1.442-.7962 0-1.4418-.646-1.4418-1.442s.6456-1.442 1.4418-1.442c.7963 0 1.4418.646 1.4418 1.442z" fill="#e88870"/><path d="m34.134 179.886.415 5.4 6.2938 3.677c.9036.338 1.9157-.066 2.338-.934.9056-1.854 2.3587-4.783 2.1674-5.873-.2842-1.61-1.0421-2.179-1.0421-2.179l.3155-1.889c.1184-.711.2709-1.454.0947-2.169-.2018-.819-.8213-1.17-1.3309-1.783-1.3414 1.728-3.5467 2.705-5.4726 3.695-.9937.523-3.7788 2.055-3.7788 2.055z" fill="#f2a196"/><path clip-rule="evenodd" d="m41.1479 179.434s-.0016-.009.0007-.019l.0922.022c.0015-.006.0013-.011.0012-.013-.0001-.001-.0002-.003-.0003-.004-.0002-.001-.0003-.001-.0003-.001.0002.001.0007.003.0017.006.002.007.0051.016.0095.03.0088.026.0219.063.039.111.034.096.083.231.1422.392.1182.322.2766.749.4353 1.174.1586.426.3175.851.4368 1.169.0596.159.1093.291.1441.384l.0547.146s0 0-.0444.017l.0444-.017.0228.061-1.7643.086-.0047-.094 1.6347-.081-.0319-.085c-.0348-.092-.0845-.225-.1441-.384-.1193-.318-.2782-.743-.4369-1.169-.1587-.425-.3171-.852-.4355-1.175-.0591-.161-.1083-.296-.1425-.392-.0171-.048-.0305-.086-.0395-.113-.0045-.014-.0081-.025-.0105-.033-.0012-.004-.0023-.008-.0031-.011-.0004-.002-.0009-.004-.0013-.007z" fill="#00214e" fill-rule="evenodd"/><path clip-rule="evenodd" d="m39.8288 178.742c-.8803-.131-1.7767-.106-2.6483.074l-.0191-.093c.8824-.182 1.79-.207 2.6813-.075z" fill="#00214e" fill-rule="evenodd"/><path clip-rule="evenodd" d="m44.4127 178.713c-.5486-.049-1.1015-.011-1.6382.113l-.0213-.092c.5464-.126 1.1093-.165 1.6679-.116z" fill="#00214e" fill-rule="evenodd"/><path d="m39.0189 183.878c.0261-.041.0684-.07.1166-.079.0481-.009.0979.003.1372.032.1971.138.557.432 1.0686.533.6972.14 1.3016-.14 1.4465.04.0815.102-.018.226-.2084.384-.4029.301-.9105.428-1.4077.349-.6707-.126-1.1746-.902-1.1746-1.178-.0001-.028.0075-.056.0218-.081z" fill="#fff"/><path d="m38.7182 179.707c.5788 0 .5788.889 0 .894h-.0255c-.5779 0-.5779-.889 0-.894z" fill="#00214e"/><path d="m43.4717 179.575c.5361.005.5361.825 0 .829h-.0237c-.5371 0-.5371-.824 0-.829z" fill="#00214e"/><path d="m43.4554 172.392c-1.9919.038-3.9725.308-5.9017.805-1.9375.473-3.8132 1.17-5.5891 2.077.4225-1.954 2.3578-3.758 4.9961-4.42 2.6382-.662 5.195.016 6.4947 1.538z" fill="#845161"/><rect fill="#fff" height="144.466" rx="8.05205" width="318.508" x="674.555" y="371.534"/><rect height="143.329" rx="7.48329" stroke="#000" stroke-opacity=".2" stroke-width="1.13753" width="317.371" x="675.123" y="372.102"/><text fill="#585858" font-family="sans-serif" font-size="16.1041" font-weight="600" letter-spacing="0em"><tspan x="696.277" y="434.819">Fix CSS classes</tspan></text><rect fill="#8352f1" height="8.05205" rx="4.02603" width="73.8105" x="696.277" y="393.027"/><rect fill="#f6d14b" height="32.2082" rx="16.1041" width="80.5205" x="739.221" y="462.811"/><text fill="#fff" font-family="sans-serif" font-size="13.4201" font-weight="500" letter-spacing="0em"><tspan x="754.445" y="482.876">QA/QC</tspan></text><circle cx="712.381" cy="478.915" fill="#f3de84" r="16.1041"/><path d="m723.131 491c-6.333 4.876-15.166 4.837-21.455-.095l4.61-2.16c.219-.104.43-.225.63-.362.06-.042.121-.085.179-.131.502-.384.914-.871 1.21-1.429.225-.431.373-.896.44-1.377.046-.311.07-.624.07-.939 0-.541-.029-1.083-.035-1.626-.004-.301-.007-.601-.009-.901l.189.095.493.255.228.038 2.641.449 2.948.502.089 3.032.029.991.015.481v.031l1.146.466z" fill="#f2a196"/><path d="m723.131 491c-6.333 4.876-15.166 4.837-21.455-.094l4.61-2.161c.219-.103.43-.224.63-.362.06-.042.121-.085.179-.131 2.231 1.588 5.275 2.589 7.909 1.404.627-.284 1.203-.743 1.544-1.332z" fill="url(#c)"/><path d="m715.401 487.826c-.99.06-1.99-.709-3.022-1.303-1.934-1.116-3.072-2.552-2.7-4.149l2.641.449 2.948.502.089 3.032z" fill="#e88870"/><path d="m719.941 472.607c.487 1.894-.306 3.666-1.07 5.399-.968 2.191-2.356 2.452-4.476 3.176-.474.163-5.61 1.621-5.61 1.94 0-.069-.503-.569-1.137-1.176-2.274-2.159-3.021-5.494-1.668-8.355 1.8-3.8 7.163-4.479 10.844-3.555 1.27.318 2.509.82 2.985 2.136.05.146.094.291.132.435z" fill="#00214e"/><path d="m709.448 479.331c0 .89-.721 1.611-1.61 1.611s-1.61-.721-1.61-1.611c0-.889.721-1.61 1.61-1.61s1.61.721 1.61 1.61z" fill="#f2a196"/><path d="m709.791 479.331c0 .796-.645 1.442-1.441 1.442-.797 0-1.442-.646-1.442-1.442s.645-1.442 1.442-1.442c.796 0 1.441.646 1.441 1.442z" fill="#e88870"/><path d="m708.37 477.812.415 5.4 6.294 3.677c.903.338 1.916-.067 2.338-.934.905-1.855 2.359-4.783 2.167-5.873-.284-1.611-1.042-2.179-1.042-2.179l.316-1.889c.118-.711.271-1.454.094-2.169-.201-.82-.821-1.17-1.331-1.783-1.341 1.728-3.546 2.705-5.472 3.694-.994.523-3.779 2.056-3.779 2.056z" fill="#f2a196"/><path clip-rule="evenodd" d="m715.384 477.36s-.001-.009.001-.019l.092.022c.002-.006.002-.011.002-.012 0-.002-.001-.004-.001-.005s0-.001 0-.001c0 .001.001.003.002.006.002.007.005.016.009.03.009.026.022.063.039.111.034.096.083.231.142.392.119.322.277.749.436 1.174.158.426.317.851.436 1.169.06.159.11.291.145.384l.054.146s0 0-.044.017l.044-.017.023.061-1.764.086-.005-.094 1.635-.081-.032-.085c-.035-.092-.085-.225-.144-.384-.12-.318-.278-.743-.437-1.169-.159-.425-.317-.852-.436-1.175-.059-.161-.108-.296-.142-.392-.017-.048-.031-.086-.04-.113-.004-.014-.008-.025-.01-.033-.001-.004-.002-.008-.003-.011-.001-.002-.001-.004-.002-.007z" fill="#00214e" fill-rule="evenodd"/><path clip-rule="evenodd" d="m714.065 476.667c-.88-.13-1.776-.105-2.648.075l-.019-.093c.882-.182 1.79-.208 2.681-.075z" fill="#00214e" fill-rule="evenodd"/><path clip-rule="evenodd" d="m718.649 476.638c-.548-.048-1.101-.01-1.638.114l-.021-.092c.546-.127 1.109-.166 1.668-.116z" fill="#00214e" fill-rule="evenodd"/><path d="m713.255 481.804c.026-.041.069-.07.117-.079s.098.003.137.032c.197.138.557.432 1.069.533.697.139 1.301-.14 1.446.04.082.101-.018.225-.208.384-.403.301-.911.427-1.408.349-.671-.126-1.175-.903-1.175-1.178 0-.029.008-.056.022-.081z" fill="#fff"/><path d="m712.955 477.633c.579 0 .579.889 0 .894h-.026c-.577 0-.577-.889 0-.894z" fill="#00214e"/><path d="m717.709 477.501c.536.005.536.825 0 .829h-.024c-.537 0-.537-.824 0-.829z" fill="#00214e"/><path d="m717.692 470.318c-1.992.038-3.973.308-5.902.805-1.937.473-3.813 1.17-5.589 2.077.423-1.954 2.358-3.758 4.996-4.42s5.195.016 6.495 1.538z" fill="#845161"/><rect fill="#fff" height="120.578" rx="8.05205" width="318.508" y="235.03"/><rect height="119.441" rx="7.48329" stroke="#000" stroke-opacity=".2" stroke-width="1.13753" width="317.371" x=".568765" y="235.599"/><rect fill="#45e9cd" height="32.2082" rx="16.1041" width="87.2306" x="64.9841" y="301.77"/><text fill="#fff" font-family="sans-serif" font-size="13.4201" font-weight="500" letter-spacing="0em"><tspan x="81.2698" y="321.835">Security</tspan></text><text fill="#585858" font-family="sans-serif" font-size="16.1041" font-weight="600" letter-spacing="0em"><tspan x="22.0398" y="273.778">Remove depreceated API</tspan></text><circle cx="38.1439" cy="317.874" fill="#b6c294" r="16.1041"/><path d="m27.408 324.063s1.7998-9.971 2.5795-11.882c1.2144-2.987 4.1103-4.768 7.2866-5.021 2.3218-.184 4.5129.794 5.7075 2.782 1.5251 2.54 2.9622 14.136 2.9622 14.136z" fill="url(#e)"/><path d="m48.9515 329.562c-6.3325 4.875-15.1652 4.836-21.4544-.095l4.6095-2.161c.1411-.067.2787-.141.4121-.222l.1061-.066c.0379-.024.0748-.048.1118-.074.5815-.401 1.0581-.936 1.3897-1.56.3789-.715.5039-1.505.5096-2.31 0-.542-.0293-1.084-.035-1.627-.0038-.3-.007-.6-.0095-.901l.1895.095.4926.255 2.8674.485 2.948.502.0663 2.254.0228.774.0445 1.504 1.0865.442.8526.345z" fill="#e18477"/><path d="m41.1545 324.141c-.2529.154-.4916.226-.701.203-1.4011-.15-4.134-1.248-5.8543-3.28 0-.099-.0019-.199-.0057-.299 0-.073 0-.146 0-.22l.1895.094.4926.255 2.8646.486 2.948.502z" fill="#a76962"/><path d="m48.953 329.562c-6.3325 4.876-15.1652 4.837-21.4545-.095l4.6096-2.161c.1411-.066.2786-.14.4121-.221 2.2432 1.649 5.3655 2.723 8.0577 1.515.7635-.342 1.4522-.952 1.7326-1.734l.8526.345z" fill="#f2d4cf"/><path d="m33.6759 317.392c0 .89-.721 1.611-1.6104 1.611s-1.6104-.721-1.6104-1.611c0-.889.721-1.61 1.6104-1.61s1.6104.721 1.6104 1.61z" fill="#e18477"/><path d="m34.2433 317.203c0 .89-.721 1.611-1.6104 1.611s-1.6104-.721-1.6104-1.611c0-.889.721-1.61 1.6104-1.61s1.6104.721 1.6104 1.61z" fill="#a76962"/><path d="m43.0096 314.954c1.1131 3.854-1.2457 8.51-2.7026 8.51-1.9894 0-6.8206-1.589-7.9327-5.443-1.1122-3.853.3666-7.665 3.3032-8.513s6.22 1.591 7.3321 5.446z" fill="#e18477"/><path d="m39.7072 310.261c-.0368.18-.0894.357-.1573.527-.7123 1.759-1.8112 3.276-3.4103 4.329-1.8946 1.247-3.7513 1.192-5.8732 1.497.1203-.775.3921-1.516.4158-2.328.0379-1.271.3249-1.756 1.1264-2.684.5968-.691 1.4048-1.746 2.3426-1.977.0162 0 5.4944-2.179 5.4944-2.179.0606.946.2463 1.915.0616 2.815z" fill="url(#f)"/><path clip-rule="evenodd" d="m42.5879 314.169c-.7096-.207-1.4713-.135-2.1298.2l-.0431-.084c.68-.347 1.4667-.421 2.1994-.207z" fill="#00214e" fill-rule="evenodd"/><path clip-rule="evenodd" d="m38.407 314.55c-.9382-.404-2.0078-.37-2.9182.094l-.043-.085c.9355-.476 2.0346-.511 2.9987-.096z" fill="#00214e" fill-rule="evenodd"/><path clip-rule="evenodd" d="m40.125 316.884s0 0 .0473-.003l.0473-.002.0001.001.0002.004c.0002.004.0006.01.0011.018.0009.014.0025.036.0047.063.0045.053.0118.127.0229.209.0225.166.0599.355.1185.473.025.049.0564.095.0897.143.0011.002.0021.003.0032.005.0337.049.0693.101.0967.158.0547.107.0768.199.0681.278-.009.08-.05.141-.1089.184-.0576.043-.1316.068-.2096.083-.0784.015-.1642.021-.2477.021v-.095c.0799 0 .1591-.005.2296-.019.071-.014.1298-.035.1716-.066.0404-.03.0652-.068.0709-.119.0059-.053-.0083-.126-.0586-.224l-.0006-.001c-.0237-.05-.0553-.097-.0896-.147-.0015-.002-.0029-.004-.0044-.006-.0324-.047-.067-.097-.0949-.152l-.0002-.001c-.0664-.133-.1052-.337-.1277-.502-.0114-.084-.0188-.159-.0234-.214-.0023-.028-.0039-.05-.0049-.065-.0005-.008-.0008-.014-.0011-.018l-.0002-.005z" fill="#00214e" fill-rule="evenodd"/><path clip-rule="evenodd" d="m38.6489 318.22c-.0572-.173.0202-.362.1824-.445l.0432.084c-.1206.062-.1782.202-.1357.331.0426.129.1725.207.3062.185l.0156.093c-.1797.03-.3545-.075-.4117-.248z" fill="#00214e" fill-rule="evenodd"/><path clip-rule="evenodd" d="m39.0975 320.594c-.6885-.085-1.3229-.417-1.7857-.934l.0705-.063c.4476.5 1.061.821 1.7268.903z" fill="#00214e" fill-rule="evenodd"/><path d="m37.0497 315.668c.4143.03.7399.194.7273.364-.0126.171-.3587.284-.773.254-.4143-.031-.7399-.194-.7272-.365.0126-.17.3586-.284.7729-.253z" fill="#00214e"/><path d="m42.6503 315.708c.0263.169-.2851.358-.6955.422s-.7645-.021-.7909-.19c-.0263-.169.285-.358.6955-.422.4104-.064.7645.021.7909.19z" fill="#00214e"/><rect fill="#fff" height="144.466" rx="8.05205" width="318.508" y="371.534"/><rect height="143.329" rx="7.48329" stroke="#000" stroke-opacity=".2" stroke-width="1.13753" width="317.371" x=".568765" y="372.102"/><text fill="#585858" font-family="sans-serif" font-size="16.1041" font-weight="600" letter-spacing="0em"><tspan x="22.0398" y="434.819">Write tests</tspan></text><rect fill="#15c8ff" height="8.05205" rx="4.02603" width="73.8105" x="22.0398" y="393.027"/><rect fill="#f6d14b" height="32.2082" rx="16.1041" width="80.5205" x="64.9841" y="462.811"/><text fill="#fff" font-family="sans-serif" font-size="13.4201" font-weight="500" letter-spacing="0em"><tspan x="80.2079" y="482.876">QA/QC</tspan></text><circle cx="38.1439" cy="478.915" fill="#ecc1c1" r="16.1041"/><path d="m39.9166 468.766c-1.1367-.379-2.355-.69-3.5561-.554-1.9071.218-3.7225.937-5.2623 2.084-.9407.702-2.1362 1.834-2.3332 3.061-.1762 1.099 1.1614 1.917.9085 2.914-.2151.845-1.9401.655-2.2593 1.586-.3515 1.034 1.564 2.266 1.2011 3.19-.3325.847-2.7026-.126-2.7964 1.079-.1279 1.636 2.6941 2.009 2.4942 2.928-.2188 1.004-3.3534.629-3.576 1.494-.2141.833 2.247 2.71 5.6165 3.666 9.0411 2.568 18.2829-2.355 18.0215-3.608-.1383-.673-2.9613-.977-3.057-1.861-.0757-.704 1.7895-1.295 1.6625-1.926-.1316-.657-2.2413-.454-2.4184-1.155-.1989-.789 2.2906-1.733 2.1163-2.696-.1402-.771-1.8283-.682-2.0405-1.541-.253-1.021 1.3054-1.825 1.0505-2.653-.2728-.884-2.3246-.534-2.7888-1.661-.2709-.658.4916-1.196.4537-1.926-.036-.681-.7711-1.521-3.4368-2.421z" fill="url(#g)"/><path d="m48.1576 490.553c-6.3325 4.876-15.1653 4.837-21.4545-.094l4.6096-2.161c.1411-.067.2786-.141.4121-.222l.1061-.066c.0378-.024.0748-.049.1117-.074.5817-.402 1.0583-.937 1.3897-1.561.3789-.715.504-1.506.5097-2.311 0-.542-.0294-1.083-.0351-1.626-.0038-.3-.0069-.601-.0094-.901l.1894.095.4926.254 2.8694.488 2.948.502.089 3.032.0445 1.503 1.0866.442.8526.345z" fill="#e18477"/><path d="m40.3831 485.907c-.953.169-1.9334.093-2.8485-.223-2.0414-.686-3.4207-2.34-3.5505-4.046l.4926.255 2.8694.488 2.948.502z" fill="#a76962"/><path d="m32.6603 478.506c0 .889-.721 1.61-1.6104 1.61s-1.6104-.721-1.6104-1.61.721-1.61 1.6104-1.61 1.6104.721 1.6104 1.61z" fill="#e18477"/><path d="m33.2291 478.316c0 .889-.721 1.61-1.6104 1.61s-1.6104-.721-1.6104-1.61.721-1.61 1.6104-1.61 1.6104.721 1.6104 1.61z" fill="#a76962"/><path d="m42.6927 475.968c1.1803 4.088-1.1169 8.834-2.8665 9.029-4.2288.474-7.2317-1.685-8.4121-5.773-1.1803-4.087.3884-8.129 3.505-9.028 3.1167-.899 6.5942 1.686 7.7736 5.772z" fill="#e18477"/><path clip-rule="evenodd" d="m42.111 475.309c-.7106-.207-1.4733-.135-2.1327.201l-.043-.084c.6809-.347 1.4684-.421 2.2022-.208z" fill="#00214e" fill-rule="evenodd"/><path clip-rule="evenodd" d="m37.6755 475.768c-.938-.406-2.0079-.372-2.9181.093l-.043-.084c.9352-.478 2.0348-.513 2.9987-.096z" fill="#00214e" fill-rule="evenodd"/><path d="m48.1576 490.553c-6.3325 4.876-15.1653 4.837-21.4545-.094l4.6096-2.161c.2195-.103.4302-.224.6299-.362.0607-.042.1213-.085.1791-.131.5018-.384.9147-.872 1.2106-1.43.2238-.429.3725-.893.4396-1.372.0669.065.1371.126.2103.184.5808.429 1.2112.788 1.8775 1.067.3235.135.6543.251.9909.349 1.014.296 2.0727.408 3.1261.331.1459-.012.2927-.026.4386-.036l.0142.481v.031l1.1462.466z" fill="#f2d4cf"/><path clip-rule="evenodd" d="m37.1186 477.385c-.0086.278-.1297.541-.3357.728-.2059.188-.479.283-.7568.265l.0061-.094c.2521.016.5001-.071.687-.241s.2969-.408.3047-.661z" fill="#00214e" fill-rule="evenodd"/><path clip-rule="evenodd" d="m40.4687 477.855c-.2037-.166-.3243-.414-.33-.677l.0947-.002c.0051.236.113.457.2951.606.1878.152.3966.275.62.367l-.036.088c-.2319-.096-.4487-.224-.6436-.382z" fill="#00214e" fill-rule="evenodd"/><path clip-rule="evenodd" d="m37.0527 480.101c-.4579.064-.8853.267-1.2259.58-.1661.153-.309.33-.4243.524l-.0815-.048c.12-.203.2687-.386.4416-.546h.0001c.3546-.326.7998-.537 1.2767-.604z" fill="#00214e" fill-rule="evenodd"/><path clip-rule="evenodd" d="m40.0404 473.699h-2.2423v-.095h2.2423z" fill="#00214e" fill-rule="evenodd"/><path clip-rule="evenodd" d="m40.04 474.439h-2.7898v-.094h2.7898z" fill="#00214e" fill-rule="evenodd"/><path d="m36.4109 481.063c.0262-.041.0685-.07.1167-.079.0481-.009.0979.002.1372.032.1971.138.557.432 1.0686.533.6972.139 1.3016-.14 1.4465.04.0815.101-.018.225-.2084.383-.4031.302-.9105.428-1.4077.35-.6707-.126-1.1746-.903-1.1746-1.178-.0001-.029.0075-.057.0217-.081z" fill="#fff"/><path d="m39.2824 469.995c-.3742-.354-1.0344-.462-1.5157-.532-2.121-.309-4.0866.506-5.6563 1.907-.7578.674-1.4304 1.466-1.7999 2.41-.394 1.02-.5968 3.162.9682 3.076.6858-.037 1.3357-.336 1.9391-.641 1.6919-.852 3.3013-1.933 4.5774-3.345.3178-.358.6145-.734.8885-1.126.3486-.489 1.241-1.112.6044-1.736-.0021-.004-.004-.008-.0057-.013z" fill="url(#h)"/><path clip-rule="evenodd" d="m39.4514 477.748c-.1004-.358-.1644-.726-.1911-1.097l.0945-.006c.0262.364.0891.725.1877 1.077.0876.29.2178.475.3937.725.009.013.0181.026.0274.039.0677.092.126.189.1741.292l.0003.001c.1314.294.1109.607-.0281.847-.1393.241-.3965.406-.7304.406h-.3902v-.095h.3902c.2999 0 .5259-.147.6485-.359.1229-.212.1431-.492.0237-.76-.0455-.097-.1006-.19-.1645-.276l-.0008-.001c-.01-.014-.0198-.028-.0296-.042-.1747-.248-.313-.445-.4051-.75z" fill="#00214e" fill-rule="evenodd"/><path clip-rule="evenodd" d="m37.3988 479.661c-.0576-.173.0201-.362.1828-.445l.043.084c-.121.062-.1787.202-.1359.331s.1734.207.3072.184l.0161.094c-.18.031-.3556-.074-.4132-.248z" fill="#00214e" fill-rule="evenodd"/><path d="m36.1462 476.674c.5778-.007.5949.876.017.892h-.0255c-.5788.006-.5959-.877-.018-.893h.0265z" fill="#00214e"/><path d="m40.905 476.523c.5372-.006.5533.813.0161.829h-.0274c-.5362.005-.5523-.814-.0161-.828h.0236z" fill="#00214e"/><rect fill="#fff" height="145.604" rx="8.05205" width="318.508" x="337.54" y="73.5012"/><rect height="144.466" rx="7.48329" stroke="#000" stroke-opacity=".2" stroke-width="1.13753" width="317.371" x="338.108" y="74.07"/><rect fill="#15c8ff" height="32.2082" rx="16.1041" width="79.1785" x="402.466" y="164.885"/><text fill="#fff" font-family="sans-serif" font-size="13.4201" font-weight="500" letter-spacing="0em"><tspan x="418.913" y="184.95">Design</tspan></text><text fill="#585858" font-family="sans-serif" font-size="16.1041" font-weight="600" letter-spacing="0em"><tspan x="359.522" y="136.893">Add ‘Call to Action’ to header</tspan></text><rect fill="#8352f1" height="8.05205" rx="4.02603" width="73.8105" x="359.522" y="95.1003"/><circle cx="375.627" cy="180.989" fill="#e6ecc1" r="16.1041"/><path d="m380.293 184.61c-5.1.668-10.279.378-15.272-.852.707-3.242 1.801-6.388 3.256-9.369 1.256-2.572 3.873-3.891 6.696-4.114 2.322-.184 4.513.793 5.706 2.782.923 1.535 1.497 3.592 1.873 5.338.402 1.864.766 3.735 1.092 5.614-.004-.029-3.026.557-3.351.601z" fill="url(#i)"/><path d="m386.345 192.457c-6.333 4.876-15.166 4.837-21.455-.095l4.613-2.162c.141-.066.278-.14.412-.221l.106-.067c.038-.023.075-.048.112-.074.581-.401 1.058-.936 1.389-1.56.379-.715.504-1.505.51-2.31 0-.542-.03-1.084-.035-1.627-.004-.3-.007-.6-.01-.901l.19.095.492.255 2.865.492 2.948.502.089 3.031.045 1.503 1.086.443.853.345z" fill="#e18477"/><path d="m378.571 187.81c-.953.169-1.933.093-2.848-.223-2.044-.687-3.421-2.343-3.551-4.05l.493.254 2.869.49 2.948.502z" fill="#a76962"/><path d="m370.848 180.409c0 .889-.721 1.61-1.611 1.61-.889 0-1.61-.721-1.61-1.61s.721-1.61 1.61-1.61c.89 0 1.611.721 1.611 1.61z" fill="#e18477"/><path d="m371.416 180.219c0 .89-.721 1.611-1.61 1.611-.89 0-1.611-.721-1.611-1.611 0-.889.721-1.61 1.611-1.61.889 0 1.61.721 1.61 1.61z" fill="#a76962"/><path d="m380.881 177.872c1.18 4.086-1.116 8.833-2.866 9.028-4.229.473-7.232-1.686-8.412-5.772-1.18-4.087.388-8.13 3.505-9.029 3.116-.899 6.594 1.685 7.773 5.773z" fill="#e18477"/><path clip-rule="evenodd" d="m376.776 183.911c-.692-.057-1.34-.363-1.823-.861l.068-.066c.467.481 1.094.777 1.762.832z" fill="#00214e" fill-rule="evenodd"/><path d="m377.41 172.581c-.037.18-.09.356-.159.526-.716 1.757-1.82 3.271-3.425 4.32-1.894 1.241-3.754 1.181-5.873 1.481.122-.775.08-1.374.106-2.186.042-1.271.645-1.894 1.45-2.822.598-.689 1.409-1.743 2.347-1.971l5.501-1.311c.057.946.24 1.065.053 1.963z" fill="url(#j)"/><path clip-rule="evenodd" d="m380.296 177.213c-.709-.206-1.471-.135-2.129.201l-.043-.085c.68-.346 1.466-.42 2.199-.207z" fill="#00214e" fill-rule="evenodd"/><path clip-rule="evenodd" d="m375.864 177.671c-.938-.404-2.007-.37-2.918.093l-.043-.084c.936-.476 2.035-.512 2.999-.096z" fill="#00214e" fill-rule="evenodd"/><path d="m386.345 192.457c-6.333 4.876-15.166 4.837-21.455-.095l4.613-2.161c.219-.104.43-.225.63-.362.06-.042.121-.086.179-.131.501-.384.914-.872 1.21-1.43.224-.428.373-.892.44-1.371.067.065.137.126.21.184.581.429 1.211.787 1.878 1.066.323.135.654.252.99.35 1.014.295 2.073.407 3.127.33.145-.011.292-.025.438-.036l.014.482v.031l1.143.462z" fill="#845161"/><g fill="#00214e"><path clip-rule="evenodd" d="m375.241 182.005c-.458.064-.886.267-1.227.58-.165.153-.308.329-.423.523l-.082-.048c.12-.202.269-.385.441-.545.355-.326.8-.537 1.278-.604z" fill-rule="evenodd"/><path clip-rule="evenodd" d="m378.227 175.602h-2.241v-.094h2.241z" fill-rule="evenodd"/><path clip-rule="evenodd" d="m378.229 176.343h-2.789v-.094h2.789z" fill-rule="evenodd"/><path clip-rule="evenodd" d="m375.391 179.452c-.009.278-.13.541-.336.728s-.479.283-.757.265l.006-.095c.253.017.5-.07.687-.24s.297-.409.305-.661z" fill-rule="evenodd"/><path clip-rule="evenodd" d="m378.739 179.92c-.204-.166-.325-.414-.33-.678l.094-.002c.005.236.113.458.296.607.187.152.396.275.62.367l-.037.088c-.231-.096-.448-.224-.643-.381z" fill-rule="evenodd"/><path d="m378.199 181.327c.045.07.087.143.123.218.043.07.072.149.086.23.002.059-.022.116-.067.155-.044.039-.104.056-.162.046-.058-.012-.084.079-.024.095.076.015.155-.001.22-.045.065-.043.11-.111.124-.187.008-.1-.016-.199-.066-.285-.045-.095-.095-.188-.151-.277-.033-.051-.115 0-.083.048z"/><path d="m376.617 181.44c-.081.128-.177.289-.13.448.037.129.174.248.313.198.057-.021.033-.113-.025-.095-.095.036-.19-.064-.203-.155-.02-.125.064-.251.127-.352.032-.052-.05-.095-.082-.047z"/><path d="m374.54 178.83c.416.029.743.191.731.362s-.359.286-.774.257c-.416-.029-.743-.191-.731-.362s.359-.286.774-.257z"/><path d="m380.16 178.98c.026.169-.285.358-.695.422-.411.064-.765-.022-.791-.191-.027-.169.285-.358.695-.422.411-.064.765.022.791.191z"/></g><rect fill="#fff" height="144.466" rx="8.05205" width="318.508" x="337.54" y="235.03"/><rect height="143.329" rx="7.48329" stroke="#000" stroke-opacity=".2" stroke-width="1.13753" width="317.371" x="338.108" y="235.599"/><text fill="#585858" font-family="sans-serif" font-size="16.1041" font-weight="600" letter-spacing="0em"><tspan x="359.522" y="297.934">Help center configuration</tspan></text><rect fill="#ff8474" height="8.05205" rx="4.02603" width="73.8105" x="359.522" y="256.142"/><rect fill="#452d77" height="32.2082" rx="16.1041" width="89.9146" x="402.466" y="325.926"/><text fill="#fff" font-family="sans-serif" font-size="13.4201" font-weight="500" letter-spacing="0em"><tspan x="416.641" y="345.991">Strategy</tspan></text><circle cx="375.627" cy="342.03" fill="#a88e84" r="16.1041"/><path d="m386.345 354.045c-6.333 4.876-15.166 4.837-21.455-.095l4.61-2.161c.219-.103.43-.224.63-.362.06-.041.121-.085.179-.13.501-.384.914-.872 1.21-1.43.224-.429.373-.893.44-1.372.046-.31.07-.624.07-.938 0-.542-.029-1.084-.035-1.627-.004-.3-.007-.6-.01-.901l.19.095.493.255.228.039 2.641.449 2.948.502.089 3.031.029.991.015.481v.03l1.146.466z" fill="#f2a196"/><path d="m378.605 350.677c-.326.056-.661.004-.954-.148l-5.65-4.621c-.006-.214-.012.011-.015-.203-.004-.3-.007-.601-.009-.901l.189.094.493.255.228.039 2.641.449 2.948.502.089 3.032.029.99.015.482v.031z" fill="#e88870"/><path d="m386.345 354.045c-6.333 4.876-15.166 4.837-21.455-.095l4.61-2.161c.219-.103.43-.224.63-.361.06-.042.121-.086.179-.131 2.231 1.588 5.275 2.589 7.909 1.404.627-.284 1.203-.743 1.544-1.332z" fill="#ff2609"/><path d="m384.65 335.072c-.009.056-.019.111-.031.166-.066.282-.172.553-.314.804l-.008.014c-.054.094-.111.189-.174.284-.166.243-.347.476-.542.696l-.116.13c-.079.088-.158.174-.238.259.06-.012.122-.016.183-.01.022.002.045.006.067.011.302.063.561.344.641.664.005.02.01.042.014.063.074.424-.095.853-.304 1.231-.367.671-.896 1.117-1.361 1.7-.348.434-.542.947-.922 1.362l-.028.031-.023.023c-1.004 1.035-2.573 1.28-3.884 1.727-.473.163-5.61 1.622-5.61 1.94 0-.069-.503-.568-1.136-1.175-2.274-2.159-3.021-5.495-1.668-8.356 1.454-3.078 4.756-5.275 7.901-6.33.983-.33 2.099-.552 3.031-.095.932.456 1.397 1.873.624 2.564.486-.368 1.091-.543 1.698-.493.561.035 1.091.273 1.489.669.223.224.402.486.529.775.052.12.095.244.13.37.085.318.103.651.052.976z" fill="#f2d4cf"/><path d="m384.649 335.072c-.008.056-.019.111-.031.166-.066.282-.172.553-.314.804l-.007.014c-.054.094-.112.189-.175.284-.166.243-.347.476-.541.696l-.117.13c-.079.088-.158.174-.238.259.06-.013.122-.016.183-.01.023.002.045.006.067.011.302.063.561.344.642.663.004.021.009.043.013.064.075.424-.095.852-.304 1.231-.367.671-.895 1.117-1.361 1.7-.348.434-.541.947-.921 1.362l-.029.031-.022.023c-.381-.512-.624-1.114-.705-1.748-.162-1.311-.064-2.739-.108-4.066-.015-.464-.043-1.016.106-1.456.041-.108.095-.211.162-.306.174-.282.373-.547.594-.793.25-.267.567-.463.917-.569.189-.053.383-.089.579-.106.209-.02.42-.016.629.013.278.039.547.128.793.262.053.12.096.243.13.369.087.317.106.648.058.972z" fill="#daaea8"/><path d="m372.663 342.376c0 .889-.721 1.61-1.61 1.61-.89 0-1.611-.721-1.611-1.61 0-.89.721-1.611 1.611-1.611.889 0 1.61.721 1.61 1.611z" fill="#f2a196"/><path d="m373.006 342.376c0 .797-.646 1.442-1.442 1.442s-1.442-.645-1.442-1.442c0-.796.646-1.441 1.442-1.441s1.442.645 1.442 1.441z" fill="#e88870"/><path d="m371.585 340.861.417 5.399 6.294 3.678c.902.337 1.913-.066 2.336-.931.906-1.854 2.359-4.783 2.168-5.873-.285-1.61-1.042-2.179-1.042-2.179l.315-1.889c.118-.711.271-1.454.095-2.169-.202-.819-.822-1.17-1.331-1.783-1.342 1.728-3.547 2.705-5.473 3.695-.993.515-3.779 2.052-3.779 2.052z" fill="#f2a196"/><path clip-rule="evenodd" d="m378.599 340.404s-.001-.009.001-.019l.092.022c.002-.006.001-.011.001-.012 0-.002 0-.004 0-.004 0-.001 0-.002 0-.002 0 .001.001.003.002.006.001.007.005.017.009.03.009.026.022.064.039.111.034.096.083.231.142.392.118.322.277.749.435 1.174.159.426.318.851.437 1.169.06.159.11.292.144.384l.055.146s0 0-.044.017l.044-.017.023.061-1.764.086-.005-.094 1.635-.08-.032-.085c-.035-.093-.085-.226-.144-.385-.12-.318-.279-.743-.437-1.168-.159-.426-.317-.853-.436-1.175-.059-.162-.108-.297-.142-.393-.017-.048-.031-.086-.04-.113-.004-.014-.008-.025-.01-.033-.001-.004-.003-.008-.003-.011-.001-.002-.001-.004-.002-.007z" fill="#00214e" fill-rule="evenodd"/><path clip-rule="evenodd" d="m377.28 339.712c-.881-.131-1.777-.106-2.649.074l-.019-.092c.883-.183 1.79-.208 2.682-.076z" fill="#00214e" fill-rule="evenodd"/><path clip-rule="evenodd" d="m381.864 339.683c-.549-.049-1.102-.011-1.639.113l-.021-.092c.546-.126 1.109-.165 1.668-.116z" fill="#00214e" fill-rule="evenodd"/><path d="m376.47 344.848c.026-.041.068-.07.117-.079.048-.009.098.003.137.032.197.138.557.432 1.068.533.698.14 1.302-.14 1.447.04.081.101-.018.226-.208.379-.403.302-.911.428-1.408.35-.671-.126-1.175-.903-1.175-1.179.001-.027.009-.053.022-.076z" fill="#fff"/><path d="m376.22 340.826c.578.005.578.888 0 .893h-.026c-.578-.005-.578-.888 0-.893z" fill="#00214e"/><path d="m380.981 340.765c.536 0 .536.825 0 .828h-.024c-.537 0-.537-.824 0-.828z" fill="#00214e"/><rect fill="#fff" height="120.578" rx="8.05205" width="318.508" x="674.555" y="73.5012"/><rect height="119.441" rx="7.48329" stroke="#000" stroke-opacity=".2" stroke-width="1.13753" width="317.371" x="675.123" y="74.07"/><text fill="#585858" font-family="sans-serif" font-size="16.1041" font-weight="600" letter-spacing="0em"><tspan x="696.277" y="112.737">Kick off documents</tspan></text><rect fill="#6878b1" height="32.2082" rx="16.1041" width="80.5205" x="739.221" y="140.729"/><text fill="#fff" font-family="sans-serif" font-size="13.4201" font-weight="500" letter-spacing="0em"><tspan x="754.661" y="160.794">Biz Dev</tspan></text><circle cx="712.381" cy="156.833" fill="#d99797" r="16.1041"/><path d="m719.359 154.989c-.229.682-.266 1.611-.669 2.215-.885 1.326-2.604 1.554-4.002 2.031-.092.017-.182.046-.267.086l-.495.157c-.475.149-.949.301-1.421.454-.655.213-1.556.344-2.028.882-.271.311-.525.638-.758.979-.045.067-.101.141-.181.148-.052 0-.095-.068-.138-.095-.841-.453-1.46-1.074-1.978-1.863-1.564-2.415-2.203-5.314-1.8-8.162.006-.042.012-.083.018-.125.159-.921.58-1.778 1.211-2.468.639-.694 1.392-1.272 2.226-1.71.497-.263 1.009-.495 1.533-.696 1.138-.45 2.346-.695 3.569-.725 1.162.001 2.312.228 3.387.67 1.48.592 2.627 1.697 2.723 3.37.094 1.649-.406 3.293-.93 4.852z" fill="#00214e"/><path d="m709.403 157.546c0 .889-.721 1.61-1.61 1.61-.89 0-1.611-.721-1.611-1.61 0-.89.721-1.611 1.611-1.611.889 0 1.61.721 1.61 1.611z" fill="#f2a196"/><path d="m709.861 157.451c0 .837-.678 1.516-1.515 1.516s-1.516-.679-1.516-1.516.679-1.516 1.516-1.516 1.515.679 1.515 1.516z" fill="#e88870"/><path d="m723.099 169.212c-6.333 4.875-15.165 4.836-21.454-.095l4.609-2.161c.22-.103.43-.224.63-.362l.105-.074.074-.057c.502-.383.915-.871 1.211-1.429.379-.715.504-1.505.509-2.311 0-.271-.005-.543-.014-.815-.008-.272-.018-.54-.021-.811-.003-.301-.007-.601-.009-.901l.174.09.013.007.493.254.228.039 2.641.449 1.047.178 1.901.325.089 3.032.037 1.26.007.212v.031l1.146.466.071.03z" fill="#f2a196"/><path d="m708.769 161.318 3.113 2.919c.959.843 2.209 1.278 3.483 1.212l-.037-1.26-.089-3.031-1.901-.324c-.26.117-.519.235-.779.337-.776.306-1.655.189-2.408-.129-.561-.249-1.047-.641-1.408-1.137z" fill="#e88870"/><path d="m723.099 169.211c-6.333 4.876-15.165 4.837-21.454-.095l4.609-2.16c.22-.104.43-.225.63-.362l.105-.074c2.308 1.573 5.383 2.525 8.052 1.326.627-.271 1.163-.715 1.545-1.28z" fill="#845161"/><path d="m719.124 158.346c-.04.692-.151 1.378-.332 2.046-.409 1.603-1.085 3.188-1.421 3.781-.252.442-.604.528-1.16.663-1.395.319-2.859.01-4.006-.847l-3.45-2.546c-.048-.474-.13-.971-.221-1.478-.263-1.472-.604-3.031-.456-4.409.048-.391.238-.752.534-1.012.794-.752 2.274-1.094 3.196-1.327 1.385-.356 2.808-.568 4.173-.988 1.005-.312 2.09-.788 2.692-1.693 0 0 .105 1.024.128 1.258.05.482.049.901.102 1.376.051.521.019 1.047-.095 1.558-.079.354-.172.706-.238 1.062-.063.341.027.347.202.589.36.492.374 1.383.352 1.967z" fill="#f2a196"/><path d="m712.787 155.665c.578 0 .578.888 0 .893h-.025c-.578 0-.578-.888 0-.893z" fill="#00214e"/><path d="m717.537 155.532c.537.005.537.824 0 .829h-.023c-.537 0-.537-.824 0-.829z" fill="#00214e"/><path clip-rule="evenodd" d="m715.757 156.055c0-.002-.002-.012.001-.023l.091.023c.002-.007.002-.013.002-.015-.001-.003-.001-.005-.001-.006s-.001-.001-.001-.002v-.001.001l.001.001c0 .001 0 .002.001.003.003.006.007.016.013.028.009.017.021.04.035.067.006.012.012.025.019.039.046.09.111.218.183.373.145.308.32.723.441 1.154v.001c.112.462.164.935.155 1.41l-.001.046h-1.326v-.095h1.233c.004-.45-.047-.899-.153-1.337-.118-.424-.291-.833-.434-1.139-.072-.153-.136-.28-.182-.37-.007-.014-.013-.026-.019-.038-.015-.028-.026-.051-.035-.069-.007-.012-.012-.023-.015-.031-.002-.004-.004-.008-.005-.012-.001-.002-.002-.005-.003-.008z" fill="#00214e" fill-rule="evenodd"/><path d="m718.797 160.393c-.408 1.602-1.084 3.187-1.421 3.78-.252.443-.603.528-1.159.663-1.395.32-2.86.01-4.006-.846l-3.455-2.547c-.057-.558-.26-1.092-.379-1.641-.051-.249-.095-.508-.034-.758.017.131.073.255.162.353.447.608.97 1.295 1.715 1.545.776.261 1.661.301 2.41-.066.653-.32 1.293-.738 1.974-1.002.453-.187.942-.271 1.431-.247.695.048.993.361 1.502.775.166.137.353.279.568.28.246.003.483-.133.692-.289z" fill="#00214e"/><path clip-rule="evenodd" d="m716.378 160.833c-.634.281-1.349.323-2.012.117l.028-.09c.641.198 1.332.158 1.946-.113z" fill="#f2a196" fill-rule="evenodd"/><path clip-rule="evenodd" d="m714.018 154.877c-.88-.13-1.777-.105-2.648.076l-.019-.093c.882-.183 1.79-.209 2.681-.076z" fill="#00214e" fill-rule="evenodd"/><path clip-rule="evenodd" d="m718.603 154.852c-.549-.049-1.102-.01-1.639.114l-.021-.093c.547-.126 1.11-.165 1.669-.115z" fill="#00214e" fill-rule="evenodd"/><path clip-rule="evenodd" d="m714.093 159.036c-.057-.173.02-.362.182-.445l.044.084c-.121.062-.179.202-.136.331.042.129.172.207.306.185l.016.093c-.18.03-.355-.075-.412-.248z" fill="#00214e" fill-rule="evenodd"/><path d="m708.44 159.969.095-.006.063.074.203 1.309-.045.017-.068-.094z" fill="#00214e"/><rect fill="#fff" height="145.604" rx="8.05205" width="318.508" x="674.555" y="210.005"/><rect height="144.466" rx="7.48329" stroke="#000" stroke-opacity=".2" stroke-width="1.13753" width="317.371" x="675.123" y="210.573"/><text fill="#585858" font-family="sans-serif" font-size="16.1041" font-weight="600" letter-spacing="0em"><tspan x="696.277" y="273.778">Upgrade babel</tspan></text><rect fill="#15c8ff" height="8.05205" rx="4.02603" width="73.8105" x="696.277" y="231.985"/><rect fill="#ff8474" height="32.2082" rx="16.1041" width="124.807" x="739.221" y="301.77"/><text fill="#fff" font-family="sans-serif" font-size="13.4201" font-weight="500" letter-spacing="0em"><tspan x="754.602" y="321.835">Infrastructure</tspan></text><circle cx="712.381" cy="317.874" fill="#d08dba" r="16.1041"/><path d="m712.881 330.034c-1.568.1-3.089.044-4.642.018-1.767 0-3.873.46-5.196-1.079-.915-1.065-.805-2.68-.334-4.003.333-.931.826-1.883.643-2.855-.14-.736-.649-1.347-.876-2.06-.22-.695-.158-1.546.219-2.179.344-.58.897-.88 1.012-1.615.062-.404-.049-.81-.115-1.214-.535-3.307 2.142-5.622 4.78-7.01 1.618-.852 3.561-1.242 5.305-.524.129.063.267.105.409.122.131-.006.26-.023.387-.053 2.169-.32 4.979 3.548 4.38 5.51-.182.594-.468 1.21-.307 1.811.238.884 1.354 1.354 1.492 2.26.15.976-.942 1.851-.727 2.816.127.569.668.94 1.011 1.414.257.361.404.789.423 1.232.013.273-.024.547-.109.807-.256.772-.934 1.474-.764 2.274.2.947 1.421 1.282 1.357 2.36-.035.576-.54 1.022-1.073 1.241-.384.145-.78.257-1.182.336-.298.066-.56.006-.858.036-.828.085-1.644.215-2.478.262-.913.045-1.839.034-2.757.093z" fill="url(#k)"/><path d="m723.099 329.493c-6.333 4.876-15.165 4.837-21.454-.094l4.609-2.161c.141-.067.279-.141.412-.222l.106-.066c.038-.024.075-.048.112-.074.582-.401 1.058-.936 1.39-1.56.379-.715.504-1.505.509-2.311 0-.541-.029-1.083-.035-1.626-.003-.301-.007-.601-.009-.901l.189.095.493.255 2.869.487 2.948.503.089 3.031.045 1.503 1.086.443.853.344z" fill="#e18477"/><path d="m715.323 324.065c-.258.159-.502.234-.715.211-1.401-.15-4.134-1.248-5.854-3.28 0-.099-.002-.199-.006-.299-.004-.3-.007-.6-.009-.901l.189.095.493.255 2.869.488 2.948.502z" fill="#a76962"/><path d="m707.98 317.423c0 .89-.721 1.611-1.61 1.611-.89 0-1.611-.721-1.611-1.611 0-.889.721-1.61 1.611-1.61.889 0 1.61.721 1.61 1.61z" fill="#e18477"/><path d="m708.549 317.233c0 .89-.721 1.611-1.61 1.611-.89 0-1.611-.721-1.611-1.611 0-.889.721-1.61 1.611-1.61.889 0 1.61.721 1.61 1.61z" fill="#a76962"/><path d="m717.316 315.011c1.112 3.854-1.251 8.515-2.704 8.515-1.989 0-6.821-1.589-7.932-5.443-1.111-3.855.371-7.668 3.307-8.515 2.937-.848 6.216 1.589 7.329 5.443z" fill="#e18477"/><path d="m711.117 315.68c.578 0 .578.889 0 .893h-.026c-.578 0-.578-.888 0-.893z" fill="#00214e"/><path d="m715.861 315.548c.537 0 .537.824 0 .829h-.024c-.536 0-.536-.825 0-.829z" fill="#00214e"/><path d="m713.784 310.339c-.011.026-.022.052-.035.079-.277.586-.642 1.126-1.083 1.602-.877.966-1.974 1.72-3.113 2.346-.657.375-1.337.708-2.035.999-1.007.4-1.86.6-1.888.629-.088-1.127-.704-3.489 2.351-5.803 2.463-1.863 6.034-1.717 6.034-1.717-.012.702.046 1.221-.231 1.865z" fill="url(#l)"/><path clip-rule="evenodd" d="m713.767 315.193c0-.001 0-.007.001-.015l.093.022c.001-.005.001-.008.001-.009 0-.002 0-.003 0-.003 0-.001 0-.001 0-.001 0 .001 0 .003.001.007.001.007.003.017.006.03.005.026.013.064.024.113.021.096.051.232.088.394.074.325.173.755.273 1.184.099.429.199.857.274 1.178.037.161.068.294.09.388l.035.146s0 0-.047.011l.047-.011.013.059h-1.244v-.095h1.125l-.021-.089c-.022-.093-.053-.227-.09-.387-.075-.321-.175-.749-.274-1.178-.1-.429-.199-.86-.273-1.185-.037-.162-.068-.298-.089-.395-.01-.048-.019-.087-.024-.114-.003-.014-.005-.025-.007-.033 0-.004-.001-.008-.001-.011 0-.002-.001-.004-.001-.006z" fill="#00214e" fill-rule="evenodd"/><path clip-rule="evenodd" d="m717.052 314.064c-.71-.206-1.472-.134-2.13.201l-.043-.084c.68-.347 1.466-.421 2.199-.208z" fill="#00214e" fill-rule="evenodd"/><path clip-rule="evenodd" d="m712.619 314.523c-.938-.406-2.008-.371-2.918.093l-.043-.084c.935-.478 2.035-.513 2.999-.096z" fill="#00214e" fill-rule="evenodd"/><path d="m723.099 329.494c-6.333 4.876-15.165 4.837-21.454-.095l4.609-2.161c.22-.103.43-.224.63-.362.061-.041.121-.085.179-.13.502-.384.915-.872 1.211-1.43.224-.428.372-.892.439-1.371.067.064.137.126.211.183.58.43 1.211.788 1.877 1.067.324.135.654.252.991.35 1.014.295 2.073.407 3.126.33.146-.011.293-.025.439-.036l.014.481v.032l1.146.466z" fill="url(#m)"/><path d="m706.97 310.944c.09-.237.357-.357.594-.266l1.623.621c.237.091.356.358.265.595-.091.238-.357.357-.595.266l-1.622-.621c-.238-.091-.356-.357-.265-.595z" fill="#ff2609"/><path d="m706.339 312.349c.091-.237.357-.357.595-.266l1.623.621c.237.091.356.358.265.595-.091.238-.357.357-.595.266l-1.623-.621c-.237-.091-.356-.357-.265-.595z" fill="#f2d4cf"/><path d="m711.353 319.325c.026-.042.068-.071.116-.08.048-.01.098.002.138.031.197.14.557.432 1.068.535.697.138 1.303-.141 1.447.039.081.102-.018.225-.209.384-.403.301-.91.426-1.407.349-.671-.125-1.175-.903-1.175-1.178 0-.028.007-.056.022-.08z" fill="#fff"/></g></svg>