<svg fill="none" height="572" viewBox="0 0 993 572" width="993" xmlns="http://www.w3.org/2000/svg" xmlns:xlink="http://www.w3.org/1999/xlink"><linearGradient id="a"><stop offset="0" stop-color="#16243f"/><stop offset="1" stop-color="#6878b1"/></linearGradient><linearGradient id="b" gradientUnits="userSpaceOnUse" x1="6.53888" x2="32.5208" xlink:href="#a" y1="115.534" y2="115.534"/><linearGradient id="c" gradientUnits="userSpaceOnUse" x1="18.3675" x2="40.3153" xlink:href="#a" y1="505.058" y2="485.493"/><linearGradient id="d" gradientUnits="userSpaceOnUse" x1="14.8" x2="23.1471" xlink:href="#a" y1="478.055" y2="469.207"/><linearGradient id="e"><stop offset="0" stop-color="#315676"/><stop offset="1" stop-color="#e1b9e0"/></linearGradient><linearGradient id="f" gradientUnits="userSpaceOnUse" x1="6.50079" x2="32.4827" xlink:href="#e" y1="494.974" y2="494.974"/><linearGradient id="g" gradientUnits="userSpaceOnUse" x1="6.65955" x2="29.2136" xlink:href="#e" y1="227.313" y2="227.313"/><linearGradient id="h" gradientUnits="userSpaceOnUse" x1="16.1078" x2="32.1115" y1="228.215" y2="212.746"><stop offset="0" stop-color="#315676"/><stop offset=".21" stop-color="#516889"/><stop offset=".67" stop-color="#a296ba"/><stop offset="1" stop-color="#e1b9e0"/></linearGradient><path clip-rule="evenodd" d="m716.173 223.978c3.361.128 8.454 1.522 12.696 5.296 4.214 3.75 7.651 9.903 7.651 19.687v.146.148.148.148.149.15.15.15.151.152.152.153.154.154.154.155.155.156.157.157.158.158.158.159.16.16.16.162.161.162.163.163.163.164.165.165.165.166.166.167.167.168.168.168.169.17.17.17.171.171.172.172.172.173.173.174.174.175.175.175.176.176.176.177.177.178.178.178.179.179.18.18.18.18.181.182.181.182.183.182.183.184.183.184.185.184.185.185.186.186.186.187.186.188.187.188.188.188.188.189.189.19.189.19.191.19.191.191.191.191.192.192.192.193.192.193.193.194.193.194.194.195.194.195.195.195.195.195.196.196.196.196.197.196.197.197.197.198.197.198.197.198.198.199.198.199.198.199.199.199.199.2.199.2.199.2.2.2.2.2.201.2.201.2.201.201.201.201.201.201.201.201.202.201.201.202.201.202.202.201.202.202.202.201.202.202.202.202.202.202.202.202.202.202.202.202.202.202.201.202.202.202.202.202.202.201.202.202.201.202.202.201.202.201.201.202.201.201.201.201.201.201.2.201.201.2.201.2.2.2.2.2.2.199.2.199.199.2.199.198.199.199.198.198.199.198.197.198.198.197.197.197.197.197.196.197.196.196.195.196.195.195.195.195.195.194.194.194.194.193.194.193.192.193.192.192.192.192.191.191.191.19.191.19.189.19.189.189.189.188.188.188.188.187.187.186.187.186.185.186.185.185.184.184.184.183.184.182.183.182.182.181.181.181.18.18.18.179.179.179.178.178.177.177.177.176.176.175.175.175.174.174.174.173.172.172.172.172.17.171.17.17.169.169.168.168.167.167.167.166.165.165.165.164.164.163.163.162.162.161.161.16.16.159.159.158.158.157.157.156.156.155.155.154.153.153.153.152.151.151.15.15.149.149.148.147.147.147.145.146.144.144.144.143.142.142.141.14.14.139.139.138.137.137.136.136.135.134.134.133.132.132.131.13.13.129.129.128.127.126.126.125.125.123.123.123.122.121.12.12.119.118.117.117.116.116.114.114.114.112.112.111.11.11.109.108.107.107.105.106.104.103.103.102.102.1.1.099.098.097.097.095.095.095.093.093.091.091.091.089.088.088.087.086.085.085.083.083.082.081.08.079.079.077.077.076.075.074.074.072.071.071.07.069.068.067.066.065.065.063.063.062.06.06.059.058.057.057.055.054.053.053l-.001.293v.292.292.292.291.292.291.29.291.29.29.289.29.289.288.289.288.288.287.287.287.287.286.286.286.285.286.285.284.284.284.284.283.284.282.283.282.282.282.281.281.281.28.28.28.28.279.279.279.278.278.278.277.277.277.277.276.276.275.276.275.274.275.274.274.273.273.273.273.272.272.271.272.271.27.271.27.27.269.269.269.269.268.268.267.268.267.266.267.266.265.266.265.265.264.264.264.264.263.263.262.262.262.262.261.261.261.26.26.26.259.259.259.258.258.258.257.257.257.257.256.256.255.255.255.255.254.254.253.253.253.253.252.252.251.252.25.251.25.25.25.249.249.248.249.248.247.247.247.247.246.246.246.245.245.244.244.244.244.243.243.243.242.242.241.241.241.241.24.24.239.239.239.239.238.237.238.237.237.236.236.236.235.235.235.234.234.234.233.233.233.232.232.232.231.231.23.23.23.23.229.228.229.228.228.227.227.227.226.226.225.226.225.224.224.224.223.224.222.223.222.221.222.221.22.221.219.22.219.219.218.218.218.217.217.217.216.216.216.215.215.214.214.214.213.213.213.212.212.212.211.211.21.21.21.209.209.209.208.208.207.207.207.206.206.206.205.205.205.204.204.203.203.203.202.202.201.201.201.2.2.2.199.199.199.198.198.197.197.196.197.195.196.195.195.194.194.193.194.192.193.192.191.192.191.19.19.19.189.189.189.188.187.188.187.186.187.185.186.185.185.184.184.183.183.183.182.182.182.181.181.18.18.179.18.178.179.178.177.177.177.177.176.175.175.175.175.174.173.173.173.173.172.171.171.171.171.17.169.169.169.169.167.168.167.167.166.166.166.165.165.164.164.163.164.162.163.161.162.161.161.16.16.159.159.159.158.158.157.157.157.156.155.156.155.154.154.154.153.153.152.152.152.151.15.151.15.149.149.149.148.148.147.147.147.146.145.146.145.144.144.143.144.142.143.142.141.141.141.14.14.139.139.138.138.138.137.137.136.136.135.135.135.134.134.133.133.133.132.131.131.131.13.13.13.129.128.128.128.127.127.126.126.126.125.125.124.124.123.123.122.122.122.121.12.121.119.12.119.118.118.118.117.117.116.116.115.115.114.114.114.113.113.112.112.111.111.111.11.109.109.109.108.108.107.107.106.106.106.105.104.105.018c0 5.57 0 10.823.32 15.554.319 4.734.961 9 2.269 12.585 1.313 3.598 3.308 6.539 6.343 8.569 3.028 2.027 7.009 3.091 12.196 3.091h6.977l-3.784 3.784c-.318.318-.318.832 0 1.149.317.318.832.318 1.149 0l5.171-5.171c.318-.317.318-.832 0-1.149l-5.171-5.171c-.317-.318-.832-.318-1.149 0-.318.317-.318.831 0 1.149l3.784 3.784h-6.977c-4.97 0-8.607-1.019-11.293-2.816-2.679-1.793-4.493-4.415-5.719-7.776-1.231-3.374-1.859-7.464-2.175-12.137-.315-4.671-.315-9.872-.315-15.463v-.105-.104-.105-.106-.106-.106-.107-.107-.108-.108-.109-.109-.109-.11-.111-.111-.111-.112-.112-.113-.113-.114-.114-.114-.115-.115-.116-.116-.117-.117-.118-.118-.118-.119-.12-.119-.121-.12-.121-.122-.122-.122-.123-.123-.124-.124-.125-.125-.126-.126-.126-.127-.127-.128-.128-.128-.129-.13-.13-.13-.131-.131-.131-.132-.133-.133-.133-.134-.134-.135-.135-.135-.136-.136-.137-.137-.138-.138-.138-.139-.139-.14-.14-.141-.141-.141-.142-.143-.142-.144-.143-.144-.144-.145-.146-.145-.146-.147-.147-.147-.148-.148-.149-.149-.149-.15-.151-.15-.151-.152-.152-.152-.153-.153-.154-.154-.154-.155-.156-.155-.156-.157-.157-.157-.158-.158-.159-.159-.159-.16-.16-.161-.161-.162-.161-.163-.162-.164-.163-.164-.164-.165-.165-.166-.166-.166-.167-.167-.168-.167-.169-.169-.169-.169-.17-.171-.171-.171-.171-.172-.173-.173-.173-.173-.174-.175-.175-.175-.175-.176-.177-.177-.177-.177-.178-.179-.178-.18-.179-.18-.18-.181-.181-.182-.182-.182-.183-.183-.183-.184-.184-.185-.185-.186-.185-.187-.186-.187-.188-.187-.188-.189-.189-.189-.19-.19-.19-.191-.192-.191-.192-.193-.192-.194-.193-.194-.194-.195-.195-.196-.195-.197-.196-.197-.197-.198-.198-.199-.199-.199-.2-.2-.2-.201-.201-.201-.202-.202-.203-.203-.203-.204-.204-.205-.205-.205-.206-.206-.206-.207-.207-.207-.208-.208-.209-.209-.209-.21-.21-.21-.211-.211-.212-.212-.212-.213-.213-.213-.214-.214-.214-.215-.215-.216-.216-.216-.217-.217-.217-.218-.218-.218-.219-.219-.22-.219-.221-.22-.221-.222-.221-.222-.223-.222-.224-.223-.224-.224-.224-.225-.226-.225-.226-.226-.227-.227-.227-.228-.228-.229-.228-.229-.23-.23-.23-.23-.231-.231-.232-.232-.232-.233-.233-.233-.234-.234-.234-.235-.235-.235-.236-.236-.236-.237-.237-.238-.237-.238-.239-.239-.239-.239-.24-.24-.241-.241-.241-.241-.242-.242-.243-.243-.243-.244-.244-.244-.244-.245-.245-.246-.246-.246-.247-.247-.247-.247-.248-.249-.248-.249-.249-.25-.25-.25-.251-.25-.252-.251-.252-.252-.253-.253-.253-.253-.254-.254-.255-.255-.255-.255-.256-.256-.257-.257-.257-.257-.258-.258-.258-.259-.259-.259-.26-.26-.26-.261-.261-.261-.262-.262-.262-.262-.263-.263-.264-.264-.264-.264-.265-.265-.266-.265-.266-.267-.266-.267-.268-.267-.268-.268-.269-.269-.269-.269-.27-.27-.271-.27-.271-.272-.271-.272-.272-.273-.273-.273-.273-.274-.274-.275-.274-.275-.276-.275-.276-.276-.277-.277-.277-.277-.278-.278-.278-.279-.279-.279-.28-.28-.28-.28-.281-.281-.281-.282-.282-.282-.283-.282-.284-.283-.284-.284-.284-.284-.285-.286-.285-.286-.286-.286-.287-.287-.287-.287-.288-.288-.289-.288-.289-.29-.289-.29-.29-.291-.29-.291-.292-.291-.292-.292-.292-.293-.053-.053-.054-.055-.057-.057-.058-.059-.06-.06-.062-.063-.063-.065-.065-.066-.067-.068-.069-.07-.071-.071-.072-.074-.074-.075-.076-.077-.077-.079-.079-.08-.081-.082-.083-.083-.085-.085-.086-.087-.088-.088-.089-.091-.091-.091-.093-.093-.095-.095-.095-.097-.097-.098-.099-.1-.1-.102-.102-.103-.103-.104-.106-.105-.107-.107-.108-.109-.11-.11-.111-.112-.112-.114-.114-.114-.116-.116-.117-.117-.118-.119-.12-.12-.121-.122-.123-.123-.123-.125-.125-.126-.126-.127-.128-.129-.129-.13-.13-.131-.132-.132-.133-.134-.134-.135-.136-.136-.137-.137-.138-.139-.139-.14-.14-.141-.142-.142-.143-.144-.144-.144-.146-.145-.147-.147-.147-.148-.149-.149-.15-.15-.151-.151-.152-.153-.153-.153-.154-.155-.155-.156-.156-.157-.157-.158-.158-.159-.159-.16-.16-.161-.161-.162-.162-.163-.163-.164-.164-.165-.165-.165-.166-.167-.167-.167-.168-.168-.169-.169-.17-.17-.171-.17-.172-.172-.172-.172-.173-.174-.174-.174-.175-.175-.175-.176-.176-.177-.177-.177-.178-.178-.179-.179-.179-.18-.18-.18-.181-.181-.181-.182-.182-.183-.182-.184-.183-.184-.184-.184-.185-.185-.186-.185-.186-.187-.186-.187-.187-.188-.188-.188-.188-.189-.189-.189-.19-.189-.19-.191-.19-.191-.191-.191-.192-.192-.192-.192-.193-.192-.193-.194-.193-.194-.194-.194-.194-.195-.195-.195-.195-.195-.196-.195-.196-.196-.197-.196-.197-.197-.197-.197-.197-.198-.198-.197-.198-.199-.198-.198-.199-.199-.198-.199-.2-.199-.199-.2-.199-.2-.2-.2-.2-.2-.2-.201-.2-.201-.201-.2-.201-.201-.201-.201-.201-.201-.202-.201-.201-.202-.201-.202-.202-.201-.202-.202-.201-.202-.202-.202-.202-.202-.202-.201-.202-.202-.202-.202-.202-.202-.202-.202-.202-.202-.202-.202-.202-.202-.201-.202-.202-.202-.201-.202-.202-.201-.202-.201-.201-.202-.201-.201-.201-.201-.201-.201-.201-.201-.2-.201-.2-.201-.2-.2-.2-.2-.2-.199-.2-.199-.2-.199-.199-.199-.199-.198-.199-.198-.199-.198-.198-.197-.198-.197-.198-.197-.197-.197-.196-.197-.196-.196-.196-.196-.195-.195-.195-.195-.195-.194-.195-.194-.194-.193-.194-.193-.193-.192-.193-.192-.192-.192-.191-.191-.191-.191-.19-.191-.19-.189-.19-.189-.189-.188-.188-.188-.188-.187-.188-.186-.187-.186-.186-.186-.185-.185-.184-.185-.184-.183-.184-.183-.182-.183-.182-.181-.182-.181-.18-.18-.18-.18-.179-.179-.178-.178-.178-.177-.177-.176-.176-.176-.175-.175-.175-.174-.174-.173-.173-.172-.172-.172-.171-.171-.17-.17-.17-.169-.168-.168-.168-.167-.167-.166-.166-.165-.165-.165-.164-.163-.163-.163-.162-.161-.162-.16-.16-.16-.159-.158-.158-.158-.157-.157-.156-.155-.155-.154-.154-.154-.153-.152-.152-.151-.15-.15-.15-.149-.148-.148-.148-.146c0-10.208-3.606-16.818-8.196-20.901-4.561-4.058-10.031-5.566-13.714-5.706z" fill="#9e9e9e" fill-rule="evenodd"/><rect fill="#15c8ff" height="68.2586" rx="9.75123" width="133.267" x="349.419" y="62"/><text fill="#fff" font-family="sans-serif" font-size="19.5025" font-weight="600" letter-spacing="0em"><tspan x="375.422" y="104.047">Meeting</tspan></text><rect fill="#15c8ff" height="68.2586" rx="9.75123" width="133.267" x="598.075" y="62"/><text fill="#fff" font-family="sans-serif" font-size="19.5025" font-weight="600" letter-spacing="0em"><tspan x="624.079" y="104.047">Meeting</tspan></text><path d="m597.025 96.704c.317-.3173.317-.8319 0-1.1492l-5.172-5.1714c-.317-.3173-.832-.3173-1.149 0-.317.3174-.317.8319 0 1.1492l4.597 4.5968-4.597 4.5966c-.317.318-.317.832 0 1.149.317.318.832.318 1.149 0zm-114.339.238h113.764v-1.6252h-113.764z" fill="#9e9e9e"/><path d="m349.419 71.7512c0-5.3854 4.366-9.7512 9.751-9.7512h68.259v68.259h-68.259c-5.385 0-9.751-4.366-9.751-9.752z" fill="#fff" fill-opacity=".25"/><path d="m348.877 198.751c0-5.385 4.366-9.751 9.751-9.751h347.794c5.386 0 9.751 4.366 9.751 9.751v48.756c0 5.386-4.365 9.752-9.751 9.752h-347.794c-5.385 0-9.751-4.366-9.751-9.752z" fill="#0076f8"/><path d="m350.07 198.517c0-5.385 4.366-9.751 9.751-9.751h253.796v68.258h-253.796c-5.385 0-9.751-4.365-9.751-9.751z" fill="#fff" fill-opacity=".25"/><text fill="#fff" font-family="sans-serif" font-size="19.5025" font-weight="600" letter-spacing="0em"><tspan x="375.113" y="230.047">Introduction</tspan></text><rect fill="#45e9cd" height="68.2586" rx="9.75123" width="487.561" x="505.439" y="316"/><path d="m505.439 325.283c0-5.385 4.365-9.751 9.751-9.751h235.654v68.259h-235.654c-5.386 0-9.751-4.366-9.751-9.752z" fill="#fff" fill-opacity=".25"/><text fill="#fff" font-family="sans-serif" font-size="19.5025" font-weight="600" letter-spacing="0em"><tspan x="531.442" y="357.047">Conference</tspan></text><rect fill="#ff8474" height="68.2586" rx="9.75123" width="225.903" x="767.097" y="442"/><text fill="#fff" font-family="sans-serif" font-size="19.5025" font-weight="600" letter-spacing="0em"><tspan x="793.1" y="484.047">Contract</tspan></text><rect fill="#ff8474" height="68.2586" rx="9.75123" width="359.17" x="349.419" y="442"/><path d="m349.419 452.049c0-5.385 4.366-9.751 9.751-9.751h264.909v68.258h-264.909c-5.385 0-9.751-4.365-9.751-9.751z" fill="#fff" fill-opacity=".25"/><text fill="#fff" font-family="sans-serif" font-size="19.5025" font-weight="600" letter-spacing="0em"><tspan x="375.422" y="484.047">House Keeping</tspan></text><circle cx="19.5025" cy="96.5025" fill="#c1e0ec" r="19.5025"/><path d="m32.5208 111.138c-7.6689 5.905-18.3655 5.858-25.98192-.114l5.58232-2.617c.2658-.125.521-.272.7629-.438.0734-.051.1468-.104.2168-.159.6075-.465 1.1076-1.055 1.4661-1.731.2717-.521.4517-1.085.5323-1.667.056-.376.0844-.756.0849-1.137 0-.656-.0356-1.312-.0424-1.969-.0046-.364-.0084-.728-.0115-1.091l.2294.114.5966.309.2765.047 3.1984.544 3.5701.608.1078 3.671.0356 1.2.0172.583v.037l1.3881.565z" fill="#f2a196"/><path d="m32.5208 111.138c-7.6689 5.905-18.3655 5.857-25.98192-.115l5.58232-2.617c.2658-.125.521-.271.7629-.438.0734-.05.1468-.103.2168-.158 2.7017 1.923 6.3888 3.135 9.578 1.7.7594-.344 1.4569-.899 1.8699-1.613z" fill="url(#b)"/><path d="m23.1596 107.294c-1.1988.072-2.4091-.858-3.6596-1.578-2.3414-1.352-3.7192-3.09-3.2695-5.024l3.1984.543 3.5701.608.1078 3.672z" fill="#e88870"/><path d="m28.659 88.8631c.5897 2.2944-.3705 4.4396-1.2963 6.539-1.1713 2.6535-2.8531 2.969-5.4205 3.8454-.5736.1974-6.7938 1.9645-6.7938 2.3495 0-.084-.6092-.688-1.3766-1.424-2.7533-2.6141-3.6585-6.6534-2.0203-10.118 2.1797-4.6014 8.6752-5.424 13.1332-4.3055 1.5373.3855 3.0378.9935 3.6149 2.587.0596.1767.1135.3522.1594.5266z" fill="#00214e"/><path d="m15.9515 97.0066c0 1.0771-.8732 1.9503-1.9503 1.9503s-1.9502-.8732-1.9502-1.9503.8731-1.9502 1.9502-1.9502 1.9503.8731 1.9503 1.9502z" fill="#f2a196"/><path d="m16.3668 97.0065c0 .9644-.7818 1.7461-1.7461 1.7461s-1.746-.7817-1.746-1.7461c0-.9643.7817-1.746 1.746-1.746s1.7461.7817 1.7461 1.746z" fill="#e88870"/><path d="m14.6459 95.1669.5024 6.5391 7.6221 4.453c1.0942.409 2.3199-.081 2.8313-1.131 1.0967-2.246 2.8565-5.792 2.6248-7.1124-.3442-1.9503-1.262-2.6386-1.262-2.6386l.3821-2.2875c.1434-.8616.3281-1.761.1147-2.6271-.2444-.9923-.9946-1.4168-1.6118-2.159-1.6245 2.0925-4.2952 3.2752-6.6274 4.4741-1.2034.6332-4.5762 2.4894-4.5762 2.4894z" fill="#f2a196"/><path clip-rule="evenodd" d="m23.1403 94.6192c-.0001-.0002-.002-.0109.0009-.023l.1116.0263c.0018-.0074.0015-.0133.0015-.0149-.0001-.0024-.0004-.0041-.0005-.0049-.0001-.0012-.0003-.0019-.0003-.0019v.0002c.0003.0009.0009.0032.0021.0073.0023.008.0062.0199.0115.0358.0106.0317.0265.0773.0472.1352.0411.1157.1005.2791.1722.4742.1432.3901.335.9068.5271 1.4223.1922.5154.3846 1.0297.529 1.4151.0722.1927.1324.3532.1745.4655l.0663.1764s0 0-.0537.0202l.0537-.0202.0276.0737-2.1366.1048-.0056-.1146 1.9795-.0971-.0386-.1029c-.0421-.1123-.1023-.2728-.1745-.4655-.1444-.3855-.3369-.8998-.5291-1.4154-.1921-.5155-.384-1.0324-.5273-1.4228-.0717-.1952-.1312-.3589-.1726-.4752-.0207-.0581-.0369-.1046-.0479-.1373-.0054-.0163-.0098-.0296-.0127-.0395-.0014-.0048-.0028-.0096-.0038-.0138-.0004-.002-.001-.0048-.0015-.008z" fill="#00214e" fill-rule="evenodd"/><path clip-rule="evenodd" d="m21.5424 93.7806c-1.066-.1584-2.1516-.1279-3.2071.09l-.0232-.1123c1.0687-.2207 2.1678-.2515 3.2471-.0912z" fill="#00214e" fill-rule="evenodd"/><path clip-rule="evenodd" d="m27.0941 93.7455c-.6645-.059-1.334-.0126-1.9839.1376l-.0258-.1118c.6616-.1529 1.3434-.2002 2.0198-.1401z" fill="#00214e" fill-rule="evenodd"/><path d="m20.562 100.001c.0317-.05.0829-.0846.1412-.0955.0584-.0109.1186.003.1663.0383.2386.1672.6745.5232 1.294.6462.8444.168 1.5763-.17 1.7518.048.0986.123-.0218.273-.2524.465-.4879.365-1.1026.517-1.7047.423-.8122-.153-1.4226-1.093-1.4226-1.427 0-.035.0091-.068.0264-.098z" fill="#fff"/><path d="m20.198 94.9502c.7009 0 .7009 1.0761 0 1.0818h-.031c-.6998 0-.6998-1.0761 0-1.0818z" fill="#00214e"/><path d="m25.9548 94.7905c.6493.0058.6493.9981 0 1.0038h-.0287c-.6505 0-.6505-.998 0-1.0038z" fill="#00214e"/><path d="m25.9347 86.0913c-2.4122.0459-4.8108.3732-7.1471.9751-2.3463.5721-4.6178 1.416-6.7685 2.5147.5117-2.3667 2.8554-4.551 6.0504-5.3529 3.1949-.8019 6.2912.0195 7.8652 1.8631z" fill="#845161"/><text fill="#585858" font-family="sans-serif" font-size="19.5025" font-weight="600" letter-spacing="0em"><tspan x="78.0098" y="104.047">Robert Levin</tspan></text><text fill="#585858" font-family="sans-serif" font-size="19.5025" font-weight="600" letter-spacing="0em"><tspan x="78.0098" y="484.047">Anika Mango</tspan></text><circle cx="19.5025" cy="476.502" fill="#d08dba" r="19.5025"/><path d="m20.1053 491.228c-1.8986.122-3.7399.054-5.6213.022-2.1395 0-4.68978.557-6.29242-1.307-1.1082-1.289-.97512-3.245-.40381-4.847.40266-1.127 1.00036-2.28.7778-3.457-.16864-.892-.78583-1.632-1.06002-2.495-.26729-.843-.19158-1.873.26501-2.639.41643-.702 1.0864-1.066 1.22521-1.956.07572-.489-.05965-.981-.13881-1.47-.64817-4.004 2.59384-6.808 5.78874-8.489 1.9595-1.032 4.3124-1.505 6.4244-.635.1555.077.3232.127.4956.148.1577-.007.3144-.029.468-.065 2.6271-.387 6.0297 4.298 5.3047 6.674-.2203.719-.5667 1.465-.3717 2.192.288 1.071 1.6394 1.64 1.8069 2.737.1812 1.183-1.1415 2.242-.8811 3.411.1537.688.8088 1.138 1.2241 1.713.3117.437.4898.955.5128 1.491.016.331-.0287.662-.132.977-.3097.935-1.1311 1.785-.9258 2.754.2433 1.147 1.7209 1.553 1.644 2.858-.0425.698-.6539 1.238-1.2998 1.503-.4649.176-.9438.312-1.4317.406-.3602.081-.678.008-1.0382.045-1.0027.102-1.9916.259-3.0011.317-1.1059.055-2.2267.041-3.3395.112z" fill="url(#c)"/><path d="m32.4827 490.574c-7.6689 5.905-18.3655 5.858-25.98191-.115l5.58231-2.617c.1709-.08.3374-.17.499-.268l.1285-.08c.0459-.029.0906-.059.1354-.09.7043-.486 1.2814-1.134 1.6829-1.889.4589-.866.6103-1.823.6172-2.798 0-.656-.0355-1.313-.0424-1.97-.0046-.364-.0084-.728-.0115-1.091l.2294.115.5966.308 3.4749.591 3.5701.608.1078 3.671.0539 1.821 1.3159.536 1.0325.417z" fill="#e18477"/><path d="m23.0633 484c-.312.193-.6068.283-.865.256-1.6967-.183-5.0064-1.512-7.0897-3.973 0-.12-.0023-.241-.0069-.361-.0045-.364-.0084-.727-.0114-1.091l.2294.114.5966.309 3.4748.591 3.5701.608z" fill="#a76962"/><path d="m14.1723 475.957c0 1.077-.8732 1.95-1.9503 1.95s-1.9502-.873-1.9502-1.95.8731-1.95 1.9502-1.95 1.9503.873 1.9503 1.95z" fill="#e18477"/><path d="m14.8643 475.727c0 1.077-.8732 1.95-1.9502 1.95-1.0771 0-1.9503-.873-1.9503-1.95s.8732-1.95 1.9503-1.95c1.077 0 1.9502.873 1.9502 1.95z" fill="#a76962"/><path d="m25.4777 473.035c1.3469 4.668-1.5143 10.312-3.2741 10.312-2.4091 0-8.2598-1.924-9.6055-6.592s.4485-9.285 4.0049-10.312c3.5563-1.027 7.5268 1.925 8.8747 6.592z" fill="#e18477"/><path d="m17.9708 473.845c.6998 0 .6998 1.077 0 1.081h-.0321c-.6998 0-.6998-1.075 0-1.081z" fill="#00214e"/><path d="m23.7193 473.686c.6504 0 .6504.998 0 1.004h-.0287c-.6493 0-.6493-.999 0-1.004z" fill="#00214e"/><path d="m21.2028 467.378c-.0138.031-.0276.063-.0425.095-.3358.71-.7784 1.364-1.3124 1.94-1.0612 1.17-2.3908 2.083-3.7697 2.842-.7955.453-1.6185.857-2.4642 1.209-1.2195.485-2.2531.727-2.2864.761-.1067-1.364-.8523-4.225 2.8474-7.026 2.9827-2.257 7.3065-2.08 7.3065-2.08-.0137.85.0562 1.479-.2787 2.259z" fill="url(#d)"/><path clip-rule="evenodd" d="m21.1834 473.256c0-.001-.0006-.009.0014-.017l.1119.025c.0012-.005.0013-.01.0013-.011.0001-.002 0-.003 0-.003-.0001-.001-.0001-.001-.0001-.001.0002.001.0006.004.0013.008.0014.008.0038.02.007.036.0065.032.0164.079.0292.137.0255.117.0625.281.1073.478.0894.394.2096.914.33 1.434.1205.519.2412 1.038.3318 1.426.0453.194.0831.356.1096.469l.0416.178s0 0-.0559.013l.0559-.013.0164.071h-1.5063v-.115h1.3617l-.0251-.107c-.0265-.114-.0643-.275-.1096-.47-.0906-.388-.2114-.907-.3318-1.426-.1205-.52-.2407-1.041-.3302-1.434-.0447-.197-.0819-.362-.1075-.479-.0128-.059-.0228-.106-.0295-.139-.0033-.016-.0059-.03-.0076-.039-.0009-.005-.0016-.01-.0021-.014-.0002-.002-.0005-.004-.0007-.007z" fill="#00214e" fill-rule="evenodd"/><path clip-rule="evenodd" d="m25.1589 471.888c-.8595-.249-1.7819-.162-2.5794.244l-.052-.102c.8235-.42 1.7759-.51 2.6634-.252z" fill="#00214e" fill-rule="evenodd"/><path clip-rule="evenodd" d="m19.7936 472.444c-1.1359-.491-2.4317-.45-3.5339.113l-.0521-.102c1.1326-.578 2.4642-.621 3.6315-.116z" fill="#00214e" fill-rule="evenodd"/><path d="m32.4827 490.574c-7.6689 5.905-18.3655 5.858-25.98191-.115l5.58231-2.616c.2658-.125.521-.272.7629-.439.0734-.05.1468-.103.2168-.158.6075-.465 1.1076-1.055 1.4661-1.731.2711-.519.4511-1.081.5323-1.661.0811.078.1661.153.2547.222.7034.52 1.4668.954 2.2738 1.292.3917.163.7924.305 1.1999.423 1.228.358 2.5101.494 3.7858.401.1767-.014.3545-.031.5312-.044l.0172.583v.038l1.3881.564z" fill="url(#f)"/><path d="m12.9482 468.11c.11-.287.4326-.432.7202-.322l1.965.752c.2876.11.4313.433.3212.721-.11.287-.4326.432-.7202.322l-1.965-.752c-.2876-.11-.4313-.433-.3212-.721z" fill="#ff2609"/><path d="m12.1864 469.812c.11-.288.4326-.432.7202-.322l1.965.752c.2876.11.4313.433.3213.72-.1101.288-.4326.432-.7202.322l-1.965-.752c-.2876-.11-.4314-.433-.3213-.72z" fill="#f2d4cf"/><path d="m18.2592 478.259c.0313-.051.0824-.086.1408-.097.0585-.011.1189.003.1666.039.2386.168.6746.523 1.2941.647.8443.167 1.5774-.17 1.7517.048.0987.123-.0218.272-.2524.464-.4883.365-1.1028.517-1.7047.423-.8122-.152-1.4225-1.094-1.4225-1.426-.0002-.035.009-.068.0264-.098z" fill="#fff"/><text fill="#585858" font-family="sans-serif" font-size="19.5025" font-weight="600" letter-spacing="0em"><tspan x="78.0098" y="357.047">Cristopher Korsgaard</tspan></text><circle cx="19.5025" cy="349.502" fill="#a88e84" r="19.5025"/><path d="m32.4827 364.052c-7.6689 5.905-18.3655 5.858-25.98191-.114l5.58231-2.617c.2658-.125.521-.272.7629-.438.0734-.051.1468-.104.2168-.159.6075-.464 1.1076-1.055 1.4661-1.731.2711-.519.4511-1.081.5323-1.661.0561-.376.0844-.756.0849-1.137 0-.656-.0355-1.312-.0424-1.969-.0046-.364-.0084-.727-.0115-1.091l.2294.114.5966.309.2765.047 3.1984.544 3.5701.608.1078 3.671.0356 1.2.0172.582v.036l1.3881.564z" fill="#f2a196"/><path d="m23.1109 359.974c-.3943.068-.7999.005-1.1552-.179l-6.8419-5.596c-.0081-.259-.015.013-.0184-.246-.0046-.364-.0084-.727-.0115-1.091l.2295.114.5965.309.2765.047 3.1984.544 3.5701.608.1078 3.671.0356 1.2.0172.583v.037z" fill="#e88870"/><path d="m32.4827 364.053c-7.6689 5.905-18.3655 5.858-25.98191-.115l5.58231-2.616c.2658-.125.521-.272.7629-.439.0734-.05.1468-.103.2168-.158 2.7017 1.923 6.3888 3.135 9.578 1.7.7595-.344 1.457-.899 1.87-1.613z" fill="#ff2609"/><path d="m30.4289 341.077c-.0104.067-.023.134-.0379.2-.0796.342-.2075.67-.3797.974l-.0092.017c-.0654.114-.1354.229-.2111.344-.2009.294-.42.576-.6562.843l-.1411.157c-.0952.107-.1916.211-.2879.314.0727-.015.1474-.019.2214-.012.0275.002.0547.007.0814.014.366.075.6792.416.7767.803.0057.025.0114.051.016.076.0907.514-.1147 1.033-.3682 1.492-.444.812-1.0841 1.352-1.6474 2.058-.4222.525-.6562 1.147-1.1162 1.65l-.0344.037-.0276.028c-1.216 1.253-3.1169 1.55-4.7035 2.091-.5736.198-6.7937 1.964-6.7937 2.35 0-.084-.6092-.689-1.3767-1.424-2.7533-2.614-3.6584-6.654-2.0202-10.118 1.7609-3.729 5.7601-6.389 9.5688-7.667 1.1908-.399 2.5422-.668 3.6711-.115 1.1288.553 1.6909 2.268.7548 3.106.5888-.446 1.3211-.659 2.057-.598.6796.043 1.3205.331 1.8034.811.2697.271.4868.589.6401.939.0631.145.1156.294.1572.447.1033.385.1248.788.0631 1.183z" fill="#f2d4cf"/><path d="m30.4303 341.076c-.0103.068-.023.135-.0379.201-.0796.341-.2074.669-.3797.974l-.0092.016c-.0654.115-.1354.23-.2111.344-.2009.295-.42.577-.6562.844l-.1411.157c-.0952.106-.1916.211-.2879.314.0727-.016.1474-.02.2214-.013.0275.003.0547.007.0814.014.366.076.6792.417.7767.803.0057.026.0115.052.0161.077.0906.514-.1148 1.033-.3683 1.491-.444.813-1.0841 1.353-1.6474 2.059-.4221.525-.6562 1.147-1.1162 1.649l-.0344.038-.0275.028c-.4613-.621-.7552-1.35-.8536-2.117-.1961-1.588-.0768-3.318-.1307-4.925-.0184-.561-.0517-1.23.1284-1.762.0493-.132.1152-.257.1962-.372.2111-.34.4518-.662.7193-.96.3033-.323.6863-.56 1.1105-.688.229-.065.4637-.108.7009-.129.2537-.025.5093-.02.7618.015.3367.048.6623.156.9613.318.0631.145.1157.295.1572.447.1048.384.1286.784.07 1.177z" fill="#daaea8"/><path d="m15.9118 349.921c0 1.077-.8732 1.95-1.9503 1.95s-1.9502-.873-1.9502-1.95.8731-1.95 1.9502-1.95 1.9503.873 1.9503 1.95z" fill="#f2a196"/><path d="m16.3286 349.922c0 .964-.7817 1.746-1.746 1.746s-1.7461-.782-1.7461-1.746.7818-1.746 1.7461-1.746 1.746.782 1.746 1.746z" fill="#e88870"/><path d="m14.6078 348.086.5048 6.539 7.622 4.454c1.0924.408 2.3161-.079 2.829-1.127 1.0967-2.246 2.8565-5.792 2.6248-7.112-.3442-1.951-1.2619-2.639-1.2619-2.639l.382-2.287c.1434-.862.3281-1.761.1147-2.628-.2444-.992-.9946-1.416-1.6118-2.159-1.6245 2.093-4.2952 3.276-6.6274 4.475-1.2034.624-4.5762 2.484-4.5762 2.484z" fill="#f2a196"/><path clip-rule="evenodd" d="m23.1038 347.534s-.002-.011.0009-.023l.1116.026c.0018-.007.0015-.013.0015-.015-.0001-.002-.0004-.004-.0005-.005s-.0003-.002-.0003-.002v.001c.0003 0 .0009.003.0021.007.0023.008.0062.02.0115.036.0106.031.0265.077.0472.135.0411.116.1005.279.1722.474.1432.39.335.907.5271 1.422.1922.516.3846 1.03.529 1.415.0722.193.1324.354.1745.466l.0663.176s0 0-.0537.021l.0537-.021.0276.074-2.1366.105-.0056-.115 1.9795-.097-.0386-.103c-.0421-.112-.1023-.273-.1745-.465-.1444-.386-.3369-.9-.5291-1.416-.1921-.515-.384-1.032-.5273-1.422-.0717-.196-.1312-.359-.1726-.476-.0207-.058-.0369-.104-.0479-.137-.0054-.016-.0098-.03-.0127-.039-.0014-.005-.0028-.01-.0037-.014-.0005-.002-.0011-.005-.0016-.008z" fill="#00214e" fill-rule="evenodd"/><path clip-rule="evenodd" d="m21.5043 346.695c-1.066-.158-2.1516-.128-3.2071.09l-.0232-.112c1.0687-.221 2.1678-.252 3.2472-.091z" fill="#00214e" fill-rule="evenodd"/><path clip-rule="evenodd" d="m27.0544 346.66c-.6644-.059-1.334-.013-1.9839.137l-.0258-.111c.6617-.153 1.3434-.201 2.0198-.14z" fill="#00214e" fill-rule="evenodd"/><path d="m20.5255 352.916c.0317-.05.0829-.085.1412-.096.0584-.011.1186.003.1663.038.2386.168.6745.524 1.294.646.8444.169 1.5763-.17 1.7518.048.0986.123-.0218.273-.2524.459-.4879.366-1.1026.518-1.7047.424-.8122-.153-1.4226-1.094-1.4226-1.427.001-.033.0101-.064.0264-.092z" fill="#fff"/><path d="m20.2213 348.045c.6998.005.6998 1.075 0 1.08h-.0321c-.6998-.005-.6998-1.075 0-1.08z" fill="#00214e"/><path d="m25.9866 347.971c.6493 0 .6493.998 0 1.003h-.0287c-.6505 0-.6505-.998 0-1.003z" fill="#00214e"/><text fill="#585858" font-family="sans-serif" font-size="19.5025" font-weight="600" letter-spacing="0em"><tspan x="78.0098" y="230.047">Lindsey Bergson</tspan></text><circle cx="19.5025" cy="222.502" fill="#e6ecc1" r="19.5025"/><path d="m25.1548 226.888c-6.1757.808-12.4479.458-18.49525-1.033.85694-3.925 2.18107-7.735 3.94405-11.345 1.5201-3.115 4.6898-4.712 8.1085-4.983 2.8118-.222 5.4652.962 6.9107 3.37 1.1174 1.859 1.8126 4.35 2.268 6.464.4865 2.258.9274 4.524 1.3228 6.798-.0058-.034-3.6653.675-4.0588.729z" fill="url(#g)"/><path d="m32.4827 236.39c-7.6689 5.905-18.3655 5.858-25.98191-.114l5.58571-2.618c.1709-.081.3375-.171.4991-.269l.1285-.08c.0458-.029.0906-.059.1353-.09.7043-.485 1.2815-1.133 1.683-1.889.4589-.866.6103-1.823.6172-2.798 0-.656-.0356-1.312-.0425-1.97-.0046-.363-.0084-.727-.0115-1.091l.2295.115.5965.309 3.4692.595 3.5701.608.1078 3.671.0539 1.821 1.3159.535 1.0325.418z" fill="#e18477"/><path d="m23.0682 230.763c-1.1541.205-2.3414.112-3.4496-.27-2.4757-.831-4.1426-2.838-4.2998-4.905l.5966.308 3.4749.594 3.5701.608z" fill="#a76962"/><path d="m13.7152 221.8c0 1.077-.8732 1.95-1.9503 1.95-1.077 0-1.9502-.873-1.9502-1.95s.8732-1.95 1.9502-1.95c1.0771 0 1.9503.873 1.9503 1.95z" fill="#e18477"/><path d="m14.4038 221.57c0 1.077-.8731 1.951-1.9502 1.951s-1.9502-.874-1.9502-1.951.8731-1.95 1.9502-1.95 1.9502.873 1.9502 1.95z" fill="#a76962"/><path d="m25.8663 218.728c1.4283 4.949-1.3525 10.697-3.4714 10.933-5.1211.573-8.7577-2.041-10.1872-6.99-1.4294-4.949.4704-9.846 4.2447-10.934 3.7743-1.089 7.9857 2.041 9.4139 6.991z" fill="#e18477"/><path clip-rule="evenodd" d="m20.8937 226.041c-.8376-.069-1.6218-.44-2.207-1.043l.0823-.08c.5659.583 1.3242.942 2.1341 1.008z" fill="#00214e" fill-rule="evenodd"/><path d="m21.6608 212.32c-.0447.218-.1092.431-.1927.638-.8673 2.127-2.2038 3.961-4.1471 5.231-2.2944 1.503-4.5464 1.431-7.1127 1.793.148-.938.0964-1.663.1285-2.647.0505-1.539.7812-2.294 1.7552-3.417.7251-.835 1.7071-2.111 2.8428-2.387l6.6618-1.588c.0688 1.146.2902 1.289.0642 2.377z" fill="url(#h)"/><path clip-rule="evenodd" d="m25.1556 217.93c-.8593-.25-1.7817-.163-2.5792.243l-.0521-.102c.8235-.42 1.7761-.509 2.6634-.251z" fill="#00214e" fill-rule="evenodd"/><path clip-rule="evenodd" d="m19.7904 218.484c-1.1362-.489-2.4314-.448-3.5339.114l-.0521-.103c1.133-.576 2.4639-.619 3.6314-.116z" fill="#00214e" fill-rule="evenodd"/><path d="m32.4827 236.39c-7.6689 5.905-18.3655 5.858-25.98191-.114l5.58571-2.618c.2659-.125.521-.272.7629-.438.0734-.051.1469-.104.2168-.159.6076-.465 1.1077-1.055 1.4662-1.731.271-.519.451-1.081.5323-1.661.081.078.166.153.2547.223.7034.52 1.4668.953 2.2737 1.291.3918.164.7924.305 1.2.424 1.228.358 2.5101.493 3.7858.4.1766-.014.3544-.031.5311-.044l.0172.583v.038l1.3836.56z" fill="#845161"/><g fill="#00214e"><path clip-rule="evenodd" d="m19.0347 223.732c-.5549.079-1.073.324-1.4857.703-.2005.186-.3731.399-.5127.634l-.0986-.059c.1452-.244.3249-.466.5334-.659l.0002-.001c.4298-.394.9694-.65 1.5474-.731z" fill-rule="evenodd"/><path clip-rule="evenodd" d="m22.6516 215.979h-2.7143v-.115h2.7143z" fill-rule="evenodd"/><path clip-rule="evenodd" d="m22.6513 216.876h-3.3774v-.114h3.3774z" fill-rule="evenodd"/><path clip-rule="evenodd" d="m19.2161 220.641c-.0104.337-.1571.655-.4065.882s-.5801.342-.9165.321l.0074-.115c.3053.02.6056-.085.8319-.291.2264-.206.3596-.495.369-.801z" fill-rule="evenodd"/><path clip-rule="evenodd" d="m23.2731 221.209c-.247-.202-.393-.502-.3996-.821l.1147-.003c.0059.286.1365.554.3574.735.2275.183.4804.333.7508.444l-.0436.106c-.2807-.115-.5432-.27-.7794-.461z" fill-rule="evenodd"/><path d="m22.6194 222.912c.0548.085.1046.173.1491.264.0521.085.0872.18.1033.279.0031.071-.0263.14-.08.187-.0537.048-.126.068-.1965.056-.0711-.015-.1021.095-.0298.115.0926.018.1887-.002.267-.054.0784-.053.1325-.135.1505-.228.0087-.12-.0193-.24-.0803-.344-.0543-.115-.1156-.228-.1835-.336-.039-.062-.1388 0-.0998.059z"/><path d="m20.7028 223.048c-.0975.156-.2134.351-.1572.543.0448.156.2111.3.3797.239.0689-.025.039-.136-.0309-.114-.1147.043-.2295-.078-.2455-.188-.0241-.152.0768-.304.1537-.426.039-.063-.0608-.115-.0998-.057z"/><path d="m18.1868 219.887c.503.036.8991.232.8846.439-.0145.208-.4341.347-.9371.312-.5031-.035-.8992-.232-.8847-.439.0146-.207.4341-.347.9372-.312z"/><path d="m24.9948 220.069c.0319.205-.3452.434-.8423.511-.497.078-.9258-.026-.9578-.23-.0319-.205.3452-.434.8423-.511.497-.078.9258.025.9578.23z"/></g></svg>