<svg fill="none" height="572" viewBox="0 0 993 572" width="993" xmlns="http://www.w3.org/2000/svg" xmlns:xlink="http://www.w3.org/1999/xlink"><filter id="a" color-interpolation-filters="sRGB" filterUnits="userSpaceOnUse" height="88.6246" width="642.605" x="-14.2773" y="105.221"><feFlood flood-opacity="0" result="BackgroundImageFix"/><feColorMatrix in="SourceAlpha" result="hardAlpha" type="matrix" values="0 0 0 0 0 0 0 0 0 0 0 0 0 0 0 0 0 0 127 0"/><feOffset dy="5.71091"/><feGaussianBlur stdDeviation="7.13863"/><feComposite in2="hardAlpha" operator="out"/><feColorMatrix type="matrix" values="0 0 0 0 0 0 0 0 0 0 0 0 0 0 0 0 0 0 0.1 0"/><feBlend in2="BackgroundImageFix" mode="normal" result="effect1_dropShadow_1501_1213"/><feBlend in="SourceGraphic" in2="effect1_dropShadow_1501_1213" mode="normal" result="shape"/></filter><filter id="b" color-interpolation-filters="sRGB" filterUnits="userSpaceOnUse" height="88.5191" width="335.516" x="508.607" y="188.038"><feFlood flood-opacity="0" result="BackgroundImageFix"/><feColorMatrix in="SourceAlpha" result="hardAlpha" type="matrix" values="0 0 0 0 0 0 0 0 0 0 0 0 0 0 0 0 0 0 127 0"/><feOffset dy="5.71091"/><feGaussianBlur stdDeviation="7.13863"/><feComposite in2="hardAlpha" operator="out"/><feColorMatrix type="matrix" values="0 0 0 0 0 0 0 0 0 0 0 0 0 0 0 0 0 0 0.1 0"/><feBlend in2="BackgroundImageFix" mode="normal" result="effect1_dropShadow_1501_1213"/><feBlend in="SourceGraphic" in2="effect1_dropShadow_1501_1213" mode="normal" result="shape"/></filter><filter id="c" color-interpolation-filters="sRGB" filterUnits="userSpaceOnUse" height="88.5191" width="344.082" x="562.396" y="353.511"><feFlood flood-opacity="0" result="BackgroundImageFix"/><feColorMatrix in="SourceAlpha" result="hardAlpha" type="matrix" values="0 0 0 0 0 0 0 0 0 0 0 0 0 0 0 0 0 0 127 0"/><feOffset dy="5.71091"/><feGaussianBlur stdDeviation="7.13863"/><feComposite in2="hardAlpha" operator="out"/><feColorMatrix type="matrix" values="0 0 0 0 0 0 0 0 0 0 0 0 0 0 0 0 0 0 0.1 0"/><feBlend in2="BackgroundImageFix" mode="normal" result="effect1_dropShadow_1501_1213"/><feBlend in="SourceGraphic" in2="effect1_dropShadow_1501_1213" mode="normal" result="shape"/></filter><filter id="d" color-interpolation-filters="sRGB" filterUnits="userSpaceOnUse" height="88.5191" width="498.277" x="237.339" y="270.846"><feFlood flood-opacity="0" result="BackgroundImageFix"/><feColorMatrix in="SourceAlpha" result="hardAlpha" type="matrix" values="0 0 0 0 0 0 0 0 0 0 0 0 0 0 0 0 0 0 127 0"/><feOffset dy="5.71091"/><feGaussianBlur stdDeviation="7.13863"/><feComposite in2="hardAlpha" operator="out"/><feColorMatrix type="matrix" values="0 0 0 0 0 0 0 0 0 0 0 0 0 0 0 0 0 0 0.1 0"/><feBlend in2="BackgroundImageFix" mode="normal" result="effect1_dropShadow_1501_1213"/><feBlend in="SourceGraphic" in2="effect1_dropShadow_1501_1213" mode="normal" result="shape"/></filter><filter id="e" color-interpolation-filters="sRGB" filterUnits="userSpaceOnUse" height="74.2418" width="74.2418" x="448.642" y="2.43364"><feFlood flood-opacity="0" result="BackgroundImageFix"/><feColorMatrix in="SourceAlpha" result="hardAlpha" type="matrix" values="0 0 0 0 0 0 0 0 0 0 0 0 0 0 0 0 0 0 127 0"/><feOffset dy="5.71091"/><feGaussianBlur stdDeviation="7.13863"/><feComposite in2="hardAlpha" operator="out"/><feColorMatrix type="matrix" values="0 0 0 0 0 0 0 0 0 0 0 0 0 0 0 0 0 0 0.1 0"/><feBlend in2="BackgroundImageFix" mode="normal" result="effect1_dropShadow_1501_1213"/><feBlend in="SourceGraphic" in2="effect1_dropShadow_1501_1213" mode="normal" result="shape"/></filter><filter id="f" color-interpolation-filters="sRGB" filterUnits="userSpaceOnUse" height="88.5191" width="498.277" x="509.001" y="436.274"><feFlood flood-opacity="0" result="BackgroundImageFix"/><feColorMatrix in="SourceAlpha" result="hardAlpha" type="matrix" values="0 0 0 0 0 0 0 0 0 0 0 0 0 0 0 0 0 0 127 0"/><feOffset dy="5.71091"/><feGaussianBlur stdDeviation="7.13863"/><feComposite in2="hardAlpha" operator="out"/><feColorMatrix type="matrix" values="0 0 0 0 0 0 0 0 0 0 0 0 0 0 0 0 0 0 0.1 0"/><feBlend in2="BackgroundImageFix" mode="normal" result="effect1_dropShadow_1501_1213"/><feBlend in="SourceGraphic" in2="effect1_dropShadow_1501_1213" mode="normal" result="shape"/></filter><linearGradient id="g" gradientUnits="userSpaceOnUse" x1="485.763" x2="485.763" y1="312.25" y2="572.097"><stop offset="0" stop-color="#45e9cd"/><stop offset="1" stop-color="#45e9cd" stop-opacity="0"/></linearGradient><clipPath id="h"><path d="m0 0h993v572h-993z"/></clipPath><mask id="i" fill="#fff"><path d="m564.874 136.468c-1.613 2.707-2.286 5.872-1.913 9.002.373 3.129 1.772 6.047 3.977 8.299s5.094 3.71 8.215 4.148c3.121.439 6.299-.168 9.039-1.726 2.741-1.557 4.888-3.977 6.109-6.883s1.445-6.134.639-9.181-2.597-5.741-5.095-7.663-5.562-2.964-8.713-2.963l.006 14.278z" fill="#fff"/></mask><mask id="j" fill="#fff"><path d="m577.138 129.501c-2.23 0-4.428.523-6.419 1.525-1.992 1.002-3.721 2.457-5.049 4.248-1.328 1.79-2.218 3.867-2.599 6.064-.381 2.196-.243 4.452.404 6.585s1.785 4.086 3.322 5.7c1.538 1.615 3.432 2.847 5.531 3.598s4.345 1.001 6.557.728c2.213-.273 4.331-1.06 6.185-2.299l-7.932-11.871z" fill="#fff"/></mask><mask id="k" fill="#fff"><path d="m691.743 321.528c2.635-1.635 4.666-4.082 5.787-6.973 1.12-2.891 1.269-6.069.424-9.052s-2.639-5.61-5.109-7.484c-2.471-1.873-5.484-2.892-8.584-2.901l-.044 14.277z" fill="#fff"/></mask><mask id="l" fill="#fff"><path d="m684.217 295.118c-2.229 0-4.428.522-6.419 1.524s-3.72 2.457-5.048 4.248-2.219 3.867-2.6 6.064-.242 4.452.405 6.585c.647 2.134 1.785 4.086 3.322 5.701 1.537 1.614 3.431 2.846 5.53 3.598 2.099.751 4.345 1 6.558.727 2.212-.273 4.33-1.06 6.184-2.299l-7.932-11.871z" fill="#fff"/></mask><g clip-path="url(#h)"><g filter="url(#a)"><rect fill="#15c8ff" height="60.0702" rx="8.56636" width="614.051" y="113.787"/><path d="m564.874 136.468c-1.613 2.707-2.286 5.872-1.913 9.002.373 3.129 1.772 6.047 3.977 8.299s5.094 3.71 8.215 4.148c3.121.439 6.299-.168 9.039-1.726 2.741-1.557 4.888-3.977 6.109-6.883s1.445-6.134.639-9.181-2.597-5.741-5.095-7.663-5.562-2.964-8.713-2.963l.006 14.278z" mask="url(#i)" stroke="#fff" stroke-width="8.56636"/><path d="m577.138 129.501c-2.23 0-4.428.523-6.419 1.525-1.992 1.002-3.721 2.457-5.049 4.248-1.328 1.79-2.218 3.867-2.599 6.064-.381 2.196-.243 4.452.404 6.585s1.785 4.086 3.322 5.7c1.538 1.615 3.432 2.847 5.531 3.598s4.345 1.001 6.557.728c2.213-.273 4.331-1.06 6.185-2.299l-7.932-11.871z" mask="url(#j)" stroke="#fff" stroke-opacity=".5" stroke-width="8.56636"/><circle cx="577.138" cy="143.779" fill="#15c8ff" r="9.99409"/><g fill="#fff"><path d="m0 122.353c0-4.731 3.83529-8.566 8.56636-8.566h477.33464v60.07h-477.33461c-4.73107 0-8.56639-3.835-8.56639-8.566z" fill-opacity=".25"/><text font-family="sans-serif" font-size="17.1327" font-weight="600" letter-spacing="0em"><tspan x="24.1785" y="149.926">Strategy and Business Rules</tspan></text></g></g><g filter="url(#b)"><rect fill="#0076f8" height="59.9645" rx="8.56636" width="306.961" x="522.884" y="196.604"/><path clip-rule="evenodd" d="m792.724 236.581c5.52 0 9.995-4.475 9.995-9.994 0-5.52-4.475-9.994-9.995-9.994-5.519 0-9.994 4.474-9.994 9.994 0 5.519 4.475 9.994 9.994 9.994zm0 4.283c7.886 0 14.278-6.392 14.278-14.277 0-7.886-6.392-14.278-14.278-14.278-7.885 0-14.277 6.392-14.277 14.278 0 7.885 6.392 14.277 14.277 14.277z" fill="#fff" fill-opacity=".5" fill-rule="evenodd"/><circle cx="792.725" cy="226.587" fill="#0076f8" r="9.99409"/><text fill="#fff" font-family="sans-serif" font-size="17.1327" font-weight="600" letter-spacing="0em"><tspan x="545.728" y="232.734">Setup Web Server</tspan></text></g><g filter="url(#c)"><rect fill="#ff8474" height="59.9645" rx="8.56636" width="315.528" x="576.674" y="362.077"/><path clip-rule="evenodd" d="m855.08 402.053c5.52 0 9.994-4.474 9.994-9.994s-4.474-9.994-9.994-9.994c-5.519 0-9.994 4.474-9.994 9.994s4.475 9.994 9.994 9.994zm0 4.283c7.885 0 14.278-6.392 14.278-14.277s-6.393-14.277-14.278-14.277-14.277 6.392-14.277 14.277 6.392 14.277 14.277 14.277z" fill="#fff" fill-opacity=".5" fill-rule="evenodd"/><circle cx="855.08" cy="392.059" fill="#ff8474" r="9.99409"/><text fill="#fff" font-family="sans-serif" font-size="17.1327" font-weight="600" letter-spacing="0em"><tspan x="599.517" y="398.206">Test Strategy</tspan></text></g><g filter="url(#d)"><rect fill="#8352f1" height="59.9645" rx="8.56636" width="469.722" x="251.616" y="279.413"/><path d="m691.743 321.528c2.635-1.635 4.666-4.082 5.787-6.973 1.12-2.891 1.269-6.069.424-9.052s-2.639-5.61-5.109-7.484c-2.471-1.873-5.484-2.892-8.584-2.901l-.044 14.277z" mask="url(#k)" stroke="#fff" stroke-width="8.56636"/><path d="m684.217 295.118c-2.229 0-4.428.522-6.419 1.524s-3.72 2.457-5.048 4.248-2.219 3.867-2.6 6.064-.242 4.452.405 6.585c.647 2.134 1.785 4.086 3.322 5.701 1.537 1.614 3.431 2.846 5.53 3.598 2.099.751 4.345 1 6.558.727 2.212-.273 4.33-1.06 6.184-2.299l-7.932-11.871z" mask="url(#l)" stroke="#fff" stroke-opacity=".5" stroke-width="8.56636"/><circle cx="684.217" cy="309.395" fill="#8352f1" r="9.99409"/><g fill="#fff"><path d="m251.616 287.979c0-4.731 3.835-8.566 8.566-8.566h225.581v59.964h-225.581c-4.731 0-8.566-3.835-8.566-8.566z" fill-opacity=".3"/><text font-family="sans-serif" font-size="17.1327" font-weight="600" letter-spacing="0em"><tspan x="274.46" y="315.542">Website Design</tspan></text></g></g><path d="m485.763 39.5544v566.8076" stroke="url(#g)" stroke-linecap="round" stroke-linejoin="round" stroke-width="2.85545"/><g filter="url(#e)"><circle cx="485.763" cy="33.8436" fill="#45e9cd" r="22.8436"/></g><path d="m496.471 31.8091c.107-.5354-.321-1.1779-.856-1.1779l-6.104-.8566-2.784-5.5682c-.107-.2141-.214-.3212-.428-.4283-.536-.3212-1.178-.107-1.499.4283l-2.677 5.5682-6.104.8566c-.321 0-.535.1071-.642.3213-.429.4283-.429 1.0708 0 1.4991l4.39 4.2832-1.071 6.1035c0 .2141 0 .4283.107.6425.321.5354.964.7495 1.499.4283l5.461-2.8912 5.461 2.8912c.107.1071.322.1071.536.1071h.214c.535-.1071.964-.6425.856-1.285l-1.07-6.1035 4.39-4.2832c.214-.1071.321-.3212.321-.5354z" fill="#fff"/><g filter="url(#f)"><rect fill="#f6d14b" height="59.9645" rx="8.56636" width="469.722" x="523.278" y="444.84"/><text fill="#fff" font-family="sans-serif" font-size="17.1327" font-weight="600" letter-spacing="0em"><tspan x="546.121" y="480.969">Implementation</tspan></text><path clip-rule="evenodd" d="m955.879 484.816c5.52 0 9.994-4.474 9.994-9.994 0-5.519-4.474-9.994-9.994-9.994s-9.994 4.475-9.994 9.994c0 5.52 4.474 9.994 9.994 9.994zm0 4.283c7.885 0 14.277-6.392 14.277-14.277s-6.392-14.277-14.277-14.277-14.277 6.392-14.277 14.277 6.392 14.277 14.277 14.277z" fill="#fff" fill-opacity=".5" fill-rule="evenodd"/><circle cx="955.879" cy="474.822" fill="#f6d14b" r="9.99409"/></g></g></svg>