<svg width="32" height="32" viewBox="0 0 32 32" fill="none" xmlns="http://www.w3.org/2000/svg">
<path fill-rule="evenodd" clip-rule="evenodd" d="M6.11184 15.111L9.38434 18.3821L10.8201 16.9805L8.34384 14.501C9.15384 13.251 11.5118 13.381 13.4998 13.887L18.4858 8.899L17.9958 8.177C17.6038 7.555 18.3318 6.673 19.0198 6.105L19.0283 6.09846L19.0371 6.09153C19.0475 6.08324 19.0583 6.07471 19.0698 6.067L20.5172 7.51433L21.9486 6.117C21.0815 5.24967 20.2146 4.38233 19.3478 3.515C19.3478 3.515 15.2958 6.219 15.9958 8.561L12.8378 11.669C10.8338 11.281 8.14784 11.381 6.78184 13.241C6.14384 14.111 6.11184 15.111 6.11184 15.111ZM6.69321 26.6931L6.70718 26.7071L12.2086 21.2057L16.9918 25.989L17.7378 25.625C19.7298 24.609 20.5138 22.415 20.3698 20.285C20.3153 19.4805 20.302 19.4143 20.2818 19.3144C20.2739 19.275 20.2649 19.2303 20.2518 19.133L23.5718 15.915C25.3058 16.207 26.7698 15.003 27.8438 13.577C28.0678 13.279 28.2918 12.981 28.5138 12.683L28.5127 12.6819L28.5058 12.675L28.4989 12.668L28.492 12.6611C27.2021 11.3713 25.9123 10.0815 24.6226 8.79165L26.2072 7.20711L24.793 5.79289L10.412 20.1738L9.17468 21.3817L3.48584 27.069L4.90184 28.485L6.69321 26.6931ZM23.2086 10.2057L25.8598 12.857C24.3938 14.571 22.9238 13.633 22.9238 13.633L18.1338 18.423C18.1615 18.6167 18.1914 18.8115 18.2212 19.0063L18.2212 19.0064L18.2212 19.0065L18.2212 19.0066C18.4778 20.6819 18.7341 22.3555 17.6358 23.323C17.5478 23.397 17.4578 23.467 17.3638 23.533L13.6251 19.7892L23.2086 10.2057Z" fill="currentColor"/>
</svg>
