<svg class="brands__logos-image" fill="none" height="87" viewbox="0 0 140 87" width="140" xmlns="http://www.w3.org/2000/svg">
<g clip-path="url(#clip0_1139_6291)">
<path d="M19.2504 59.6026C17.1444 59.9746 15.0013 60.0861 12.7844 60.3831L6.0226 40.4636V61.238C3.91658 61.461 1.99527 61.7583 0 62.0556V24H5.61641L13.3016 45.5924V24H19.2504V59.6026ZM30.8894 37.9364C33.1804 37.9364 36.6905 37.8248 38.7965 37.8248V43.7709C36.173 43.7709 33.1064 43.7709 30.8894 43.8824V52.7275C34.3628 52.5046 37.836 52.207 41.3459 52.0955V57.8184L24.9774 59.1194V24H41.3459V29.9462H30.8894V37.9364V37.9364ZM63.3306 29.9463H57.1971V57.2987C55.2018 57.2987 53.2066 57.2987 51.2855 57.3728V29.9463H45.1521V24H63.3309L63.3306 29.9463V29.9463ZM72.9373 37.5277H81.0292V43.4737H72.9373V56.9643H67.1359V24H83.6526V29.9462H72.9373V37.5277V37.5277ZM93.2593 51.7612C96.6217 51.8353 100.021 52.0959 103.309 52.2814V58.1534C98.0258 57.8187 92.7421 57.4846 87.3476 57.3728V24H93.2593V51.7612ZM108.298 58.5622C110.182 58.6738 112.177 58.7854 114.098 59.008V24H108.298V58.5622V58.5622ZM140 24L132.499 42.0987L140 62.0556C137.783 61.7583 135.566 61.3494 133.349 60.9777L129.1 49.9775L124.777 60.0861C122.634 59.7141 120.565 59.6026 118.422 59.3053L126.033 41.8756L119.161 24H125.516L129.395 33.997L133.534 24H140V24Z" fill="#444762"></path>
</g>
<defs>
<clippath id="clip0_1139_6291">
<rect fill="white" height="38.0556" transform="translate(0 24)" width="140"></rect>
</clippath>
</defs>
</svg>
