<svg class="brands__logos-image" fill="none" height="87" viewbox="0 0 140 87" width="140" xmlns="http://www.w3.org/2000/svg">
<g clip-path="url(#clip0_1139_6274)">
<path d="M98.1075 31.5675C97.6725 31.905 89.9925 36.2325 89.9925 45.855C89.9925 56.985 99.765 60.9225 100.057 61.02C100.012 61.26 98.505 66.4125 94.905 71.6625C91.695 76.2825 88.3425 80.895 83.2425 80.895C78.1425 80.895 76.83 77.9325 70.9425 77.9325C65.205 77.9325 63.165 80.9925 58.5 80.9925C53.835 80.9925 50.58 76.7175 46.8375 71.4675C42.5025 65.3025 39 55.725 39 46.635C39 32.055 48.48 24.3225 57.81 24.3225C62.7675 24.3225 66.9 27.5775 70.0125 27.5775C72.975 27.5775 77.595 24.1275 83.235 24.1275C85.3725 24.1275 93.0525 24.3225 98.1075 31.5675ZM80.5575 17.955C82.89 15.1875 84.54 11.3475 84.54 7.5075C84.54 6.975 84.495 6.435 84.3975 6C80.6025 6.1425 76.0875 8.5275 73.365 11.685C71.2275 14.115 69.2325 17.955 69.2325 21.8475C69.2325 22.4325 69.33 23.0175 69.375 23.205C69.615 23.25 70.005 23.3025 70.395 23.3025C73.8 23.3025 78.0825 21.0225 80.5575 17.955Z" fill="#444762"></path>
</g>
<defs>
<clippath id="clip0_1139_6274">
<rect fill="white" height="75" transform="translate(39 6)" width="61.05"></rect>
</clippath>
</defs>
</svg>
