<svg class="brands__logos-image" fill="none" height="87" viewbox="0 0 140 87" width="140" xmlns="http://www.w3.org/2000/svg">
<path d="M92.7223 43.5C92.7223 55.781 82.7811 65.7222 70.5 65.7222V43.5H92.7223ZM70.5 21.2778V43.5H48.2778C48.2778 31.2189 58.219 21.2778 70.5 21.2778Z" fill="#444762"></path>
<path d="M70.5 21.2778V22.4962C82.0804 22.4962 91.5038 31.9174 91.5038 43.5H92.7222C92.7222 31.2278 82.7722 21.2778 70.5 21.2778ZM70.5 64.5038C58.9196 64.5038 49.4962 55.0826 49.4962 43.5H48.2778C48.2778 55.7722 58.2278 65.7222 70.5 65.7222V64.5038ZM70.5 6C49.7899 6 33 22.7899 33 43.5C33 64.2101 49.7899 81 70.5 81C91.2101 81 108 64.2101 108 43.5C108 22.7899 91.2101 6 70.5 6V6ZM105.561 43.5C105.561 62.8629 89.8652 78.5614 70.5 78.5614C51.1349 78.5614 35.4386 62.8629 35.4386 43.5C35.4386 24.1371 51.1371 8.43856 70.5 8.43856C89.8629 8.43856 105.561 24.1371 105.561 43.5V43.5Z" fill="#444762"></path>
<path d="M54.4746 25.4093C55.6729 24.1557 56.3513 22.7075 55.153 21.325C54.501 20.5746 53.4062 20.4105 52.4986 20.7802L52.4083 20.8152L52.437 20.7365C52.5713 20.3799 52.6572 19.2423 51.6814 18.457C51.2056 18.0741 50.6086 17.9319 50.0051 17.9932C48.8794 18.107 48.0137 18.8704 45.6567 21.4803C44.9452 22.2678 43.9099 23.5104 43.2887 24.3154L49.7627 30.4145C51.9083 28.0563 52.7828 27.179 54.4746 25.4093ZM46.0268 23.9173C47.3308 22.3334 48.7164 20.8962 49.3442 20.3274C49.5425 20.148 49.7583 19.9686 50.0205 19.8986C50.4456 19.7827 50.884 20.0824 50.9831 20.5155C51.0822 20.9509 50.8069 21.3643 50.5007 21.7056C49.8112 22.4778 47.2824 25.1052 47.2824 25.1052L46.0268 23.9173ZM48.5622 26.3062C48.5622 26.3062 51.025 23.7204 51.829 22.8935C52.1484 22.5653 52.3532 22.3663 52.5735 22.2591C52.8577 22.1212 53.1683 22.0928 53.4458 22.2766C53.719 22.4581 53.8446 22.771 53.7763 23.0816C53.6948 23.4513 53.3908 23.8035 53.1397 24.0726C52.8004 24.4336 49.8795 27.5378 49.8751 27.5422L48.5622 26.3062V26.3062ZM71.2401 18.1354L73.313 13.5239L73.4451 13.1148L73.4077 13.5414L73.6258 19.7039C74.3527 19.7717 75.1039 19.8724 75.844 19.9949L75.507 10.8681C74.4716 10.7543 73.4407 10.6734 72.4098 10.6296L70.3678 15.6634L70.2951 16.0375L70.2224 15.6634L68.1826 10.6296C67.1517 10.6734 66.1208 10.7543 65.0855 10.8681L64.7484 19.9949C65.4886 19.8724 66.2397 19.7739 66.9667 19.7039L67.1848 13.5414L67.1473 13.1148L67.2795 13.5239L69.3523 18.1354H71.2401H71.2401ZM88.4551 27.6756C88.9639 28.2182 89.6974 29.0932 90.1094 29.6248L97.6958 24.8427C97.317 24.3504 96.7134 23.6023 96.2618 23.0751L91.4575 26.2296L91.1293 26.5096L91.3738 26.1552L93.4951 21.9506L91.995 20.4608L87.759 22.5675L87.4021 22.8104L87.6863 22.4844L90.8649 17.7154C90.3054 17.2428 89.7679 16.8097 89.0829 16.2847L84.2675 23.8123C84.8777 24.2782 85.6817 24.963 86.195 25.4289L90.7284 23.0926L91.0191 22.8804L90.8055 23.1691L88.4551 27.6756Z" fill="#444762"></path>
</svg>
