<svg class="brands__logos-image" fill="none" height="87" viewbox="0 0 140 87" width="140" xmlns="http://www.w3.org/2000/svg">
<g clip-path="url(#clip0_1139_6273)">
<path fill="#444762" fill-rule="evenodd" d="M134.919 32.2775C136.69 42.4266 109.062 55.7168 73.2027 61.9615C37.3492 68.2062 6.84841 65.0382 5.08032 54.8838C3.31223 44.7347 30.9487 31.4472 66.8021 25.2052C102.658 18.9551 133.154 22.1258 134.919 32.2775ZM101.172 47.3411L100.99 36.789H104.316V50.09H99.5332L96.212 39.1751H96.1395L96.3249 50.09H93.0171V36.789H98.0096L101.1 47.3411H101.172ZM40.6866 38.0358L38.8459 50.2297H35.2157L37.7066 36.789H43.6853L46.1682 50.2297H42.5514L40.7618 38.0358H40.6866ZM56.3602 47.0643L58.0208 36.789H63.5024L63.7926 50.2297H60.4338L60.3451 38.146H60.2752L58.0289 50.2297H54.619L52.3699 38.146H52.2974L52.2141 50.2297H48.8472L49.1454 36.789H54.6297L56.2876 47.0643H56.3602ZM29.5567 46.4382C29.6884 46.7634 29.6481 47.1825 29.5863 47.4351C29.4734 47.8812 29.1698 48.338 28.2777 48.338C27.434 48.338 26.9234 47.8543 26.9234 47.1181V45.8175H23.3174L23.3147 46.8574C23.3147 49.8535 25.6739 50.759 28.2025 50.759C30.6343 50.759 32.6361 49.9287 32.9532 47.6877C33.1171 46.5269 32.9935 45.7665 32.9398 45.4789C32.3728 42.6656 27.2701 41.8245 26.8912 40.2526C26.8267 39.9839 26.8455 39.6964 26.8777 39.5432C26.9718 39.116 27.2647 38.6431 28.1057 38.6431C28.8904 38.6431 29.3552 39.1294 29.3552 39.863C29.3552 40.1102 29.3552 40.6933 29.3552 40.6933H32.706V39.7501C32.706 36.8212 30.078 36.3644 28.1756 36.3644C25.7841 36.3644 23.8306 37.1544 23.4732 39.3417C23.3765 39.9463 23.3631 40.4837 23.5028 41.1582C24.0913 43.9016 28.8635 44.697 29.5567 46.4382ZM73.2618 46.4141C73.3934 46.7365 73.3505 47.1449 73.2913 47.3975C73.1812 47.8436 72.8802 48.2923 71.9935 48.2923C71.1632 48.2923 70.6553 47.8086 70.6553 47.0885L70.6526 45.7987H67.0842L67.0789 46.8252C67.0789 49.7917 69.4166 50.6865 71.9183 50.6865C74.3232 50.6865 76.3062 49.8669 76.6206 47.6474C76.7845 46.4947 76.669 45.745 76.6099 45.4628C76.0456 42.6764 70.9966 41.8434 70.6204 40.2849C70.5559 40.0162 70.5747 39.734 70.607 39.5889C70.7037 39.1563 70.9912 38.6968 71.8242 38.6968C72.6035 38.6968 73.0576 39.1698 73.0576 39.9006C73.0576 40.1452 73.0576 40.7229 73.0576 40.7229H76.3842V39.7878C76.3842 36.8911 73.7777 36.437 71.8914 36.437C69.5268 36.437 67.5894 37.2163 67.2401 39.3901C67.1433 39.9866 67.1326 40.5133 67.2723 41.185C67.85 43.9017 72.5766 44.6917 73.2618 46.4141ZM84.5501 48.2198C85.4825 48.2198 85.7727 47.5749 85.8372 47.2444C85.864 47.0992 85.8721 46.9058 85.8694 46.7311V36.7836H89.2685V46.4248C89.2766 46.672 89.2524 47.1799 89.239 47.3062C88.9998 49.8159 87.0168 50.63 84.5474 50.63C82.0753 50.63 80.0895 49.8159 79.8531 47.3062C79.8423 47.1799 79.8181 46.6693 79.8235 46.4248V36.7836H83.22V46.7284C83.22 46.9031 83.2253 47.0993 83.2522 47.2417C83.3274 47.5722 83.6096 48.2198 84.5501 48.2198ZM112.59 48.0774C113.562 48.0774 113.904 47.462 113.965 47.1046C113.99 46.9515 113.998 46.7634 113.995 46.5941V44.6433H112.616V42.6817H117.383V46.2905C117.381 46.5431 117.375 46.7285 117.335 47.1772C117.112 49.6224 114.989 50.4957 112.608 50.4957C110.222 50.4957 108.105 49.6224 107.876 47.1772C107.839 46.7285 107.833 46.5431 107.828 46.2905L107.831 40.6315C107.831 40.3924 107.86 39.9705 107.887 39.7448C108.186 37.2324 110.222 36.4236 112.608 36.4236C114.992 36.4236 117.08 37.227 117.327 39.7448C117.37 40.172 117.356 40.6315 117.356 40.6315V41.0803H113.968V40.3279C113.971 40.3306 113.963 40.0081 113.925 39.8173C113.869 39.5191 113.611 38.8366 112.584 38.8366C111.603 38.8366 111.319 39.4815 111.246 39.8173C111.206 39.9947 111.19 40.2338 111.19 40.4515V46.5995C111.187 46.7688 111.198 46.9569 111.225 47.11C111.278 47.462 111.617 48.0774 112.59 48.0774Z"></path>
</g>
<defs>
<clippath id="clip0_1139_6273">
<rect fill="white" height="43.1622" transform="translate(5 22)" width="130"></rect>
</clippath>
</defs>
</svg>
