<svg class="brands__logos-image" fill="none" height="87" viewbox="0 0 140 87" width="140" xmlns="http://www.w3.org/2000/svg">
<path d="M24.1249 23.4467H16.3075V31.2641H24.1249V23.4467Z" fill="#444762"></path>
<path d="M23.9302 64.175V35.9934H16.5023V64.1472H23.9302V64.175ZM73.1159 64.4532V57.5539C72.0309 57.5539 71.1128 57.4982 70.4452 57.387C69.6662 57.2757 69.082 56.9975 68.6925 56.608C68.303 56.2185 68.0527 55.6621 67.9136 54.911C67.8023 54.2155 67.7466 53.2974 67.7466 52.1846V42.3642H73.1159V35.9934H67.7466V25.0324H60.3187V52.2681C60.3187 54.5771 60.5135 56.5245 60.9029 58.0825C61.2924 59.6126 61.9601 60.8644 62.8781 61.8103C63.7962 62.7562 65.0203 63.4239 66.4947 63.8412C67.997 64.2585 69.8888 64.4532 72.1422 64.4532H73.1159ZM115.625 64.175V22.8624H108.197V64.175H115.625ZM53.169 38.7754C51.1103 36.5498 48.217 35.437 44.5448 35.437C42.7643 35.437 41.123 35.7987 39.6763 36.522C38.2019 37.2453 36.9778 38.2468 35.9763 39.5266L35.5868 40.0551V39.5822V35.9934H28.2702V64.1472H35.6424V49.1523V50.1816C35.6424 50.0147 35.6424 49.8478 35.6424 49.6808C35.7259 47.0379 36.3657 45.0906 37.5898 43.8387C38.8974 42.5033 40.4831 41.8356 42.2914 41.8356C44.4335 41.8356 46.0749 42.5033 47.1599 43.783C48.217 45.0627 48.7734 46.871 48.7734 49.1801V49.2635V64.1472H56.257V48.1786C56.2848 44.1725 55.2277 41.001 53.169 38.7754ZM104.358 50.0425C104.358 48.0116 103.996 46.1199 103.301 44.3394C102.577 42.5868 101.576 41.0288 100.324 39.6935C99.0441 38.3581 97.514 37.3288 95.7335 36.5777C93.953 35.8265 91.9778 35.4649 89.8357 35.4649C87.8048 35.4649 85.8852 35.8543 84.1048 36.6055C82.3243 37.3844 80.7664 38.4138 79.4588 39.7213C78.1513 41.0288 77.0941 42.5868 76.343 44.3672C75.564 46.1477 75.2024 48.0673 75.2024 50.0981C75.2024 52.129 75.564 54.0486 76.2874 55.829C77.0107 57.6095 78.04 59.1674 79.3197 60.475C80.5994 61.7825 82.1852 62.8397 84.0213 63.5908C85.8574 64.3698 87.8883 64.7592 90.0582 64.7592C96.3455 64.7592 100.24 61.8938 102.577 59.2231L97.2358 55.1614C96.123 56.4967 93.4523 58.305 90.1139 58.305C88.0274 58.305 86.3025 57.8321 84.995 56.8584C83.6875 55.9125 82.7972 54.5771 82.3243 52.9358L82.2408 52.6854H104.358V50.0425ZM82.2965 47.4552C82.2965 45.3966 84.6612 41.8078 89.7522 41.78C94.8433 41.78 97.2358 45.3687 97.2358 47.4274L82.2965 47.4552ZM124.082 60.6141C123.943 60.2802 123.748 60.002 123.498 59.7516C123.247 59.5013 122.969 59.3065 122.635 59.1674C122.302 59.0283 121.94 58.9449 121.578 58.9449C121.189 58.9449 120.855 59.0283 120.521 59.1674C120.187 59.3065 119.909 59.5013 119.659 59.7516C119.408 60.002 119.214 60.2802 119.074 60.6141C118.935 60.9479 118.852 61.3096 118.852 61.6712C118.852 62.0607 118.935 62.3945 119.074 62.7284C119.214 63.0622 119.408 63.3404 119.659 63.5908C119.909 63.8412 120.187 64.0359 120.521 64.175C120.855 64.3141 121.217 64.3976 121.578 64.3976C121.968 64.3976 122.302 64.3141 122.635 64.175C122.969 64.0359 123.247 63.8412 123.498 63.5908C123.748 63.3404 123.943 63.0622 124.082 62.7284C124.221 62.3945 124.305 62.0329 124.305 61.6712C124.305 61.3096 124.221 60.9479 124.082 60.6141ZM123.637 62.5615C123.526 62.8397 123.359 63.09 123.164 63.2848C122.969 63.4795 122.719 63.6464 122.441 63.7577C122.162 63.869 121.884 63.9246 121.55 63.9246C121.244 63.9246 120.938 63.869 120.66 63.7577C120.382 63.6464 120.132 63.4795 119.937 63.2848C119.742 63.09 119.575 62.8397 119.464 62.5615C119.353 62.2833 119.297 62.0051 119.297 61.6712C119.297 61.3652 119.353 61.0592 119.464 60.781C119.575 60.5028 119.742 60.2524 119.937 60.0577C120.132 59.8629 120.382 59.696 120.66 59.5847C120.938 59.4735 121.217 59.4178 121.55 59.4178C121.856 59.4178 122.162 59.4735 122.441 59.5847C122.719 59.696 122.969 59.8629 123.164 60.0577C123.359 60.2524 123.526 60.5028 123.637 60.781C123.748 61.0592 123.804 61.3374 123.804 61.6712C123.804 62.0051 123.748 62.2833 123.637 62.5615ZM122.079 61.9216C122.302 61.8938 122.468 61.8103 122.608 61.6712C122.747 61.5321 122.83 61.3374 122.83 61.0592C122.83 60.7532 122.747 60.5306 122.552 60.3637C122.385 60.1968 122.079 60.1133 121.717 60.1133H120.493V63.257H121.077V61.9772H121.495L122.274 63.257H122.886L122.079 61.9216ZM121.773 61.4487C121.689 61.4487 121.606 61.4487 121.495 61.4487H121.077V60.5584H121.495C121.578 60.5584 121.662 60.5584 121.773 60.5584C121.856 60.5584 121.94 60.5862 122.023 60.6141C122.107 60.6419 122.162 60.6975 122.19 60.7532C122.246 60.8088 122.246 60.8923 122.246 61.0035C122.246 61.1148 122.218 61.1983 122.19 61.2539C122.135 61.3096 122.079 61.3652 122.023 61.393C121.94 61.4208 121.856 61.4487 121.773 61.4487Z" fill="#444762"></path>
</svg>
