<svg width="16" height="16" viewBox="0 0 16 16" fill="none" xmlns="http://www.w3.org/2000/svg">
<path fill-rule="evenodd" clip-rule="evenodd" d="M5.47 3.47001C5.61062 3.32956 5.80125 3.25067 6 3.25067C6.19875 3.25067 6.38937 3.32956 6.53 3.47001L10.53 7.47001C10.6704 7.61064 10.7493 7.80126 10.7493 8.00001C10.7493 8.19876 10.6704 8.38939 10.53 8.53001L6.53 12.53C6.38782 12.6625 6.19977 12.7346 6.00547 12.7312C5.81117 12.7278 5.62579 12.649 5.48837 12.5116C5.35096 12.3742 5.27225 12.1888 5.26882 11.9945C5.26539 11.8002 5.33752 11.6122 5.47 11.47L8.94 8.00001L5.47 4.53001C5.32955 4.38939 5.25066 4.19876 5.25066 4.00001C5.25066 3.80126 5.32955 3.61064 5.47 3.47001Z" fill="currentColor"/>
</svg>
