<svg width="16" height="16" viewBox="0 0 16 16" fill="none" xmlns="http://www.w3.org/2000/svg">
<path fill-rule="evenodd" clip-rule="evenodd" d="M10.53 12.512C10.3894 12.6524 10.1987 12.7313 10 12.7313C9.80125 12.7313 9.61062 12.6524 9.47 12.512L5.47 8.51195C5.32955 8.37133 5.25066 8.1807 5.25066 7.98195C5.25066 7.7832 5.32955 7.59258 5.47 7.45195L9.47 3.45195C9.61217 3.31947 9.80022 3.24735 9.99452 3.25078C10.1888 3.25421 10.3742 3.33292 10.5116 3.47033C10.649 3.60774 10.7277 3.79313 10.7312 3.98743C10.7346 4.18173 10.6625 4.36978 10.53 4.51195L7.06 7.98195L10.53 11.452C10.6704 11.5926 10.7493 11.7832 10.7493 11.982C10.7493 12.1807 10.6704 12.3713 10.53 12.512Z" fill="currentColor"/>
</svg>
