<svg width="16" height="16" viewBox="0 0 16 16" fill="none" xmlns="http://www.w3.org/2000/svg">
<path d="M12.5302 3.71953C12.6708 3.86018 12.7498 4.05094 12.7498 4.24986C12.7498 4.66386 12.4138 4.99986 11.9998 4.99986L3.99985 4.99986C3.80094 4.99986 3.61017 4.92084 3.46952 4.78019C3.32886 4.63953 3.24985 4.44877 3.24985 4.24986C3.24985 4.05094 3.32886 3.86018 3.46952 3.71953C3.61017 3.57887 3.80094 3.49986 3.99985 3.49986L11.9998 3.49986C12.1988 3.49986 12.3895 3.57887 12.5302 3.71953Z" fill="currentColor"/>
<path d="M3.26867 10.7444C3.26524 10.5501 3.33737 10.362 3.46985 10.2199L7.46985 6.21986C7.61047 6.07941 7.8011 6.00052 7.99985 6.00052C8.1986 6.00052 8.38922 6.07941 8.52985 6.21986L12.5298 10.2199C12.6035 10.2885 12.6626 10.3713 12.7036 10.4633C12.7446 10.5553 12.7667 10.6546 12.7684 10.7553C12.7702 10.856 12.7517 10.9561 12.714 11.0495C12.6762 11.1428 12.6201 11.2277 12.5489 11.2989C12.4777 11.3701 12.3928 11.4263 12.2994 11.464C12.2061 11.5017 12.106 11.5202 12.0053 11.5184C11.9046 11.5167 11.8053 11.4946 11.7133 11.4536C11.6213 11.4126 11.5385 11.3535 11.4698 11.2799L8.74985 8.55986L8.74985 14C8.74985 14.4142 8.41406 14.75 7.99985 14.75C7.58563 14.75 7.24985 14.4142 7.24985 14L7.24985 8.55986L4.52985 11.2799C4.38767 11.4123 4.19963 11.4845 4.00532 11.481C3.81102 11.4776 3.62564 11.3989 3.48823 11.2615C3.35081 11.1241 3.2721 10.9387 3.26867 10.7444Z" fill="currentColor"/>
</svg>
