<?xml version="1.0" encoding="UTF-8"?>
<svg id="Layer_1" data-name="Layer 1" xmlns="http://www.w3.org/2000/svg" viewBox="0 0 116.78 206.31">
  <defs>
    <style>
      .cls-1 {
        fill: #92ca5f;
      }

      .cls-2 {
        fill: #ecf2fa;
      }

      .cls-3 {
        fill: #214172;
      }

      .cls-4 {
        fill: #67cadd;
      }

      .cls-5 {
        fill: #f89a56;
      }

      .cls-6 {
        fill: #ef4767;
      }

      .cls-7 {
        fill: #e0e0e0;
      }
    </style>
  </defs>
  <path class="cls-2" d="M82.77,56.7c.37,1.09,1.28,1.9,2.43,2.16.26.06.52.09.77.09.89,0,1.74-.35,2.37-1,.18-.19.32-.38.43-.55.62-.5,1.61-1.07,2.51-1.58.8-.46,1.62-.93,2.34-1.44,2.81-1.96,4.8-4.23,6.28-7.13,1.39-2.74,1.55-5.6.43-7.86l-.19-.39-.05-.05c.39-1.69.54-3.49.23-5.34l-.06-.35c-.17-1.07-.41-2.53-1.63-3.85l-.7-.76-.13-.02c-.03-.22-.06-.44-.1-.66-.24-1.35-.56-2.57-.86-3.76-.85-3.32-1.46-5.71-.11-8.76.16-.36.26-.45.66-.85.27-.27.56-.55.87-.91.68-.78.94-1.7.79-2.72l-.03-.19c-.23-1.06-.99-1.93-2.01-2.31-3.02-1.13-9.11,3.36-9.37,3.55-2.55,1.89-5.56,4.62-6.51,9.03-.64-.36-1.33-.65-2.08-.88-.46-.15-1.84-.62-3.21.22-.33.2-.6.48-.84.78-.04,0-.09-.02-.13-.03-.41-.07-.83-.13-1.25-.18,1.4-1.5,1.67-3.11,1.73-4.51,0-.16.15-4.03-1.49-5.72-.99-1.02-2.61-1.51-4.91-1.96-5.06-.99-12.34-.13-16.46,3.42-1.21,1.05-2.32,2.36-3.28,3.84-1.01-2.54-3.49-4-6.66-3.76-.82.06-1.52.25-2.07.41-.3.08-.59.16-.78.19-.34.04-.84,0-1.36-.04-.61-.05-1.31-.11-2.08-.07-8.41.46-9.7,9.16-10.46,14.36-.15,1.01-.29,1.97-.46,2.78-.78,3.78-1.77,7.7-2.55,10.7-.18.69-.39,1.38-.6,2.06-.45,1.47-.91,2.98-1.15,4.63-.16,1.12-.42,2.89,1.01,4.54-6.38,5.45-7.12,15.53-5.73,22.75.79,4.11,2.5,9.45,6.18,11.53,1.03.58,2.14.88,3.28.88.84,0,1.69-.16,2.55-.47h0c.17-.06.32-.14.47-.21-.12.26-.21.56-.27.89-.97.14-1.89.56-2.54,1.5-.94,1.36-.98,2.8-1,3.77-.88.1-1.68.53-2.23,1.26-.31.41-.51.87-.63,1.34-.58.28-1.12.76-1.51,1.51l-.65,1.26h0c-.39.18-.75.41-1.05.73-1.14,1.22-.93,2.78-.86,3.29.05.33.13.61.21.85-.03.27-.06.65-.01,1.09v.02c-.5.73-.85,1.61-.85,2.67,0,3.5,2.22,8.68,3.8,11.24,1.36,2.21,3.82,5.26,6.24,7.1,1.17.89,2.49,1.67,3.97,2.34-.03.54.03,1.12.28,1.72-.67,2.61-1.37,5.35-2.11,8.1-1.25-.63-2.7-.78-3.69-.65-1.18.15-3.32.96-4.09,1.34-3.81,1.88-5.38,7.35-4.24,11,.38,1.2,1.02,2.27,1.77,3.24-1.41,1.39-2.69,4.63-2.93,5.97-.42,2.36.31,4.99,2.01,7.22.73.97,1.6,1.79,2.54,2.46-.41.5-.75,1.03-.99,1.6-1.21,2.86-.54,5.29.53,7.31-.07.03-.14.06-.2.09-1.16.55-2.7,1.77-3.44,4.49-.85,3.14-.33,7.22,1.23,9.5,1.92,2.82,5.01,4.49,8.2,4.49.26,0,.52-.01.77-.03,1.69-.14,3.22-.76,4.51-1.74.59.42,1.25.71,1.87.79.2.03,1.6.2,2.9-.19.21.77.6,1.5,1.24,2.12.95.9,2.51,1.42,4.07,1.42,1.38,0,2.74-.41,3.66-1.35.04-.04.08-.09.12-.14.88.7,1.91,1.15,2.92,1.48,1.27.43,2.5.64,3.67.64,3,0,5.7-1.39,8.04-4.14.6-.71,1.08-1.43,1.48-2.16,1.23,1.18,2.77,2.03,4.54,2.45.89.21,1.82.32,2.77.32,2.86,0,5.82-.96,8.18-2.73.65-.48,1.21-1.1,1.68-1.79,1.2.46,2.48.54,3.26.54.45,0,.74-.03.75-.03,3.55-.38,9.37-4.27,11.12-7.43.92-1.67,1.88-5.37,1-7.98-.45-1.34-1.36-2.37-2.56-2.9-.49-.21-1.31-.49-2.25-.4.22-1.14.23-2.38-.08-3.5,1.98-.51,3.52-2.01,3.74-2.25,2.44-2.51,3.05-4.68,3.28-7.59.42-5.24-.56-10.73-2.76-15.61.71-2.03,1.42-4.53,1.04-6.91-.18-1.1-1.31-2.88-1.32-2.9-.27-.42-1.46-2.12-3.23-2.68.11-.93,0-2.05-.55-3.37-.85-2.06-1.9-2.68-2.99-3.19-.16-.07-.34-.16-.56-.28-.07-.04-.12-.08-.18-.11.25.08.51.14.8.17.09,0,.18.01.28.01.94,0,1.83-.39,2.49-1.09l.11-.13c.7-.84,1.41-2.73-.39-4.51-.1-.09-.37-.37-.14-1.79.64-1.47.53-2.72-.34-3.74,0,0,0,0,0,0,1.97-2.29,4.6-5.39,1.94-7.88l-.33-.33c.15-.09.3-.18.45-.29,1.45-1.13,4.12-4.37,4.83-6.53.69-2.1.67-3.54-.09-4.68-.77-1.17-2.15-1.79-4-2.54-.28-.11-.53-.21-.69-.29-.58-.28-1.16-.61-1.75-.97.09,0,.18.01.28.01.9,0,2.41-.33,3.38-2.32.04-.09.08-.19.12-.28.84-.15,1.58-.58,2.1-1.09,1.37-1.36,2.47-5.26,2.48-5.3.6-2.23.57-4.62-.08-6.91-.11-.38-.22-.84-.35-1.33-.85-3.35-1.74-6.83-4.94-6.54l-.26.03c-.59.1-1.13.38-1.58.75-.12-.41-.12-.53-.12-.54,0-.01.03-.15.24-.6.63-1.31.34-2.81-.71-3.73-1.09-.96-2.65-1.02-3.98-.16h0c-1.65,1.09-2.23,2.86-2.22,4.67-.09-.11-.19-.22-.31-.36,0,0,0,0,0,0,.02-1.74-.45-4.1-1.85-5.79-.09-.1-.22-.25-.4-.41.43-.92.92-1.7,1.42-2.23,0,0,0,.02,0,.03ZM87.12,40.78l.49.04c.03.25.04.48.02.71-.02.24-.13.6-.25.99-.02.07-.05.15-.07.22-.04-.04-.09-.08-.13-.12l-.06-1.84ZM86.32,41.94c-.11-.08-.22-.15-.32-.24-.29-.29-.5-.66-.64-1.06l.53.04.71,1.46c-.1-.08-.2-.14-.28-.21ZM37.73,44.97c.13.37.28.69.44.99-.43.2-.82.41-1.2.63.17-.89.31-1.83.43-2.67.1.35.21.71.32,1.05ZM71.91,133.77c-.11.2-.29.5-.43.71-.06.09-.11.18-.17.27-.15-.61-.32-1.13-.46-1.48-.19-.46-.41-.84-.58-1.14-.07-.12-.15-.24-.19-.34-.09-.27-.27-1.26.05-4.66.06-.63.15-1.27.26-1.91.25.2.5.39.74.57l.17.13c.11.08.39.28.73.51.07.05.15.1.23.15.05.84.14,1.66.25,2.47.06.42.15.84.25,1.26.04.16.08.32.1.46-1.03,1.08-.99,2.39-.94,3ZM55.04,124.47c2.86-1.85,5.38-4.33,7.27-7.19-.04.19-.08.43-.13.7-.07.39-.23,1.31-.38,1.86-.97.74-1.29,1.69-1.37,2.41-.14,1.14.2,2,.53,2.57-.01.18-.03.39-.04.56-.04.4-.07.8-.07,1.16,0,.63,0,1.27,0,1.9,0,.67.02,1.32,0,1.95-.74.67-1.06,1.46-1.24,1.89-.41.25-1.43.63-2.5.82-.12.02-.27.02-.48,0-.1-.41-.2-.83-.3-1.25-.31-1.33-.63-2.68-1.08-4.05.42-1.07.22-2.15-.2-3.32ZM63.74,102.24c-.03.09-.09.18-.13.27-.25-.2-.51-.38-.78-.55.02-.26.02-.51-.01-.73l.16-.28c.36.35.62.79.76,1.29ZM58.39,86.92c0-.06.02-.12.02-.17,0,0,0-.02.02-.03.48.89,1.17,1.65,1.94,2.24-.17.13-.35.27-.52.41-.46-.76-.95-1.52-1.49-2.29.01-.06.02-.11.03-.17ZM64.42,102.29c-.03-.37-.09-.72-.19-1.01.03-.39-.01-.73-.07-.98l-.23-1.03,1.03-1.82h-.59c.22-.17.44-.35.68-.54.14.41.24.82.31,1.23.22,1.28-.2,2.47-.94,4.15ZM46.11,88.74c0-.06,0-.13,0-.19.02,0,.04,0,.06.01l-.06.18ZM46.31,84.16c-.23-.81-.64-1.4-.88-1.74-.02-.03-.05-.06-.07-.1,0-.06.02-.15.05-.3l.05-.09c.79.34,1.69.54,2.73.6-.3.71-.48,1.43-.56,2.05-.41-.24-.86-.38-1.33-.42ZM66.62,51.25c-.19.36-.36.74-.52,1.13-.12-.04-.24-.09-.37-.13.09-1.01.15-2.47-.07-3.71.36-.03.71-.09,1.04-.16.11-.02.21-.05.32-.08.12.54.35,1.07.69,1.58-.39.33-.77.77-1.09,1.36ZM69.48,144.04c-.3-.12-.66-.2-1.05-.26.17-.09.34-.18.52-.28.26-.09.61-.23.97-.5.13-.1.39-.29.69-.71.22.74.74,1.36,1.47,1.83-.48.23-.9.49-1.25.77-.38-.35-.82-.64-1.35-.85ZM36.53,140.86l.37-1.32,1.55.39,3.6-11.13c.18-.01.36-.03.54-.04.12.25.26.49.42.71.16.22.33.41.5.57.07.29.14.56.21.78.15.48.31,1.01.48,1.55.4,1.33.81,2.69,1.29,3.85,1.11,2.67,3.1,2.8,4.19,2.64.12-.02.23-.04.34-.07.56,1.71,1.14,3.44,1.78,5.15.11.3.21.57.31.83-.86.12-1.72.34-2.54.69,0-.14-.01-.27-.02-.38-.26-2.67-1.81-3.74-2.71-4.14-2.38-1.05-4.28-1.26-7.01-.79-1.36.23-2.48.6-3.43,1.13l.13-.42ZM71.43,181.43c0-.12.03-.25.06-.36.07.04.14.08.21.12-.09.08-.18.16-.27.24ZM84.16,152.39c-.13-.04-.26-.08-.39-.11-.03-.12-.07-.23-.1-.35.43-.01.85-.04,1.25-.12.09.35.15.72.21,1.08-.3-.2-.62-.38-.98-.5ZM85.03,137.36s-.03.06-.04.09c-.21-.79-.55-1.54-1.07-2.39-.01-.02-.03-.04-.04-.06.56.09,1.11.11,1.62.1-.03.14-.05.29-.08.43-.12.69-.23,1.35-.4,1.85ZM31.55,85.47c0,.15,0,.29,0,.42-.21-.05-.42-.11-.62-.21.2-.1.41-.17.61-.22Z"/>
  <polygon class="cls-2" points="74.03 61.6 91.1 55.08 95.34 33.11 29.53 28.15 21.58 61.57 33.73 102.78 29.41 140.63 40.01 169.43 89.5 157.68 92.86 135.33 83.73 123.64 74.03 61.6"/>
  <path class="cls-4" d="M45.16,33.59c-.61-3.49-.44-5.3-.41-7.96.02-1.29.5-2.71.69-3.98.18-1.22.67-2.56.28-3.79-.69-2.23-1.6-2.53-3.55-2.77-2.22-.27-4.52.22-6.46,1.36-2.36.41-4,2.47-4.97,4.6-1.34,2.97-.97,5.89-1.27,9.03-.28,3-1.78,5.76-2.17,8.77-.2,1.53-.26,3.07-.52,4.59-.29,1.66-.91,3.17-1.61,4.69-.44.95-.11,2.06.97,2.38,1.45.43,2.91-.23,4.3-.63,1.22-.35,2.08-.72,2.51-2,1.03-3.1.49-9.72,1.04-12.94.12-.68.11-1.53.39-2.16.2-.46.69-.73,1.05-1.08.85-.82,2.79,1.09,3.75,2.62.79,1.26.85,3.16,1.11,4.58.32,1.76.65,3.51.97,5.27.23,1.23,1.9,1.52,2.71.72.58-.58,1.47-.71,2.16-1.12.98-.57,1.63-1.44,1.86-2.55.49-2.44-2.4-5.21-2.83-7.63ZM37.53,21.31c.06.29.18.58.41.81.46.49.39,1.88.45,2.5.11,1.06.17,2.12.19,3.19,0,.16,0,.33,0,.49-.37.12-1.19.46-1.24.48-.53.19-1.05.39-1.58.58-.12-.03-.25-.07-.37-.1-.32-.08-.62-.11-.93-.13,0-.35,0-.7.02-1.04.04-.63.15-1.24.31-1.86.33-1.3.89-2.52,1.65-3.63.31-.45.67-.91,1.08-1.29Z"/>
  <path class="cls-4" d="M75.24,28.94c.38-1.43,1.61-2,1.22-3.49-.35-1.33-.47-1.17-1.65-1.68-2.8-1.2-5.89-.91-8.83-.52-.7.09-1.38.44-1.56,1.19-.07.3-.14.6-.22.9-.57.7-.58,1.86.37,2.46.67.42,3.79-1.5,4.4-.07.75,1.76-1.21,6.91-2.82,7.38-6.9,2.03-6.36-2.42-7.22-4.38-1.12-2.54-.43-5.72.37-8.25.2-.64,1.28-1.71,1.51-2.34.06-.09.08-.14.09-.19h.25c.34.03.69.03,1.03.04l4.63.15s.05,0,.07,0c.26.09.54.13.86.08,1.48-.24,2.85.37,3.83-1.21.88-1.41.95-3.47.99-5.08.02-.65-.51-1.45-1.19-1.56-2.64-.45-5.3-.68-7.98-.56-2.43.11-5.3.25-7.51,1.36-1.94.97-3.97,2.75-5.19,4.53-1.35,1.96-1.75,4.39-1.86,6.72-.11,2.38-.16,4.83.76,7.06.81,1.95,1.81,4.11,3.45,5.5,1.73,1.46,3.62,1.28,5.68,1.77,1.93.45,1.83,2.85,2.87,4.24,1.42,1.89,4.86,2.64,6.77,1.07.55-.45,1.45-1.56,1.54-.11.09,1.4.7,1.77-.03,2.92-.62.98.14,1.56,1.37,1.45,2.4-.21,3.14-.79,3.24-3.42.06-1.55-.1-3.73-.17-5.29-.07-1.58-.54-3.02-.44-4.59.16-2.76.97-4.54,1.38-6.08Z"/>
  <path class="cls-5" d="M55.84,103.91c-2.31-1.1-5.16-1.88-7.7-2.23-2.06-.28-2.32,1.33-.86,2.05,2.96,1.44,5.18,1.32,8.24,2.53.02,0-.2.19-.18.2-.06.03-.09.35-.15.38-.68.28-1.74,1.03-2.46,1.18-.37.07.67,1.75-.81,2.14-.51.13-.41-.01-.47.04-.15.13.07-1.51-.48-.77-.11.16-.8,1.56-.9,1.77-.69-.12-.99-.69-1.64-.75-1.75-.16-1.72,1.16-3.46.93-1.6-.2-7.57-1.29-8.72-2.42-.5-.5-.56,1.27-.96,1.08-.51-.25-.16-1.67-.56-1.55-.32.1-1.49,1.18-1.76,1.43-.3.28-.89-.95-1.17-.56-.38.52.59-3.24,0-3.17-.5-.09-2.74,4.39-2.07.52-.09-.15-.18-.31-.28-.46-.32-.49-.66-.92-1.04-1.31-.25-1.24.59-2.16-1.07-2.19-1.92-.03-4.02.42-4.9,2.21-1.28.36-1.99,2.14-.51,2.92.26.13.51.27.77.41.43.42,1.02.72,1.7.92,1.43.77,2.91,1.5,4.42,1.94,1.24.37,2.32-.12,3.53.06,1.26.19,2.47.79,3.75.99,2.59.41,5.14.06,7.71.65,2.19.5,5.27,1.26,7.46.49.4-.14.69-.34.96-.67.21-.26.35-.96.6-1.12.24-.16.73-.18,1.17-.2.23.43.68.72,1.35.64,2.06-.24,4.35-.53,6.03-1.8,3.11-2.34-4.36-5.73-5.53-6.29Z"/>
  <path class="cls-7" d="M53.32,105.16c-2.07-.97-4.5-1.76-6.34-3.12-.15-.11-1.19,8.24-1.32,8.13-.46-.76.1-8.83.06-9.22.1-.25.58-5.31-.49-5.9-.8-.44-1.97-.53-2.85-.72-.96-.22-1.92-.43-2.88-.65-2-.45-9.29-2.91-10.54-2.63-.84.19-.22,3.35-.27,4.18-.05.9-.11,1.8-.16,2.7-.13,2.1-.25,4.2-.38,6.3-.1,1.74,2.6,1.73,2.7,0,.03-.46.52.06.55-.4.15.03.12-.24.28-.28.48.62.74.46,1.36.95.03.16.02.3-.06.39-.76.78-.33,1.9.6,2.26,3.43,1.35,6.9,2.62,10.39,3.81.5.17,1.69-.06,2.03-.41.31.65.38,1.14,1.21.72,1.02-.52,3.52-3.65,4.5-4.24,1.07-.65.61,1.21,1.63.47.73-.54,1.01-1.86,0-2.33ZM31.44,94.42s0-.06,0-.09c.03,0,.06.01.08.02-.03.02-.06.04-.09.07ZM45.96,108.86c.33-1.29.52-2.59.59-3.91,1.06.61,2.19,1.13,3.33,1.63-1.27.83-2.57,1.59-3.92,2.28Z"/>
  <g>
    <path class="cls-5" d="M32.79,64.19c-1.25-.77-3.01-.17-4.18.45-1.77.94-.41,3.3,1.31,2.91-.02,0,0-.01.02,0,.1-.02.21-.06.31-.1-.16.07-.25.1-.3.11.04.02.08.08.02.27-.09.34-.02.83-.08,1.2-.13.79-.34,1.58-.6,2.34-.37,1.08-1.09,3.01-2.37,3.34-1.2.31-2.08-1.02-2.29-2.02-.35-1.59.09-3.32.48-4.87.36-1.45.8-2.95,1.44-4.3.68-1.46,1.74-2.31,2.9-3.37,1.96-1.8,2.97-4.6,1.08-6.82-.54-.63-1.21-.64-1.76-.34-2.11-1.26-4.61.89-6.09,2.48-2.05,2.22-3.62,4.79-4.4,7.72-.8,2.97-.34,6.19.24,9.26.48,2.52.74,4.87,2.58,6.65.39,1.05.91,2.09,1.66,2.83,1.05,1.03,2.63.91,3.93.52,2.78-.82,4.84-3.15,6.6-5.33.96-1.19,1.78-2.42,2.01-3.97.25-1.63-.03-3.37-.46-4.95-.35-1.28-.84-3.26-2.06-4.01ZM28.46,77.58s.09-.04.13-.07c-.03.03-.07.06-.11.1,0,0-.02-.02-.03-.03Z"/>
    <path class="cls-5" d="M29.92,67.55s.01,0,.03,0c0,0,0,0-.01,0,0,0-.01,0-.02,0Z"/>
    <path class="cls-5" d="M42.55,60.98c.05-.02.1-.04.15-.07,1.9-.23,3.76-.76,4.94-2.39,1.22-1.69,1.25-3.87,1.05-5.86-.17-1.68-.62-3.53-2.29-4.22-.3-.45-.75-.76-1.34-.75-1.59.02-3.19-.04-4.78.06-1.32.08-2.56.47-3.31,1.63-1.49,2.3-.98,5.9-.19,8.41-.21,5.1-.1,10.2.36,15.3.19,2.1,3.02,2.07,3.24,0,.19-1.77.41-3.68,1.12-5.35,1.08,1.93,1.97,3.94,2.68,6.03.21.99.48,1.95.85,2.9.01.05.03.1.04.15,0,0,0,0,.01,0,.05.13.09.26.15.39.75,1.74,3.38.47,2.97-1.25-.28-1.16-.62-2.31-1.01-3.43-.53-2.97-.59-6.13-2.65-8.49-.64-.74-1.47-1.15-2.28-1.67-.15-.09-.92-.52-.88-.78.04-.23.95-.51,1.15-.6ZM40.03,58.11c.23-.4.38-.82.46-1.34.13-.79.18-.95.93-1.26.68-.28,1.37-.51,1.99-.92.38-.25.85-.83,1.33-.8.03.07.06.15.09.22.09.52.15,1.05.17,1.59-.45.61-1.09,1.17-1.35,1.32-1.11.66-2.49,1-3.62,1.66,0-.16,0-.32.01-.48Z"/>
    <path class="cls-5" d="M55.3,51.2c.02-.85-.76-1.66-1.62-1.62-.89.04-1.61.71-1.62,1.62-.03,1.8-.03,3.61.03,5.41.02.85.73,1.66,1.62,1.62.86-.04,1.65-.71,1.62-1.62-.05-1.8-.06-3.61-.03-5.41Z"/>
    <path class="cls-5" d="M55.47,45.27c-.03-.35-.03-.7,0-1.05.05-.19.06-.39.02-.58,0-.22-.07-.42-.19-.6-.2-.34-.58-.66-.97-.75-.42-.09-.88-.07-1.25.16-.34.22-.67.56-.75.97-.11.6-.17,1.22-.12,1.83.05.61.15,1.22.35,1.8.14.4.37.75.75.97.35.2.86.29,1.25.16.39-.13.77-.37.97-.75.2-.37.31-.84.16-1.25-.1-.3-.17-.61-.22-.92Z"/>
    <path class="cls-5" d="M63.01,55.75c-.44-.21-.89-.37-1.34-.54-.02,0-.1-.04-.15-.06-.05-.03-.13-.06-.14-.07-.07-.04-.15-.09-.23-.13.65-2.15,1.23-4.24.88-6.51-.13-.84-1.23-1.38-2-1.13-.92.3-1.27,1.09-1.13,2-.03-.21.01.15.01.19,0,.15.02.29.02.44,0,.28-.02.55-.05.83-.01.05-.05.33-.05.32-.03.15-.06.29-.09.44-.06.29-.14.58-.22.87-.33,1.21-.85,2.41-.98,3.67-.16,1.52.72,2.74,2.12,3.27.61.23,1.3.24,1.95.29.06,0,.08,0,.08,0,.03,0,.05,0,.09.02.14.03.28.06.42.09.3.07.6.16.9.25,1.08.32,2.48-.83,2-2-.41-1-1.09-1.75-2.08-2.22Z"/>
    <path class="cls-5" d="M71.34,61.3c-.31-.22.13.1-.13-.12-.04-.05-.05-.05-.07-.07,0-.01-.02-.04-.02-.04-.18-.43-.52-.78-.93-.96.03-.11.07-.23.1-.34.6-1.95,1.27-3.88,2-5.79.3-.79-.34-1.81-1.13-2-.93-.21-1.67.28-2,1.13-.59,1.55-1.15,3.11-1.66,4.69-.25.79-.5,1.58-.73,2.38-.24.83-.41,1.72-.15,2.57.31.99,1.14,1.6,2.1,1.9.31.1.63.16.95.23.55.13,1.13.32,1.69.18,1.43-.34,1.77-2.06.83-3.09-.25-.27-.56-.46-.86-.67Z"/>
    <path class="cls-5" d="M78.68,61.83c-2.09,0-2.09,3.24,0,3.24s2.09-3.24,0-3.24Z"/>
  </g>
  <path class="cls-6" d="M73.85,84.98s-.05-.08-.07-.12c.15.03.31.06.46.08.02,0,.04,0,.06,0-.15,0-.3.02-.44.03ZM66.66,84.03c-.17.21-.34.43-.5.66-.01-.13-.02-.26-.03-.37,0-.08-.02-.16-.03-.24.19,0,.37-.03.56-.05ZM66.16,92.88c.49,1.56,1.2,3.04,1.59,4.63.33,1.34.49,2.71.52,4.09-.09.07-.19.16-.27.26-2.86,3.4-2.69,7.46-1.86,11.5,0,1.03.13,1.98.44,2.8.88,1.68,2.16,1.75,1.98,2.29.12.1.24.19.36.29.49.41.99.8,1.48,1.18,1.29,1.3,2.76,2.45,4.22,3.6.17.18.34.35.5.54.39.45.81.73,1.25.89.2.18.4.37.6.56,2.04,2.12,5.34,5.11,8.19,5.83,1.29.32,2.62-.89,1.53-1.87-3.09-2.77-5.23-4.03-7.08-6.87-1.57-2.42-2.42-6.55-1.73-9.74.53-2.41,1.06-4.34,3.67-6.02.97-.62,1.97-1.53,1.96-2.61-.58-1.4-1.34-8.11-.85-13.91.32-3.78,1.8-4.3,2.36-8.95.19-1.62-.07-5-.42-6.11-.99-3.18-1.53-6.18-3.75-7.82-1.02-.75-2.81-1.26-4-.47-.72.48-1.07,1.33-1.25,2.26-.91-.2-1.87-.1-2.76.4-.8.45-3.26-1.23-4.54-.16-1.5,1.26-2.92,3.19-3.34,5.24-.39,1.93.92,2.38,2.13,1.08.35.4.88.62,1.52.4.96-.32,2.3-.57,3.4-1.05,2.01.31,4.02.61,6.04.92,1.02.15,2.21.24,3.24.6-.08.13-2.91,3.27-4.89,4.21-1.88-.1-3.9-1.53-5.25-2.02-.69-.25-1.47.17-1.83.75-.8,1.24-2.79,2.32-4.07,1.61-1.35-.75-2.82.13-1.89,1.54.75,1.15.5,2.6.86,3.88.25.88.67,1.65,1.31,2.25-.58.89.19,2.63.64,4"/>
  <path class="cls-1" d="M80.15,48.67c-1.87,1.5-3.45,3.39-4.59,5.5s-1.75,4.49-2.18,6.92c-.2,1.11-.4,2.26-.82,3.31s-1.27,1.62-1.82,2.56c-.69,1.16-.3,2.6.85,3.29.51.31,1.15.46,1.73.47.21,0,.42-.02.63-.03.23-.01.52.09.38-.05,1.19,1.25,2.99-.08,2.71-1.58s.04-3.02.82-4.34l-3.02-.82c-.15,2.07.9,3.94,2.6,5.07s3.37-1.65,1.64-2.8c-.79-.52-1.06-1.36-1-2.27.12-1.66-2.24-2.14-3.02-.82-1.24,2.1-1.6,4.46-1.15,6.84l2.71-1.58c-.58-.61-1.31-.87-2.14-.91-.3-.01-.64-.01-.94.04-.48.08-.24-.15-.14.09l.22.82c.02.23-.17.26.12.02.14-.13.27-.28.39-.43.3-.36.59-.74.82-1.15.43-.74.75-1.56.99-2.38.48-1.63.63-3.34,1.03-4.99.81-3.39,2.75-6.31,5.46-8.48.68-.55.57-1.72,0-2.29-.68-.68-1.61-.55-2.29,0h0Z"/>
  <g>
    <path class="cls-4" d="M67.59,135.88c-.68-.44-1.49-.41-2.24-.16-.04.01-.07.02-.1.03.1-.56,0-1.19-.37-1.56-.61-.61-1.68-.48-2.36-.06-.62.39-1,.97-1.34,1.59-.1.17-.19.36-.34.5-.02,0-.15.04-.23.05-.17.02-.35,0-.52,0-1.6-.05-3.21-.1-4.81-.15-1.29-.04-1.54,1.57-.76,2.22,0,.03-.02.07-.02.1-.07.63.29,1.18.9,1.37,1.07.34,2.18.32,3.28.2,1.12-.12,2.19-.2,3.32-.17,2.18.06,4.17-.61,5.86-1.99.65-.54.36-1.57-.25-1.96ZM64.53,135.98c-.15.03-.04-.06,0,0h0ZM63.78,136.29c.06-.09.14,0,0,0h0ZM62.78,135.3c.02-.1.07-.15,0,0h0Z"/>
    <path class="cls-4" d="M80.74,135.63c-.15-.14-.31-.27-.45-.42-.07-.07-.13-.13-.19-.2,0,0,0,0,0,0,0-.01,0-.02-.02-.03,0,0-.08-.14-.12-.2,0-.02-.01-.05-.02-.07,0,0,0,0,0-.01,0,0,0,0,0,0,0-.03.01-.06.03-.09.26-.8-.43-1.56-1.21-1.58-.8-.03-1.6-.05-2.4-.08-.5-.02-.96.33-1.14.77-.2.48-.09.99.26,1.37.08.09.16.18.24.27.03.05.07.1.1.14.02.03.03.06.05.09-.03.04-.07.08-.08.09-.02.02-.04.03-.07.05-.34.22-.73.34-1.07.55-.28.17-.57.41-.73.7-.25.42-.27.81-.2,1.29.1.65.95,1.06,1.54.87.02,0,.04-.02.06-.03.29.2.65.28,1.02.18.43-.12.88-.28,1.32-.32.04,0,.09,0,.13,0,.11,0,.21,0,.32,0,.06,0,.13,0,.19.01.07.01.13.03.19.05.5.14.95.32,1.47.36.64.05,1.34-.16,1.74-.68.86-1.11-.11-2.28-.94-3.02Z"/>
  </g>
  <g>
    <path class="cls-3" d="M77.37,61.61c.73.11,1.55-1.1,2.15-.38.88,1.06,1.25,2.89,1.14,4.24-.02.19-.18.41-.16.5.02.13,1.48,1.7,1.71,2.02.98,1.37,2.39,3.65,3.06,5.17,2.28,5.13,1.16,10.68-.53,15.78,1.64,1.35,3.42,2.58,5.34,3.51.78.38,3.07,1.14,3.5,1.79.26.39-.1,1.61-.26,2.08-.46,1.39-2.66,4.2-3.82,5.1-.25.2-.86.45-.99.57-.1.1-.27.53-.41.72-.37.5-.69.87-1.22,1.2-.29.18-1.38.57-1.49.68-.15.15-.22.7-.34.96-.76,1.59-2.33,2.77-3.47,4.07-3.11,3.53-2.19,7.5-.54,11.47.98,2.37,1.87,3.67,4.11,4.99,1.24.73,1.66.49,2.3,2.04.38.92.58,2-.03,2.86-.4.57-1.05,1.04-1.76,1.1-1.38.13-3.94-.69-5.07-1.53-.5-.37-.94-.99-1.39-1.42,0,.22-.01.43,0,.65.03.49.22,1.99.34,2.41.02.06.4.15.55.6.28.82-.08,1.31,0,1.75.1.58,1.05,1.55,1.38,2.08.75,1.22.93,1.95.86,3.4-.03.58.01.8-.52,1.13-1.8,1.08-5.99,1.45-7.89.52-.53-.26-.24-.35-.31-.66-.15-.71-.46-1.76-.48-2.46-.03-1.55,1.5-2.75,1.87-4.2.2-.79-.56-1.85,1.08-1.65-.18-.6-.04-1.24-.09-1.86-.06-.74-.32-1.45-.42-2.18-.16-1.19-.25-2.41-.29-3.61-.04-.14-1.77-1.28-2.05-1.5-1.08-.84-2.51-1.92-3.43-2.89-.23-.24-.47-.63-.7-.86-.07-.07-.08-.12-.21-.09-.82,2.34-1.41,4.67-1.65,7.15-.15,1.58-.43,4.69.16,6.08.21.51.56.95.78,1.48.53,1.3.99,4.18.47,5.46-.06.15-.29.65-.4.73-.12.09-.31.08-.44.16-1.44.9-2.4,1.06-4.08,1.29-2.44.33-5.03.43-7.49.27.08.58.59,1.96.52,2.47-.03.26-.62.53-.87.61-.3-.13-1.03-2.11-1.19-2.54-1.86-4.99-3.28-10.14-4.91-15.2-.12-.1-.31-.1-.43-.18-.36-.24-1.06-2.42-1.23-2.94l-.73.18.95,2.38c.02.39-.65.55-.67.69.71,2.03,1.21,4.12,1.76,6.2.14.53.84,1.76-.09,1.9-.6.09-.78-.35-.98-.83-.61-1.47-1.17-3.59-1.68-5.17-.15-.47-.27-1.27-.43-1.65-.09-.21-.48-.22-.69-.52-.39-.55-.65-1.56-.76-2.23-1.61.22-3.21.4-4.84.36l-3.39,10.48c-.6-.15-.73-.3-.7-.91.12-2.17,1.04-4.65,1.47-6.76.05-.22-.36-.02-.43.02l-3.16,11.39-1.8,6c-.58.72-1.39.51-1.37-.5,0-.59.43-2.23.58-2.89.39-1.61.96-3.17,1.39-4.76.87-3.23,1.7-6.46,2.52-9.7l-.07-.16c-1.12-.37.05-1.93,0-2.76-2-.68-3.95-1.6-5.63-2.88-1.97-1.5-4.2-4.17-5.5-6.28-1.42-2.3-3.35-6.97-3.35-9.66,0-1.29,1.61-2.2,2.64-2.75,1.42-.75,3.08-1.18,4.64-1.56v-5.84c.1-1.04.2-2.08.27-3.12.07-.9-.09-1.99.48-2.81.4-.57,2.46-.11,3.09.02,4.11.84,8.61,1.99,12.65,3.12.86.24,2.79.74,3.18,1.59.29.64.23,3.08.19,3.89-.04.66-.21,1.37-.26,2.03,4.01.37,8.32.9,12.04,2.47,1.7.71,3.49,1.69,4.07,3.56-.12,1.13-.32,2.14-.82,3.16-.8,1.63-1.5,3.35-2.47,4.9-2.1,3.38-5.27,6.27-8.84,8.02.2.64,1.41,3.03,1.17,3.55-.08.18-.55.41-.55.64,1.15,2.85,1.54,5.9,2.45,8.82l.09.08c.14-.15.42-.24.62-.25.89-.02,1.61.22,2.57.06,1.26-.22,3.67-.9,4.44-1.98.42-.59.39-1.39,1.17-1.69.16-.06.45,0,.51-.18.19-1.86.07-3.75.1-5.63.01-.81.21-1.78.09-2.6-.05-.4-.61-.64-.52-1.37.05-.45.4-.44.65-.66.7-.6,1.01-3.23,1.21-4.16s.71-2.65.78-3.54c.02-.24-.38-1.18-.47-1.53-.33-1.35-.41-2.5-.26-3.88.46-3.98,3.7-7.01,3-11.17-.32-1.9-1.14-3.64-2.27-5.17-.3-.02-4.34,3.26-4.85,3.72-.6.54-1.45,1.64-2.04,2.03-.1.06-1.04.54-1.1.55-.18.02-.6-.15-.75-.26-.3-.22-.34-.59-.46-.92-.71-1.98-1-4.03-1.86-5.94-.42-.93-1-1.79-1.38-2.74-.22-.03-.14,0-.17.13-.3.99-.34,2.57-.43,3.64-.08.97.04,2.71-.41,3.57-.37.72-2.11.91-2.47.09-.28-.64.57-2.82.76-3.62.36-1.51.56-3.06.89-4.57-.59-.77-1.16-1.65-1.2-2.66-.04-1.11.68-3.48,2.17-2.99l.67-6.2c-1.4-.78-3.13-1.01-3.43-2.88-.3-1.9-.04-4.62.15-6.57s.48-3.68,1.16-5.43c.28-.36,1.98-.98,2.47-1.08,1.32-.27,4.72.05,6.03.48.53.17,1.59.67,2.03,1.01,1.22.95.91,2.34.66,3.68-.34,1.84-.87,4.09-1.39,5.89-.31,1.07-1.38,4.18-2.25,4.77-.1.07-1.48.66-1.58.68-.28.05-1.12-.23-1.28.01-.16,1.24-.67,2.39-.9,3.61-.04.22.26-.04.47-.06,1.06-.06.89.92.58,1.62-.09.21-.51.74-.51.85,0,.28.59.68.47,1.62-.07.55-.33.72-.47,1.08-.24.63-.18,1.46-.6,2.02,1.57,2.04,2.94,4.24,3.95,6.62l.18.05c.57-.93,1.54-1.73,2.39-2.42.97-.8,1.97-1.49,3.06-2.12l-.69-2.28c-1.61-.41-3.77-2.29-2.97-4.09.06-.14.13-.36.27-.42.46-.18.25.28.33.5.16.44,1.12,1.08,1.6,1.13l-.45-3.15c-.28-.24-.65-.34-1-.56-.67-.43-1.99-2.1-2.27-2.85-.18-.48-.5-1.87.16-2.07l3.78-.47c.08-.61.29-1.17.52-1.73.89-2.15,2.68-4.51,4.24-6.25.55-.61,1.18-1.14,1.78-1.69-1.78.07-2.98-1.11-3.98-2.43-1.45-1.89-.32-2.34.56-4.03.34-.64.72-1.45,1.01-2.11.61-1.38,1.1-3.35,1.76-4.57.26-.48.53-.75,1.12-.68.2.02,1.49.4,1.67.5.62.31,1.01.77.85,1.49-.25,1.12-1.32,2.74-1.76,3.88-.16.42-.47,1.39-.45,1.81.03.47,1.89,1.16,2.25,1.51.96-2.06,1.31-4.35,2.33-6.39.79-1.59,3.57-6.04,5.22-6.57.62-.2,1.53-.17,2.15.02.47.14.84.51,1.28.71.5.23,1.12.13,1.06.98-.13,1.72-3.28,3.5-4.4,4.7-1.65,1.77-2.76,4.65-3.29,6.98ZM80.92,67.76c.1-.09-.42-.65-.52-.74-.78-.73-1.97-1.4-2.81-2.13-.16-.14-.42-.52-.48-.56-.14-.09-.38.12-.61-.17-.14-.18-.38-1.15-.41-1.41-.35-3.01,2.64-8.59,4.92-10.55.96-.83,2.2-1.3,2.95-2.34-1.05-.53-1.71-1.12-2.97-.89-.88.16-2.73,2.71-3.25,3.51-2.38,3.62-2.82,8.1-4.91,11.82-.87,1.55-2.2,2.76-3.51,3.94,1.37.47,1.99,1.68,2.38,2.99.27-.59.35-1.07,1.02-1.33,1.37-.52,2.46-.09,3.45.89,0-.69-.67-2.25.21-2.61.78-.32,1.26.46,1.78.87.03-.32-.04-.69,0-.99.16-.97,2.11-.45,2.77-.31ZM72.78,61.61c-.76.03-2.66-.63-2.84-1.45-.44-1.96,1.7-4.74,2.3-6.57-.45-.68-1.2-.84-1.97-.82-.07,1.17-.43,2.32-.78,3.43-.39,1.23-.96,2.96-1.58,4.06-.17.31-1.18,1.65-1.17,1.84.52.92,1.57,1.76,2.51,2.23.18.09,1.47.6,1.57.59.26-.02,1-1.17,1.16-1.45.12-.2.87-1.77.8-1.85ZM78.93,62.04c-.58.13-1.01.47-1.65.35-.33.33,1.44,2.05,1.73,2.3.08.07.64.54.69.48-.08-.55-.08-1.1-.22-1.65s-.46-.94-.56-1.47ZM52.67,72.88c.13-.74.24-1.48.34-2.22.16-1.29.22-2.6.36-3.89.09-.83.38-1.94.38-2.72,0-.22-.08-.41-.12-.62l-.58,2.24c-.08,1.87-.85,4.05-.89,5.87,0,.38,0,1.42.52,1.34ZM56.56,63.53c-.16-.1-.36.03-.45.19-.2.35-.48,1.75-.56,2.21-.11.62-.11,1.25-.21,1.87-.22,1.33-.75,3.34-.77,4.61,0,.31.13.6.09.91.15-.04.21-.17.26-.31.5-1.38.62-3.6.89-5.09.22-1.21.78-2.77.84-3.94,0-.1-.03-.42-.09-.45ZM58.96,63.79c-.22.07-.46.98-.52,1.22-.41,1.72-.47,3.41-.66,5.14-.11.99-.4,2.05-.43,3.04,0,.18-.04.35.13.47.14,0,.56-1.81.62-2.06.46-2.05,1.12-4.87,1.32-6.92.04-.39.14-1.09-.45-.89ZM83.52,87.62l.47.6c.13,0,.75-2.11.82-2.39,1.01-4,1.06-10.29-1.02-13.96-.46-.81-1.09-1.28-1.61-1.94s-.24-1-1.28-1.32c-.27-.08-1.75-.39-1.89-.29-.38.44.54,2.33-.13,2.4-.43.04-1.61-1.48-2.03-1.74.1.5.05,1.01.09,1.52s.48,1.88-.4,1.95c-.34.03-.88-.93-1.21-1.21-.54-.45-1.33-.96-2.03-.65-.18.08-.82,1.06-.89,1.28-.14.42,0,1.88-.76,1.49-.27-.13-.94-2.53-1.2-3.05-.47-.92-1-1.58-2.1-1.03-.32.16-1.97,2.26-2.25,2.69-.68,1.02-1.18,2.26-1.64,3.38l17.87-.37c.68.2.21,1.55.04,2-1.36,3.58-5.88,4.81-9.25,3.49-.86-.34-1.49-1.06-2.37-1.33-.7.76-1.34,1.78-2.35,2.16-.93.34-2.66.52-3.64.43-.39-.04-.78-.22-1.17-.21l.66,3.08c2.44-.01,4.7-3.32,7.01-1.31,1.63-2.85,4.73.32,6.9-.04.96-.16,2.16-.96,2.38-1.95.07-.31-.05-.65.17-.87,1.19,1.12,1.18,2.16.43,3.55-1.24,2.29-4.81,2.77-7.1,2.09-.91-.27-1.98-.75-2.51-1.56-1.24,2.01-3.77,3.62-6.2,3.21.32,1.06.84,2.07,1.28,3.1.17.41.26.88.44,1.3.78,1.8,1.6,2.53,2.06,4.71,1.15,5.48-2.22,7.54-2.56,12.18-.15,2.01,1.19,6.08,2.15,7.9.74,1.39,3.06,4.15,4.26,5.19,1.63,1.4,3.63,2.27,5.11,3.99,1.91,2.21,2.64,3.78,5.64,4.94,1.86.72,3.19.44,2.95-1.82-.07-.62-1.05-1.73-1.57-2.07-1.02-.69-1.65-.43-2.68-1.57-1.61-1.79-4.16-6.26-4.25-8.66-.14-3.78,1.43-6.32,3.77-9.06.69-.81,2.17-2.05,2.47-3.08.05-.18-.04-.1-.13-.12-.5-.12-.84-.07-1.35-.3-.91-.43-2.14-2.09-.78-2.69-.18-.23-.47-.33-.64-.57-.61-.83-.2-1.92.9-1.38-.09-.77-.63-1.19-.3-1.99.58-1.44,1.93.12,2.04,0-.31-1.23-1.13-2.64-1.28-3.88-.09-.76.06-1.46.04-2.21l-1.24-1.54c-.08.24.52.85-.07.77s-.64-1.2-.57-1.67c.09-.7,1.18-2.6,1.95-2.65.48-.03,1.23.94.56,1.13ZM78.32,79.13c-1.99.06-3.96.42-5.73-.73-.72-.47-.94-1.02-1.51-1.61-.4-.09.02.99.12,1.19.81,1.71,3.19,2.25,4.9,2.01.3-.04,2.3-.44,2.3-.64l-.09-.21ZM60.38,77.04c.07,1.77,2.05,3.05,3.62,3.44.47.12,2.88.53,3.04-.03.13-.43-.72-.27-.98-.31-1.58-.22-3.49-1.01-4.65-2.11-.17-.16-.84-1.2-1.04-1ZM55.87,80.94c-.62-.33-1.27,1.58-1.13,1.73.59.25,1.31-1.55,1.13-1.73ZM51.89,84.76c.34-.04.59.21.92.25.67.09,1.41-.14,2.06.17.33-.06.94-1.83.27-1.89-.32-.03-.82.23-1.38.17-.33-.04-1.23-.43-1.4-.42-.48,0-1.04,1.52-1.04,1.95s.48,2.01.74,2.34c.34.44.76.55,1.28.42.2-.05,1.06-.42,1.17-.54.09-.1.06-.15.06-.26-.92.25-2-.01-2.6-.74.12-.18.12-.09.23-.07.86.15,2.06.95,2.62-.27-.08-.48-1.74-.25-2.16-.35-.16-.04-.98-.53-.78-.74ZM82.41,102.36c0,.59.71,1.29,1.27,1.44,1.46.4,3.28-.34,3.97-1.71.06-.13.02-.3.12-.48.15-.26.96-.65,1.26-.9,1.01-.83,3.12-3.43,3.61-4.62.14-.33.43-1.15.32-1.48l-.12-.14c-2.09-.53-4-1.4-5.75-2.66-1.64-1.18-3.33-2.64-4.38-4.37-.37.5-.8.99-.97,1.6,2.22,2.92,5.31,5.23,8.72,6.59l.18.25c-.11.14-.31.11-.43.27-.24.33-.57,1.38-.83,1.86-.35.65-.78,1.38-1.35,1.85-1.35,1.12-1.98,1.16-3.29,0-.71-.63-1.18-1.47-2.08-1.86-.02.94.73,2.03,1.53,2.5l1.07.49c-.75.44-1.53-.29-2.27-.5-.3-.08-.62-.15-.93-.15-.16.12,1.36,1.15,1.5,1.23.48.27.96.49,1.53.42.04.32.01.39-.31.42-.9.11-1.5-.7-2.37-.07ZM54.83,87.88c-.18.06-.88.24-.85.46.02.11,1.05,1.6,1.22,1.91.94,1.72,2.16,4.95,2.49,6.87.07.4-.13,1.08.58.91,2.12-1.8,4.14-3.98,6.51-5.45.32-.2.71-.42,1.07-.54l-.78-1.64h-.2c-1.43,1.17-2.86,2.35-4.22,3.59-.36.33-1.4,1.54-1.73,1.65-.12.04-.23.05-.35.04l.22-.69c-.8-1.49-1.52-3.03-2.37-4.48-.52-.88-1.16-1.69-1.58-2.62ZM45.37,111c.56-.32.41-3.27.45-3.92.19-2.77.5-5.54.69-8.32.07-1.04.68-3-.43-3.65-1.01-.59-3.86-1.01-5.15-1.35-3.43-.89-6.86-1.88-10.31-2.69-.24-.06-1.5-.35-1.61-.24l-.52,6.97c.22,2.04-.14,4.37.09,6.41.05.4.43,1.04.78,1.22.23.12.46-.38.6-.53,1.08-1.15,1.93-1.65,2.68-3.13.18-.36.23-1.03.71-.9l.52,5.03,1.08-1.91c.08-.11.2-.12.31-.05.05.04.17,1.07.23,1.33.28,1.11,1.14,1.95,1.16,3.13,2.2.66,4.36,1.51,6.57,2.14.37.1,1.92.59,2.15.46ZM89.68,95.94c-2.26-.69-4.23-2.2-6.07-3.64l1.39,6.24.56-1.04c1.05-.48,1.24.53,1.35,1.35.02.16-.07.91.13.91l1.24-1.27,1.4-2.54ZM85.95,98.28c-.27.16-.49,1.27-.42,1.5.06.2.67.55.89.49.16-.04.11-.11.04-.21-.35-.59-.54-1.06-.52-1.78ZM50.5,103.57l-1.04-1.52-2.17-.22v.42s3.21,1.31,3.21,1.31ZM54.05,105.21l-1.39-2.64-2.51-.48,1.25,1.91,2.65,1.21ZM57.44,110.5c.43-.14,2.3-.54,2.47-.87.05-.09.03-.15-.03-.23l-3.62-5.67-3.17-1.04c.24.3.48.59.7.91.36.54.81,1.64,1.17,2.03.29.31.99.42.91.91-.03.19-.23.26-.25.36-.03.14.84,1.58.99,1.85.3.56.58,1.14.83,1.73ZM27.79,102.87c-.38.11-.76.25-1.12.39-.1.04-.39.1-.34.24,1.4,2.21,2.49,4.58,3.62,6.93.87.39,1.85.32,2.78.32-.27-.45-.63-.88-.69-1.43-.09-.86.37-1.51.44-2.34s-.14-1.65-.26-2.47l-1.39,2.25c-.2-.11-.03-.58-.09-.78-.18-.21-.72.9-.76,1.02-.12.32-.24,1.7-.7,1.1-.36-.47-.17-1.28-.31-1.51-.06-.09-.57-.3-.74-.48-.14-.14-.43-.69-.43-.87v-2.38ZM53.19,107.29c.22-.18,1.52-.71,1.47-.91,0-.03-.06-.06-.09-.09l-7.32-3.17c-.17.03-.2,1.15-.18,1.39.76.43,3.54,1.18,3.43,2.29-.01.15-.12.23-.23.29l-3.36,1.84c-.14.19-.28,1.74-.22,1.82.47-.19.94-.41,1.39-.65.23-.13,1.15-.63,1.27-.76.39-.42,1.55-2.03,1.83-2.55s.34-1.11.67-1.59c.17-.04.5.55.6.7.28.41.59.91.75,1.38ZM25.88,103.65c-.07-.05-1.33.51-1.52.6-.08.04-.15-.05-.12.14.99,1.65,1.88,3.36,2.62,5.14l2.32.72-3.3-6.59ZM60.39,109.45c.09.07,1.04-.48,1.02-.72l-1.82-3.56-2.59-1.18,3.39,5.46ZM25.97,109.11l-2.34-4.47c-.25-.16-1.19.59-1.56.57l1.74,3.07,2.16.83ZM47.64,105.21c-.21,0-.39-.25-.61-.14-.15.11-.06.55-.08.74l.69-.61ZM48.77,105.82c.07-.1-.67-.44-.81-.41-.13.03-1.06.89-1.01.93.26-.01.44.22.72.16.3-.06.73-.64,1.1-.68ZM61.6,108.42c1.32-1.59.2-2.35-1.3-2.95l1.3,2.95ZM21.81,105.56c-.18-.14-.51.58-.52.75-.02.61,1.06,1.49,1.64,1.59l-1.13-2.34ZM50.15,106.77c-.08-.3-.71-.86-1-.86-.14,0-1.11.68-1.17.82l1.15.55,1.01-.51ZM47.29,106.77l-.43-.09v.43c.08.09.46-.3.43-.35ZM48.77,107.55c-.1-.13-1.08-.53-1.15-.51l-.71.51-.04.95,1.91-.95ZM56.83,110.67l-1.73-3.38-1.82,1.04,1.56,2.73c.24.15,1.61-.41,1.99-.39ZM34.9,107.38c-.22-.03-.13.02-.18.12-.07.16-.08.33-.18.51-.35.63-.96,1.01-.76,1.88-.42.05-.45-.36-.65-.6-.74.43-.08,1.04.28,1.54l2.37.36c-.12-.15-.37-.98-.44-1.04-.04-.03-.25.15-.33-.05-.03-.15.31-.34.38-.48.45-.85-.33-1.46-.47-2.25ZM51.8,107.55c-.15-.15-.15.06-.18.12-.42.81-1.73,1.86-1.73,2.69,0,.28.23.53.17.82-.56.07-.68-.49-.91-.86l-.38.31.79,1.23c1.58.02,3.2-.3,4.75-.59l-1.17-1.9c-.13,0-.25.72-.35.86-.08.12-.29.24-.38.05.27-.3.37-.97.32-1.36-.01-.11-.23-.88-.41-.67,0,.27-.09.63-.35.78.02-.27-.02-1.31-.18-1.47ZM38.71,111.63l-1.09-1.82-.99-.44c-.1.67-.76,1.31-.13,1.91.14.13,2.12.41,2.21.35ZM43.05,111.71l-4.59-1.65.92,1.63c.38-.02.74.09,1.11.1.68.03,1.57.02,2.26,0,.1,0,.32.07.3-.09ZM48.85,111.89l-.66-1.03-1.77.86c-.02.14.12.08.21.09.74.04,1.47.09,2.21.09ZM66.36,128.62l.36-5.23,1.29-5.05-1.25-2.63c-.17,1.18-.64,2.31-.87,3.47-.17.85-.13,2.57-.78,3.12-.26.22-.83.34-.83.74s.76.83,1.14.82v.26s-.61,0-.61,0c.2,1.3.05,2.63-.08,3.93.09.25,1.37.48,1.64.58ZM76.52,128.17c.05.07,1.41.29,1.59.28.22,0,.33-.07.31-.31-.04-.31-1.74-2.25-2.08-2.52-.09-.07-.11-.17-.26-.13l.45,2.67ZM66.36,129.05l-1.65-.35-.08,1.12,1.64.27.09-1.04ZM78.41,128.88c-.63.19-1.2,0-1.82-.09l.04.96c.2.28,1.44.05,1.77-.01v-.86ZM65.49,134.12c.06.34,0,.92,0,1.3,0,.01-.19.15-.04.22.56-.51,1.18-.82,1.15-1.71,0-.19-.3-.62-.32-.95-.01-.28.1-.6.09-.95-.02-.49-.16-1-.09-1.51l-1.65-.26.19,2.89c.28.26.61.57.68.97ZM78.41,130.26c-.57.11-1.18.21-1.73,0l.09,2.51c.32.01,1.53.01,1.69-.26l-.05-2.25ZM78.83,134.76c.15-.26.97-1.77.48-1.89-.09-.02-1.49.55-1.82.59-.68.09-1.23-.25-1.87-.11-.22.3.32,1.27.18,1.68,1.01-.42,1.96-.37,3.02-.27ZM63.16,133.39c-.14.86-.8,1.39-1.29,2.02l1.43,1.78c.84-.41,1.58-1.53,1.51-2.47-.08-1.13-.99-.58-1.52-1.34h-.13ZM54.66,136.68c-.09.1.67,2.47.78,2.55.08.06.37.16.5.2,2.26.74,6.81.3,9.1-.39.25-.07,1.55-.5,1.63-.63-.18-.81-.23-1.43.13-2.2.27-.57.98-.93.25-1.53-.07.41-.18.73-.52,1-.1.08-.98.64-1.06.67-.17.07-.38.03-.48.09-.05.03-.55.75-.75.93-.28.26-.67.28-.57.69-.62-.16-1.09.5-1.67.71-.64.23-1.2.11-1.84.15-1.09.06-3.83.38-4.64-.3-.67-.56.18-.27.41-.25.41.04.83.04,1.24.03l-.79-1.72c-.59-.03-1.13-.2-1.72,0ZM79.62,135.03l-.22-.34c-.09.08-.16.13-.13.26l.35.09ZM75.37,135.03c-.21-.04-.27.2-.35.35l.34-.1v-.25ZM81.44,138.59c-.18-1.14-.69-2.24-1.74-2.81-1.73-.93-4.71-.49-5.52,1.48-.16.39-.42,1.58.12,1.68,2.4-.02,4.79.14,7.15-.35ZM62.81,137.54l-1.34-1.91-.16-.07c-.23.11-.39.12-.24.38.34.61.73,1.2,1.04,1.82l.7-.22ZM67.66,135.81c-.31.28-.53.88-.58,1.28-.03.19-.09,1.15.11,1.15.17-.28.75-.31.91-.47.27-.27-.34-1.57-.44-1.95ZM60.12,136.07c.27.32.66,1.87,1,1.91l.65-.13c.14-.11.04-.09,0-.18-.28-.56-.81-1.11-1.04-1.74l-.61.14ZM60.64,138.06l-.96-1.82-.43.09.8,1.81.59-.07ZM58.73,136.51l-.43.12c.22.55.59,1.06.61,1.68.16.02.75.06.69-.21-.43-.44-.7-1.02-.87-1.6ZM57.77,136.69l-.68.12.86,1.56.69-.05c-.41-.47-.75-1.02-.88-1.64ZM68.27,138.33l-2.47,1.13c-1.71.6-5.86,1.29-7.63,1.13-.77-.07-1.66-.51-2.47-.57-.11,0-.13-.09-.09.09.05.2.28.98.36,1.11.09.16.19.14.33.19,2.71.91,9.14-.31,11.31-2.21.13-.11.79-.71.65-.87ZM81.44,139.11c-2.4.57-4.74,1.1-7.19.43l.17,1.3c2.31.46,4.98.68,7.07-.61l-.05-1.13Z"/>
    <path class="cls-3" d="M66.95,160.13c.74.12,1.42.43,2.04.85,2.82,1.91,3.62,5.5,4.98,8.43l-.07.74c-.23.25-1.76-.6-2.14-.65-.85-.11-1.74.2-2.59.13-2.09-.18-1.81-2.38-3.05-3.55-.65-.61-2.08-1.16-2.97-1.11.03.25-.07.49-.08.73-.16,3.59-.64,6.41-2.95,9.25-.15.18-.09.5-.46.49-.48-.02-1.4-1.26-1.99-1.48-.85-.31-2.65.29-2.79-1.09-.12-1.19,1.4-3.39,1.9-4.54,1.03-2.38,1.62-5.51,1.86-8.09.09-.93.13-1.86.12-2.77-.04-2.99-.38-5.41.94-8.21.61-1.3,3.88-2.38,5.24-2.52.75-.08,2.92-.14,3.56.1.73.29,1.2,1.37,1.39,2.09.48,1.83.19,6.78-.54,8.53-.26.63-.68,1.3-1.2,1.73-.16.13-1.35.77-1.19.94ZM66.03,152.17c-.5-.01-.94,0-1.4.22-.2.1-1.27.93-1.35,1.08-.14.26-.11,2.19.13,2.35.57.14,1.27-.52,1.58-.95.23-.32,1.21-2.53,1.04-2.7Z"/>
    <path class="cls-3" d="M52.39,186.2c.39-.38.6-1.41.68-1.94.1-.75.2-1.83.23-2.59.05-1.51-.29-3.13-.17-4.59.04-.49.2-.96.74-1.08.78-.17,2.21-.16,3.01-.07,3.87.41,3.84,6.45,3.49,9.33-.31,2.57-.81,4.69-2.51,6.69-2.3,2.71-4.96,3.78-8.47,2.6-2.03-.68-3.07-1.47-3.29-3.74-.39-3.89.25-7.9.05-11.79-.07-1.33-.38-2.73-.25-4.07s2.02-1.38,3.06-1.32c.61.04,1.19.16,1.56.67,1.72,2.33.23,7.91.6,10.77.09.69.47,1.93,1.28,1.13Z"/>
    <path class="cls-3" d="M26.36,139.29c.81-.1,2.21.16,2.63.94.7,1.31.61,3.17.13,4.54s-1.15,2.13-2.53,1.04c-.59-.46-.88-1.31-1.78-1.11-.62.14-.89.9-.78,1.47.31,1.6,3.26,3.06,4.43,4.13,1.37,1.25,3.33,3.11,4.03,4.83,1.57,3.88,1.37,9.3-3.05,11.1-.89.36-2.6.21-3.59.11-3.47-.34-7.01-4.45-6.39-7.95.19-1.05,1.33-3.65,2.09-4.37.61-.58,1.54-.48,2.03.19,1.05,1.47-.1,3.72,2.12,4.51,1,.36,2.19-.33,1.93-1.47-.73-3.19-5.98-5.91-7.1-9.5-.77-2.45.43-6.29,2.7-7.41.65-.32,2.45-.97,3.14-1.06Z"/>
    <path class="cls-3" d="M76.13,153.61c.83.81,2.14-1.12,2.9-1.46.9-.41,1.52-.38,1.86.63.55,1.65-.31,3-2.01,3.22-.51.06-.92-.08-1.41-.04-.18.16-.12,2.05.29,2.28.76.36,2.87-1.08,3.44-1.62.62-.59,1.09-1.73,2.1-1.39.95.32,1.4,1.9,1.48,2.79.24,2.79.15,5.66-.85,8.3-.76,2-3.88,4.42-6.08,3.65-1.32-.46-2.48-1.51-3.18-2.7-.88-1.51-1.95-3.5-2.66-5.1-1.49-3.34-.97-7.08-.53-10.59.32-2.58-.02-4.24,2.97-5.14.92-.28,3.73-.68,4.57-.36,1.22.47,2.3,3.21,1.72,4.38-.39.77-2.04.81-2.8.8-.47,0-1.91-.37-2.03.25-.09.47-.12,1.75.23,2.09Z"/>
    <path class="cls-3" d="M76.17,182.79c1.89,1.69.98,5.18-.86,6.56-3.89,2.92-10.55,3.27-12.99-1.69-.64-1.29-.35-2.05-.39-3.39-.09-2.91-.51-4.44.6-7.33,1.38-3.6,6.05-7.13,10.02-5.8,1.94.65,3.76,1.71,3.59,4.02-.06.77-.68,3.25-1.42,3.57-1.62.69-2.37-1.89-4.47-.65-1.3.77-1.9,2.62-1.68,4.07.1.67.89,2.09,1.47,2.45.49.31,1.85.14,2.38-.09.97-.41,2.53-2.83,3.75-1.73Z"/>
    <path class="cls-3" d="M41.01,147.62c-.4.38-.99,3.58-.43,4,.27.2,1.01.31,1.35.28.56-.05.98-.22,1.41-.52,1.01-.72,2.87-.4,2.14,1.97-.66,2.13-3.34,1.97-4.67,1.98-.16.13-.82.12-.87.57-.18,1.58-.3,3.7,1.7,4.04,1.49.25,3.15-1.42,3.73.99.66,2.73-.98,5.75-3.46,6.92-2.14,1.01-6.46.98-7.39-1.67-.92-2.63.13-4.47-.08-7.07-.14-1.74-.89-3.4-.78-5.17.15-2.36,1.3-4.8,2.08-7.02.88-2.52,2.1-3.35,4.71-3.8,2.05-.35,3.38-.26,5.29.58.66.29.87,1,.94,1.68.06.6-.07,2.08-.25,2.65-.29.92-1.34.48-2.01.22-1.02-.39-2.34-1.63-3.39-.62Z"/>
    <path class="cls-3" d="M52.05,158.98c.94.92,1.49-1.37,1.93-1.85,1.38-1.52,2.3,1.45,2.52,2.4.6,2.62.43,4.71-.57,7.21-1.26,3.13-5.22,6.34-8.46,3.83-3.8-2.94.49-8.42-1.23-12.33-.47-1.08-.78-.9-.69-2.37.26-4.34,4.16-8.78,8.78-8.14,3.58.49,3.95,5.23,1.33,7.17-1.16.86-1.68-.21-2.64-.67-.37.08-.79,1.58-.89,1.95-.2.71-.68,2.22-.09,2.79Z"/>
    <path class="cls-3" d="M27.68,173.17c-.46.44.01,1.73.21,2.25,1.6,4.15,6.06,8.13,3.83,13.02-2.21,4.85-8.22,4.57-11.07.4-1.49-2.19-1.76-8.27,1.02-9.58.69-.33,2.57-.55,3.06.14s-.27,1.19-.58,1.74c-.4.71-.67,1.74-.39,2.53.78,2.16,3.03,2.09,3.2-.5.33-4.96-6.2-8.03-4.15-12.86,1.09-2.58,5.91-4.04,7.87-1.86,1.5,1.66,1.75,4.45-.11,5.94-1.52,1.21-1.08-1.45-2.36-1.42-.1,0-.47.13-.54.19Z"/>
    <path class="cls-3" d="M72.5,14.79s-.15-.03-.17.14c-.04.35.11.93.09,1.39-.05,1.26-.3,2.07-1.25,2.91-2.71,2.37-5.56-.56-8.54.65-1.56.63-1.69,1.98-1.97,3.49-.58,3.09-.97,11.4,3.92,11.03,2.37-.18,3.04-1.4,3.33-3.6.03-.24.12-1.3.09-1.47-.1-.51-1.4-.22-1.77-.21-.9.01-1.57.09-2.21-.66-.69-.8-.9-2.8-.68-3.79s2.46-.8,3.24-.84c2.52-.11,5.38-.15,7.87.27.99.17,2.8,1.09,2.91,2.2.31,2.86-2.05,5.38-2.25,8.32-.22,3.23,1.6,6.79,1,9.75-.15.73-.56,1.92-.85,2.62-.19.47-.69,1.63-1.15,1.8-.94.35-2.94.38-3.68-.39-1.12-1.16.1-3.6.09-4.98-1.44.61-2.86,1.7-4.4,2.05-.71.16-1.92.17-2.66.12-1.3-.1-2.39-.7-3.2-1.74-.72-.94-.8-2.2-1.34-3.26s-1.79-2.65-2.96-2.85c-2.65-.47-3.82.11-5.59-2.39-4.16-5.87-.98-16.45,4.15-20.88,3.36-2.9,9.69-3.58,13.92-2.75.81.16,2.8.55,3.32,1.1s.46.95.56,1.6c.02.14.22.28.15.38ZM64.37,25.03v1.43c0,.15.23.81.33.97.56.95,1.51.37,2.4.37,1.04,0,2.08.32,2.11,1.53.03,1.03-.31,2.65-.71,3.61-.6,1.45-1.2,1.93-2.72,2.31-6.84,1.74-7.13-7.43-6.25-11.89.5-2.54.98-4.22,3.78-4.8,2.16-.45,3.78.64,5.68.57.86-.03,2.09-.91,2.35-1.73.34-1.08.19-2.53.28-3.67-.24-.4-.52-.5-.95-.61-4.2-1.07-11.6-.98-15.07,1.89-4.76,3.95-7.63,15.44-2.94,20.2,1.01,1.03,3,1.05,4.3,1.59,2.99,1.23,3.05,3.47,4.4,5.91.59,1.07.91,1.35,2.18,1.46,2.18.19,4.91-1.53,6.85-2.57.44-.24.94-.87,1.5-.4.45.38.24,2.17.17,2.76-.15,1.14-.54,2.4-.92,3.48.03.45,1.89.53,2.26.46.73-.92,1.26-2.08,1.43-3.25.68-4.65-1.38-8.15-.03-12.86.4-1.38,2.07-4.35,1.49-5.65-.07-.16-.24-.3-.38-.4-.76-.49-2.44-.62-3.37-.71-2.33-.23-5.39-.27-7.72-.09-.17.01-.31.05-.47.09Z"/>
    <path class="cls-3" d="M86.75,147.81c-1.22.87-2.22,1.23-3.75,1.11-.8-.06-1.16-.95-1.43-1.6-.37-.88-1.07-2.56-.02-3.22.21-.13.48-.15.69-.27,2.41-1.32,4.83-2.77,5.74-5.53.47-1.43.54-3.19,1.01-4.56.5-1.46,2.06.26,2.49.92.18.27.83,1.48.87,1.74.34,2.09-.62,4.66-1.32,6.59,2.34,4.65,3.43,9.99,3.01,15.21-.2,2.53-.66,3.91-2.44,5.74-.99,1.02-3.59,2.64-4.11.36.62-3.85,1.38-7.33.82-11.26-.26-1.85-.78-3.53-1.56-5.23Z"/>
    <path class="cls-3" d="M37.83,171.51c1.32-.25,4.18.43,5.08,1.49.78.94,1.14,3.34,1.3,4.57.51,4.08.69,8.04.12,12.12-.14.98-.43,3.59-1.08,4.24-.71.72-2.84.49-3.52-.16-1.05-1-.29-3.85-.18-5.2.14-1.79.34-4.05.06-5.8-.14-.87-.98-.73-1.63-.48-.72.27-.81.77-.86,1.47-.12,1.84.39,5.87-1.3,7.09-.34.24-1.47.26-1.9.2-.39-.05-1.03-.59-1.1-.98-.12-.64.23-1.24.35-1.86.34-1.75.34-4.1-.09-5.83-.14-.56-.52-1.14-.61-1.75-.21-1.58.98-2.67,1.72-3.94.67-1.14,1.19-2.38,1.85-3.5.4-.68.93-1.53,1.78-1.69ZM40.17,175.8c-.25-.15-.91.08-1.06.35-.09.16-.5,1.98-.52,2.23-.05.61.26.68.82.72.87.05.86-.06.97-.85.06-.43.14-2.23-.22-2.44Z"/>
    <path class="cls-3" d="M82.85,176.31c.13.13,1.22-.51,1.4-.65.55-.41,1.87-1.93,2.41-2.02,1-.16,1.4,1.28,1.25,2.06-.24,1.28-1.63,2.01-2.69,2.51-.56.27-1.61.34-1.63,1.11,2.36.69,4.21-1.32,5.44-3.05.57-.81.74-1.96,2.1-1.36,1.94.85.96,5.2.14,6.68-1.25,2.27-6.24,5.63-8.8,5.9-.91.1-2.78-.1-3.43-.84-.16-.18-.64-1.49-.68-1.76-.23-1.3,0-2.95-.11-4.3-.16-1.99-.98-4.54.16-6.4.9-1.47,2.7-1.91,3.96-2.99.36-.31.92-.84,1.24-1.19.45-.47,1.71-2.31,2.34-2.26.06,0,.79.57.84.64.81.97.48,3.38-.23,4.38-.82,1.14-2.13,1.6-3.1,2.46-.34.3-.59.6-.59,1.09Z"/>
    <path class="cls-3" d="M42.86,15.26c2.1-.16,3.69.77,3.91,2.98.48,4.83-1.17,9.47-.21,14.34.68,3.41,2.9,7.41.58,10.64-.53.74-.62.47-1.32.67-.49.14-1.11.63-1.58.84-1.43.64-2.94,1.16-3.57-.71-.87-2.58-1.17-5.73-2.01-8.48-.18-.57-.5-1.85-.74-2.3-.28-.53-.59-.4-1.05-.13-.57.33-1.05,1.65-1.25,2.31-.68,2.25-.65,5.11-1,7.49-.19,1.32-.45,3.16-.78,4.42-.37,1.43-1.29,1.21-2.46,1.7-2.04.85-4.38,2.97-6.57,1.23-.96-.77-.88-1.41-.71-2.53.32-2.18,1.13-4.26,1.68-6.38.92-3.56,1.84-7.25,2.58-10.85,1.07-5.2.95-14.35,8.14-14.74,1.23-.07,2.46.24,3.64.09.9-.11,1.73-.5,2.71-.58ZM45.97,42.95c2.34-2.99.28-6.46-.38-9.67-.97-4.7.16-8.43.32-13.06.1-2.77-.17-4.51-3.42-4.2-.76.07-1.51.44-2.27.51-2.59.23-4.71-.57-6.93,1.3-2.78,2.35-2.84,9.29-3.56,12.74-.74,3.6-1.72,7.29-2.69,10.83-.52,1.92-1.23,3.78-1.63,5.74-.22,1.07-.67,2.06.65,2.53,1.39.49,3.48-1.06,4.78-1.6.6-.25,1.21-.36,1.8-.63.34-1.77.63-3.59.85-5.39.33-2.75.23-5.89,1.47-8.41,1.68-3.43,3.97-2.31,4.91.84.84,2.79,1.77,5.95,2.28,8.82.06.33-.13.91.3.87,1.06-.1,2.44-.97,3.51-1.22Z"/>
    <path class="cls-3" d="M30.22,67.33c-.15-.11-1.62,1.31-2.32.2-.39-.62-.35-2.23-.06-2.89.39-.88,2.26-.81,3.06-1.28,2.05-.38,2.74,1.6,2.96,3.24.37,2.82.44,6.01,0,8.82-.4,2.56-1.53,2.2-2.66,4.02-.95,1.52-1.97,3.57-3.81,4.25-5.17,1.9-7.35-6.1-8.04-9.68-1.29-6.69-.57-16.07,5.39-20.44,1.79-1.31,4.92-2.04,6.9-.78s1.71,5.32.99,7.2c-.86,2.24-2.43,1.44-4,2.42-1.07.67-2.32,2.51-2.72,3.7-.49,1.43-.99,5.02-.1,6.29.52.74,1.28.95,2.02.4,1.45-1.06,2.87-3.63,2.38-5.46ZM28.66,66.9c.86-.16,1.82-1.26,2.42-.03,1.06,2.17-1.42,6.59-3.61,7.2-1.28.35-2.61-.87-2.92-2.05-.9-3.39.56-9.25,4.06-10.76.7-.3,1.54-.29,2.14-.55.69-.29.92-1.68,1.03-2.35.23-1.37.54-3.67-.77-4.58-.07-.05-.8-.45-.84-.47-.29-.07-1.82.25-2.21.36-2.98.79-4.24,2.79-5.37,5.46-1.59,3.77-2.85,9.82-2.12,13.86.6,3.33,1.57,8.12,4.9,9.75.92.45,1.85.03,2.58-.58,1.48-1.24,1.68-2.46,2.73-3.77.43-.54,1.49-1.23,1.77-1.7.4-.67.36-2.5.4-3.33.11-2.15.19-4.98-.18-7.1-.11-.62-.5-1.79-1.25-1.79l-2.73.83v1.6Z"/>
    <path class="cls-3" d="M44.56,62.13c2.38.32,3.61,3.41,3.77,5.51.12,1.56.13,3.37.09,4.94-.04,1.59-.6,4.6.51,5.87.19.22.71.18.71.63s-.49.48-.83.48c-6.08.02-5.22-8.07-6.85-12.23-.35-.9-.77-1.1-.9.05-.18,1.71.35,5.6-.58,6.96-.73,1.08-2.6.98-3.62.42-1.45-.79-1.05-2.47-1.1-3.85-.09-2.56.07-5.29-.09-7.8-.18-2.8-.74-5.67-.7-8.49.06-3.92,3.45-5.78,6.78-6.83,5.29-1.66,8.67-.81,8.3,5.44-.2,3.28-1.45,7.09-4.97,8.03-.88.24-1.89.23-2.72.48-.15.05-.6.16-.54.37.85.08,1.9-.11,2.73,0ZM47.73,78.17c-.23-.59-.47-1.13-.52-1.77-.07-.85.09-1.7.09-2.51.02-2.02.06-4.33-.09-6.33-.12-1.6-1.04-4.19-2.9-4.38-1.08-.11-3.79.51-3.4-1.41.27-1.32,3.32-1.31,4.4-1.67,2.04-.66,3.09-3.02,3.44-4.97.43-2.42.86-7.24-2.79-7.22-2.39.02-8.2,1.79-9.12,4.23-1.05,2.78.14,7.12.24,10.12.08,2.22-.06,4.47-.09,6.67-.02,1.32-.22,3.24.04,4.47.13.61.67.71,1.23.76,1.39.14,1.58-.4,1.68-1.68.13-1.73-.13-4.08.21-5.68.24-1.11,1.57-1.69,2.38-.72,1.31,1.58,2.01,7.34,2.72,9.58.39,1.25,1.12,2.26,2.49,2.49Z"/>
    <path class="cls-3" d="M66.08,55.65c.15.18.13.55.09.78-.08.43-.66,2.11-.86,2.52-.24.51-.89,1.36-1.46,1.49-.92.21-1.96-.94-2.78-1.31-.7-.32-2.8-.58-2.94-1.48-.16-.99.47-2.39.7-3.36.37-1.59.53-3.24.68-4.87.07-.73-.28-1.56.66-1.77.98-.22,2.07-.06,2.51.95.37.86.2,3.38.04,4.37-.08.5-.34.94-.39,1.44.7.24,3.33.72,3.75,1.24ZM65.23,56.24c-.61-.15-1.16-.44-1.75-.63-.43-.14-.93-.16-1.33-.32-1.18-.48-.34-1.66-.22-2.57.04-.28-.02-.57.01-.86.12-1.18.72-3.86-1.28-3.41-.3.86-.02,1.72-.11,2.62-.15,1.5-.93,3.39-1.25,4.91-.09.42-.19.85-.11,1.29.38.09.67.46,1.01.59.42.16.88.17,1.35.38.38.17,1.86,1.25,2.07,1.19.76-.2,1.32-2.53,1.62-3.19Z"/>
    <path class="cls-3" d="M51.74,58.37c-.72-.72.04-3.35.14-4.35.15-1.45.01-2.91.15-4.36.08-.17.19-.2.35-.26.45-.16,2.27-.41,2.73-.35.8.1,1.84.68,1.87,1.58.03,1.09-.37,2.98-.5,4.16-.1.89.08,3.04-.9,3.43-.3.12-1.65.38-2.01.42-.5.05-1.45.09-1.82-.28ZM55.26,57.44c.19-.12.23-2.02.27-2.37.16-1.41.41-2.82.52-4.24-.12-.86-2.01-.97-2.6-.51-.09.79-.02,1.62-.08,2.41-.09,1.14-.4,2.25-.52,3.38-.03.28-.18,1.53,0,1.65.81.15,1.6-.35,2.42-.32Z"/>
    <path class="cls-3" d="M89.85,85.79c-.11-.12.71-2.73.81-3.14.59-2.53.87-5.23.38-7.8-.52-2.71-2.58-4.39-3.57-7.01-.46-1.23-.91-3.68.39-4.54.15-.1.5-.24.34.08-.6,1.26-.7,1.93-.29,3.32.88,2.94,3.41,4.66,4.06,7.65.66,3.09.07,7.93-1.36,10.78-.16.33-.31.74-.77.66Z"/>
    <path class="cls-3" d="M52.64,42.17c.08-.08.05-.23.17-.33.68-.55,2.46-.3,3.21.08,1.55.79,1.67,3.48.72,4.74-1.43,1.88-4.24,2.13-5.21-.33-.68-1.73-.08-2.97,1.12-4.16ZM53.94,42.47c-.12.02-.52.33-.62.43-.72.76-.99,2.94-.38,3.83.74,1.09,2.89-.13,3.19-1.2.26-.93.31-2.09-.61-2.68-.26-.17-1.3-.43-1.58-.38Z"/>
    <path class="cls-3" d="M92.88,68.03c.48,1.96,1.59,3.76,2.14,5.7.49,1.73.54,3.56.07,5.31-.22.8-1.16,3.42-1.69,3.94-.16.16-.72.51-.63.06.06-.33.46-1,.61-1.39.91-2.35,1.48-4.49,1.02-7.05-.28-1.56-1.12-3.08-1.54-4.61-.13-.48-.65-1.85.02-1.97Z"/>
    <path class="cls-3" d="M89.15,106.6c-.25,2.87-3.16,4.45-4.49,6.73-.41.71-.67,1.43-.79,2.25-.15,1.06-.22,2.43.34,3.37-.3.33-.67.04-.85-.27-.27-.45-.43-1.78-.44-2.33-.11-4.2,3.26-5.44,5.23-8.46.12-.18.75-1.56,1-1.29Z"/>
    <path class="cls-5" d="M38.38,90.03c-.2-.32.41-1.32.51-1.67.35-1.26-.48-1.88-.34-2.94.09-.69.78-1.03.78-1.74,0-.81-.75-1.54-.99-2.31-.43-1.43.22-2.78,1.2-3.8l.11.28c-.5.86-1.01,1.67-.94,2.71.1,1.4,1.51,2.12,1.18,3.69-.09.42-.51.79-.62,1.12-.2.67.52,1.76.48,2.64-.02.42-.64,1.98-1.04,2.09-.08.02-.31-.01-.34-.06Z"/>
    <path class="cls-5" d="M35.48,78.79c.18-.04.36-.02.37.2-.41.4-1.22,1.21-1.13,1.82.05.31.91,1.12,1.11,1.58.31.68.34,1.27.08,1.96-.18.47-.54.78-.58,1.33-.05.63.35,1.1.23,1.88-.04.26-.5,1.34-.8,1.28-.33-.07.14-.85.18-1.03.19-.95-.42-1.52-.3-2.47.1-.79.76-1.19.69-2.09-.09-1.03-1.37-1.75-1.31-2.6.04-.52.93-1.74,1.45-1.85Z"/>
    <path class="cls-5" d="M43.31,79.73l-.63,1.23c-.22.85-.37,1.66-.02,2.5.29.7.98,1.16.91,2.03-.04.5-.47,1.01-.52,1.56-.12,1.27.64,1.67-.36,3.1-.1.15-.53.76-.67.27-.04-.13.58-1.31.59-1.73.03-.83-.42-1.14-.12-2.2.22-.77.63-.8.29-1.68-.62-1.57-1.22-1.72-.64-3.7.14-.48.58-1.44,1.17-1.39Z"/>
    <path class="cls-3" d="M86.7,114.24c.71-.2.11.71.02.98-.53,1.67-.17,3.96,1.13,5.2-.41.44-1.04-.27-1.28-.62-.48-.71-.9-2.34-.89-3.2.01-.52.48-2.22,1.02-2.37Z"/>
    <path class="cls-5" d="M25.41,95.42c.27-.01-.04.7-.05.82-.05.94.99,1.58.96,2.34-.02.58-.51.83-.6,1.23-.06.27,0,1.41-.41,1.42-.25,0-.32-1.02-.3-1.25.05-.56.69-1.09.69-1.48,0-.37-.53-.92-.64-1.36-.08-.32-.09-1.7.33-1.72Z"/>
    <path class="cls-5" d="M32.39,83.02c-.05.59-.35,1.07-.25,1.69.09.55.71,1.28.68,1.91-.02.48-.6.84-.69,1.31l.35.34c0,.19-.88.29-.92-.36s.63-.95.67-1.37c.06-.68-.63-1.34-.53-2.34.02-.17.39-1.48.69-1.17Z"/>
    <path class="cls-5" d="M46.25,87.18c-.1.49-.59,1-.59,1.52,0,.41.34.9.39,1.32s-.05,1.6-.7,1.4l-.14-.2c.68-.78-.13-1.81.01-2.68.04-.26.72-1.65,1.02-1.36Z"/>
    <path class="cls-5" d="M23.53,102.25h-.32c-.17-.42.05-.84-.02-1.32-.05-.34-.32-.71-.33-1.06-.02-.66.83-1.19.51-1.94.49-.04.46.59.37.94-.07.28-.35.6-.37.85-.04.41.3.73.35,1.12.06.45.03,1.02-.19,1.42Z"/>
    <path class="cls-5" d="M49.2,97.32c.03.35-.2.54-.18.91.03.46.44.54.35,1.21-.02.11-.34,1.02-.51.83-.09-.35.11-.78.09-1.08-.01-.25-.2-.34-.25-.54-.1-.42-.01-1.22.5-1.33Z"/>
    <path class="cls-5" d="M50.76,98.1c-.25.59.14.85.23,1.3.07.39-.21.97-.66.96-.06-.28.17-.48.18-.74.02-.43-.59-1.44.25-1.52Z"/>
    <path class="cls-5" d="M21.38,100.53c-.15.97.95,2.17-.04,2.95-.04-.39.09-.77.04-1.17-.03-.32-.21-.58-.25-.87-.04-.26-.11-.93.25-.9Z"/>
    <path class="cls-5" d="M55.27,101.31c.06-.37.47-.59.57-.95.13-.48-.17-1.13.3-1.39.06.04.19,1.32.14,1.48-.06.19-.86,1-1,.86Z"/>
    <path class="cls-5" d="M52.58,98.54c.08.24-.17.47-.17.65,0,.41.82,1.03-.22,1.34-.28-.18.12-.35.12-.56.01-.33-.73-1.11.26-1.43Z"/>
    <path class="cls-5" d="M61.33,100.97c.04.17-.17.23-.17.39-.01.41.93,1.37-.13,1.78-.26-.16.06-.32.11-.5.15-.61-.55-1.45.19-1.67Z"/>
    <path class="cls-5" d="M54.14,98.8c-.34.67.89,1.56-.26,1.82,0-.22.18-.32.18-.56,0-.36-.61-1.04.08-1.26Z"/>
    <path class="cls-5" d="M58.04,100.1c-.31.55.54,1.51-.26,1.73.15-.53-.42-1.53.26-1.73Z"/>
    <path class="cls-5" d="M59.86,100.53c-.32.56.58,1.41-.35,1.56.28-.47-.38-1.55.35-1.56Z"/>
    <path class="cls-5" d="M31.69,96.02c-.07.48-.38.92-.35,1.43.05.96,1.12,1.37.34,2.59-.13.2-.4.36-.47.57-.1.33-.01.73-.03,1.07-.49.37-.64-.55-.6-.93.07-.77.84-1.04.85-1.57,0-.48-.49-1.06-.48-1.71,0-.44.25-1.35.76-1.45Z"/>
    <path class="cls-5" d="M33.6,94.72c-.09.39-.41.69-.52,1.08-.27.95.19,1,.44,1.73.31.91.09,1.4-.65,1.95-.33-.25.12-.55.23-.81.49-1.09-.92-1.67-.27-3.13.06-.13.61-1,.77-.83Z"/>
    <path class="cls-5" d="M35.85,98.62s-.16.03-.24.14c-.31.41-.43.84-.34,1.36s.47.79.42,1.41c-.02.2-.33.96-.57.91-.3-.07.15-.88.13-1.16-.04-.62-.49-.86-.32-1.81.05-.27.53-1.12.8-1.1.05,0,.18.18.13.25Z"/>
    <path class="cls-5" d="M36.63,105.39c-.15.03-.18-.03-.24-.15-.1-.2-.29-1.05-.29-1.28,0-.98,1.07-1.37.85-2.41-.06-.3-.62-.83-.24-1.02,0,.37.39.62.48.95.31,1.16-.65,1.48-.73,2.31-.05.52.28,1.05.17,1.59Z"/>
    <path class="cls-3" d="M31.87,105.82c.09.09.21,1.03.21,1.22-.02.79-.47,1.21-.55,1.86-.04.35.09.65.04.99-.89-.85.02-1.89.04-2.86l-.57.86-.13.44c-.22.14-.46-.62-.56-.35-.08.22-.03.46-.04.69-.21.26-.31-.69-.3-.79.03-.31.23-.69.43-.94l.3.65c.4-.51.66-1.09.95-1.65.03-.07.03-.27.18-.12Z"/>
    <path class="cls-3" d="M51.63,109.89l.61-.43c.02.37.02.74-.22,1.04-.18.22-.52.24-.47.61l-.22-.08c-.18-.27.35-.66.31-.69l-.43.09.04-.87c-.53.42-.54,1.07-.48,1.69l-.17.04c-.61-.97-.03-1.8.82-2.34.25.25.22.63.22.95Z"/>
    <path class="cls-3" d="M34.73,108.85c-.12.04-.25.32-.3.43-.15.34-.18.47-.14.83.04.31-.25.08-.26-.35,0-.7.43-.96.79-1.48.2-.15.27.74.22.91-.04.14-.38.78-.57.48l.26-.82Z"/>
    <path class="cls-3" d="M37.82,21.77c.59-.02,1,.28,1.07.88-.17,1.62.22,5.22-.76,6.53-.29.38-1.27.63-1.74.69-1.62.2-1.45-1.28-1.3-2.42s.71-4.27,1.29-5.12c.06-.09.2-.28.28-.32.11-.06.98-.22,1.15-.22ZM38.02,22.69h-.64s-.1.17-.1.17c-.39,2.05-1.06,4.05-.99,6.16l1.12-.3c.75-1.89.5-4.02.61-6.02Z"/>
    <path class="cls-3" d="M39.95,54.87c.19-.19.47-.02.59-.07.06-.02.42-.4.61-.51.91-.54,2.85-.68,3.55.25,1.06,1.42-1.04,2.63-2.14,3.06-.71.27-2.02.77-2.54-.02-.22-.34-.33-2.44-.07-2.71ZM40.71,57.02c.28.27,2.67-.94,2.98-1.31.59-.68-.32-.79-.86-.78-.92.02-1.55.5-2.17,1.13l.05.95Z"/>
  </g>
  <path class="cls-3" d="M96.18,11.42c.02.15,0,.19-.09.3-.81.93-1.43,1.22-2,2.5-2.36,5.3-.15,9.21.75,14.27.6,3.37-.39,6.6-1.35,9.8.2.2.86-.8.94-.93.57-.92,1.03-2.25,1.29-3.3.18-.71.22-1.69.41-2.28.05-.15.21-.37.39-.34.13,1.01.75,1.6.93,2.67.53,3.08-.64,6.15-1.97,8.86.06.07.99-.84,1.08-.95.15-.17.93-1.56,1.17-1.3.31,1.81.44,3.49-.42,5.17-1.29,2.54-3.01,4.41-5.33,6.03-1.62,1.14-4.24,2.3-5.56,3.63-.09.09-.09.25-.16.32-.15.15-.5.08-.57-.12-.1-.29.61-2.6.77-3.02,1.06-2.82,3.81-3.83,5.41-6.03.69-.95.87-2.13,1.18-3.24-.08-.14-.15,0-.22.04-.43.29-.9.62-1.3.96-.61.51-1.98,2.28-1.49-.02.19-.88.58-1.72.66-2.64.18-2.06-.81-3.98-1.28-5.98-.68-2.86-.78-5.86,0-8.7-1.23,1.18-2.21,2.64-2.99,4.16-.99,1.93-1.88,4.13-1.34,6.33-.58-.05-.99-.55-1.43-.86l-1.17-1.65c.12.79-.18,1.56-.25,2.31-.21,2.25.07,4.79,1.76,6.45.64.62,1.58.94,1.83,1.9.05.18.16.94.11,1.07-.12.39-.31-.05-.4-.12-.92-.66-2.11-1-3.11-1.54-4.22-2.27-5.27-5.72-4.97-10.37.2-3.07,2.05-6.64.93-9.6-.17-.46-1.06-1.73-1.02-2.01.07-.48.61-.23.92-.14,1.8.56,3.32,1.68,4.13,3.41l1.46,3.01c-.07-2.44-.22-4.97.2-7.39.59-3.42,2.77-5.66,5.44-7.64,1.96-1.45,4.15-2.91,6.66-3Z"/>
</svg>