<svg width="16" height="16" viewBox="0 0 16 16" fill="none" xmlns="http://www.w3.org/2000/svg">
<path d="M10.3867 11.4697C10.6796 11.1771 11.1544 11.1769 11.4473 11.4697C11.7399 11.7626 11.7399 12.2374 11.4473 12.5303L8.44727 15.5303L8.33398 15.623C8.05425 15.8106 7.67449 15.7909 7.41504 15.5576L4.08203 12.5576C3.77415 12.2805 3.74927 11.8059 4.02637 11.498C4.30342 11.1907 4.77722 11.1657 5.08496 11.4424L7.89062 13.9668L10.3867 11.4697Z" fill="black"/>
<path d="M13.2012 3.0791C13.6346 3.07912 14.0128 3.1535 14.3359 3.30176C14.6611 3.45006 14.9141 3.65661 15.0947 3.9209C15.2752 4.18513 15.3683 4.49104 15.374 4.83887H14.1904C14.1676 4.60882 14.0695 4.43012 13.8965 4.30273C13.7235 4.17546 13.4889 4.11133 13.1924 4.11133C12.9909 4.11133 12.8204 4.14023 12.6816 4.19727C12.5431 4.25236 12.4364 4.32902 12.3623 4.42773C12.2901 4.52659 12.2539 4.63919 12.2539 4.76465C12.2501 4.86901 12.272 4.96023 12.3193 5.03809C12.3688 5.11604 12.4369 5.18417 12.5225 5.24121C12.6079 5.29623 12.7064 5.34496 12.8184 5.38672C12.9304 5.42661 13.0505 5.46075 13.1777 5.48926L13.7031 5.61426C13.9578 5.67128 14.1914 5.74776 14.4043 5.84277C14.6172 5.93784 14.8021 6.05457 14.958 6.19336C15.1139 6.33216 15.2348 6.49633 15.3203 6.68457C15.4076 6.8727 15.4522 7.08885 15.4541 7.33203C15.4521 7.68929 15.3612 7.99944 15.1807 8.26172C15.0019 8.52216 14.7427 8.72465 14.4043 8.86914C14.0678 9.01165 13.6617 9.08301 13.1865 9.08301C12.7153 9.08299 12.3048 9.01057 11.9551 8.86621C11.6072 8.72173 11.3345 8.50786 11.1387 8.22461C10.9447 7.9394 10.8435 7.58622 10.834 7.16602H12.0283C12.0416 7.36176 12.0985 7.52509 12.1973 7.65625C12.298 7.78554 12.4323 7.88365 12.5996 7.9502C12.7688 8.01477 12.96 8.04785 13.1729 8.04785C13.3817 8.04781 13.5629 8.01678 13.7168 7.95605C13.8727 7.89522 13.9935 7.81051 14.0791 7.70215C14.1646 7.59387 14.2079 7.46965 14.208 7.3291C14.208 7.19796 14.1687 7.08739 14.0908 6.99805C14.0148 6.90868 13.9022 6.83228 13.7539 6.76953C13.6076 6.70685 13.4276 6.64993 13.2148 6.59863L12.5791 6.43848C12.0868 6.31871 11.6982 6.13163 11.4131 5.87695C11.1279 5.62221 10.9855 5.27916 10.9873 4.84766C10.9854 4.49404 11.0804 4.18517 11.2705 3.9209C11.4625 3.65661 11.7259 3.45006 12.0605 3.30176C12.3951 3.15353 12.7754 3.0791 13.2012 3.0791Z" fill="black"/>
<path fill-rule="evenodd" clip-rule="evenodd" d="M5.8125 9H4.48926L4.05664 7.66797H1.94824L1.51465 9H0.19043L2.20703 3.15918H3.79883L5.8125 9ZM2.26172 6.7041H3.74316L3.02539 4.49414H2.98047L2.26172 6.7041Z" fill="black"/>
<path fill-rule="evenodd" clip-rule="evenodd" d="M8.45215 3.15918C8.88181 3.15918 9.24025 3.22322 9.52734 3.35059C9.81445 3.47798 10.0303 3.6546 10.1748 3.88086C10.3193 4.10518 10.3916 4.36351 10.3916 4.65625C10.3916 4.88432 10.3461 5.08484 10.2549 5.25781C10.1636 5.4289 10.0386 5.57039 9.87891 5.68066C9.72118 5.78898 9.54022 5.86549 9.33691 5.91113V5.96875C9.55913 5.9783 9.76719 6.04044 9.96094 6.15625C10.1568 6.27223 10.3158 6.43538 10.4375 6.64453C10.5591 6.85173 10.6201 7.09875 10.6201 7.38574C10.6201 7.69567 10.5427 7.97245 10.3887 8.21582C10.2366 8.45719 10.0113 8.64841 9.71289 8.78906C9.41442 8.9297 9.04658 8.99999 8.60938 9H6.11426V3.15918H8.45215ZM7.34863 7.99023H8.35547C8.69948 7.99023 8.95057 7.92504 9.1084 7.79395C9.26621 7.66085 9.34473 7.48325 9.34473 7.2627C9.34466 7.10125 9.3064 6.95844 9.22852 6.83496C9.15056 6.71143 9.03899 6.61427 8.89453 6.54395C8.75196 6.47365 8.58145 6.43848 8.38379 6.43848H7.34863V7.99023ZM7.34863 5.60352H8.26465C8.43369 5.60347 8.58376 5.57354 8.71484 5.51465C8.84791 5.45381 8.95228 5.36807 9.02832 5.25781C9.10623 5.14755 9.14551 5.01529 9.14551 4.86133C9.14542 4.65046 9.07002 4.48078 8.91992 4.35156C8.77163 4.22228 8.56087 4.15724 8.28711 4.15723H7.34863V5.60352Z" fill="black"/>
</svg>
