<svg width="16" height="16" viewBox="0 0 16 16" fill="none" xmlns="http://www.w3.org/2000/svg">
    <path
        fill-rule="evenodd"
        clip-rule="evenodd"
        d="M3.34069 10.7519L2.99969 12.9999L5.21569 12.6269L10.7457 7.09694L8.87069 5.22194L3.34069 10.7519Z"
        fill="currentColor"
    />
    <path
        fill-rule="evenodd"
        clip-rule="evenodd"
        d="M12.5131 5.39386C12.5591 5.34786 12.5961 5.29286 12.6211 5.23286C12.6461 5.17186 12.6591 5.10686 12.6591 5.04186C12.6591 4.97586 12.6461 4.91086 12.6211 4.85086C12.5961 4.78986 12.5591 4.73486 12.5131 4.68886L11.3431 3.51886C11.2971 3.47286 11.2421 3.43586 11.1811 3.41086C11.1211 3.38586 11.0561 3.37286 10.9911 3.37286C10.9251 3.37286 10.8601 3.38586 10.8001 3.41086C10.7391 3.43586 10.6841 3.47286 10.6381 3.51886L9.65808 4.37286L11.5981 6.30886L12.5131 5.39386Z"
        fill="currentColor"
    />
</svg>
