<svg width="16" height="16" viewBox="0 0 16 16" fill="none" xmlns="http://www.w3.org/2000/svg">
<path d="M9.4043 11.002C9.78249 11.0404 10.0771 11.3597 10.0771 11.748C10.0771 12.1364 9.78248 12.4557 9.4043 12.4941L9.32715 12.498H6.65918C6.24505 12.498 5.9092 12.1622 5.90918 11.748C5.90918 11.3339 6.24504 10.9981 6.65918 10.998H9.32715L9.4043 11.002ZM10.9277 7.00391C11.3061 7.0421 11.6016 7.36152 11.6016 7.75C11.6016 8.13848 11.3061 8.4579 10.9277 8.49609L10.8516 8.5H5.12109C4.70696 8.49991 4.37109 8.16416 4.37109 7.75C4.37109 7.33584 4.70696 7.00009 5.12109 7H10.8516L10.9277 7.00391ZM12.2939 0.298828C12.7082 0.298828 13.0439 0.634615 13.0439 1.04883V2.99316H14.9883L15.0654 2.99707C15.4434 3.03561 15.7381 3.35511 15.7383 3.74316C15.7382 4.13131 15.4434 4.45068 15.0654 4.48926L14.9883 4.49316H13.0439V6.19238C13.0437 6.60635 12.708 6.94238 12.2939 6.94238C11.8801 6.9422 11.5442 6.60624 11.5439 6.19238V4.49316H9.68457C9.27049 4.49305 8.93463 4.15726 8.93457 3.74316C8.93476 3.32919 9.27057 2.99328 9.68457 2.99316H11.5439V1.04883C11.5439 0.634725 11.8799 0.299006 12.2939 0.298828ZM8.25488 3C8.04799 3.18323 7.91706 3.45099 7.91699 3.74902C7.91713 4.04868 8.04988 4.31681 8.25879 4.5H2C1.58579 4.5 1.25 4.16421 1.25 3.75C1.25 3.33579 1.58579 3 2 3H8.25488Z" fill="currentColor"/>
</svg>
