<svg width="16" height="16" viewBox="0 0 16 16" fill="none" xmlns="http://www.w3.org/2000/svg">
<path d="M13.2012 8.07928C13.6346 8.0793 14.0128 8.15365 14.3359 8.30193C14.6609 8.45018 14.9141 8.65595 15.0947 8.9201C15.2754 9.18439 15.3683 9.49109 15.374 9.83904H14.1904C14.1676 9.60898 14.0695 9.4303 13.8965 9.30291C13.7235 9.1756 13.4889 9.1115 13.1924 9.1115C12.9909 9.1115 12.8204 9.1404 12.6816 9.19744C12.543 9.25255 12.4364 9.32917 12.3623 9.42791C12.2901 9.52678 12.2539 9.63933 12.2539 9.76482C12.2501 9.8692 12.272 9.9604 12.3193 10.0383C12.3688 10.1162 12.4369 10.1843 12.5225 10.2414C12.6079 10.2964 12.7064 10.3451 12.8184 10.3869C12.9304 10.4268 13.0505 10.4609 13.1777 10.4894L13.7031 10.6144C13.9578 10.6715 14.1914 10.7479 14.4043 10.8429C14.6173 10.938 14.8021 11.0547 14.958 11.1935C15.1138 11.3323 15.2348 11.4957 15.3203 11.6838C15.4077 11.8719 15.4522 12.088 15.4541 12.3312C15.4522 12.6885 15.3611 12.9986 15.1807 13.2609C15.0019 13.5214 14.7427 13.7248 14.4043 13.8693C14.0678 14.0118 13.6617 14.0832 13.1865 14.0832C12.7153 14.0832 12.3048 14.0107 11.9551 13.8664C11.6071 13.7219 11.3345 13.5071 11.1387 13.2238C10.9449 12.9387 10.8435 12.5862 10.834 12.1662H12.0283C12.0416 12.362 12.0984 12.5252 12.1973 12.6564C12.298 12.7857 12.4323 12.8838 12.5996 12.9504C12.7688 13.0149 12.96 13.047 13.1729 13.047C13.3817 13.047 13.563 13.0169 13.7168 12.9562C13.8727 12.8954 13.9935 12.8106 14.0791 12.7023C14.1647 12.5939 14.208 12.469 14.208 12.3283C14.2079 12.1974 14.1686 12.0875 14.0908 11.9982C14.0148 11.9089 13.9022 11.8324 13.7539 11.7697C13.6076 11.707 13.4276 11.6501 13.2148 11.5988L12.5791 11.4387C12.0869 11.3189 11.6982 11.1318 11.4131 10.8771C11.128 10.6224 10.9855 10.2793 10.9873 9.84783C10.9854 9.49418 11.0804 9.18439 11.2705 8.9201C11.4625 8.65603 11.7261 8.45015 12.0605 8.30193C12.3951 8.15369 12.7754 8.07928 13.2012 8.07928Z" fill="black"/>
<path fill-rule="evenodd" clip-rule="evenodd" d="M5.8125 14.0002H4.48926L4.05664 12.6681H1.94824L1.51465 14.0002H0.19043L2.20703 8.15935H3.79883L5.8125 14.0002ZM2.26172 11.7043H3.74316L3.02539 9.49334H2.98047L2.26172 11.7043Z" fill="black"/>
<path fill-rule="evenodd" clip-rule="evenodd" d="M8.45215 8.15935C8.88165 8.15935 9.24031 8.22251 9.52734 8.34978C9.81445 8.47717 10.0303 8.65477 10.1748 8.88103C10.3192 9.10536 10.3916 9.36368 10.3916 9.65642C10.3916 9.88452 10.3461 10.085 10.2549 10.258C10.1637 10.4289 10.0384 10.5696 9.87891 10.6799C9.72117 10.7882 9.54024 10.8657 9.33691 10.9113V10.9679C9.55917 10.9775 9.76716 11.0406 9.96094 11.1564C10.1568 11.2724 10.3158 11.4356 10.4375 11.6447C10.5591 11.8519 10.6201 12.099 10.6201 12.3859C10.6201 12.6958 10.5427 12.9727 10.3887 13.216C10.2366 13.4573 10.0113 13.6486 9.71289 13.7892C9.41443 13.9299 9.04655 14.0002 8.60938 14.0002H6.11426V8.15935H8.45215ZM7.34863 12.9904H8.35547C8.69943 12.9904 8.95057 12.9252 9.1084 12.7941C9.26621 12.661 9.34473 12.4834 9.34473 12.2629C9.34468 12.1014 9.30643 11.9587 9.22852 11.8351C9.15056 11.7116 9.03903 11.6145 8.89453 11.5441C8.75195 11.4738 8.58148 11.4387 8.38379 11.4387H7.34863V12.9904ZM7.34863 10.6037H8.26465C8.43369 10.6036 8.58376 10.5737 8.71484 10.5148C8.84793 10.454 8.95227 10.3683 9.02832 10.258C9.10628 10.1477 9.14551 10.0155 9.14551 9.8615C9.14546 9.65055 9.07008 9.48001 8.91992 9.35076C8.77165 9.22169 8.56064 9.15741 8.28711 9.1574H7.34863V10.6037Z" fill="black"/>
<path d="M7.16602 0.377127C7.44584 0.189493 7.82551 0.20905 8.08496 0.442557L11.418 3.44256C11.7257 3.71966 11.7507 4.19428 11.4736 4.50213C11.1966 4.80961 10.7228 4.83441 10.415 4.55779L7.60938 2.03338L5.11328 4.53045C4.82042 4.82326 4.34562 4.82322 4.05273 4.53045C3.75986 4.23757 3.75989 3.7628 4.05273 3.4699L7.05273 0.4699L7.16602 0.377127Z" fill="black"/>
</svg>
