<svg width="16" height="16" viewBox="0 0 16 16" fill="none" xmlns="http://www.w3.org/2000/svg">
<path fill-rule="evenodd" clip-rule="evenodd" d="M3.47902 10.521C3.33857 10.3804 3.25968 10.1897 3.25968 9.99099C3.25968 9.79224 3.33857 9.60161 3.47902 9.46099L7.47902 5.46099C7.61965 5.32054 7.81027 5.24165 8.00902 5.24165C8.20777 5.24165 8.3984 5.32054 8.53902 5.46099L12.539 9.46099C12.6715 9.60316 12.7436 9.79121 12.7402 9.98551C12.7368 10.1798 12.6581 10.3652 12.5206 10.5026C12.3832 10.64 12.1978 10.7187 12.0035 10.7222C11.8092 10.7256 11.6212 10.6535 11.479 10.521L8.00902 7.05099L4.53902 10.521C4.3984 10.6614 4.20777 10.7403 4.00902 10.7403C3.81027 10.7403 3.61965 10.6614 3.47902 10.521Z" fill="currentColor"/>
</svg>
