<svg width="16" height="16" viewBox="0 0 16 16" fill="none" xmlns="http://www.w3.org/2000/svg"><path d="M8.49158 3.12305H7.50623C6.93834 3.12323 6.44152 3.5064 6.29724 4.05566L5.87439 5.66797H7.48083V7.16797H5.48083L4.06775 12.5527C3.77958 13.6508 2.787 14.417 1.65173 14.417V12.917C2.10521 12.917 2.50147 12.6105 2.61658 12.1719L3.93005 7.16797H2.42419V5.66797H4.32361L4.84607 3.6748C5.16341 2.46608 6.25655 1.62323 7.50623 1.62305H8.49158V3.12305ZM10.6781 7.5293L12.4115 5.91211H14.6097L14.5648 5.9541L11.4808 8.83203L13.4301 12H11.6683L10.3617 9.87598L8.08728 12H5.88904L9.55994 8.57324L7.92224 5.91211H9.68396L10.6781 7.5293Z" fill="currentColor"/></svg>