<svg xmlns="http://www.w3.org/2000/svg" xml:space="preserve" style="fill-rule:evenodd;clip-rule:evenodd;stroke-linejoin:round;stroke-miterlimit:2" viewBox="0 0 32 32"><path d="M384 131.9c-7.753-8.433-110.425-128.473-114.9-133L48-.1C21.5 0 0 21.5 0 48v416c0 26.5 21.5 48 48 48h288c26.5 0 48-21.5 48-48V131.9Zm-35.9 2.1H257V27.9L348.1 134ZM30 479V27h200l1 105c0 13.3-1.3 29 12 29h111l1 318H30Z" style="fill-rule:nonzero" transform="matrix(.06285 0 0 .06285 3.934 -.054)"/><path d="M.05-.728h.08V.012h-.08ZM.13-.728h.29v.08H.13ZM.13-.42h.29v.08H.13ZM.34-.648h.08v.308h-.08Z" style="fill-rule:nonzero" transform="matrix(8.39799 0 0 12.455 7.122 25.977)"/><path d="M.05-.728h.08V.012h-.08ZM.13-.728h.29v.08H.13ZM.13-.068h.29v.08H.13ZM.34-.648h.08v.58h-.08Z" style="fill-rule:nonzero" transform="matrix(8.39799 0 0 12.455 13.339 25.977)"/><path d="M.05-.728h.08V.012h-.08ZM.13-.728h.29v.08H.13ZM.13-.42h.21v.08H.13Z" style="fill-rule:nonzero" transform="matrix(8.39799 0 0 12.455 18.94 25.977)"/></svg>