<svg width="322" height="33" viewBox="0 0 322 33" fill="none" xmlns="http://www.w3.org/2000/svg">
<path fill-rule="evenodd" clip-rule="evenodd" d="M75.9735 10.239H79.3409V6.25921H75.9735V10.239ZM92.8108 10.1992C92.8108 12.3678 92.785 14.1401 92.7534 14.1375C92.7219 14.135 92.5755 13.9807 92.4282 13.7946C92.0766 13.3507 91.3572 12.7968 90.7755 12.5223C89.4467 11.8951 87.2191 11.9121 85.7526 12.5606C84.0123 13.3303 82.69 14.9321 82.1725 16.8974C81.9583 17.7111 81.8748 19.6657 82.0168 20.5456C82.2984 22.2914 83.2878 23.919 84.6217 24.8308C85.5881 25.4912 86.6062 25.8302 87.841 25.9026C89.7765 26.0162 91.0587 25.5452 92.2851 24.2702L92.7925 23.7427L92.84 24.1962C92.866 24.4456 92.8874 24.8864 92.8874 25.1758V25.7018L96.14 25.6605V6.29748L92.8108 6.25623V10.1992ZM28.3734 6.91518C28.2682 6.93355 27.9238 6.98643 27.608 7.03281C26.3912 7.21144 24.8493 7.84085 23.7768 8.59677C22.242 9.67834 21.111 11.3026 20.555 13.2238C20.2972 14.1145 20.1849 15.0547 20.1849 16.3234C20.1849 18.2643 20.4197 19.3505 21.1785 20.9204C22.1354 22.9003 23.6954 24.3224 25.7719 25.1079C27.2362 25.6618 27.6983 25.737 29.6362 25.737C30.9891 25.737 31.4327 25.71 31.8939 25.6C34.0137 25.0942 35.9485 23.8528 37.0006 22.3235C38.0236 20.8366 38.6266 18.9437 38.7454 16.8458C38.791 16.04 38.7796 15.8719 38.6605 15.6021L38.5229 15.2902H30.2102V18.1984H32.5827C34.5926 18.1984 34.9553 18.2152 34.9553 18.3083C34.9553 18.571 34.7131 19.5335 34.5394 19.9609C34.4353 20.2171 34.1979 20.64 34.0118 20.9007C33.062 22.2308 31.7594 22.9137 30.0076 23C28.1341 23.0923 26.6786 22.5753 25.5416 21.4138C24.6627 20.5158 24.0585 19.3445 23.8133 18.0628C23.6858 17.3964 23.6708 15.6224 23.7866 14.9075C24.0052 13.558 24.5834 12.427 25.5534 11.4514C26.1131 10.8885 26.3266 10.7321 26.931 10.4424C27.9821 9.93848 28.5098 9.82644 29.7893 9.83509C30.6674 9.84106 30.993 9.87672 31.5938 10.0329C32.3478 10.2289 33.1172 10.5728 33.5637 10.9132L33.8175 11.1068L34.9221 10.0042C35.5297 9.39777 36.0267 8.88263 36.0267 8.85944C36.0267 8.77249 35.0059 8.15058 34.399 7.86764C32.9023 7.17004 31.8583 6.94533 29.9423 6.90844C29.1846 6.89383 28.4786 6.89689 28.3734 6.91518ZM52.7538 6.95337C51.303 7.15373 49.854 7.69957 48.6769 8.48917C46.3672 10.0386 45.0762 12.5626 44.9244 15.8259C44.7365 19.8633 46.6421 23.3585 49.8279 24.8197C50.6652 25.2038 51.6759 25.5263 52.4777 25.6652C53.4833 25.8395 55.9218 25.7837 56.7726 25.5669C58.1669 25.2118 59.6442 24.4577 60.6341 23.5959C61.872 22.518 62.9715 20.4335 63.3108 18.5212C63.4905 17.5086 63.5431 16.0728 63.4162 15.6432L63.3116 15.2889L54.965 15.3284V18.1602L57.3185 18.1984C58.6129 18.2195 59.6766 18.2631 59.6823 18.2953C59.7155 18.4839 59.5709 19.2538 59.4313 19.6318C58.7582 21.4553 57.3301 22.6418 55.4425 22.9457C53.5997 23.2424 51.6565 22.7188 50.4998 21.614C49.6276 20.7808 49.1459 20.0051 48.7828 18.849C48.2187 17.053 48.3273 14.8618 49.0631 13.198C49.7506 11.6436 51.1587 10.4513 52.847 9.99412C53.6151 9.78618 55.2087 9.77302 56.113 9.96726C56.8862 10.1333 57.7517 10.4904 58.1878 10.8233C58.3734 10.9649 58.5356 11.0808 58.5484 11.0808C58.5954 11.0808 60.7052 8.9375 60.7292 8.86533C60.7545 8.78956 59.931 8.23041 59.3929 7.95795C58.8079 7.66176 57.558 7.23631 56.8428 7.08998C55.9919 6.91587 53.6032 6.83612 52.7538 6.95337ZM7.25481 8.61529C6.94171 9.36096 6.50608 10.3844 6.28666 10.8895C6.06723 11.3946 5.45007 12.8411 4.9151 14.1039C4.38021 15.3667 3.77766 16.7787 3.57622 17.2418C3.1461 18.2301 2.86745 18.8819 2.3164 20.1883C2.09446 20.7145 1.49145 22.1265 0.976455 23.3262C0.461461 24.5258 0.0227719 25.5505 0.0015721 25.6031C-0.0285821 25.6781 0.367633 25.6987 1.83333 25.6987H3.70365L5.16904 22.0634L13.6808 22.0238L13.7961 22.2732C13.8595 22.4104 14.1969 23.2286 14.5458 24.0915L15.1802 25.6605L17.0787 25.681C18.589 25.6973 18.9685 25.6816 18.9346 25.6044C18.7315 25.1419 17.7991 22.9571 17.505 22.2547C17.0802 21.24 16.4849 19.8413 16.0556 18.849C15.4683 17.4913 15.0566 16.531 14.4643 15.1371C14.1334 14.3584 13.2445 12.2672 12.4889 10.4902L11.1151 7.2592L7.82414 7.25958L7.25481 8.61529ZM9.22187 12.1375C8.94153 12.8363 8.38689 14.1894 7.63143 16.0172C6.95342 17.6576 6.40827 19.0232 6.40827 19.0812C6.40827 19.1008 7.76865 19.1168 9.43134 19.1168C11.7991 19.1168 12.4543 19.0961 12.4536 19.0212C12.4529 18.9234 12.3298 18.6134 11.23 15.9407C10.8836 15.0988 10.4532 14.0484 10.2737 13.6064C9.87034 12.6137 9.47298 11.671 9.44688 11.6449C9.43616 11.6341 9.33483 11.8558 9.22187 12.1375ZM65.8303 12.323C65.81 12.3764 65.8022 15.3992 65.813 19.0403L65.8328 25.6605L67.4727 25.6811C68.7337 25.697 69.127 25.6794 69.1744 25.6046C69.2084 25.5512 69.2367 23.8007 69.2374 21.7147C69.2384 18.0575 69.2443 17.9049 69.4003 17.4429C69.5188 17.0921 69.6761 16.8407 69.9876 16.5042C70.692 15.7433 71.4682 15.4659 73.109 15.3884L74.0601 15.3434V13.7861C74.0601 12.5435 74.0396 12.2288 73.9586 12.2288C73.5111 12.2288 72.0723 12.418 71.5863 12.5408C70.8089 12.7371 69.8914 13.2049 69.51 13.5996C69.3436 13.7717 69.1812 13.9126 69.1491 13.9126C69.1169 13.9126 69.0809 13.5423 69.0689 13.0898L69.0472 12.2671L67.4573 12.2464C66.227 12.2304 65.859 12.2477 65.8303 12.323ZM75.9735 25.6987H79.3409V12.2288H75.9735V25.6987ZM88.5243 14.9076C87.633 15.0182 87.071 15.3033 86.4399 15.965C85.9612 16.4668 85.682 16.9674 85.5095 17.6332C85.0742 19.3132 85.4716 20.9614 86.5652 22.0115C87.2699 22.6882 87.8679 22.9545 88.7916 23.0028C89.9679 23.0644 90.8657 22.7415 91.6224 21.9847C92.382 21.2251 92.756 20.2172 92.7573 18.9255C92.759 17.2832 91.9924 15.8935 90.727 15.2451C90.1572 14.9532 89.2623 14.816 88.5243 14.9076Z" fill="#003264"/>
<path d="M139.979 6.70154H128.587L123.225 12.0628H139.979V6.70154Z" fill="#6EB2C5"/>
<path d="M129.927 20.1049V14.7469H120.545L115.178 20.1049H129.927Z" fill="#F09235"/>
<path d="M109.822 25.4727L112.503 22.7854H121.885V28.1467H109.822V25.4727Z" fill="#EA3323"/>
<path d="M128.586 6.70164L125.906 9.38229H108.482V4.021H128.586V6.70164Z" fill="#B6BEBE"/>
<path d="M111.832 17.4242H117.864L123.225 12.0629H111.832V17.4242Z" fill="#B6BEBE"/>
<path d="M105.131 25.458L109.822 25.466L115.178 20.1047L105.131 20.0732V25.458Z" fill="#B6BEBE"/>
<path d="M176.537 21.5349L171.715 16.7124L166.851 21.5761L165.965 20.6899L170.829 15.8262L166.027 11.0242L166.81 10.241L171.612 15.043L176.475 10.1792L177.362 11.0654L172.498 15.9292L177.32 20.7518L176.537 21.5349Z" fill="#003264"/>
<g clip-path="url(#clip0_1497_153)">
<path d="M234.304 24.9347C232.741 24.9347 231.355 24.3293 230.346 23.2703V24.6564H227.145V6.82227H230.498V12.9107C231.48 11.9532 232.816 11.398 234.304 11.398C237.707 11.398 240.48 14.3219 240.48 18.1782C240.48 22.0346 237.708 24.9334 234.304 24.9334V24.9347ZM233.825 14.4735C231.985 14.4735 230.498 16.1366 230.498 18.2045C230.498 20.2725 231.985 21.8591 233.825 21.8591C235.665 21.8591 237.153 20.2712 237.153 18.2045C237.153 16.1379 235.665 14.4735 233.825 14.4735Z" fill="#0076F8"/>
<path d="M249.736 14.6502C248.4 14.4986 247.29 14.6502 246.535 15.4573C245.829 16.188 245.703 17.247 245.703 18.281V24.6577H242.375V11.6749H245.551V12.9608C246.61 11.6499 248.173 11.1711 249.736 11.423V14.649V14.6502Z" fill="#0076F8"/>
<path d="M277.06 24.6565H273.732V17.0691C273.732 16.3134 273.505 14.4986 271.312 14.4986C269.824 14.4986 268.792 15.6078 268.792 17.0691V24.6565H265.464V11.675H268.64V12.9358C269.472 11.9532 270.606 11.3479 271.993 11.3479C275.043 11.3479 277.06 13.6414 277.06 17.0704V24.6577V24.6565Z" fill="#0076F8"/>
<path d="M285.849 24.6313C282.043 25.0349 280.026 22.7414 280.026 19.1871V14.6251H278.463V11.6762H280.026V8.37378H283.354V11.6762H285.697V14.6251H283.354V19.2134C283.354 21.0281 284.186 21.7087 285.849 21.6084V24.6326V24.6313Z" fill="#0076F8"/>
<path d="M299.171 24.6564H295.995V23.472C295.188 24.4045 294.054 24.9597 292.693 24.9597C289.617 24.9597 287.576 22.6662 287.576 19.2635V11.6749H290.903V19.2623C290.903 19.9929 291.155 21.8077 293.323 21.8077C294.811 21.8077 295.844 20.6985 295.844 19.2623V11.6749H299.171V24.6564Z" fill="#0076F8"/>
<path d="M321.328 24.6565H318V17.0691C318 16.3134 317.749 14.4986 315.58 14.4986C314.093 14.4986 313.06 15.6078 313.06 17.0691V24.6565H309.708V17.0691C309.708 16.3134 309.481 14.4986 307.287 14.4986C305.825 14.4986 304.792 15.6078 304.792 17.0691V24.6565H301.44V11.675H304.641V12.9358C305.448 11.9532 306.582 11.3479 307.993 11.3479C309.606 11.3479 310.967 12.0284 311.874 13.1877C312.807 12.0535 314.168 11.3479 315.832 11.3479C319.311 11.3479 321.328 13.6665 321.328 17.0704V24.6577V24.6565Z" fill="#0076F8"/>
<path d="M260.667 11.6749L257.423 20.6083L254.39 11.6749H250.862L255.875 24.8707L253.779 30.6446H257.132L264.221 11.6749H260.667Z" fill="#0076F8"/>
<path d="M223.827 6.82227H214.551V10.5545H223.827V6.82227Z" fill="#0076F8"/>
<path d="M223.827 13.8732H196V17.6054H223.827V13.8732Z" fill="#0076F8"/>
<path d="M223.827 20.9242H205.276V24.6339H223.827V20.9242Z" fill="#0076F8"/>
</g>
<defs>
<clipPath id="clip0_1497_153">
<rect width="125.328" height="23.8223" fill="white" transform="translate(196 6.82227)"/>
</clipPath>
</defs>
</svg>
