<svg width="16" height="16" viewBox="0 0 16 16" fill="none" xmlns="http://www.w3.org/2000/svg">
<path fill-rule="evenodd" clip-rule="evenodd" d="M12.521 5.46098C12.6614 5.6016 12.7403 5.79223 12.7403 5.99098C12.7403 6.18973 12.6614 6.38035 12.521 6.52098L8.52097 10.521C8.38035 10.6614 8.18972 10.7403 7.99097 10.7403C7.79222 10.7403 7.6016 10.6614 7.46097 10.521L3.46097 6.52098C3.32849 6.3788 3.25637 6.19076 3.2598 5.99646C3.26323 5.80215 3.34194 5.61677 3.47935 5.47936C3.61677 5.34194 3.80215 5.26323 3.99645 5.2598C4.19075 5.25637 4.3788 5.3285 4.52097 5.46098L7.99097 8.93098L11.461 5.46098C11.6016 5.32053 11.7922 5.24164 11.991 5.24164C12.1897 5.24164 12.3803 5.32053 12.521 5.46098Z" fill="currentColor"/>
</svg>
