<svg width="16" height="16" viewBox="0 0 16 16" fill="none" xmlns="http://www.w3.org/2000/svg">
<path d="M0 13C0 13.5304 0.210714 14.0391 0.585786 14.4142C0.960859 14.7893 1.46957 15 2 15H7C7.53043 15 8.03914 14.7893 8.41421 14.4142C8.78929 14.0391 9 13.5304 9 13V7.5H12.94L12.22 8.22C12.0875 8.36218 12.0154 8.55022 12.0188 8.74452C12.0223 8.93882 12.101 9.12421 12.2384 9.26162C12.3758 9.39903 12.5612 9.47775 12.7555 9.48118C12.9498 9.4846 13.1378 9.41248 13.28 9.28L15.28 7.28C15.4205 7.13937 15.4993 6.94875 15.4993 6.75C15.4993 6.55125 15.4205 6.36063 15.28 6.22L13.28 4.22C13.2113 4.14631 13.1285 4.08721 13.0365 4.04622C12.9445 4.00523 12.8452 3.98319 12.7445 3.98141C12.6438 3.97963 12.5438 3.99816 12.4504 4.03588C12.357 4.0736 12.2722 4.12974 12.201 4.20096C12.1297 4.27218 12.0736 4.35701 12.0359 4.4504C11.9982 4.54379 11.9796 4.64382 11.9814 4.74452C11.9832 4.84523 12.0052 4.94454 12.0462 5.03654C12.0872 5.12854 12.1463 5.21134 12.22 5.28L12.94 6H9V3C9 2.46957 8.78929 1.96086 8.41421 1.58579C8.03914 1.21071 7.53043 1 7 1H2C1.46957 1 0.960859 1.21071 0.585786 1.58579C0.210714 1.96086 0 2.46957 0 3L0 13ZM2 2.5H3.75V6H1.5V3C1.5 2.86739 1.55268 2.74021 1.64645 2.64645C1.74021 2.55268 1.86739 2.5 2 2.5ZM7 2.5C7.13261 2.5 7.25979 2.55268 7.35355 2.64645C7.44732 2.74021 7.5 2.86739 7.5 3V6L5.25 5.99V2.5H7ZM2 13.5C1.86739 13.5 1.74021 13.4473 1.64645 13.3536C1.55268 13.2598 1.5 13.1326 1.5 13V7.51L3.75 7.5V13.5H2ZM5.25 7.5H7.5V13C7.5 13.1326 7.44732 13.2598 7.35355 13.3536C7.25979 13.4473 7.13261 13.5 7 13.5H5.25V7.5Z" fill="currentColor"/>
</svg>
