<svg width="16" height="16" viewBox="0 0 16 16" fill="none" xmlns="http://www.w3.org/2000/svg">
<path d="M3.5 10.6262V12.5012H5.375L10.905 6.97122L9.03 5.09622L3.5 10.6262ZM12.355 5.52122C12.4014 5.47497 12.4381 5.42002 12.4632 5.35953C12.4883 5.29905 12.5012 5.23421 12.5012 5.16872C12.5012 5.10324 12.4883 5.0384 12.4632 4.97791C12.4381 4.91742 12.4014 4.86248 12.355 4.81622L11.185 3.64622C11.1387 3.59987 11.0838 3.5631 11.0233 3.53801C10.9628 3.51291 10.898 3.5 10.8325 3.5C10.767 3.5 10.7022 3.51291 10.6417 3.53801C10.5812 3.5631 10.5263 3.59987 10.48 3.64622L9.565 4.56122L11.44 6.43622L12.355 5.52122Z" fill="currentColor"/>
</svg>
