<svg width="32" height="32" viewBox="0 0 32 32" fill="none" xmlns="http://www.w3.org/2000/svg">
<path d="M19.5498 1.11621L27.916 9.48242V28.667C27.9158 30.0936 26.7596 31.25 25.333 31.25H6.66602C5.23965 31.2497 4.08318 30.0934 4.08301 28.667V3.33301C4.08318 1.90661 5.23965 0.750307 6.66602 0.75H19.1846L19.5498 1.11621ZM6.66602 3.25C6.62036 3.2503 6.58318 3.28732 6.58301 3.33301V28.667C6.58318 28.7127 6.62036 28.7497 6.66602 28.75H25.333C25.3789 28.75 25.4158 28.7129 25.416 28.667V13.25H14.75V3.25H6.66602ZM17.25 10.75H25.416V10.5176L18.1484 3.25H17.25V10.75Z" fill="currentColor"/>
</svg>
