<svg width="16" height="16" viewBox="0 0 16 16" fill="none" xmlns="http://www.w3.org/2000/svg">
<path d="M8 11C7.80109 11 7.61032 11.079 7.46967 11.2197C7.32902 11.3603 7.25 11.5511 7.25 11.75V15.083C7.25 15.2819 7.32902 15.4727 7.46967 15.6133C7.61032 15.754 7.80109 15.833 8 15.833C8.19891 15.833 8.38968 15.754 8.53033 15.6133C8.67098 15.4727 8.75 15.2819 8.75 15.083V11.75C8.75 11.5511 8.67098 11.3603 8.53033 11.2197C8.38968 11.079 8.19891 11 8 11Z" fill="currentColor"/>
<path d="M13.11 1.436C13.2202 1.27403 13.2626 1.07537 13.2282 0.882523C13.1938 0.689672 13.0853 0.51793 12.926 0.40402C12.7666 0.29011 12.569 0.243074 12.3754 0.27297C12.1818 0.302867 12.0076 0.407322 11.89 0.564L1.89 14.564C1.83 14.6439 1.78659 14.7351 1.76231 14.8321C1.73804 14.929 1.73339 15.0299 1.74865 15.1286C1.7639 15.2274 1.79875 15.3222 1.85115 15.4073C1.90354 15.4924 1.97242 15.5662 2.05374 15.6243C2.13507 15.6825 2.22719 15.7238 2.32469 15.7458C2.4222 15.7678 2.52312 15.7701 2.62152 15.7525C2.71993 15.735 2.81384 15.6979 2.89772 15.6436C2.98161 15.5892 3.05378 15.5187 3.11 15.436L5.207 12.5H12.583C12.7819 12.5 12.9727 12.421 13.1133 12.2803C13.254 12.1397 13.333 11.9489 13.333 11.75V10.576C13.3332 10.1889 13.2254 9.80951 13.0217 9.48039C12.818 9.15126 12.5265 8.8855 12.18 8.713L10.995 8.114L10.99 8.112C10.8927 8.06392 10.8109 7.98951 10.7538 7.89723C10.6967 7.80496 10.6666 7.69851 10.667 7.59V5.165C11.0066 5.15521 11.3387 5.06251 11.6342 4.89496C11.9298 4.72742 12.1799 4.49012 12.3627 4.20376C12.5455 3.91739 12.6555 3.59066 12.6831 3.25204C12.7107 2.91341 12.655 2.57318 12.521 2.261L13.11 1.436ZM9.167 6.956V7.59C9.16681 7.97706 9.27463 8.35649 9.47833 8.68561C9.68202 9.01474 9.97351 9.2805 10.32 9.453L11.505 10.053L11.51 10.055C11.6073 10.1031 11.6891 10.1775 11.7462 10.2698C11.8033 10.362 11.8334 10.4685 11.833 10.577V11H6.28L9.167 6.956ZM9.277 1H5.25C4.70898 1.00669 4.19177 1.22353 3.80774 1.60467C3.42371 1.98581 3.20297 2.50137 3.19219 3.04232C3.18141 3.58327 3.38144 4.10721 3.74998 4.50335C4.11852 4.89948 4.62668 5.13676 5.167 5.165V6.841L6.667 4.709V4.417C6.667 4.21809 6.58798 4.02732 6.44733 3.88667C6.30668 3.74602 6.11591 3.667 5.917 3.667H5.25C5.09525 3.667 4.94683 3.60552 4.8374 3.4961C4.72798 3.38667 4.6665 3.23825 4.6665 3.0835C4.6665 2.92875 4.72798 2.78033 4.8374 2.6709C4.94683 2.56148 5.09525 2.5 5.25 2.5H8.222L9.277 1Z" fill="currentColor"/>
</svg>
